<svg width="66" height="66" viewBox="0 0 66 66" fill="none" xmlns="http://www.w3.org/2000/svg">
<rect x="18.0034" y="18.9614" width="34.2665" height="29.9548" fill="#C4C4C4"/>
<path d="M18.936 14.2783V47.2676" stroke="black" stroke-width="2"/>
<rect x="1.49268" y="1.61462" width="63" height="63" rx="3" fill="#FFF480" stroke="black" stroke-width="2"/>
<path d="M15.5718 17.188C15.5718 14.8847 17.439 13.0175 19.7423 13.0175H43.2721V17.188V21.3585H19.7423C17.439 21.3585 15.5718 19.4913 15.5718 17.188Z" fill="#FFF480" stroke="black" stroke-width="2"/>
<path d="M40.7596 15.7633C40.4258 14.4951 41.3823 13.2542 42.6937 13.2542H45.6214C47.2783 13.2542 48.6214 14.5973 48.6214 16.2542V24.6206L42.1184 20.9253L40.7596 15.7633Z" fill="#FFF480"/>
<path d="M19.73 49.0411L19.73 21.1477" stroke="black" stroke-width="2"/>
<path d="M15.5718 49.0411C15.5718 51.3445 17.439 53.2117 19.7423 53.2117L43.2721 53.2117L43.2721 49.0411L43.2721 44.8706L19.7423 44.8706C17.439 44.8706 15.5718 46.7378 15.5718 49.0411Z" fill="#FFF480" stroke="black" stroke-width="2"/>
<path d="M40.7596 50.466C40.4258 51.7342 41.3823 52.9751 42.6937 52.9751L45.6214 52.9751C47.2783 52.9751 48.6214 51.632 48.6214 49.9751L48.6214 41.6087L42.1184 45.3039L40.7596 50.466Z" fill="#FFF480"/>
<path d="M44.6212 44.888C42.1396 44.888 40.1279 46.7512 40.1279 49.0495C40.1279 51.3479 42.1396 53.2111 44.6212 53.2111C47.1028 53.2111 49.1145 51.3479 49.1145 49.0495L49.1145 23.1669" stroke="black" stroke-width="2" stroke-linecap="round"/>
<path d="M44.6212 21.3096C42.1396 21.3096 40.1279 19.4464 40.1279 17.1481C40.1279 14.8498 42.1396 12.9866 44.6212 12.9866C47.1028 12.9866 49.1145 14.8498 49.1145 17.1481L49.1145 43.0307" stroke="black" stroke-width="2" stroke-linecap="round"/>
<path d="M23.8818 25.8979C23.3296 25.8979 22.8818 26.3457 22.8818 26.8979C22.8818 27.4502 23.3296 27.8979 23.8818 27.8979V25.8979ZM43.3218 27.8979C43.8741 27.8979 44.3218 27.4502 44.3218 26.8979C44.3218 26.3457 43.8741 25.8979 43.3218 25.8979V27.8979ZM23.8818 27.8979H43.3218V25.8979H23.8818V27.8979Z" fill="black"/>
<path d="M23.8818 31.5435C23.3296 31.5435 22.8818 31.9912 22.8818 32.5435C22.8818 33.0957 23.3296 33.5435 23.8818 33.5435V31.5435ZM43.3218 33.5435C43.8741 33.5435 44.3218 33.0957 44.3218 32.5435C44.3218 31.9912 43.8741 31.5435 43.3218 31.5435V33.5435ZM23.8818 33.5435H43.3218V31.5435H23.8818V33.5435Z" fill="black"/>
<path d="M23.8818 37.1891C23.3296 37.1891 22.8818 37.6368 22.8818 38.1891C22.8818 38.7414 23.3296 39.1891 23.8818 39.1891V37.1891ZM43.3218 39.1891C43.8741 39.1891 44.3218 38.7414 44.3218 38.1891C44.3218 37.6368 43.8741 37.1891 43.3218 37.1891V39.1891ZM23.8818 39.1891H43.3218V37.1891H23.8818V39.1891Z" fill="black"/>
</svg>
