<svg width="444" height="82" viewBox="0 0 444 82" fill="none" xmlns="http://www.w3.org/2000/svg">
<path d="M442.261 9.29412C442.261 8.23254 440.825 7.9024 440.362 8.8574L440.065 9.46946C436.887 16.0157 430.249 20.1718 422.972 20.1718H4.31357C2.65671 20.1718 1.31357 21.5149 1.31357 23.1718V77.5799C1.31357 79.2367 2.65671 80.5799 4.31357 80.5799H439.261C440.918 80.5799 442.261 79.2367 442.261 77.5799V35.9718V9.29412Z" fill="#FFF6E9" stroke="black" stroke-width="2"/>
<path d="M32.9504 47.3303V41.1023H31.4744V55.1963H32.9504V48.7523H40.9784V55.1963H42.4544V41.1023H40.9784V47.3303H32.9504ZM46.7226 50.8223H54.4986C54.5166 50.6783 54.5166 50.5163 54.5166 50.3543C54.5166 47.5463 52.9506 45.4223 49.9806 45.4223C47.2806 45.4223 45.3006 47.7623 45.3006 50.3723C45.3006 53.1443 47.3886 55.3583 50.1786 55.3583C52.0866 55.3583 53.8146 54.3143 54.3906 52.4603L53.1306 52.0643C52.6806 53.4143 51.5826 54.1163 50.1606 54.1163C48.2886 54.1163 46.8306 52.6943 46.7226 50.8223ZM53.0946 49.6343H46.7406C46.9746 48.0323 48.3066 46.6463 49.9806 46.6463C51.8166 46.6463 52.9146 47.8883 53.0946 49.6343ZM63.7629 46.8263V45.5843H55.5189V46.8263H58.9209V55.1963H60.3429V46.8263H63.7629ZM71.5941 49.6343V45.5843H70.1901V55.1963H71.5941V50.8763H77.1201V55.1963H78.5241V45.5843H77.1201V49.6343H71.5941ZM81.6862 55.1963H83.1082L88.7242 47.5823V55.1963H90.1282V45.5843H88.7242L83.0902 53.2703V45.5843H81.6862V55.1963ZM94.025 49.0403V45.5843H92.639V49.2383C92.639 51.2003 94.025 52.1003 95.807 52.1003C96.941 52.1003 98.291 51.6323 98.975 51.2363V55.1963H100.379V45.5843H98.975V49.9583C98.219 50.4983 97.049 50.8763 95.987 50.8763C94.817 50.8763 94.025 50.2643 94.025 49.0403ZM104.273 50.8223H112.049C112.067 50.6783 112.067 50.5163 112.067 50.3543C112.067 47.5463 110.501 45.4223 107.531 45.4223C104.831 45.4223 102.851 47.7623 102.851 50.3723C102.851 53.1443 104.939 55.3583 107.729 55.3583C109.637 55.3583 111.365 54.3143 111.941 52.4603L110.681 52.0643C110.231 53.4143 109.133 54.1163 107.711 54.1163C105.839 54.1163 104.381 52.6943 104.273 50.8223ZM110.645 49.6343H104.291C104.525 48.0323 105.857 46.6463 107.531 46.6463C109.367 46.6463 110.465 47.8883 110.645 49.6343ZM115.891 46.8263H120.931V45.5843H114.487V55.1963H115.891V46.8263ZM126.715 55.3583C129.523 55.3583 131.701 53.1983 131.701 50.3543C131.701 47.6003 129.523 45.4223 126.751 45.4223C123.907 45.4223 121.765 47.5823 121.765 50.4263C121.765 53.1623 123.925 55.3583 126.715 55.3583ZM126.751 54.1163C124.645 54.1163 123.205 52.3703 123.205 50.3543C123.205 48.3383 124.627 46.6463 126.715 46.6463C128.803 46.6463 130.261 48.4103 130.261 50.4263C130.261 52.4243 128.803 54.1163 126.751 54.1163ZM142.586 49.3103L139.742 45.5843H138.086L141.74 50.3183L137.96 55.1963H139.58L142.568 51.2903L145.538 55.1963H147.212L143.414 50.3003L147.05 45.5843H145.43L142.586 49.3103ZM157.9 45.5843H156.388L153.058 53.0183L149.53 45.5843H147.91L152.284 54.5483L149.8 59.9303H151.312L157.9 45.5843ZM172.691 55.1963L167.993 50.2463L172.583 45.5843H170.783L166.409 50.0123H166.265V45.5843H164.879V50.0123H164.735L160.361 45.5843H158.561L163.151 50.2463L158.453 55.1963H160.361L164.735 50.5343H164.879V55.1963H166.265V50.5343H166.409L170.783 55.1963H172.691ZM174.603 50.8223H182.379C182.398 50.6783 182.398 50.5163 182.398 50.3543C182.398 47.5463 180.832 45.4223 177.861 45.4223C175.161 45.4223 173.181 47.7623 173.181 50.3723C173.181 53.1443 175.269 55.3583 178.059 55.3583C179.968 55.3583 181.695 54.3143 182.271 52.4603L181.012 52.0643C180.561 53.4143 179.464 54.1163 178.041 54.1163C176.169 54.1163 174.711 52.6943 174.603 50.8223ZM180.975 49.6343H174.621C174.855 48.0323 176.187 46.6463 177.861 46.6463C179.697 46.6463 180.796 47.8883 180.975 49.6343ZM193.588 45.4223C191.392 45.4223 189.448 46.8623 189.052 48.4643L190.294 48.8783C190.51 48.1223 191.5 46.6463 193.552 46.6463C195.316 46.6463 196.648 47.9243 196.936 49.6163H192.418V50.8403H196.99C196.81 52.6583 195.568 54.1343 193.552 54.1343C191.428 54.1343 190.528 52.5503 190.258 51.8303L188.998 52.2443C189.412 53.6843 190.924 55.3583 193.516 55.3583C196.342 55.3583 198.412 53.2523 198.412 50.3363C198.412 47.4383 196.252 45.4223 193.588 45.4223ZM207.587 46.8263V45.5843H199.343V46.8263H202.745V55.1963H204.167V46.8263H207.587ZM213.428 55.3583C216.236 55.3583 218.414 53.1983 218.414 50.3543C218.414 47.6003 216.236 45.4223 213.464 45.4223C210.62 45.4223 208.478 47.5823 208.478 50.4263C208.478 53.1623 210.638 55.3583 213.428 55.3583ZM213.464 54.1163C211.358 54.1163 209.918 52.3703 209.918 50.3543C209.918 48.3383 211.34 46.6463 213.428 46.6463C215.516 46.6463 216.974 48.4103 216.974 50.4263C216.974 52.4243 215.516 54.1163 213.464 54.1163ZM225.117 43.9823C226.611 43.9823 227.745 42.9203 228.033 41.4083L227.025 41.2283C226.755 42.1643 226.197 42.8483 225.117 42.8483C224.037 42.8483 223.461 42.1643 223.191 41.2283L222.201 41.4083C222.471 42.9203 223.605 43.9823 225.117 43.9823ZM220.887 55.1963H222.309L227.925 47.5823V55.1963H229.329V45.5843H227.907L222.291 53.2703V45.5843H220.887V55.1963ZM238.289 50.3363C238.289 48.3383 239.711 46.6643 241.763 46.6643C243.761 46.6643 244.715 48.1583 244.931 48.8963L246.227 48.4823C245.831 46.8623 244.049 45.4223 241.817 45.4223C239.099 45.4223 236.849 47.5103 236.849 50.4263C236.849 53.3063 238.973 55.3583 241.745 55.3583C244.265 55.3583 245.849 53.6843 246.281 52.2443L244.967 51.8123C244.697 52.5323 243.887 54.1163 241.763 54.1163C239.585 54.1163 238.289 52.3343 238.289 50.3363ZM248.626 55.1963H250.048L255.664 47.5823V55.1963H257.068V45.5843H255.664L250.03 53.2703V45.5843H248.626V55.1963ZM267.282 46.8263V45.5843H259.038V46.8263H262.44V55.1963H263.862V46.8263H267.282ZM277.994 45.5843H276.482L273.152 53.0183L269.624 45.5843H268.004L272.378 54.5483L269.894 59.9303H271.406L277.994 45.5843ZM285.289 49.6523H282.625C280.915 49.6523 278.827 50.3363 278.827 52.4243V52.5323C278.827 54.1523 280.105 55.3583 282.049 55.3583C283.489 55.3583 284.533 54.6923 285.289 53.5043H285.307V55.1963H286.675V48.9863C286.675 48.6803 286.603 47.9243 286.387 47.4023C285.919 46.3403 284.911 45.4223 282.877 45.4223C280.123 45.4223 279.043 47.5283 278.971 48.3383L280.321 48.6263C280.483 47.7083 281.221 46.6643 282.841 46.6643C284.443 46.6643 285.289 47.4563 285.289 49.0043V49.6523ZM285.289 50.8043V51.1463C285.289 52.9103 284.011 54.1163 282.301 54.1163C281.149 54.1163 280.231 53.5043 280.231 52.4243C280.231 51.1283 281.581 50.8043 282.607 50.8043H285.289ZM291.127 45.5843H289.723V55.1963H297.661V58.1663H299.011V53.9543H297.895V45.5843H296.491V53.9543H291.127V45.5843ZM301.501 55.1963H302.923L308.539 47.5823V55.1963H309.943V45.5843H308.539L302.905 53.2703V45.5843H301.501V55.1963ZM313.137 55.1963H314.559L320.175 47.5823V55.1963H321.579V45.5843H320.175L314.541 53.2703V45.5843H313.137V55.1963ZM324.414 54.0623C324.414 54.7823 324.99 55.3583 325.71 55.3583C326.412 55.3583 326.988 54.7823 326.988 54.0623C326.988 53.3423 326.412 52.7663 325.71 52.7663C324.99 52.7663 324.414 53.3423 324.414 54.0623ZM339.052 41.1023H333.994V55.1963H339.232C341.896 55.1963 344.218 54.0443 344.218 51.3263C344.218 50.2463 343.534 48.4103 341.446 47.8703C343.426 46.9883 343.588 45.2783 343.588 44.6483C343.588 42.3443 341.626 41.1023 339.052 41.1023ZM338.818 47.3663H335.452V42.4523H338.926C340.546 42.4523 342.094 43.1003 342.094 44.8103C342.094 46.1963 341.14 47.3663 338.818 47.3663ZM339.268 53.8463H335.452V48.6803H338.998C340.636 48.6803 342.706 49.2203 342.706 51.2183C342.706 53.2343 340.798 53.8463 339.268 53.8463ZM351.065 55.3583C353.873 55.3583 356.051 53.1983 356.051 50.3543C356.051 47.6003 353.873 45.4223 351.101 45.4223C348.257 45.4223 346.115 47.5823 346.115 50.4263C346.115 53.1623 348.275 55.3583 351.065 55.3583ZM351.101 54.1163C348.995 54.1163 347.555 52.3703 347.555 50.3543C347.555 48.3383 348.977 46.6463 351.065 46.6463C353.153 46.6463 354.611 48.4103 354.611 50.4263C354.611 52.4243 353.153 54.1163 351.101 54.1163ZM362.772 55.3583C365.58 55.3583 367.758 53.1983 367.758 50.3543C367.758 47.6003 365.58 45.4223 362.808 45.4223C359.964 45.4223 357.822 47.5823 357.822 50.4263C357.822 53.1623 359.982 55.3583 362.772 55.3583ZM362.808 54.1163C360.702 54.1163 359.262 52.3703 359.262 50.3543C359.262 48.3383 360.684 46.6463 362.772 46.6463C364.86 46.6463 366.318 48.4103 366.318 50.4263C366.318 52.4243 364.86 54.1163 362.808 54.1163ZM371.203 47.7623H371.185C371.365 45.6563 371.707 43.9463 375.613 42.9203L379.069 42.0203L378.691 40.8503L375.055 41.7503C370.033 43.0283 369.907 46.2683 369.907 49.5983C369.907 53.6303 372.013 55.3583 374.695 55.3583C377.503 55.3583 379.537 53.3783 379.537 50.3003C379.537 47.2943 377.395 45.4763 375.019 45.4763C373.885 45.4763 372.175 45.8183 371.203 47.7623ZM371.347 50.3723C371.347 48.0683 372.769 46.6823 374.731 46.6823C376.657 46.6823 378.133 48.0863 378.133 50.3723C378.133 52.5683 376.729 54.1343 374.713 54.1343C372.715 54.1343 371.347 52.5863 371.347 50.3723ZM383.448 45.5843H382.044V55.1963H395.184V58.1663H396.552V53.9543H395.418V45.5843H393.996V53.9543H389.424V45.5843H388.02V53.9543H383.448V45.5843ZM399.533 50.8223H407.309C407.327 50.6783 407.327 50.5163 407.327 50.3543C407.327 47.5463 405.761 45.4223 402.791 45.4223C400.091 45.4223 398.111 47.7623 398.111 50.3723C398.111 53.1443 400.199 55.3583 402.989 55.3583C404.897 55.3583 406.625 54.3143 407.201 52.4603L405.941 52.0643C405.491 53.4143 404.393 54.1163 402.971 54.1163C401.099 54.1163 399.641 52.6943 399.533 50.8223ZM405.905 49.6343H399.551C399.785 48.0323 401.117 46.6463 402.791 46.6463C404.627 46.6463 405.725 47.8883 405.905 49.6343ZM409.387 54.0623C409.387 54.7823 409.963 55.3583 410.683 55.3583C411.385 55.3583 411.961 54.7823 411.961 54.0623C411.961 53.3423 411.385 52.7663 410.683 52.7663C409.963 52.7663 409.387 53.3423 409.387 54.0623Z" fill="black"/>
</svg>
