<svg width="429" height="82" viewBox="0 0 429 82" fill="none" xmlns="http://www.w3.org/2000/svg">
<path d="M427.312 9.73478C427.312 8.67082 425.871 8.34284 425.41 9.30201L425.197 9.74702C422.034 16.3342 415.375 20.5243 408.068 20.5243H4.73984C3.08298 20.5243 1.73984 21.8675 1.73984 23.5243V77.9447C1.73984 79.6016 3.08298 80.9447 4.73984 80.9447H424.312C425.969 80.9447 427.312 79.6015 427.312 77.9447V36.3243V9.73478Z" fill="#FFF6E9" stroke="black" stroke-width="2"/>
<path d="M43.4082 55.5488L37.3242 41.4548H35.6502L29.5662 55.5488H31.0782L32.6262 51.9488H40.3122L41.8422 55.5488H43.4082ZM36.4602 42.9848L39.7362 50.5988H33.1842L36.4602 42.9848ZM50.2912 50.6888C50.2912 48.6908 51.7132 47.0168 53.7652 47.0168C55.7632 47.0168 56.7172 48.5108 56.9332 49.2488L58.2292 48.8348C57.8332 47.2148 56.0512 45.7748 53.8192 45.7748C51.1012 45.7748 48.8512 47.8628 48.8512 50.7788C48.8512 53.6588 50.9752 55.7108 53.7472 55.7108C56.2672 55.7108 57.8512 54.0368 58.2832 52.5968L56.9692 52.1648C56.6992 52.8848 55.8892 54.4688 53.7652 54.4688C51.5872 54.4688 50.2912 52.6868 50.2912 50.6888ZM65.3435 45.9368H60.6275V55.5488H65.5235C67.2155 55.5488 69.0155 54.8108 69.0155 52.9208C69.0155 51.4988 67.9715 50.8508 66.8915 50.5628C67.6115 50.2388 68.4935 49.6628 68.4935 48.3488C68.4935 46.6028 66.8915 45.9368 65.3435 45.9368ZM65.1275 50.0948H62.0315V47.1608H65.1635C65.9195 47.1608 67.0895 47.3768 67.0895 48.4928C67.0895 49.8428 65.8475 50.0948 65.1275 50.0948ZM65.3795 54.3428H62.0315V51.2288H65.1815C66.3695 51.2288 67.5935 51.5168 67.5935 52.7048C67.5935 54.0368 66.2975 54.3428 65.3795 54.3428ZM72.2107 51.1748H79.9867C80.0047 51.0308 80.0047 50.8688 80.0047 50.7068C80.0047 47.8988 78.4387 45.7748 75.4687 45.7748C72.7687 45.7748 70.7887 48.1148 70.7887 50.7248C70.7887 53.4968 72.8767 55.7108 75.6667 55.7108C77.5747 55.7108 79.3027 54.6668 79.8787 52.8128L78.6187 52.4168C78.1687 53.7668 77.0707 54.4688 75.6487 54.4688C73.7767 54.4688 72.3187 53.0468 72.2107 51.1748ZM78.5827 49.9868H72.2287C72.4627 48.3848 73.7947 46.9988 75.4687 46.9988C77.3047 46.9988 78.4027 48.2408 78.5827 49.9868ZM89.251 47.1788V45.9368H81.007V47.1788H84.409V55.5488H85.831V47.1788H89.251ZM100.394 45.9368H95.6782V55.5488H100.574C102.266 55.5488 104.066 54.8108 104.066 52.9208C104.066 51.4988 103.022 50.8508 101.942 50.5628C102.662 50.2388 103.544 49.6628 103.544 48.3488C103.544 46.6028 101.942 45.9368 100.394 45.9368ZM100.178 50.0948H97.0822V47.1608H100.214C100.97 47.1608 102.14 47.3768 102.14 48.4928C102.14 49.8428 100.898 50.0948 100.178 50.0948ZM100.43 54.3428H97.0822V51.2288H100.232C101.42 51.2288 102.644 51.5168 102.644 52.7048C102.644 54.0368 101.348 54.3428 100.43 54.3428ZM110.988 49.4468H107.946V45.9368H106.542V55.5488H111.168C113.112 55.5488 114.858 54.5408 114.858 52.3628C114.858 50.1848 112.95 49.4468 110.988 49.4468ZM117.054 55.5488V45.9368H118.458V55.5488H117.054ZM111.042 54.3068H107.946V50.6528H110.97C112.176 50.6528 113.436 51.0488 113.436 52.3988C113.436 53.8748 112.194 54.3068 111.042 54.3068ZM123.153 50.1668H123.045V45.9368H121.641V55.5488H123.045V51.0668H123.153L128.049 55.5488H130.011L124.485 50.5988L129.759 45.9368H127.815L123.153 50.1668ZM133.822 51.8048L134.344 47.1788H138.43V55.5488H139.834V45.9368H133.084L132.436 51.5708C132.31 52.6688 131.842 54.3608 130.456 54.3608V55.5848L130.51 55.6028C132.634 55.7108 133.606 53.6408 133.822 51.8048ZM151.261 45.7748C148.705 45.7748 146.779 47.6468 146.509 50.1308H144.403V45.9368H142.999V55.5488H144.403V51.3188H146.491C146.743 53.8388 148.687 55.7108 151.243 55.7108C154.015 55.7108 156.067 53.5328 156.067 50.7608C156.067 47.8988 154.033 45.7748 151.261 45.7748ZM151.261 54.4688C149.281 54.4688 147.895 52.7588 147.895 50.7608C147.895 48.7808 149.173 46.9808 151.243 46.9808C153.277 46.9808 154.609 48.7268 154.609 50.7788C154.609 52.7768 153.295 54.4688 151.261 54.4688ZM159.257 49.3928V45.9368H157.871V49.5908C157.871 51.5528 159.257 52.4528 161.039 52.4528C162.173 52.4528 163.523 51.9848 164.207 51.5888V55.5488H165.611V45.9368H164.207V50.3108C163.451 50.8508 162.281 51.2288 161.219 51.2288C160.049 51.2288 159.257 50.6168 159.257 49.3928ZM168.786 55.5488H170.208L175.824 47.9348V55.5488H177.228V45.9368H175.824L170.19 53.6228V45.9368H168.786V55.5488ZM190.166 45.9368H185.45V55.5488H190.346C192.038 55.5488 193.838 54.8108 193.838 52.9208C193.838 51.4988 192.794 50.8508 191.714 50.5628C192.434 50.2388 193.316 49.6628 193.316 48.3488C193.316 46.6028 191.714 45.9368 190.166 45.9368ZM189.95 50.0948H186.854V47.1608H189.986C190.742 47.1608 191.912 47.3768 191.912 48.4928C191.912 49.8428 190.67 50.0948 189.95 50.0948ZM190.202 54.3428H186.854V51.2288H190.004C191.192 51.2288 192.416 51.5168 192.416 52.7048C192.416 54.0368 191.12 54.3428 190.202 54.3428ZM202.744 47.1788H208.18V55.5488H209.584V45.9368H201.34V55.5488H202.744V47.1788ZM216.997 55.7108C219.805 55.7108 221.983 53.5508 221.983 50.7068C221.983 47.9528 219.805 45.7748 217.033 45.7748C214.189 45.7748 212.047 47.9348 212.047 50.7788C212.047 53.5148 214.207 55.7108 216.997 55.7108ZM217.033 54.4688C214.927 54.4688 213.487 52.7228 213.487 50.7068C213.487 48.6908 214.909 46.9988 216.997 46.9988C219.085 46.9988 220.543 48.7628 220.543 50.7788C220.543 52.7768 219.085 54.4688 217.033 54.4688ZM225.194 50.6888C225.194 48.6908 226.616 47.0168 228.668 47.0168C230.666 47.0168 231.62 48.5108 231.836 49.2488L233.132 48.8348C232.736 47.2148 230.954 45.7748 228.722 45.7748C226.004 45.7748 223.754 47.8628 223.754 50.7788C223.754 53.6588 225.878 55.7108 228.65 55.7108C231.17 55.7108 232.754 54.0368 233.186 52.5968L231.872 52.1648C231.602 52.8848 230.792 54.4688 228.668 54.4688C226.49 54.4688 225.194 52.6868 225.194 50.6888ZM237.744 51.8048L238.266 47.1788H242.352V55.5488H243.756V45.9368H237.006L236.358 51.5708C236.232 52.6688 235.764 54.3608 234.378 54.3608V55.5848L234.432 55.6028C236.556 55.7108 237.528 53.6408 237.744 51.8048ZM247.64 51.1748H255.416C255.434 51.0308 255.434 50.8688 255.434 50.7068C255.434 47.8988 253.868 45.7748 250.898 45.7748C248.198 45.7748 246.218 48.1148 246.218 50.7248C246.218 53.4968 248.306 55.7108 251.096 55.7108C253.004 55.7108 254.732 54.6668 255.308 52.8128L254.048 52.4168C253.598 53.7668 252.5 54.4688 251.078 54.4688C249.206 54.4688 247.748 53.0468 247.64 51.1748ZM254.012 49.9868H247.658C247.892 48.3848 249.224 46.9988 250.898 46.9988C252.734 46.9988 253.832 48.2408 254.012 49.9868ZM256.67 54.3428H256.634V58.5188H258.002V55.5488H265.796V58.5188H267.146V54.3068H266.03V45.9368H259.28L258.776 50.3288C258.542 52.4348 258.038 54.3428 256.67 54.3428ZM260.162 50.4368L260.522 47.1788H264.626V54.3068H258.776C259.694 53.5688 260.018 51.6608 260.162 50.4368ZM271.035 49.9868V45.9368H269.631V55.5488H271.035V51.2288H276.561V55.5488H277.965V45.9368H276.561V49.9868H271.035ZM289.389 45.7748C286.833 45.7748 284.907 47.6468 284.637 50.1308H282.531V45.9368H281.127V55.5488H282.531V51.3188H284.619C284.871 53.8388 286.815 55.7108 289.371 55.7108C292.143 55.7108 294.195 53.5328 294.195 50.7608C294.195 47.8988 292.161 45.7748 289.389 45.7748ZM289.389 54.4688C287.409 54.4688 286.023 52.7588 286.023 50.7608C286.023 48.7808 287.301 46.9808 289.371 46.9808C291.405 46.9808 292.737 48.7268 292.737 50.7788C292.737 52.7768 291.423 54.4688 289.389 54.4688ZM304.946 45.7748C302.39 45.7748 300.464 47.6468 300.194 50.1308H298.088V45.9368H296.684V55.5488H298.088V51.3188H300.176C300.428 53.8388 302.372 55.7108 304.928 55.7108C307.7 55.7108 309.752 53.5328 309.752 50.7608C309.752 47.8988 307.718 45.7748 304.946 45.7748ZM304.946 54.4688C302.966 54.4688 301.58 52.7588 301.58 50.7608C301.58 48.7808 302.858 46.9808 304.928 46.9808C306.962 46.9808 308.294 48.7268 308.294 50.7788C308.294 52.7768 306.98 54.4688 304.946 54.4688ZM321.516 55.7108C324.324 55.7108 326.502 53.5508 326.502 50.7068C326.502 47.9528 324.324 45.7748 321.552 45.7748C318.708 45.7748 316.566 47.9348 316.566 50.7788C316.566 53.5148 318.726 55.7108 321.516 55.7108ZM321.552 54.4688C319.446 54.4688 318.006 52.7228 318.006 50.7068C318.006 48.6908 319.428 46.9988 321.516 46.9988C323.604 46.9988 325.062 48.7628 325.062 50.7788C325.062 52.7768 323.604 54.4688 321.552 54.4688ZM329.677 49.3928V45.9368H328.291V49.5908C328.291 51.5528 329.677 52.4528 331.459 52.4528C332.593 52.4528 333.943 51.9848 334.627 51.5888V55.5488H336.031V45.9368H334.627V50.3108C333.871 50.8508 332.701 51.2288 331.639 51.2288C330.469 51.2288 329.677 50.6168 329.677 49.3928ZM339.926 51.1748H347.702C347.72 51.0308 347.72 50.8688 347.72 50.7068C347.72 47.8988 346.154 45.7748 343.184 45.7748C340.484 45.7748 338.504 48.1148 338.504 50.7248C338.504 53.4968 340.592 55.7108 343.382 55.7108C345.29 55.7108 347.018 54.6668 347.594 52.8128L346.334 52.4168C345.884 53.7668 344.786 54.4688 343.364 54.4688C341.492 54.4688 340.034 53.0468 339.926 51.1748ZM346.298 49.9868H339.944C340.178 48.3848 341.51 46.9988 343.184 46.9988C345.02 46.9988 346.118 48.2408 346.298 49.9868ZM359.769 50.7248C359.769 48.2228 357.987 45.7748 355.251 45.7748C353.433 45.7748 352.299 46.8188 351.525 48.0248V45.9368H350.139V60.2828H351.543V53.5688C352.317 54.7928 353.469 55.6928 355.251 55.6928C357.987 55.6928 359.769 53.3168 359.769 50.7248ZM354.963 54.4508C352.929 54.4508 351.525 52.6868 351.525 50.7068C351.525 48.7808 352.983 47.0168 354.963 47.0168C357.087 47.0168 358.329 48.7628 358.329 50.7608C358.329 52.7948 357.087 54.4508 354.963 54.4508ZM362.971 51.1748H370.747C370.765 51.0308 370.765 50.8688 370.765 50.7068C370.765 47.8988 369.199 45.7748 366.229 45.7748C363.529 45.7748 361.549 48.1148 361.549 50.7248C361.549 53.4968 363.637 55.7108 366.427 55.7108C368.335 55.7108 370.063 54.6668 370.639 52.8128L369.379 52.4168C368.929 53.7668 367.831 54.4688 366.409 54.4688C364.537 54.4688 363.079 53.0468 362.971 51.1748ZM369.343 49.9868H362.989C363.223 48.3848 364.555 46.9988 366.229 46.9988C368.065 46.9988 369.163 48.2408 369.343 49.9868ZM372 54.3428H371.964V58.5188H373.332V55.5488H381.126V58.5188H382.476V54.3068H381.36V45.9368H374.61L374.106 50.3288C373.872 52.4348 373.368 54.3428 372 54.3428ZM375.492 50.4368L375.852 47.1788H379.956V54.3068H374.106C375.024 53.5688 375.348 51.6608 375.492 50.4368ZM389.407 49.4468H386.365V45.9368H384.961V55.5488H389.587C391.531 55.5488 393.277 54.5408 393.277 52.3628C393.277 50.1848 391.369 49.4468 389.407 49.4468ZM389.461 54.3068H386.365V50.6528H389.389C390.595 50.6528 391.855 51.0488 391.855 52.3988C391.855 53.8748 390.613 54.3068 389.461 54.3068Z" fill="black"/>
</svg>
