<svg width="464" height="102" viewBox="0 0 464 102" fill="none" xmlns="http://www.w3.org/2000/svg">
<path d="M462.261 9.38225C462.261 8.31828 460.82 7.9903 460.36 8.94947L460.146 9.39448C456.984 15.9816 450.325 20.1718 443.018 20.1718H4.64783C2.99097 20.1718 1.64783 21.5149 1.64783 23.1718V97.5922C1.64783 99.249 2.99097 100.592 4.64783 100.592H459.261C460.918 100.592 462.261 99.249 462.261 97.5922V35.9718V9.38225Z" fill="#FFF6E9" stroke="black" stroke-width="2"/>
<path d="M46.7803 41.4883V40.1023H35.8903V41.4883H40.6063V54.1963H42.0823V41.4883H46.7803ZM51.3333 48.0943H48.2913V44.5843H46.8873V54.1963H51.5133C53.4573 54.1963 55.2033 53.1883 55.2033 51.0103C55.2033 48.8323 53.2953 48.0943 51.3333 48.0943ZM57.3993 54.1963V44.5843H58.8033V54.1963H57.3993ZM51.3873 52.9543H48.2913V49.3003H51.3153C52.5213 49.3003 53.7813 49.6963 53.7813 51.0463C53.7813 52.5223 52.5393 52.9543 51.3873 52.9543ZM71.7303 44.5843H67.0143V54.1963H71.9103C73.6023 54.1963 75.4023 53.4583 75.4023 51.5683C75.4023 50.1463 74.3583 49.4983 73.2783 49.2103C73.9983 48.8863 74.8803 48.3103 74.8803 46.9963C74.8803 45.2503 73.2783 44.5843 71.7303 44.5843ZM71.5143 48.7423H68.4183V45.8083H71.5503C72.3063 45.8083 73.4763 46.0243 73.4763 47.1403C73.4763 48.4903 72.2343 48.7423 71.5143 48.7423ZM71.7663 52.9903H68.4183V49.8763H71.5683C72.7563 49.8763 73.9803 50.1643 73.9803 51.3523C73.9803 52.6843 72.6843 52.9903 71.7663 52.9903ZM82.1256 54.3583C84.9336 54.3583 87.1116 52.1983 87.1116 49.3543C87.1116 46.6003 84.9336 44.4223 82.1616 44.4223C79.3176 44.4223 77.1756 46.5823 77.1756 49.4263C77.1756 52.1623 79.3356 54.3583 82.1256 54.3583ZM82.1616 53.1163C80.0556 53.1163 78.6156 51.3703 78.6156 49.3543C78.6156 47.3383 80.0376 45.6463 82.1256 45.6463C84.2136 45.6463 85.6716 47.4103 85.6716 49.4263C85.6716 51.4243 84.2136 53.1163 82.1616 53.1163ZM94.3006 44.5843H89.5846V54.1963H94.4806C96.1726 54.1963 97.9726 53.4583 97.9726 51.5683C97.9726 50.1463 96.9286 49.4983 95.8486 49.2103C96.5686 48.8863 97.4506 48.3103 97.4506 46.9963C97.4506 45.2503 95.8486 44.5843 94.3006 44.5843ZM94.0846 48.7423H90.9886V45.8083H94.1206C94.8766 45.8083 96.0466 46.0243 96.0466 47.1403C96.0466 48.4903 94.8046 48.7423 94.0846 48.7423ZM94.3366 52.9903H90.9886V49.8763H94.1386C95.3266 49.8763 96.5506 50.1643 96.5506 51.3523C96.5506 52.6843 95.2546 52.9903 94.3366 52.9903ZM110.078 49.3723C110.078 46.8703 108.296 44.4223 105.56 44.4223C103.742 44.4223 102.608 45.4663 101.834 46.6723V44.5843H100.448V58.9303H101.852V52.2163C102.626 53.4403 103.778 54.3403 105.56 54.3403C108.296 54.3403 110.078 51.9643 110.078 49.3723ZM105.272 53.0983C103.238 53.0983 101.834 51.3343 101.834 49.3543C101.834 47.4283 103.292 45.6643 105.272 45.6643C107.396 45.6643 108.638 47.4103 108.638 49.4083C108.638 51.4423 107.396 53.0983 105.272 53.0983ZM113.279 49.8223H121.055C121.073 49.6783 121.073 49.5163 121.073 49.3543C121.073 46.5463 119.507 44.4223 116.537 44.4223C113.837 44.4223 111.857 46.7623 111.857 49.3723C111.857 52.1443 113.945 54.3583 116.735 54.3583C118.643 54.3583 120.371 53.3143 120.947 51.4603L119.687 51.0643C119.237 52.4143 118.139 53.1163 116.717 53.1163C114.845 53.1163 113.387 51.6943 113.279 49.8223ZM119.651 48.6343H113.297C113.531 47.0323 114.863 45.6463 116.537 45.6463C118.373 45.6463 119.471 46.8883 119.651 48.6343ZM124.879 54.1963V46.0783H124.915L128.695 54.1963H129.613L133.393 46.0423H133.411V54.1963H134.815V44.5843H132.763L129.163 52.3783L125.563 44.5843H123.493V54.1963H124.879ZM139.939 50.4523L137.131 54.1963H138.823L141.343 50.7043H143.971V54.1963H145.375V44.5843H141.109C138.481 44.5843 137.491 46.1503 137.491 47.5723C137.491 49.1563 138.553 50.1283 139.939 50.4523ZM141.181 45.8263H143.971V49.5163H141.217C139.579 49.5163 138.877 48.5983 138.877 47.6443C138.877 46.2943 140.065 45.8263 141.181 45.8263ZM156.395 54.3583C158.501 54.3583 159.941 53.1343 159.941 51.5503C159.941 50.4163 159.347 49.6423 158.249 49.2643C159.329 48.7603 159.761 47.9683 159.761 47.0683C159.761 45.5923 158.303 44.4043 156.323 44.4043C154.451 44.4043 153.119 45.5563 152.777 47.1043L154.037 47.4463C154.415 46.2223 155.207 45.6463 156.323 45.6463C157.655 45.6463 158.357 46.4383 158.357 47.1763C158.357 48.0943 157.709 48.7063 156.395 48.7063H154.937V49.9123H156.431C157.871 49.9123 158.519 50.5423 158.519 51.4963C158.519 52.3423 157.709 53.1163 156.395 53.1163C154.847 53.1163 154.217 52.0723 154.001 51.2083L152.705 51.5143C152.885 52.5943 153.749 54.3583 156.395 54.3583ZM168.26 48.6523H165.596C163.886 48.6523 161.798 49.3363 161.798 51.4243V51.5323C161.798 53.1523 163.076 54.3583 165.02 54.3583C166.46 54.3583 167.504 53.6923 168.26 52.5043H168.278V54.1963H169.646V47.9863C169.646 47.6803 169.574 46.9243 169.358 46.4023C168.89 45.3403 167.882 44.4223 165.848 44.4223C163.094 44.4223 162.014 46.5283 161.942 47.3383L163.292 47.6263C163.454 46.7083 164.192 45.6643 165.812 45.6643C167.414 45.6643 168.26 46.4563 168.26 48.0043V48.6523ZM168.26 49.8043V50.1463C168.26 51.9103 166.982 53.1163 165.272 53.1163C164.12 53.1163 163.202 52.5043 163.202 51.4243C163.202 50.1283 164.552 49.8043 165.578 49.8043H168.26ZM174.08 54.1963V46.0783H174.116L177.896 54.1963H178.814L182.594 46.0423H182.612V54.1963H184.016V44.5843H181.964L178.364 52.3783L174.764 44.5843H172.694V54.1963H174.08ZM187.916 49.8223H195.692C195.71 49.6783 195.71 49.5163 195.71 49.3543C195.71 46.5463 194.144 44.4223 191.174 44.4223C188.474 44.4223 186.494 46.7623 186.494 49.3723C186.494 52.1443 188.582 54.3583 191.372 54.3583C193.28 54.3583 195.008 53.3143 195.584 51.4603L194.324 51.0643C193.874 52.4143 192.776 53.1163 191.354 53.1163C189.482 53.1163 188.024 51.6943 187.916 49.8223ZM194.288 48.6343H187.934C188.168 47.0323 189.5 45.6463 191.174 45.6463C193.01 45.6463 194.108 46.8883 194.288 48.6343ZM204.956 45.8263V44.5843H196.712V45.8263H200.114V54.1963H201.536V45.8263H204.956ZM206.883 54.1963H208.305L213.921 46.5823V54.1963H215.325V44.5843H213.921L208.287 52.2703V44.5843H206.883V54.1963ZM220.734 50.4523L221.256 45.8263H225.342V54.1963H226.746V44.5843H219.996L219.348 50.2183C219.222 51.3163 218.754 53.0083 217.368 53.0083V54.2323L217.422 54.2503C219.546 54.3583 220.518 52.2883 220.734 50.4523ZM230.163 42.5683L230.235 50.1103H231.549L231.639 42.5683V40.1023H230.163V42.5683ZM229.839 53.2963C229.839 53.8903 230.307 54.3583 230.901 54.3583C231.477 54.3583 231.963 53.8903 231.963 53.2963C231.963 52.7203 231.477 52.2523 230.901 52.2523C230.307 52.2523 229.839 52.7203 229.839 53.2963ZM245.345 45.8623H241.943V41.4703H249.683V40.1023H240.467V54.1963H245.579C248.945 54.1963 250.709 52.4863 250.709 50.0023C250.709 46.7263 247.721 45.8623 245.345 45.8623ZM245.399 52.8283H241.943V47.1943H245.309C247.847 47.1943 249.215 48.2023 249.215 49.8943C249.215 52.3963 246.965 52.8283 245.399 52.8283ZM257.49 48.0943H254.448V44.5843H253.044V54.1963H257.67C259.614 54.1963 261.36 53.1883 261.36 51.0103C261.36 48.8323 259.452 48.0943 257.49 48.0943ZM263.556 54.1963V44.5843H264.96V54.1963H263.556ZM257.544 52.9543H254.448V49.3003H257.472C258.678 49.3003 259.938 49.6963 259.938 51.0463C259.938 52.5223 258.696 52.9543 257.544 52.9543ZM270.357 50.4523L270.879 45.8263H274.965V54.1963H276.369V44.5843H269.619L268.971 50.2183C268.845 51.3163 268.377 53.0083 266.991 53.0083V54.2323L267.045 54.2503C269.169 54.3583 270.141 52.2883 270.357 50.4523ZM283.782 54.3583C286.59 54.3583 288.768 52.1983 288.768 49.3543C288.768 46.6003 286.59 44.4223 283.818 44.4223C280.974 44.4223 278.832 46.5823 278.832 49.4263C278.832 52.1623 280.992 54.3583 283.782 54.3583ZM283.818 53.1163C281.712 53.1163 280.272 51.3703 280.272 49.3543C280.272 47.3383 281.694 45.6463 283.782 45.6463C285.87 45.6463 287.328 47.4103 287.328 49.4263C287.328 51.4243 285.87 53.1163 283.818 53.1163ZM297.24 46.7623H297.222C297.402 44.6563 297.744 42.9463 301.65 41.9203L305.106 41.0203L304.728 39.8503L301.092 40.7503C296.07 42.0283 295.944 45.2683 295.944 48.5983C295.944 52.6303 298.05 54.3583 300.732 54.3583C303.54 54.3583 305.574 52.3783 305.574 49.3003C305.574 46.2943 303.432 44.4763 301.056 44.4763C299.922 44.4763 298.212 44.8183 297.24 46.7623ZM297.384 49.3723C297.384 47.0683 298.806 45.6823 300.768 45.6823C302.694 45.6823 304.17 47.0863 304.17 49.3723C304.17 51.5683 302.766 53.1343 300.75 53.1343C298.752 53.1343 297.384 51.5863 297.384 49.3723ZM312.527 48.0943H309.485V44.5843H308.081V54.1963H312.707C314.651 54.1963 316.397 53.1883 316.397 51.0103C316.397 48.8323 314.489 48.0943 312.527 48.0943ZM318.593 54.1963V44.5843H319.997V54.1963H318.593ZM312.581 52.9543H309.485V49.3003H312.509C313.715 49.3003 314.975 49.6963 314.975 51.0463C314.975 52.5223 313.733 52.9543 312.581 52.9543ZM329.612 48.6343V44.5843H328.208V54.1963H329.612V49.8763H335.138V54.1963H336.542V44.5843H335.138V48.6343H329.612ZM340.424 49.8223H348.2C348.218 49.6783 348.218 49.5163 348.218 49.3543C348.218 46.5463 346.652 44.4223 343.682 44.4223C340.982 44.4223 339.002 46.7623 339.002 49.3723C339.002 52.1443 341.09 54.3583 343.88 54.3583C345.788 54.3583 347.516 53.3143 348.092 51.4603L346.832 51.0643C346.382 52.4143 345.284 53.1163 343.862 53.1163C341.99 53.1163 340.532 51.6943 340.424 49.8223ZM346.796 48.6343H340.442C340.676 47.0323 342.008 45.6463 343.682 45.6463C345.518 45.6463 346.616 46.8883 346.796 48.6343ZM352.041 45.8263H357.477V54.1963H358.881V44.5843H350.637V54.1963H352.041V45.8263ZM371.676 49.3723C371.676 46.8703 369.894 44.4223 367.158 44.4223C365.34 44.4223 364.206 45.4663 363.432 46.6723V44.5843H362.046V58.9303H363.45V52.2163C364.224 53.4403 365.376 54.3403 367.158 54.3403C369.894 54.3403 371.676 51.9643 371.676 49.3723ZM366.87 53.0983C364.836 53.0983 363.432 51.3343 363.432 49.3543C363.432 47.4283 364.89 45.6643 366.87 45.6643C368.994 45.6643 370.236 47.4103 370.236 49.4083C370.236 51.4423 368.994 53.0983 366.87 53.0983ZM374.157 54.1963H375.579L381.195 46.5823V54.1963H382.599V44.5843H381.195L375.561 52.2703V44.5843H374.157V54.1963ZM387.738 50.4523L384.93 54.1963H386.622L389.142 50.7043H391.77V54.1963H393.174V44.5843H388.908C386.28 44.5843 385.29 46.1503 385.29 47.5723C385.29 49.1563 386.352 50.1283 387.738 50.4523ZM388.98 45.8263H391.77V49.5163H389.016C387.378 49.5163 386.676 48.5983 386.676 47.6443C386.676 46.2943 387.864 45.8263 388.98 45.8263ZM403.36 45.8263V44.5843H395.116V45.8263H398.518V54.1963H399.94V45.8263H403.36ZM406.692 48.6343V44.5843H405.288V54.1963H406.692V49.8763H412.218V54.1963H413.622V44.5843H412.218V48.6343H406.692ZM421.032 54.3583C423.84 54.3583 426.018 52.1983 426.018 49.3543C426.018 46.6003 423.84 44.4223 421.068 44.4223C418.224 44.4223 416.082 46.5823 416.082 49.4263C416.082 52.1623 418.242 54.3583 421.032 54.3583ZM421.068 53.1163C418.962 53.1163 417.522 51.3703 417.522 49.3543C417.522 47.3383 418.944 45.6463 421.032 45.6463C423.12 45.6463 424.578 47.4103 424.578 49.4263C424.578 51.4243 423.12 53.1163 421.068 53.1163ZM428.887 56.9503C430.147 56.0503 430.813 54.8623 430.813 53.6023V53.5303C430.813 52.4503 430.219 51.7663 429.391 51.7663C428.707 51.7663 428.131 52.3063 428.131 53.0443C428.131 53.7643 428.635 54.2323 429.319 54.2323C429.463 54.2323 429.625 54.1963 429.751 54.1423C429.625 54.9703 428.995 55.6903 428.185 56.3023L428.887 56.9503ZM37.8163 73.8223H45.5923C45.6103 73.6783 45.6103 73.5163 45.6103 73.3543C45.6103 70.5463 44.0443 68.4223 41.0743 68.4223C38.3743 68.4223 36.3943 70.7623 36.3943 73.3723C36.3943 76.1443 38.4823 78.3583 41.2723 78.3583C43.1803 78.3583 44.9083 77.3143 45.4843 75.4603L44.2243 75.0643C43.7743 76.4143 42.6763 77.1163 41.2543 77.1163C39.3823 77.1163 37.9243 75.6943 37.8163 73.8223ZM44.1883 72.6343H37.8343C38.0683 71.0323 39.4003 69.6463 41.0743 69.6463C42.9103 69.6463 44.0083 70.8883 44.1883 72.6343ZM48.7679 73.3363C48.7679 71.3383 50.1899 69.6643 52.2419 69.6643C54.2399 69.6643 55.1939 71.1583 55.4099 71.8963L56.7059 71.4823C56.3099 69.8623 54.5279 68.4223 52.2959 68.4223C49.5779 68.4223 47.3279 70.5103 47.3279 73.4263C47.3279 76.3063 49.4519 78.3583 52.2239 78.3583C54.7439 78.3583 56.3279 76.6843 56.7599 75.2443L55.4459 74.8123C55.1759 75.5323 54.3659 77.1163 52.2419 77.1163C50.0639 77.1163 48.7679 75.3343 48.7679 73.3363ZM61.3181 74.4523L61.8401 69.8263H65.9261V78.1963H67.3301V68.5843H60.5801L59.9321 74.2183C59.8061 75.3163 59.3381 77.0083 57.9521 77.0083V78.2323L58.0061 78.2503C60.1301 78.3583 61.1021 76.2883 61.3181 74.4523ZM70.4948 78.1963H71.9168L77.5328 70.5823V78.1963H78.9368V68.5843H77.5328L71.8988 76.2703V68.5843H70.4948V78.1963ZM88.1308 70.7623H88.1128C88.2928 68.6563 88.6348 66.9463 92.5408 65.9203L95.9968 65.0203L95.6188 63.8503L91.9828 64.7503C86.9608 66.0283 86.8348 69.2683 86.8348 72.5983C86.8348 76.6303 88.9408 78.3583 91.6228 78.3583C94.4308 78.3583 96.4648 76.3783 96.4648 73.3003C96.4648 70.2943 94.3228 68.4763 91.9468 68.4763C90.8128 68.4763 89.1028 68.8183 88.1308 70.7623ZM88.2748 73.3723C88.2748 71.0683 89.6968 69.6823 91.6588 69.6823C93.5848 69.6823 95.0608 71.0863 95.0608 73.3723C95.0608 75.5683 93.6568 77.1343 91.6408 77.1343C89.6428 77.1343 88.2748 75.5863 88.2748 73.3723ZM103.417 72.0943H100.375V68.5843H98.9713V78.1963H103.597C105.541 78.1963 107.287 77.1883 107.287 75.0103C107.287 72.8323 105.379 72.0943 103.417 72.0943ZM109.483 78.1963V68.5843H110.887V78.1963H109.483ZM103.471 76.9543H100.375V73.3003H103.399C104.605 73.3003 105.865 73.6963 105.865 75.0463C105.865 76.5223 104.623 76.9543 103.471 76.9543ZM120.61 72.8143H120.502V68.5843H119.098V78.1963H120.502V73.7143H120.61L125.506 78.1963H127.468L121.942 73.2463L127.216 68.5843H125.272L120.61 72.8143ZM136.085 69.8263V68.5843H127.841V69.8263H131.243V78.1963H132.665V69.8263H136.085ZM141.926 78.3583C144.734 78.3583 146.912 76.1983 146.912 73.3543C146.912 70.6003 144.734 68.4223 141.962 68.4223C139.118 68.4223 136.976 70.5823 136.976 73.4263C136.976 76.1623 139.136 78.3583 141.926 78.3583ZM141.962 77.1163C139.856 77.1163 138.416 75.3703 138.416 73.3543C138.416 71.3383 139.838 69.6463 141.926 69.6463C144.014 69.6463 145.472 71.4103 145.472 73.4263C145.472 75.4243 144.014 77.1163 141.962 77.1163ZM149.151 71.8243V73.3183H154.299V71.8243H149.151ZM163.401 69.8263V68.5843H155.157V69.8263H158.559V78.1963H159.981V69.8263H163.401ZM169.243 78.3583C172.051 78.3583 174.229 76.1983 174.229 73.3543C174.229 70.6003 172.051 68.4223 169.279 68.4223C166.435 68.4223 164.293 70.5823 164.293 73.4263C164.293 76.1623 166.453 78.3583 169.243 78.3583ZM169.279 77.1163C167.173 77.1163 165.733 75.3703 165.733 73.3543C165.733 71.3383 167.155 69.6463 169.243 69.6463C171.331 69.6463 172.789 71.4103 172.789 73.4263C172.789 75.4243 171.331 77.1163 169.279 77.1163ZM181.729 78.1963H183.151L188.767 70.5823V78.1963H190.171V68.5843H188.767L183.133 76.2703V68.5843H181.729V78.1963ZM196.192 78.3583C198.298 78.3583 199.738 77.1343 199.738 75.5503C199.738 74.4163 199.144 73.6423 198.046 73.2643C199.126 72.7603 199.558 71.9683 199.558 71.0683C199.558 69.5923 198.1 68.4043 196.12 68.4043C194.248 68.4043 192.916 69.5563 192.574 71.1043L193.834 71.4463C194.212 70.2223 195.004 69.6463 196.12 69.6463C197.452 69.6463 198.154 70.4383 198.154 71.1763C198.154 72.0943 197.506 72.7063 196.192 72.7063H194.734V73.9123H196.228C197.668 73.9123 198.316 74.5423 198.316 75.4963C198.316 76.3423 197.506 77.1163 196.192 77.1163C194.644 77.1163 194.014 76.0723 193.798 75.2083L192.502 75.5143C192.682 76.5943 193.546 78.3583 196.192 78.3583ZM208.692 69.8263H213.732V68.5843H207.288V78.1963H208.692V69.8263ZM219.516 78.3583C222.324 78.3583 224.502 76.1983 224.502 73.3543C224.502 70.6003 222.324 68.4223 219.552 68.4223C216.708 68.4223 214.566 70.5823 214.566 73.4263C214.566 76.1623 216.726 78.3583 219.516 78.3583ZM219.552 77.1163C217.446 77.1163 216.006 75.3703 216.006 73.3543C216.006 71.3383 217.428 69.6463 219.516 69.6463C221.604 69.6463 223.062 71.4103 223.062 73.4263C223.062 75.4243 221.604 77.1163 219.552 77.1163ZM227.713 73.3363C227.713 71.3383 229.135 69.6643 231.187 69.6643C233.185 69.6643 234.139 71.1583 234.355 71.8963L235.651 71.4823C235.255 69.8623 233.473 68.4223 231.241 68.4223C228.523 68.4223 226.273 70.5103 226.273 73.4263C226.273 76.3063 228.397 78.3583 231.169 78.3583C233.689 78.3583 235.273 76.6843 235.705 75.2443L234.391 74.8123C234.121 75.5323 233.311 77.1163 231.187 77.1163C229.009 77.1163 227.713 75.3343 227.713 73.3363ZM244.929 69.8263V68.5843H236.685V69.8263H240.087V78.1963H241.509V69.8263H244.929ZM247.242 73.8223H255.018C255.036 73.6783 255.036 73.5163 255.036 73.3543C255.036 70.5463 253.47 68.4223 250.5 68.4223C247.8 68.4223 245.82 70.7623 245.82 73.3723C245.82 76.1443 247.908 78.3583 250.698 78.3583C252.606 78.3583 254.334 77.3143 254.91 75.4603L253.65 75.0643C253.2 76.4143 252.102 77.1163 250.68 77.1163C248.808 77.1163 247.35 75.6943 247.242 73.8223ZM253.614 72.6343H247.26C247.494 71.0323 248.826 69.6463 250.5 69.6463C252.336 69.6463 253.434 70.8883 253.614 72.6343ZM261.686 66.9823C263.18 66.9823 264.314 65.9203 264.602 64.4083L263.594 64.2283C263.324 65.1643 262.766 65.8483 261.686 65.8483C260.606 65.8483 260.03 65.1643 259.76 64.2283L258.77 64.4083C259.04 65.9203 260.174 66.9823 261.686 66.9823ZM257.456 78.1963H258.878L264.494 70.5823V78.1963H265.898V68.5843H264.476L258.86 76.2703V68.5843H257.456V78.1963ZM275.524 69.8263H280.96V78.1963H282.364V68.5843H274.12V78.1963H275.524V69.8263ZM289.776 78.3583C292.584 78.3583 294.762 76.1983 294.762 73.3543C294.762 70.6003 292.584 68.4223 289.812 68.4223C286.968 68.4223 284.826 70.5823 284.826 73.4263C284.826 76.1623 286.986 78.3583 289.776 78.3583ZM289.812 77.1163C287.706 77.1163 286.266 75.3703 286.266 73.3543C286.266 71.3383 287.688 69.6463 289.776 69.6463C291.864 69.6463 293.322 71.4103 293.322 73.4263C293.322 75.4243 291.864 77.1163 289.812 77.1163ZM297.973 73.3363C297.973 71.3383 299.395 69.6643 301.447 69.6643C303.445 69.6643 304.399 71.1583 304.615 71.8963L305.911 71.4823C305.515 69.8623 303.733 68.4223 301.501 68.4223C298.783 68.4223 296.533 70.5103 296.533 73.4263C296.533 76.3063 298.657 78.3583 301.429 78.3583C303.949 78.3583 305.533 76.6843 305.965 75.2443L304.651 74.8123C304.381 75.5323 303.571 77.1163 301.447 77.1163C299.269 77.1163 297.973 75.3343 297.973 73.3363ZM309.821 72.8143H309.713V68.5843H308.309V78.1963H309.713V73.7143H309.821L314.717 78.1963H316.679L311.153 73.2463L316.427 68.5843H314.483L309.821 72.8143ZM321.838 78.3583C324.646 78.3583 326.824 76.1983 326.824 73.3543C326.824 70.6003 324.646 68.4223 321.874 68.4223C319.03 68.4223 316.888 70.5823 316.888 73.4263C316.888 76.1623 319.048 78.3583 321.838 78.3583ZM321.874 77.1163C319.768 77.1163 318.328 75.3703 318.328 73.3543C318.328 71.3383 319.75 69.6463 321.838 69.6463C323.926 69.6463 325.384 71.4103 325.384 73.4263C325.384 75.4243 323.926 77.1163 321.874 77.1163ZM331.301 74.4523L331.823 69.8263H335.909V78.1963H337.313V68.5843H330.563L329.915 74.2183C329.789 75.3163 329.321 77.0083 327.935 77.0083V78.2323L327.989 78.2503C330.113 78.3583 331.085 76.2883 331.301 74.4523ZM344.923 72.0943H341.881V68.5843H340.477V78.1963H345.103C347.047 78.1963 348.793 77.1883 348.793 75.0103C348.793 72.8323 346.885 72.0943 344.923 72.0943ZM344.977 76.9543H341.881V73.3003H344.905C346.111 73.3003 347.371 73.6963 347.371 75.0463C347.371 76.5223 346.129 76.9543 344.977 76.9543ZM353.797 78.3583C355.903 78.3583 357.343 77.1343 357.343 75.5503C357.343 74.4163 356.749 73.6423 355.651 73.2643C356.731 72.7603 357.163 71.9683 357.163 71.0683C357.163 69.5923 355.705 68.4043 353.725 68.4043C351.853 68.4043 350.521 69.5563 350.179 71.1043L351.439 71.4463C351.817 70.2223 352.609 69.6463 353.725 69.6463C355.057 69.6463 355.759 70.4383 355.759 71.1763C355.759 72.0943 355.111 72.7063 353.797 72.7063H352.339V73.9123H353.833C355.273 73.9123 355.921 74.5423 355.921 75.4963C355.921 76.3423 355.111 77.1163 353.797 77.1163C352.249 77.1163 351.619 76.0723 351.403 75.2083L350.107 75.5143C350.287 76.5943 351.151 78.3583 353.797 78.3583ZM361.27 72.6343V68.5843H359.866V78.1963H361.27V73.8763H366.796V78.1963H368.2V68.5843H366.796V72.6343H361.27ZM380.146 68.5843H378.634L375.304 76.0183L371.776 68.5843H370.156L374.53 77.5483L372.046 82.9303H373.558L380.146 68.5843ZM383.56 74.4523L384.082 69.8263H388.168V78.1963H389.572V68.5843H382.822L382.174 74.2183C382.048 75.3163 381.58 77.0083 380.194 77.0083V78.2323L380.248 78.2503C382.372 78.3583 383.344 76.2883 383.56 74.4523ZM393.475 73.3363C393.475 71.3383 394.897 69.6643 396.949 69.6643C398.947 69.6643 399.901 71.1583 400.117 71.8963L401.413 71.4823C401.017 69.8623 399.235 68.4223 397.003 68.4223C394.285 68.4223 392.035 70.5103 392.035 73.4263C392.035 76.3063 394.159 78.3583 396.931 78.3583C399.451 78.3583 401.035 76.6843 401.467 75.2443L400.153 74.8123C399.883 75.5323 399.073 77.1163 396.949 77.1163C394.771 77.1163 393.475 75.3343 393.475 73.3363ZM405.755 74.4523L402.947 78.1963H404.639L407.159 74.7043H409.787V78.1963H411.191V68.5843H406.925C404.297 68.5843 403.307 70.1503 403.307 71.5723C403.307 73.1563 404.369 74.1283 405.755 74.4523ZM406.997 69.8263H409.787V73.5163H407.033C405.395 73.5163 404.693 72.5983 404.693 71.6443C404.693 70.2943 405.881 69.8263 406.997 69.8263ZM413.998 77.0623C413.998 77.7823 414.574 78.3583 415.294 78.3583C415.996 78.3583 416.572 77.7823 416.572 77.0623C416.572 76.3423 415.996 75.7663 415.294 75.7663C414.574 75.7663 413.998 76.3423 413.998 77.0623Z" fill="black"/>
</svg>
