<svg width="302" height="82" viewBox="0 0 302 82" fill="none" xmlns="http://www.w3.org/2000/svg">
<path d="M300.261 9.38225C300.261 8.31828 298.82 7.9903 298.36 8.94947L298.146 9.39448C294.984 15.9816 288.324 20.1718 281.018 20.1718H4.74078C3.08392 20.1718 1.74078 21.5149 1.74078 23.1718V77.5922C1.74078 79.249 3.08392 80.5922 4.74078 80.5922H297.261C298.918 80.5922 300.261 79.249 300.261 77.5922V35.9718V9.38225Z" fill="#FFF6E9" stroke="black" stroke-width="2"/>
<path d="M44.661 46.8623H41.259V42.4703H48.999V41.1023H39.783V55.1963H44.895C48.261 55.1963 50.025 53.4863 50.025 51.0023C50.025 47.7263 47.037 46.8623 44.661 46.8623ZM44.715 53.8283H41.259V48.1943H44.625C47.163 48.1943 48.531 49.2023 48.531 50.8943C48.531 53.3963 46.281 53.8283 44.715 53.8283ZM56.6081 55.3583C59.4161 55.3583 61.5941 53.1983 61.5941 50.3543C61.5941 47.6003 59.4161 45.4223 56.6441 45.4223C53.8001 45.4223 51.6581 47.5823 51.6581 50.4263C51.6581 53.1623 53.8181 55.3583 56.6081 55.3583ZM56.6441 54.1163C54.5381 54.1163 53.0981 52.3703 53.0981 50.3543C53.0981 48.3383 54.5201 46.6463 56.6081 46.6463C58.6961 46.6463 60.1541 48.4103 60.1541 50.4263C60.1541 52.4243 58.6961 54.1163 56.6441 54.1163ZM66.0702 51.4523L66.5922 46.8263H70.6782V55.1963H72.0822V45.5843H65.3322L64.6842 51.2183C64.5582 52.3163 64.0902 54.0083 62.7042 54.0083V55.2323L62.7582 55.2503C64.8822 55.3583 65.8542 53.2883 66.0702 51.4523ZM79.6928 49.0943H76.6508V45.5843H75.2468V55.1963H79.8728C81.8168 55.1963 83.5628 54.1883 83.5628 52.0103C83.5628 49.8323 81.6548 49.0943 79.6928 49.0943ZM79.7468 53.9543H76.6508V50.3003H79.6748C80.8808 50.3003 82.1408 50.6963 82.1408 52.0463C82.1408 53.5223 80.8988 53.9543 79.7468 53.9543ZM87.145 45.5843H85.741V55.1963H99.115V45.5843H97.693V53.9543H93.121V45.5843H91.717V53.9543H87.145V45.5843ZM103.002 50.8223H110.778C110.796 50.6783 110.796 50.5163 110.796 50.3543C110.796 47.5463 109.23 45.4223 106.26 45.4223C103.56 45.4223 101.58 47.7623 101.58 50.3723C101.58 53.1443 103.668 55.3583 106.458 55.3583C108.366 55.3583 110.094 54.3143 110.67 52.4603L109.41 52.0643C108.96 53.4143 107.862 54.1163 106.44 54.1163C104.568 54.1163 103.11 52.6943 103.002 50.8223ZM109.374 49.6343H103.02C103.254 48.0323 104.586 46.6463 106.26 46.6463C108.096 46.6463 109.194 47.8883 109.374 49.6343ZM119.629 55.1963V47.0783H119.665L123.445 55.1963H124.363L128.143 47.0423H128.161V55.1963H129.565V45.5843H127.513L123.913 53.3783L120.313 45.5843H118.243V55.1963H119.629ZM141.529 45.5843H140.017L136.687 53.0183L133.159 45.5843H131.539L135.913 54.5483L133.429 59.9303H134.941L141.529 45.5843ZM146.258 55.3583C148.364 55.3583 149.804 54.1343 149.804 52.5503C149.804 51.4163 149.21 50.6423 148.112 50.2643C149.192 49.7603 149.624 48.9683 149.624 48.0683C149.624 46.5923 148.166 45.4043 146.186 45.4043C144.314 45.4043 142.982 46.5563 142.64 48.1043L143.9 48.4463C144.278 47.2223 145.07 46.6463 146.186 46.6463C147.518 46.6463 148.22 47.4383 148.22 48.1763C148.22 49.0943 147.572 49.7063 146.258 49.7063H144.8V50.9123H146.294C147.734 50.9123 148.382 51.5423 148.382 52.4963C148.382 53.3423 147.572 54.1163 146.258 54.1163C144.71 54.1163 144.08 53.0723 143.864 52.2083L142.568 52.5143C142.748 53.5943 143.612 55.3583 146.258 55.3583ZM156.773 49.0943H153.731V45.5843H152.327V55.1963H156.953C158.897 55.1963 160.643 54.1883 160.643 52.0103C160.643 49.8323 158.735 49.0943 156.773 49.0943ZM162.839 55.1963V45.5843H164.243V55.1963H162.839ZM156.827 53.9543H153.731V50.3003H156.755C157.961 50.3003 159.221 50.6963 159.221 52.0463C159.221 53.5223 157.979 53.9543 156.827 53.9543ZM168.939 49.8143H168.831V45.5843H167.427V55.1963H168.831V50.7143H168.939L173.835 55.1963H175.797L170.271 50.2463L175.545 45.5843H173.601L168.939 49.8143ZM177.393 55.1963H178.815L184.431 47.5823V55.1963H185.835V45.5843H184.431L178.797 53.2703V45.5843H177.393V55.1963ZM194.057 55.1963H195.479L201.095 47.5823V55.1963H202.499V45.5843H201.095L195.461 53.2703V45.5843H194.057V55.1963ZM211.459 50.3363C211.459 48.3383 212.881 46.6643 214.933 46.6643C216.931 46.6643 217.885 48.1583 218.101 48.8963L219.397 48.4823C219.001 46.8623 217.219 45.4223 214.987 45.4223C212.269 45.4223 210.019 47.5103 210.019 50.4263C210.019 53.3063 212.143 55.3583 214.915 55.3583C217.435 55.3583 219.019 53.6843 219.451 52.2443L218.137 51.8123C217.867 52.5323 217.057 54.1163 214.933 54.1163C212.755 54.1163 211.459 52.3343 211.459 50.3363ZM226.512 45.5843H221.796V55.1963H226.692C228.384 55.1963 230.184 54.4583 230.184 52.5683C230.184 51.1463 229.14 50.4983 228.06 50.2103C228.78 49.8863 229.662 49.3103 229.662 47.9963C229.662 46.2503 228.06 45.5843 226.512 45.5843ZM226.296 49.7423H223.2V46.8083H226.332C227.088 46.8083 228.258 47.0243 228.258 48.1403C228.258 49.4903 227.016 49.7423 226.296 49.7423ZM226.548 53.9903H223.2V50.8763H226.35C227.538 50.8763 228.762 51.1643 228.762 52.3523C228.762 53.6843 227.466 53.9903 226.548 53.9903ZM233.379 50.8223H241.155C241.173 50.6783 241.173 50.5163 241.173 50.3543C241.173 47.5463 239.607 45.4223 236.637 45.4223C233.937 45.4223 231.957 47.7623 231.957 50.3723C231.957 53.1443 234.045 55.3583 236.835 55.3583C238.743 55.3583 240.471 54.3143 241.047 52.4603L239.787 52.0643C239.337 53.4143 238.239 54.1163 236.817 54.1163C234.945 54.1163 233.487 52.6943 233.379 50.8223ZM239.751 49.6343H233.397C233.631 48.0323 234.963 46.6463 236.637 46.6463C238.473 46.6463 239.571 47.8883 239.751 49.6343ZM250.419 46.8263V45.5843H242.175V46.8263H245.577V55.1963H246.999V46.8263H250.419ZM257.949 49.6523H255.285C253.575 49.6523 251.487 50.3363 251.487 52.4243V52.5323C251.487 54.1523 252.765 55.3583 254.709 55.3583C256.149 55.3583 257.193 54.6923 257.949 53.5043H257.967V55.1963H259.335V48.9863C259.335 48.6803 259.263 47.9243 259.047 47.4023C258.579 46.3403 257.571 45.4223 255.537 45.4223C252.783 45.4223 251.703 47.5283 251.631 48.3383L252.981 48.6263C253.143 47.7083 253.881 46.6643 255.501 46.6643C257.103 46.6643 257.949 47.4563 257.949 49.0043V49.6523ZM257.949 50.8043V51.1463C257.949 52.9103 256.671 54.1163 254.961 54.1163C253.809 54.1163 252.891 53.5043 252.891 52.4243C252.891 51.1283 254.241 50.8043 255.267 50.8043H257.949ZM262.636 43.5683L262.708 51.1103H264.022L264.112 43.5683V41.1023H262.636V43.5683ZM262.312 54.2963C262.312 54.8903 262.78 55.3583 263.374 55.3583C263.95 55.3583 264.436 54.8903 264.436 54.2963C264.436 53.7203 263.95 53.2523 263.374 53.2523C262.78 53.2523 262.312 53.7203 262.312 54.2963Z" fill="black"/>
</svg>
