<svg width="428" height="102" viewBox="0 0 428 102" fill="none" xmlns="http://www.w3.org/2000/svg">
<path d="M426.261 9.38225C426.261 8.31828 424.82 7.9903 424.36 8.94947L424.146 9.39448C420.984 15.9816 414.324 20.1718 407.018 20.1718H4.74078C3.08392 20.1718 1.74078 21.5149 1.74078 23.1718V97.5922C1.74078 99.249 3.08392 100.592 4.74078 100.592H423.261C424.918 100.592 426.261 99.249 426.261 97.5922V35.9718V9.38225Z" fill="#FFF6E9" stroke="black" stroke-width="2"/>
<path d="M54.865 41.4703V40.1023H46.783V54.1963H48.259V41.4703H54.865ZM58.5632 54.3583C61.3712 54.3583 63.5492 52.1983 63.5492 49.3543C63.5492 46.6003 61.3712 44.4223 58.5992 44.4223C55.7552 44.4223 53.6132 46.5823 53.6132 49.4263C53.6132 52.1623 55.7732 54.3583 58.5632 54.3583ZM58.5992 53.1163C56.4932 53.1163 55.0532 51.3703 55.0532 49.3543C55.0532 47.3383 56.4752 45.6463 58.5632 45.6463C60.6512 45.6463 62.1092 47.4103 62.1092 49.4263C62.1092 51.4243 60.6512 53.1163 58.5992 53.1163ZM66.7602 49.3363C66.7602 47.3383 68.1822 45.6643 70.2342 45.6643C72.2322 45.6643 73.1862 47.1583 73.4022 47.8963L74.6982 47.4823C74.3022 45.8623 72.5202 44.4223 70.2882 44.4223C67.5702 44.4223 65.3202 46.5103 65.3202 49.4263C65.3202 52.3063 67.4442 54.3583 70.2162 54.3583C72.7362 54.3583 74.3202 52.6843 74.7522 51.2443L73.4382 50.8123C73.1682 51.5323 72.3582 53.1163 70.2342 53.1163C68.0562 53.1163 66.7602 51.3343 66.7602 49.3363ZM83.9758 45.8263V44.5843H75.7318V45.8263H79.1338V54.1963H80.5558V45.8263H83.9758ZM85.9031 54.1963H87.3251L92.9411 46.5823V54.1963H94.3451V44.5843H92.9411L87.3071 52.2703V44.5843H85.9031V54.1963ZM101.541 52.9903H101.505V57.1663H102.873V54.1963H110.667V57.1663H112.017V52.9543H110.901V44.5843H104.151L103.647 48.9763C103.413 51.0823 102.909 52.9903 101.541 52.9903ZM105.033 49.0843L105.393 45.8263H109.497V52.9543H103.647C104.565 52.2163 104.889 50.3083 105.033 49.0843ZM118.557 54.3583C121.365 54.3583 123.543 52.1983 123.543 49.3543C123.543 46.6003 121.365 44.4223 118.593 44.4223C115.749 44.4223 113.607 46.5823 113.607 49.4263C113.607 52.1623 115.767 54.3583 118.557 54.3583ZM118.593 53.1163C116.487 53.1163 115.047 51.3703 115.047 49.3543C115.047 47.3383 116.469 45.6463 118.557 45.6463C120.645 45.6463 122.103 47.4103 122.103 49.4263C122.103 51.4243 120.645 53.1163 118.593 53.1163ZM128.019 50.4523L128.541 45.8263H132.627V54.1963H134.031V44.5843H127.281L126.633 50.2183C126.507 51.3163 126.039 53.0083 124.653 53.0083V54.2323L124.707 54.2503C126.831 54.3583 127.803 52.2883 128.019 50.4523ZM150.084 54.1963L145.386 49.2463L149.976 44.5843H148.176L143.802 49.0123H143.658V44.5843H142.272V49.0123H142.128L137.754 44.5843H135.954L140.544 49.2463L135.846 54.1963H137.754L142.128 49.5343H142.272V54.1963H143.658V49.5343H143.802L148.176 54.1963H150.084ZM153.313 48.6343V44.5843H151.909V54.1963H153.313V49.8763H158.839V54.1963H160.243V44.5843H158.839V48.6343H153.313ZM167.851 48.0943H164.809V44.5843H163.405V54.1963H168.031C169.975 54.1963 171.721 53.1883 171.721 51.0103C171.721 48.8323 169.813 48.0943 167.851 48.0943ZM173.917 54.1963V44.5843H175.321V54.1963H173.917ZM167.905 52.9543H164.809V49.3003H167.833C169.039 49.3003 170.299 49.6963 170.299 51.0463C170.299 52.5223 169.057 52.9543 167.905 52.9543ZM190.025 45.8263V44.5843H181.781V45.8263H185.183V54.1963H186.605V45.8263H190.025ZM197.555 48.6523H194.891C193.181 48.6523 191.093 49.3363 191.093 51.4243V51.5323C191.093 53.1523 192.371 54.3583 194.315 54.3583C195.755 54.3583 196.799 53.6923 197.555 52.5043H197.573V54.1963H198.941V47.9863C198.941 47.6803 198.869 46.9243 198.653 46.4023C198.185 45.3403 197.177 44.4223 195.143 44.4223C192.389 44.4223 191.309 46.5283 191.237 47.3383L192.587 47.6263C192.749 46.7083 193.487 45.6643 195.107 45.6643C196.709 45.6643 197.555 46.4563 197.555 48.0043V48.6523ZM197.555 49.8043V50.1463C197.555 51.9103 196.277 53.1163 194.567 53.1163C193.415 53.1163 192.497 52.5043 192.497 51.4243C192.497 50.1283 193.847 49.8043 194.873 49.8043H197.555ZM203.393 48.6343V44.5843H201.989V54.1963H203.393V49.8763H208.919V54.1963H210.323V44.5843H208.919V48.6343H203.393ZM214.889 44.5843H213.485V54.1963H221.423V57.1663H222.773V52.9543H221.657V44.5843H220.253V52.9543H214.889V44.5843ZM225.789 49.8223H233.565C233.583 49.6783 233.583 49.5163 233.583 49.3543C233.583 46.5463 232.017 44.4223 229.047 44.4223C226.347 44.4223 224.367 46.7623 224.367 49.3723C224.367 52.1443 226.455 54.3583 229.245 54.3583C231.153 54.3583 232.881 53.3143 233.457 51.4603L232.197 51.0643C231.747 52.4143 230.649 53.1163 229.227 53.1163C227.355 53.1163 225.897 51.6943 225.789 49.8223ZM232.161 48.6343H225.807C226.041 47.0323 227.373 45.6463 229.047 45.6463C230.883 45.6463 231.981 46.8883 232.161 48.6343ZM240.719 44.5843H236.003V54.1963H240.899C242.591 54.1963 244.391 53.4583 244.391 51.5683C244.391 50.1463 243.347 49.4983 242.267 49.2103C242.987 48.8863 243.869 48.3103 243.869 46.9963C243.869 45.2503 242.267 44.5843 240.719 44.5843ZM240.503 48.7423H237.407V45.8083H240.539C241.295 45.8083 242.465 46.0243 242.465 47.1403C242.465 48.4903 241.223 48.7423 240.503 48.7423ZM240.755 52.9903H237.407V49.8763H240.557C241.745 49.8763 242.969 50.1643 242.969 51.3523C242.969 52.6843 241.673 52.9903 240.755 52.9903ZM252.662 48.6523H249.998C248.288 48.6523 246.2 49.3363 246.2 51.4243V51.5323C246.2 53.1523 247.478 54.3583 249.422 54.3583C250.862 54.3583 251.906 53.6923 252.662 52.5043H252.68V54.1963H254.048V47.9863C254.048 47.6803 253.976 46.9243 253.76 46.4023C253.292 45.3403 252.284 44.4223 250.25 44.4223C247.496 44.4223 246.416 46.5283 246.344 47.3383L247.694 47.6263C247.856 46.7083 248.594 45.6643 250.214 45.6643C251.816 45.6643 252.662 46.4563 252.662 48.0043V48.6523ZM252.662 49.8043V50.1463C252.662 51.9103 251.384 53.1163 249.674 53.1163C248.522 53.1163 247.604 52.5043 247.604 51.4243C247.604 50.1283 248.954 49.8043 249.98 49.8043H252.662ZM263.941 45.8263V44.5843H255.697V45.8263H259.099V54.1963H260.521V45.8263H263.941ZM270.314 48.0943H267.272V44.5843H265.868V54.1963H270.494C272.438 54.1963 274.184 53.1883 274.184 51.0103C274.184 48.8323 272.276 48.0943 270.314 48.0943ZM270.368 52.9543H267.272V49.3003H270.296C271.502 49.3003 272.762 49.6963 272.762 51.0463C272.762 52.5223 271.52 52.9543 270.368 52.9543ZM280.915 54.1963H282.337L287.953 46.5823V54.1963H289.357V44.5843H287.953L282.319 52.2703V44.5843H280.915V54.1963ZM301.827 54.3583C304.635 54.3583 306.813 52.1983 306.813 49.3543C306.813 46.6003 304.635 44.4223 301.863 44.4223C299.019 44.4223 296.877 46.5823 296.877 49.4263C296.877 52.1623 299.037 54.3583 301.827 54.3583ZM301.863 53.1163C299.757 53.1163 298.317 51.3703 298.317 49.3543C298.317 47.3383 299.739 45.6463 301.827 45.6463C303.915 45.6463 305.373 47.4103 305.373 49.4263C305.373 51.4243 303.915 53.1163 301.863 53.1163ZM310.258 46.7623H310.24C310.42 44.6563 310.762 42.9463 314.668 41.9203L318.124 41.0203L317.746 39.8503L314.11 40.7503C309.088 42.0283 308.962 45.2683 308.962 48.5983C308.962 52.6303 311.068 54.3583 313.75 54.3583C316.558 54.3583 318.592 52.3783 318.592 49.3003C318.592 46.2943 316.45 44.4763 314.074 44.4763C312.94 44.4763 311.23 44.8183 310.258 46.7623ZM310.402 49.3723C310.402 47.0683 311.824 45.6823 313.786 45.6823C315.712 45.6823 317.188 47.0863 317.188 49.3723C317.188 51.5683 315.784 53.1343 313.768 53.1343C311.77 53.1343 310.402 51.5863 310.402 49.3723ZM322.502 44.5843H321.098V54.1963H334.238V57.1663H335.606V52.9543H334.472V44.5843H333.05V52.9543H328.478V44.5843H327.074V52.9543H322.502V44.5843ZM343.857 48.6523H341.193C339.483 48.6523 337.395 49.3363 337.395 51.4243V51.5323C337.395 53.1523 338.673 54.3583 340.617 54.3583C342.057 54.3583 343.101 53.6923 343.857 52.5043H343.875V54.1963H345.243V47.9863C345.243 47.6803 345.171 46.9243 344.955 46.4023C344.487 45.3403 343.479 44.4223 341.445 44.4223C338.691 44.4223 337.611 46.5283 337.539 47.3383L338.889 47.6263C339.051 46.7083 339.789 45.6643 341.409 45.6643C343.011 45.6643 343.857 46.4563 343.857 48.0043V48.6523ZM343.857 49.8043V50.1463C343.857 51.9103 342.579 53.1163 340.869 53.1163C339.717 53.1163 338.799 52.5043 338.799 51.4243C338.799 50.1283 340.149 49.8043 341.175 49.8043H343.857ZM355.136 45.8263V44.5843H346.892V45.8263H350.294V54.1963H351.716V45.8263H355.136ZM361.509 48.0943H358.467V44.5843H357.063V54.1963H361.689C363.633 54.1963 365.379 53.1883 365.379 51.0103C365.379 48.8323 363.471 48.0943 361.509 48.0943ZM361.563 52.9543H358.467V49.3003H361.491C362.697 49.3003 363.957 49.6963 363.957 51.0463C363.957 52.5223 362.715 52.9543 361.563 52.9543ZM368.295 49.3363C368.295 47.3383 369.717 45.6643 371.769 45.6643C373.767 45.6643 374.721 47.1583 374.937 47.8963L376.233 47.4823C375.837 45.8623 374.055 44.4223 371.823 44.4223C369.105 44.4223 366.855 46.5103 366.855 49.4263C366.855 52.3063 368.979 54.3583 371.751 54.3583C374.271 54.3583 375.855 52.6843 376.287 51.2443L374.973 50.8123C374.703 51.5323 373.893 53.1163 371.769 53.1163C369.591 53.1163 368.295 51.3343 368.295 49.3363ZM380.576 50.4523L377.768 54.1963H379.46L381.98 50.7043H384.608V54.1963H386.012V44.5843H381.746C379.118 44.5843 378.128 46.1503 378.128 47.5723C378.128 49.1563 379.19 50.1283 380.576 50.4523ZM381.818 45.8263H384.608V49.5163H381.854C380.216 49.5163 379.514 48.5983 379.514 47.6443C379.514 46.2943 380.702 45.8263 381.818 45.8263ZM389.574 56.9503C390.834 56.0503 391.5 54.8623 391.5 53.6023V53.5303C391.5 52.4503 390.906 51.7663 390.078 51.7663C389.394 51.7663 388.818 52.3063 388.818 53.0443C388.818 53.7643 389.322 54.2323 390.006 54.2323C390.15 54.2323 390.312 54.1963 390.438 54.1423C390.312 54.9703 389.682 55.6903 388.872 56.3023L389.574 56.9503ZM52.201 72.6523H49.537C47.827 72.6523 45.739 73.3363 45.739 75.4243V75.5323C45.739 77.1523 47.017 78.3583 48.961 78.3583C50.401 78.3583 51.445 77.6923 52.201 76.5043H52.219V78.1963H53.587V71.9863C53.587 71.6803 53.515 70.9243 53.299 70.4023C52.831 69.3403 51.823 68.4223 49.789 68.4223C47.035 68.4223 45.955 70.5283 45.883 71.3383L47.233 71.6263C47.395 70.7083 48.133 69.6643 49.753 69.6643C51.355 69.6643 52.201 70.4563 52.201 72.0043V72.6523ZM52.201 73.8043V74.1463C52.201 75.9103 50.923 77.1163 49.213 77.1163C48.061 77.1163 47.143 76.5043 47.143 75.4243C47.143 74.1283 48.493 73.8043 49.519 73.8043H52.201ZM63.0669 72.6343V68.5843H61.6629V78.1963H63.0669V73.8763H68.5929V78.1963H69.9969V68.5843H68.5929V72.6343H63.0669ZM73.879 73.8223H81.655C81.673 73.6783 81.673 73.5163 81.673 73.3543C81.673 70.5463 80.107 68.4223 77.137 68.4223C74.437 68.4223 72.457 70.7623 72.457 73.3723C72.457 76.1443 74.545 78.3583 77.335 78.3583C79.243 78.3583 80.971 77.3143 81.547 75.4603L80.287 75.0643C79.837 76.4143 78.739 77.1163 77.317 77.1163C75.445 77.1163 73.987 75.6943 73.879 73.8223ZM80.251 72.6343H73.897C74.131 71.0323 75.463 69.6463 77.137 69.6463C78.973 69.6463 80.071 70.8883 80.251 72.6343ZM89.8579 73.3363C89.8579 71.3383 91.2799 69.6643 93.3319 69.6643C95.3299 69.6643 96.2839 71.1583 96.4999 71.8963L97.7959 71.4823C97.3999 69.8623 95.6179 68.4223 93.3859 68.4223C90.6679 68.4223 88.4179 70.5103 88.4179 73.4263C88.4179 76.3063 90.5419 78.3583 93.3139 78.3583C95.8339 78.3583 97.4179 76.6843 97.8499 75.2443L96.5359 74.8123C96.2659 75.5323 95.4559 77.1163 93.3319 77.1163C91.1539 77.1163 89.8579 75.3343 89.8579 73.3363ZM102.408 74.4523L102.93 69.8263H107.016V78.1963H108.42V68.5843H101.67L101.022 74.2183C100.896 75.3163 100.428 77.0083 99.0421 77.0083V78.2323L99.0961 78.2503C101.22 78.3583 102.192 76.2883 102.408 74.4523ZM112.305 73.8223H120.081C120.099 73.6783 120.099 73.5163 120.099 73.3543C120.099 70.5463 118.533 68.4223 115.563 68.4223C112.863 68.4223 110.883 70.7623 110.883 73.3723C110.883 76.1443 112.971 78.3583 115.761 78.3583C117.669 78.3583 119.397 77.3143 119.973 75.4603L118.713 75.0643C118.263 76.4143 117.165 77.1163 115.743 77.1163C113.871 77.1163 112.413 75.6943 112.305 73.8223ZM118.677 72.6343H112.323C112.557 71.0323 113.889 69.6463 115.563 69.6463C117.399 69.6463 118.497 70.8883 118.677 72.6343ZM121.334 76.9903H121.298V81.1663H122.666V78.1963H130.46V81.1663H131.81V76.9543H130.694V68.5843H123.944L123.44 72.9763C123.206 75.0823 122.702 76.9903 121.334 76.9903ZM124.826 73.0843L125.186 69.8263H129.29V76.9543H123.44C124.358 76.2163 124.682 74.3083 124.826 73.0843ZM134.296 78.1963H135.718L141.334 70.5823V78.1963H142.738V68.5843H141.334L135.7 76.2703V68.5843H134.296V78.1963ZM152.952 69.8263V68.5843H144.708V69.8263H148.11V78.1963H149.532V69.8263H152.952ZM159.326 72.0943H156.284V68.5843H154.88V78.1963H159.506C161.45 78.1963 163.196 77.1883 163.196 75.0103C163.196 72.8323 161.288 72.0943 159.326 72.0943ZM159.38 76.9543H156.284V73.3003H159.308C160.514 73.3003 161.774 73.6963 161.774 75.0463C161.774 76.5223 160.532 76.9543 159.38 76.9543ZM172.753 78.3583C174.859 78.3583 176.299 77.1343 176.299 75.5503C176.299 74.4163 175.705 73.6423 174.607 73.2643C175.687 72.7603 176.119 71.9683 176.119 71.0683C176.119 69.5923 174.661 68.4043 172.681 68.4043C170.809 68.4043 169.477 69.5563 169.135 71.1043L170.395 71.4463C170.773 70.2223 171.565 69.6463 172.681 69.6463C174.013 69.6463 174.715 70.4383 174.715 71.1763C174.715 72.0943 174.067 72.7063 172.753 72.7063H171.295V73.9123H172.789C174.229 73.9123 174.877 74.5423 174.877 75.4963C174.877 76.3423 174.067 77.1163 172.753 77.1163C171.205 77.1163 170.575 76.0723 170.359 75.2083L169.063 75.5143C169.243 76.5943 170.107 78.3583 172.753 78.3583ZM184.617 72.6523H181.953C180.243 72.6523 178.155 73.3363 178.155 75.4243V75.5323C178.155 77.1523 179.433 78.3583 181.377 78.3583C182.817 78.3583 183.861 77.6923 184.617 76.5043H184.635V78.1963H186.003V71.9863C186.003 71.6803 185.931 70.9243 185.715 70.4023C185.247 69.3403 184.239 68.4223 182.205 68.4223C179.451 68.4223 178.371 70.5283 178.299 71.3383L179.649 71.6263C179.811 70.7083 180.549 69.6643 182.169 69.6643C183.771 69.6643 184.617 70.4563 184.617 72.0043V72.6523ZM184.617 73.8043V74.1463C184.617 75.9103 183.339 77.1163 181.629 77.1163C180.477 77.1163 179.559 76.5043 179.559 75.4243C179.559 74.1283 180.909 73.8043 181.935 73.8043H184.617ZM197.463 72.3103L194.619 68.5843H192.963L196.617 73.3183L192.837 78.1963H194.457L197.445 74.2903L200.415 78.1963H202.089L198.291 73.3003L201.927 68.5843H200.307L197.463 72.3103ZM207.766 78.3583C210.574 78.3583 212.752 76.1983 212.752 73.3543C212.752 70.6003 210.574 68.4223 207.802 68.4223C204.958 68.4223 202.816 70.5823 202.816 73.4263C202.816 76.1623 204.976 78.3583 207.766 78.3583ZM207.802 77.1163C205.696 77.1163 204.256 75.3703 204.256 73.3543C204.256 71.3383 205.678 69.6463 207.766 69.6463C209.854 69.6463 211.312 71.4103 211.312 73.4263C211.312 75.4243 209.854 77.1163 207.802 77.1163ZM213.865 76.9903H213.829V81.1663H215.197V78.1963H222.991V81.1663H224.341V76.9543H223.225V68.5843H216.475L215.971 72.9763C215.737 75.0823 215.233 76.9903 213.865 76.9903ZM217.357 73.0843L217.717 69.8263H221.821V76.9543H215.971C216.889 76.2163 217.213 74.3083 217.357 73.0843ZM230.882 78.3583C233.69 78.3583 235.868 76.1983 235.868 73.3543C235.868 70.6003 233.69 68.4223 230.918 68.4223C228.074 68.4223 225.932 70.5823 225.932 73.4263C225.932 76.1623 228.092 78.3583 230.882 78.3583ZM230.918 77.1163C228.812 77.1163 227.372 75.3703 227.372 73.3543C227.372 71.3383 228.794 69.6463 230.882 69.6463C232.97 69.6463 234.428 71.4103 234.428 73.4263C234.428 75.4243 232.97 77.1163 230.918 77.1163ZM239.727 78.1963V70.0783H239.763L243.543 78.1963H244.461L248.241 70.0423H248.259V78.1963H249.663V68.5843H247.611L244.011 76.3783L240.411 68.5843H238.341V78.1963H239.727ZM257.87 78.1963H259.292L264.908 70.5823V78.1963H266.312V68.5843H264.908L259.274 76.2703V68.5843H257.87V78.1963ZM270.911 69.8263H275.951V68.5843H269.507V78.1963H270.911V69.8263ZM287.504 73.3723C287.504 70.8703 285.722 68.4223 282.986 68.4223C281.168 68.4223 280.034 69.4663 279.26 70.6723V68.5843H277.874V82.9303H279.278V76.2163C280.052 77.4403 281.204 78.3403 282.986 78.3403C285.722 78.3403 287.504 75.9643 287.504 73.3723ZM282.698 77.0983C280.664 77.0983 279.26 75.3343 279.26 73.3543C279.26 71.4283 280.718 69.6643 282.698 69.6643C284.822 69.6643 286.064 71.4103 286.064 73.4083C286.064 75.4423 284.822 77.0983 282.698 77.0983ZM294.431 72.0943H291.389V68.5843H289.985V78.1963H294.611C296.555 78.1963 298.301 77.1883 298.301 75.0103C298.301 72.8323 296.393 72.0943 294.431 72.0943ZM300.497 78.1963V68.5843H301.901V78.1963H300.497ZM294.485 76.9543H291.389V73.3003H294.413C295.619 73.3003 296.879 73.6963 296.879 75.0463C296.879 76.5223 295.637 76.9543 294.485 76.9543ZM305.337 66.5683L305.409 74.1103H306.723L306.813 66.5683V64.1023H305.337V66.5683ZM305.013 77.2963C305.013 77.8903 305.481 78.3583 306.075 78.3583C306.651 78.3583 307.137 77.8903 307.137 77.2963C307.137 76.7203 306.651 76.2523 306.075 76.2523C305.481 76.2523 305.013 76.7203 305.013 77.2963Z" fill="black"/>
</svg>
