<svg width="517" height="102" viewBox="0 0 517 102" fill="none" xmlns="http://www.w3.org/2000/svg">
<path d="M515.261 9.38225C515.261 8.31828 513.82 7.9903 513.36 8.94947L513.146 9.39448C509.984 15.9816 503.325 20.1718 496.018 20.1718H4.02283C2.36597 20.1718 1.02283 21.5149 1.02283 23.1718V97.5922C1.02283 99.249 2.36597 100.592 4.02283 100.592H512.261C513.918 100.592 515.261 99.249 515.261 97.5922V35.9718V9.38225Z" fill="#FFF6E9" stroke="black" stroke-width="2"/>
<path d="M47.4286 45.8623H44.0266V41.4703H51.7666V40.1023H42.5506V54.1963H47.6626C51.0286 54.1963 52.7926 52.4863 52.7926 50.0023C52.7926 46.7263 49.8046 45.8623 47.4286 45.8623ZM47.4826 52.8283H44.0266V47.1943H47.3926C49.9306 47.1943 51.2986 48.2023 51.2986 49.8943C51.2986 52.3963 49.0486 52.8283 47.4826 52.8283ZM60.9237 48.6523H58.2597C56.5497 48.6523 54.4617 49.3363 54.4617 51.4243V51.5323C54.4617 53.1523 55.7397 54.3583 57.6837 54.3583C59.1237 54.3583 60.1677 53.6923 60.9237 52.5043H60.9417V54.1963H62.3097V47.9863C62.3097 47.6803 62.2377 46.9243 62.0217 46.4023C61.5537 45.3403 60.5457 44.4223 58.5117 44.4223C55.7577 44.4223 54.6777 46.5283 54.6057 47.3383L55.9557 47.6263C56.1177 46.7083 56.8557 45.6643 58.4757 45.6643C60.0777 45.6643 60.9237 46.4563 60.9237 48.0043V48.6523ZM60.9237 49.8043V50.1463C60.9237 51.9103 59.6457 53.1163 57.9357 53.1163C56.7837 53.1163 55.8657 52.5043 55.8657 51.4243C55.8657 50.1283 57.2157 49.8043 58.2417 49.8043H60.9237ZM66.0962 49.3363C66.0962 47.3383 67.5182 45.6643 69.5702 45.6643C71.5682 45.6643 72.5222 47.1583 72.7382 47.8963L74.0342 47.4823C73.6382 45.8623 71.8562 44.4223 69.6242 44.4223C66.9062 44.4223 64.6562 46.5103 64.6562 49.4263C64.6562 52.3063 66.7802 54.3583 69.5522 54.3583C72.0722 54.3583 73.6562 52.6843 74.0882 51.2443L72.7742 50.8123C72.5042 51.5323 71.6942 53.1163 69.5702 53.1163C67.3922 53.1163 66.0962 51.3343 66.0962 49.3363ZM80.8784 48.0943H77.8364V44.5843H76.4324V54.1963H81.0584C83.0024 54.1963 84.7484 53.1883 84.7484 51.0103C84.7484 48.8323 82.8404 48.0943 80.8784 48.0943ZM86.9444 54.1963V44.5843H88.3484V54.1963H86.9444ZM80.9324 52.9543H77.8364V49.3003H80.8604C82.0664 49.3003 83.3264 49.6963 83.3264 51.0463C83.3264 52.5223 82.0844 52.9543 80.9324 52.9543ZM112.021 49.2643V47.8603H96.3253V49.2643H112.021ZM123.735 44.4223C121.539 44.4223 119.595 45.8623 119.199 47.4643L120.441 47.8783C120.657 47.1223 121.647 45.6463 123.699 45.6463C125.463 45.6463 126.795 46.9243 127.083 48.6163H122.565V49.8403H127.137C126.957 51.6583 125.715 53.1343 123.699 53.1343C121.575 53.1343 120.675 51.5503 120.405 50.8303L119.145 51.2443C119.559 52.6843 121.071 54.3583 123.663 54.3583C126.489 54.3583 128.559 52.2523 128.559 49.3363C128.559 46.4383 126.399 44.4223 123.735 44.4223ZM137.734 45.8263V44.5843H129.49V45.8263H132.892V54.1963H134.314V45.8263H137.734ZM143.575 54.3583C146.383 54.3583 148.561 52.1983 148.561 49.3543C148.561 46.6003 146.383 44.4223 143.611 44.4223C140.767 44.4223 138.625 46.5823 138.625 49.4263C138.625 52.1623 140.785 54.3583 143.575 54.3583ZM143.611 53.1163C141.505 53.1163 140.065 51.3703 140.065 49.3543C140.065 47.3383 141.487 45.6463 143.575 45.6463C145.663 45.6463 147.121 47.4103 147.121 49.4263C147.121 51.4243 145.663 53.1163 143.611 53.1163ZM159.445 48.3103L156.601 44.5843H154.945L158.599 49.3183L154.819 54.1963H156.439L159.427 50.2903L162.397 54.1963H164.071L160.273 49.3003L163.909 44.5843H162.289L159.445 48.3103ZM169.749 54.3583C172.557 54.3583 174.735 52.1983 174.735 49.3543C174.735 46.6003 172.557 44.4223 169.785 44.4223C166.941 44.4223 164.799 46.5823 164.799 49.4263C164.799 52.1623 166.959 54.3583 169.749 54.3583ZM169.785 53.1163C167.679 53.1163 166.239 51.3703 166.239 49.3543C166.239 47.3383 167.661 45.6463 169.749 45.6463C171.837 45.6463 173.295 47.4103 173.295 49.4263C173.295 51.4243 171.837 53.1163 169.785 53.1163ZM186.838 49.3723C186.838 46.8703 185.056 44.4223 182.32 44.4223C180.502 44.4223 179.368 45.4663 178.594 46.6723V44.5843H177.208V58.9303H178.612V52.2163C179.386 53.4403 180.538 54.3403 182.32 54.3403C185.056 54.3403 186.838 51.9643 186.838 49.3723ZM182.032 53.0983C179.998 53.0983 178.594 51.3343 178.594 49.3543C178.594 47.4283 180.052 45.6643 182.032 45.6643C184.156 45.6643 185.398 47.4103 185.398 49.4083C185.398 51.4423 184.156 53.0983 182.032 53.0983ZM193.567 54.3583C196.375 54.3583 198.553 52.1983 198.553 49.3543C198.553 46.6003 196.375 44.4223 193.603 44.4223C190.759 44.4223 188.617 46.5823 188.617 49.4263C188.617 52.1623 190.777 54.3583 193.567 54.3583ZM193.603 53.1163C191.497 53.1163 190.057 51.3703 190.057 49.3543C190.057 47.3383 191.479 45.6463 193.567 45.6463C195.655 45.6463 197.113 47.4103 197.113 49.4263C197.113 51.4243 195.655 53.1163 193.603 53.1163ZM202.43 44.5843H201.026V54.1963H214.4V44.5843H212.978V52.9543H208.406V44.5843H207.002V52.9543H202.43V44.5843ZM221.815 54.3583C224.623 54.3583 226.801 52.1983 226.801 49.3543C226.801 46.6003 224.623 44.4223 221.851 44.4223C219.007 44.4223 216.865 46.5823 216.865 49.4263C216.865 52.1623 219.025 54.3583 221.815 54.3583ZM221.851 53.1163C219.745 53.1163 218.305 51.3703 218.305 49.3543C218.305 47.3383 219.727 45.6463 221.815 45.6463C223.903 45.6463 225.361 47.4103 225.361 49.4263C225.361 51.4243 223.903 53.1163 221.851 53.1163ZM229.67 56.9503C230.93 56.0503 231.596 54.8623 231.596 53.6023V53.5303C231.596 52.4503 231.002 51.7663 230.174 51.7663C229.49 51.7663 228.914 52.3063 228.914 53.0443C228.914 53.7643 229.418 54.2323 230.102 54.2323C230.246 54.2323 230.408 54.1963 230.534 54.1423C230.408 54.9703 229.778 55.6903 228.968 56.3023L229.67 56.9503ZM244.749 45.8263V44.5843H236.505V45.8263H239.907V54.1963H241.329V45.8263H244.749ZM250.591 54.3583C253.399 54.3583 255.577 52.1983 255.577 49.3543C255.577 46.6003 253.399 44.4223 250.627 44.4223C247.783 44.4223 245.641 46.5823 245.641 49.4263C245.641 52.1623 247.801 54.3583 250.591 54.3583ZM250.627 53.1163C248.521 53.1163 247.081 51.3703 247.081 49.3543C247.081 47.3383 248.503 45.6463 250.591 45.6463C252.679 45.6463 254.137 47.4103 254.137 49.4263C254.137 51.4243 252.679 53.1163 250.627 53.1163ZM260.053 50.4523L260.575 45.8263H264.661V54.1963H266.065V44.5843H259.315L258.667 50.2183C258.541 51.3163 258.073 53.0083 256.687 53.0083V54.2323L256.741 54.2503C258.865 54.3583 259.837 52.2883 260.053 50.4523ZM273.675 48.0943H270.633V44.5843H269.229V54.1963H273.855C275.799 54.1963 277.545 53.1883 277.545 51.0103C277.545 48.8323 275.637 48.0943 273.675 48.0943ZM273.729 52.9543H270.633V49.3003H273.657C274.863 49.3003 276.123 49.6963 276.123 51.0463C276.123 52.5223 274.881 52.9543 273.729 52.9543ZM281.235 48.8143H281.127V44.5843H279.723V54.1963H281.127V49.7143H281.235L286.131 54.1963H288.093L282.567 49.2463L287.841 44.5843H285.897L281.235 48.8143ZM293.253 54.3583C296.061 54.3583 298.239 52.1983 298.239 49.3543C298.239 46.6003 296.061 44.4223 293.289 44.4223C290.445 44.4223 288.303 46.5823 288.303 49.4263C288.303 52.1623 290.463 54.3583 293.253 54.3583ZM293.289 53.1163C291.183 53.1163 289.743 51.3703 289.743 49.3543C289.743 47.3383 291.165 45.6463 293.253 45.6463C295.341 45.6463 296.799 47.4103 296.799 49.4263C296.799 51.4243 295.341 53.1163 293.289 53.1163ZM306.459 49.8223H314.235C314.253 49.6783 314.253 49.5163 314.253 49.3543C314.253 46.5463 312.687 44.4223 309.717 44.4223C307.017 44.4223 305.037 46.7623 305.037 49.3723C305.037 52.1443 307.125 54.3583 309.915 54.3583C311.823 54.3583 313.551 53.3143 314.127 51.4603L312.867 51.0643C312.417 52.4143 311.319 53.1163 309.897 53.1163C308.025 53.1163 306.567 51.6943 306.459 49.8223ZM312.831 48.6343H306.477C306.711 47.0323 308.043 45.6463 309.717 45.6463C311.553 45.6463 312.651 46.8883 312.831 48.6343ZM317.411 49.3363C317.411 47.3383 318.833 45.6643 320.885 45.6643C322.883 45.6643 323.837 47.1583 324.053 47.8963L325.349 47.4823C324.953 45.8623 323.171 44.4223 320.939 44.4223C318.221 44.4223 315.971 46.5103 315.971 49.4263C315.971 52.3063 318.095 54.3583 320.867 54.3583C323.387 54.3583 324.971 52.6843 325.403 51.2443L324.089 50.8123C323.819 51.5323 323.009 53.1163 320.885 53.1163C318.707 53.1163 317.411 51.3343 317.411 49.3363ZM329.961 50.4523L330.483 45.8263H334.569V54.1963H335.973V44.5843H329.223L328.575 50.2183C328.449 51.3163 327.981 53.0083 326.595 53.0083V54.2323L326.649 54.2503C328.773 54.3583 329.745 52.2883 329.961 50.4523ZM339.137 54.1963H340.559L346.175 46.5823V54.1963H347.579V44.5843H346.175L340.541 52.2703V44.5843H339.137V54.1963ZM359.546 44.4223C357.35 44.4223 355.406 45.8623 355.01 47.4643L356.252 47.8783C356.468 47.1223 357.458 45.6463 359.51 45.6463C361.274 45.6463 362.606 46.9243 362.894 48.6163H358.376V49.8403H362.948C362.768 51.6583 361.526 53.1343 359.51 53.1343C357.386 53.1343 356.486 51.5503 356.216 50.8303L354.956 51.2443C355.37 52.6843 356.882 54.3583 359.474 54.3583C362.3 54.3583 364.37 52.2523 364.37 49.3363C364.37 46.4383 362.21 44.4223 359.546 44.4223ZM373.544 45.8263V44.5843H365.3V45.8263H368.702V54.1963H370.124V45.8263H373.544ZM379.385 54.3583C382.193 54.3583 384.371 52.1983 384.371 49.3543C384.371 46.6003 382.193 44.4223 379.421 44.4223C376.577 44.4223 374.435 46.5823 374.435 49.4263C374.435 52.1623 376.595 54.3583 379.385 54.3583ZM379.421 53.1163C377.315 53.1163 375.875 51.3703 375.875 49.3543C375.875 47.3383 377.297 45.6463 379.385 45.6463C381.473 45.6463 382.931 47.4103 382.931 49.4263C382.931 51.4243 381.473 53.1163 379.421 53.1163ZM393.276 48.6343V44.5843H391.872V54.1963H393.276V49.8763H398.802V54.1963H400.206V44.5843H398.802V48.6343H393.276ZM404.088 49.8223H411.864C411.882 49.6783 411.882 49.5163 411.882 49.3543C411.882 46.5463 410.316 44.4223 407.346 44.4223C404.646 44.4223 402.666 46.7623 402.666 49.3723C402.666 52.1443 404.754 54.3583 407.544 54.3583C409.452 54.3583 411.18 53.3143 411.756 51.4603L410.496 51.0643C410.046 52.4143 408.948 53.1163 407.526 53.1163C405.654 53.1163 404.196 51.6943 404.088 49.8223ZM410.46 48.6343H404.106C404.34 47.0323 405.672 45.6463 407.346 45.6463C409.182 45.6463 410.28 46.8883 410.46 48.6343ZM420.301 46.7623H420.283C420.463 44.6563 420.805 42.9463 424.711 41.9203L428.167 41.0203L427.789 39.8503L424.153 40.7503C419.131 42.0283 419.005 45.2683 419.005 48.5983C419.005 52.6303 421.111 54.3583 423.793 54.3583C426.601 54.3583 428.635 52.3783 428.635 49.3003C428.635 46.2943 426.493 44.4763 424.117 44.4763C422.983 44.4763 421.273 44.8183 420.301 46.7623ZM420.445 49.3723C420.445 47.0683 421.867 45.6823 423.829 45.6823C425.755 45.6823 427.231 47.0863 427.231 49.3723C427.231 51.5683 425.827 53.1343 423.811 53.1343C421.813 53.1343 420.445 51.5863 420.445 49.3723ZM436.937 48.6523H434.273C432.563 48.6523 430.475 49.3363 430.475 51.4243V51.5323C430.475 53.1523 431.753 54.3583 433.697 54.3583C435.137 54.3583 436.181 53.6923 436.937 52.5043H436.955V54.1963H438.323V47.9863C438.323 47.6803 438.251 46.9243 438.035 46.4023C437.567 45.3403 436.559 44.4223 434.525 44.4223C431.771 44.4223 430.691 46.5283 430.619 47.3383L431.969 47.6263C432.131 46.7083 432.869 45.6643 434.489 45.6643C436.091 45.6643 436.937 46.4563 436.937 48.0043V48.6523ZM436.937 49.8043V50.1463C436.937 51.9103 435.659 53.1163 433.949 53.1163C432.797 53.1163 431.879 52.5043 431.879 51.4243C431.879 50.1283 433.229 49.8043 434.255 49.8043H436.937ZM442.11 49.3363C442.11 47.3383 443.532 45.6643 445.584 45.6643C447.582 45.6643 448.536 47.1583 448.752 47.8963L450.048 47.4823C449.652 45.8623 447.87 44.4223 445.638 44.4223C442.92 44.4223 440.67 46.5103 440.67 49.4263C440.67 52.3063 442.794 54.3583 445.566 54.3583C448.086 54.3583 449.67 52.6843 450.102 51.2443L448.788 50.8123C448.518 51.5323 447.708 53.1163 445.584 53.1163C443.406 53.1163 442.11 51.3343 442.11 49.3363ZM456.892 48.0943H453.85V44.5843H452.446V54.1963H457.072C459.016 54.1963 460.762 53.1883 460.762 51.0103C460.762 48.8323 458.854 48.0943 456.892 48.0943ZM462.958 54.1963V44.5843H464.362V54.1963H462.958ZM456.946 52.9543H453.85V49.3003H456.874C458.08 49.3003 459.34 49.6963 459.34 51.0463C459.34 52.5223 458.098 52.9543 456.946 52.9543ZM42.9106 73.3363C42.9106 71.3383 44.3326 69.6643 46.3846 69.6643C48.3826 69.6643 49.3366 71.1583 49.5526 71.8963L50.8486 71.4823C50.4526 69.8623 48.6706 68.4223 46.4386 68.4223C43.7206 68.4223 41.4706 70.5103 41.4706 73.4263C41.4706 76.3063 43.5946 78.3583 46.3666 78.3583C48.8866 78.3583 50.4706 76.6843 50.9026 75.2443L49.5886 74.8123C49.3186 75.5323 48.5086 77.1163 46.3846 77.1163C44.2066 77.1163 42.9106 75.3343 42.9106 73.3363ZM60.1262 69.8263V68.5843H51.8822V69.8263H55.2842V78.1963H56.7062V69.8263H60.1262ZM62.0535 78.1963H63.4755L69.0915 70.5823V78.1963H70.4955V68.5843H69.0915L63.4575 76.2703V68.5843H62.0535V78.1963ZM83.3202 73.3723C83.3202 70.8703 81.5382 68.4223 78.8022 68.4223C76.9842 68.4223 75.8502 69.4663 75.0762 70.6723V68.5843H73.6902V82.9303H75.0942V76.2163C75.8682 77.4403 77.0202 78.3403 78.8022 78.3403C81.5382 78.3403 83.3202 75.9643 83.3202 73.3723ZM78.5142 77.0983C76.4802 77.0983 75.0762 75.3343 75.0762 73.3543C75.0762 71.4283 76.5342 69.6643 78.5142 69.6643C80.6382 69.6643 81.8802 71.4103 81.8802 73.4083C81.8802 75.4423 80.6382 77.0983 78.5142 77.0983ZM91.5975 72.6523H88.9335C87.2235 72.6523 85.1355 73.3363 85.1355 75.4243V75.5323C85.1355 77.1523 86.4135 78.3583 88.3575 78.3583C89.7975 78.3583 90.8415 77.6923 91.5975 76.5043H91.6155V78.1963H92.9835V71.9863C92.9835 71.6803 92.9115 70.9243 92.6955 70.4023C92.2275 69.3403 91.2195 68.4223 89.1855 68.4223C86.4315 68.4223 85.3515 70.5283 85.2795 71.3383L86.6295 71.6263C86.7915 70.7083 87.5295 69.6643 89.1495 69.6643C90.7515 69.6643 91.5975 70.4563 91.5975 72.0043V72.6523ZM91.5975 73.8043V74.1463C91.5975 75.9103 90.3195 77.1163 88.6095 77.1163C87.4575 77.1163 86.5395 76.5043 86.5395 75.4243C86.5395 74.1283 87.8895 73.8043 88.9155 73.8043H91.5975ZM98.246 74.4523L98.768 69.8263H102.854V78.1963H104.258V68.5843H97.508L96.86 74.2183C96.734 75.3163 96.266 77.0083 94.88 77.0083V78.2323L94.934 78.2503C97.058 78.3583 98.03 76.2883 98.246 74.4523ZM111.869 72.0943H108.827V68.5843H107.423V78.1963H112.049C113.993 78.1963 115.739 77.1883 115.739 75.0103C115.739 72.8323 113.831 72.0943 111.869 72.0943ZM111.923 76.9543H108.827V73.3003H111.851C113.057 73.3003 114.317 73.6963 114.317 75.0463C114.317 76.5223 113.075 76.9543 111.923 76.9543ZM119.321 72.6343V68.5843H117.917V78.1963H119.321V73.8763H124.847V78.1963H126.251V68.5843H124.847V72.6343H119.321ZM133.661 78.3583C136.469 78.3583 138.647 76.1983 138.647 73.3543C138.647 70.6003 136.469 68.4223 133.697 68.4223C130.853 68.4223 128.711 70.5823 128.711 73.4263C128.711 76.1623 130.871 78.3583 133.661 78.3583ZM133.697 77.1163C131.591 77.1163 130.151 75.3703 130.151 73.3543C130.151 71.3383 131.573 69.6463 133.661 69.6463C135.749 69.6463 137.207 71.4103 137.207 73.4263C137.207 75.4243 135.749 77.1163 133.697 77.1163ZM145.35 66.9823C146.844 66.9823 147.978 65.9203 148.266 64.4083L147.258 64.2283C146.988 65.1643 146.43 65.8483 145.35 65.8483C144.27 65.8483 143.694 65.1643 143.424 64.2283L142.434 64.4083C142.704 65.9203 143.838 66.9823 145.35 66.9823ZM141.12 78.1963H142.542L148.158 70.5823V78.1963H149.562V68.5843H148.14L142.524 76.2703V68.5843H141.12V78.1963ZM159.17 78.1963V70.0783H159.206L162.986 78.1963H163.904L167.684 70.0423H167.702V78.1963H169.106V68.5843H167.054L163.454 76.3783L159.854 68.5843H157.784V78.1963H159.17ZM178.082 72.6523H175.418C173.708 72.6523 171.62 73.3363 171.62 75.4243V75.5323C171.62 77.1523 172.898 78.3583 174.842 78.3583C176.282 78.3583 177.326 77.6923 178.082 76.5043H178.1V78.1963H179.468V71.9863C179.468 71.6803 179.396 70.9243 179.18 70.4023C178.712 69.3403 177.704 68.4223 175.67 68.4223C172.916 68.4223 171.836 70.5283 171.764 71.3383L173.114 71.6263C173.276 70.7083 174.014 69.6643 175.634 69.6643C177.236 69.6643 178.082 70.4563 178.082 72.0043V72.6523ZM178.082 73.8043V74.1463C178.082 75.9103 176.804 77.1163 175.094 77.1163C173.942 77.1163 173.024 76.5043 173.024 75.4243C173.024 74.1283 174.374 73.8043 175.4 73.8043H178.082ZM183.92 68.5843H182.516V78.1963H195.89V68.5843H194.468V76.9543H189.896V68.5843H188.492V76.9543H183.92V68.5843ZM199.057 78.1963H200.479L206.095 70.5823V78.1963H207.499V68.5843H206.095L200.461 76.2703V68.5843H199.057V78.1963ZM212.098 72.6343V68.5843H210.694V78.1963H212.098V73.8763H217.624V78.1963H219.028V68.5843H217.624V72.6343H212.098ZM223.702 72.8143H223.594V68.5843H222.19V78.1963H223.594V73.7143H223.702L228.598 78.1963H230.56L225.034 73.2463L230.308 68.5843H228.364L223.702 72.8143ZM232.157 78.1963H233.579L239.195 70.5823V78.1963H240.599V68.5843H239.195L233.561 76.2703V68.5843H232.157V78.1963ZM244.19 80.9503C245.45 80.0503 246.116 78.8623 246.116 77.6023V77.5303C246.116 76.4503 245.522 75.7663 244.694 75.7663C244.01 75.7663 243.434 76.3063 243.434 77.0443C243.434 77.7643 243.938 78.2323 244.622 78.2323C244.766 78.2323 244.928 78.1963 245.054 78.1423C244.928 78.9703 244.298 79.6903 243.488 80.3023L244.19 80.9503ZM257.024 78.3583C259.832 78.3583 262.01 76.1983 262.01 73.3543C262.01 70.6003 259.832 68.4223 257.06 68.4223C254.216 68.4223 252.074 70.5823 252.074 73.4263C252.074 76.1623 254.234 78.3583 257.024 78.3583ZM257.06 77.1163C254.954 77.1163 253.514 75.3703 253.514 73.3543C253.514 71.3383 254.936 69.6463 257.024 69.6463C259.112 69.6463 260.57 71.4103 260.57 73.4263C260.57 75.4243 259.112 77.1163 257.06 77.1163ZM271.169 69.8263V68.5843H262.925V69.8263H266.327V78.1963H267.749V69.8263H271.169ZM273.5 73.3363C273.5 71.3383 274.922 69.6643 276.974 69.6643C278.972 69.6643 279.926 71.1583 280.142 71.8963L281.438 71.4823C281.042 69.8623 279.26 68.4223 277.028 68.4223C274.31 68.4223 272.06 70.5103 272.06 73.4263C272.06 76.3063 274.184 78.3583 276.956 78.3583C279.476 78.3583 281.06 76.6843 281.492 75.2443L280.178 74.8123C279.908 75.5323 279.098 77.1163 276.974 77.1163C274.796 77.1163 273.5 75.3343 273.5 73.3363ZM290.716 69.8263V68.5843H282.472V69.8263H285.874V78.1963H287.296V69.8263H290.716ZM301.427 68.5843H299.915L296.585 76.0183L293.057 68.5843H291.437L295.811 77.5483L293.327 82.9303H294.839L301.427 68.5843ZM304.843 72.8143H304.735V68.5843H303.331V78.1963H304.735V73.7143H304.843L309.739 78.1963H311.701L306.175 73.2463L311.449 68.5843H309.505L304.843 72.8143ZM313.298 78.1963H314.72L320.336 70.5823V78.1963H321.74V68.5843H320.336L314.702 76.2703V68.5843H313.298V78.1963ZM329.65 68.5843H324.934V78.1963H329.83C331.522 78.1963 333.322 77.4583 333.322 75.5683C333.322 74.1463 332.278 73.4983 331.198 73.2103C331.918 72.8863 332.8 72.3103 332.8 70.9963C332.8 69.2503 331.198 68.5843 329.65 68.5843ZM329.434 72.7423H326.338V69.8083H329.47C330.226 69.8083 331.396 70.0243 331.396 71.1403C331.396 72.4903 330.154 72.7423 329.434 72.7423ZM329.686 76.9903H326.338V73.8763H329.488C330.676 73.8763 331.9 74.1643 331.9 75.3523C331.9 76.6843 330.604 76.9903 329.686 76.9903ZM341.594 72.6523H338.93C337.22 72.6523 335.132 73.3363 335.132 75.4243V75.5323C335.132 77.1523 336.41 78.3583 338.354 78.3583C339.794 78.3583 340.838 77.6923 341.594 76.5043H341.612V78.1963H342.98V71.9863C342.98 71.6803 342.908 70.9243 342.692 70.4023C342.224 69.3403 341.216 68.4223 339.182 68.4223C336.428 68.4223 335.348 70.5283 335.276 71.3383L336.626 71.6263C336.788 70.7083 337.526 69.6643 339.146 69.6643C340.748 69.6643 341.594 70.4563 341.594 72.0043V72.6523ZM341.594 73.8043V74.1463C341.594 75.9103 340.316 77.1163 338.606 77.1163C337.454 77.1163 336.536 76.5043 336.536 75.4243C336.536 74.1283 337.886 73.8043 338.912 73.8043H341.594ZM354.29 68.4223C351.734 68.4223 349.808 70.2943 349.538 72.7783H347.432V68.5843H346.028V78.1963H347.432V73.9663H349.52C349.772 76.4863 351.716 78.3583 354.272 78.3583C357.044 78.3583 359.096 76.1803 359.096 73.4083C359.096 70.5463 357.062 68.4223 354.29 68.4223ZM354.29 77.1163C352.31 77.1163 350.924 75.4063 350.924 73.4083C350.924 71.4283 352.202 69.6283 354.272 69.6283C356.306 69.6283 357.638 71.3743 357.638 73.4263C357.638 75.4243 356.324 77.1163 354.29 77.1163ZM362.989 68.5843H361.585V78.1963H374.725V81.1663H376.093V76.9543H374.959V68.5843H373.537V76.9543H368.965V68.5843H367.561V76.9543H362.989V68.5843ZM379.074 73.8223H386.85C386.868 73.6783 386.868 73.5163 386.868 73.3543C386.868 70.5463 385.302 68.4223 382.332 68.4223C379.632 68.4223 377.652 70.7623 377.652 73.3723C377.652 76.1443 379.74 78.3583 382.53 78.3583C384.438 78.3583 386.166 77.3143 386.742 75.4603L385.482 75.0643C385.032 76.4143 383.934 77.1163 382.512 77.1163C380.64 77.1163 379.182 75.6943 379.074 73.8223ZM385.446 72.6343H379.092C379.326 71.0323 380.658 69.6463 382.332 69.6463C384.168 69.6463 385.266 70.8883 385.446 72.6343ZM393.518 66.9823C395.012 66.9823 396.146 65.9203 396.434 64.4083L395.426 64.2283C395.156 65.1643 394.598 65.8483 393.518 65.8483C392.438 65.8483 391.862 65.1643 391.592 64.2283L390.602 64.4083C390.872 65.9203 392.006 66.9823 393.518 66.9823ZM389.288 78.1963H390.71L396.326 70.5823V78.1963H397.73V68.5843H396.308L390.692 76.2703V68.5843H389.288V78.1963ZM407.356 69.8263H412.792V78.1963H414.196V68.5843H405.952V78.1963H407.356V69.8263ZM421.608 78.3583C424.416 78.3583 426.594 76.1983 426.594 73.3543C426.594 70.6003 424.416 68.4223 421.644 68.4223C418.8 68.4223 416.658 70.5823 416.658 73.4263C416.658 76.1623 418.818 78.3583 421.608 78.3583ZM421.644 77.1163C419.538 77.1163 418.098 75.3703 418.098 73.3543C418.098 71.3383 419.52 69.6463 421.608 69.6463C423.696 69.6463 425.154 71.4103 425.154 73.4263C425.154 75.4243 423.696 77.1163 421.644 77.1163ZM435.498 69.8263H440.934V78.1963H442.338V68.5843H434.094V78.1963H435.498V69.8263ZM449.751 78.3583C452.559 78.3583 454.737 76.1983 454.737 73.3543C454.737 70.6003 452.559 68.4223 449.787 68.4223C446.943 68.4223 444.801 70.5823 444.801 73.4263C444.801 76.1623 446.961 78.3583 449.751 78.3583ZM449.787 77.1163C447.681 77.1163 446.241 75.3703 446.241 73.3543C446.241 71.3383 447.663 69.6463 449.751 69.6463C451.839 69.6463 453.297 71.4103 453.297 73.4263C453.297 75.4243 451.839 77.1163 449.787 77.1163ZM459.213 74.4523L459.735 69.8263H463.821V78.1963H465.225V68.5843H458.475L457.827 74.2183C457.701 75.3163 457.233 77.0083 455.847 77.0083V78.2323L455.901 78.2503C458.025 78.3583 458.997 76.2883 459.213 74.4523ZM477.173 68.5843H475.661L472.331 76.0183L468.803 68.5843H467.183L471.557 77.5483L469.073 82.9303H470.585L477.173 68.5843ZM477.645 77.0623C477.645 77.7823 478.221 78.3583 478.941 78.3583C479.643 78.3583 480.219 77.7823 480.219 77.0623C480.219 76.3423 479.643 75.7663 478.941 75.7663C478.221 75.7663 477.645 76.3423 477.645 77.0623Z" fill="black"/>
</svg>
