<svg width="367" height="110" viewBox="0 0 367 110" fill="none" xmlns="http://www.w3.org/2000/svg">
<g filter="url(#filter0_d)">
<path d="M361.261 9.38225C361.261 8.31828 359.82 7.9903 359.36 8.94947L359.146 9.39448C355.984 15.9816 349.325 20.1718 342.018 20.1718H8.31345C6.65659 20.1718 5.31345 21.5149 5.31345 23.1718V97.5922C5.31345 99.249 6.65659 100.592 8.31345 100.592H358.261C359.918 100.592 361.261 99.249 361.261 97.5922V35.9718V9.38225Z" fill="#FFF6E9" stroke="black" stroke-width="2"/>
<path d="M50.183 50.5963L55.421 40.1023H53.783L49.445 48.9943L44.711 40.1023H43.037L48.689 50.5063C47.627 52.8283 45.953 52.8283 44.873 52.8283H43.937V54.1963H44.963C47.987 54.1963 48.887 53.2063 50.183 50.5963ZM65.6542 49.3723C65.6542 46.8703 63.8722 44.4223 61.1362 44.4223C59.3182 44.4223 58.1842 45.4663 57.4102 46.6723V44.5843H56.0242V58.9303H57.4282V52.2163C58.2022 53.4403 59.3542 54.3403 61.1362 54.3403C63.8722 54.3403 65.6542 51.9643 65.6542 49.3723ZM60.8482 53.0983C58.8142 53.0983 57.4102 51.3343 57.4102 49.3543C57.4102 47.4283 58.8682 45.6643 60.8482 45.6643C62.9722 45.6643 64.2142 47.4103 64.2142 49.4083C64.2142 51.4423 62.9722 53.0983 60.8482 53.0983ZM73.9315 48.6523H71.2675C69.5575 48.6523 67.4695 49.3363 67.4695 51.4243V51.5323C67.4695 53.1523 68.7475 54.3583 70.6915 54.3583C72.1315 54.3583 73.1755 53.6923 73.9315 52.5043H73.9495V54.1963H75.3175V47.9863C75.3175 47.6803 75.2455 46.9243 75.0295 46.4023C74.5615 45.3403 73.5535 44.4223 71.5195 44.4223C68.7655 44.4223 67.6855 46.5283 67.6135 47.3383L68.9635 47.6263C69.1255 46.7083 69.8635 45.6643 71.4835 45.6643C73.0855 45.6643 73.9315 46.4563 73.9315 48.0043V48.6523ZM73.9315 49.8043V50.1463C73.9315 51.9103 72.6535 53.1163 70.9435 53.1163C69.7915 53.1163 68.8735 52.5043 68.8735 51.4243C68.8735 50.1283 70.2235 49.8043 71.2495 49.8043H73.9315ZM78.618 42.5683L78.69 50.1103H80.004L80.094 42.5683V40.1023H78.618V42.5683ZM78.294 53.2963C78.294 53.8903 78.762 54.3583 79.356 54.3583C79.932 54.3583 80.418 53.8903 80.418 53.2963C80.418 52.7203 79.932 52.2523 79.356 52.2523C78.762 52.2523 78.294 52.7203 78.294 53.2963ZM90.3977 46.3303V40.1023H88.9217V54.1963H90.3977V47.7523H98.4257V54.1963H99.9017V40.1023H98.4257V46.3303H90.3977ZM109.246 48.6523H106.582C104.872 48.6523 102.784 49.3363 102.784 51.4243V51.5323C102.784 53.1523 104.062 54.3583 106.006 54.3583C107.446 54.3583 108.49 53.6923 109.246 52.5043H109.264V54.1963H110.632V47.9863C110.632 47.6803 110.56 46.9243 110.344 46.4023C109.876 45.3403 108.868 44.4223 106.834 44.4223C104.08 44.4223 103 46.5283 102.928 47.3383L104.278 47.6263C104.44 46.7083 105.178 45.6643 106.798 45.6643C108.4 45.6643 109.246 46.4563 109.246 48.0043V48.6523ZM109.246 49.8043V50.1463C109.246 51.9103 107.968 53.1163 106.258 53.1163C105.106 53.1163 104.188 52.5043 104.188 51.4243C104.188 50.1283 105.538 49.8043 106.564 49.8043H109.246ZM115.192 48.8143H115.084V44.5843H113.68V54.1963H115.084V49.7143H115.192L120.088 54.1963H122.05L116.524 49.2463L121.798 44.5843H119.854L115.192 48.8143ZM127.21 54.3583C130.018 54.3583 132.196 52.1983 132.196 49.3543C132.196 46.6003 130.018 44.4223 127.246 44.4223C124.402 44.4223 122.26 46.5823 122.26 49.4263C122.26 52.1623 124.42 54.3583 127.21 54.3583ZM127.246 53.1163C125.14 53.1163 123.7 51.3703 123.7 49.3543C123.7 47.3383 125.122 45.6463 127.21 45.6463C129.298 45.6463 130.756 47.4103 130.756 49.4263C130.756 51.4243 129.298 53.1163 127.246 53.1163ZM136.073 48.6343V44.5843H134.669V54.1963H136.073V49.8763H141.599V54.1963H143.003V44.5843H141.599V48.6343H136.073ZM146.885 49.8223H154.661C154.679 49.6783 154.679 49.5163 154.679 49.3543C154.679 46.5463 153.113 44.4223 150.143 44.4223C147.443 44.4223 145.463 46.7623 145.463 49.3723C145.463 52.1443 147.551 54.3583 150.341 54.3583C152.249 54.3583 153.977 53.3143 154.553 51.4603L153.293 51.0643C152.843 52.4143 151.745 53.1163 150.323 53.1163C148.451 53.1163 146.993 51.6943 146.885 49.8223ZM153.257 48.6343H146.903C147.137 47.0323 148.469 45.6463 150.143 45.6463C151.979 45.6463 153.077 46.8883 153.257 48.6343ZM158.502 44.5843H157.098V54.1963H165.036V57.1663H166.386V52.9543H165.27V44.5843H163.866V52.9543H158.502V44.5843ZM168.642 47.8243V49.3183H173.79V47.8243H168.642ZM182.892 45.8263V44.5843H174.648V45.8263H178.05V54.1963H179.472V45.8263H182.892ZM188.733 54.3583C191.541 54.3583 193.719 52.1983 193.719 49.3543C193.719 46.6003 191.541 44.4223 188.769 44.4223C185.925 44.4223 183.783 46.5823 183.783 49.4263C183.783 52.1623 185.943 54.3583 188.733 54.3583ZM188.769 53.1163C186.663 53.1163 185.223 51.3703 185.223 49.3543C185.223 47.3383 186.645 45.6463 188.733 45.6463C190.821 45.6463 192.279 47.4103 192.279 49.4263C192.279 51.4243 190.821 53.1163 188.769 53.1163ZM202.605 54.1963V46.0783H202.641L206.421 54.1963H207.339L211.119 46.0423H211.137V54.1963H212.541V44.5843H210.489L206.889 52.3783L203.289 44.5843H201.219V54.1963H202.605ZM219.969 54.3583C222.777 54.3583 224.955 52.1983 224.955 49.3543C224.955 46.6003 222.777 44.4223 220.005 44.4223C217.161 44.4223 215.019 46.5823 215.019 49.4263C215.019 52.1623 217.179 54.3583 219.969 54.3583ZM220.005 53.1163C217.899 53.1163 216.459 51.3703 216.459 49.3543C216.459 47.3383 217.881 45.6463 219.969 45.6463C222.057 45.6463 223.515 47.4103 223.515 49.4263C223.515 51.4243 222.057 53.1163 220.005 53.1163ZM239.684 54.1963L234.986 49.2463L239.576 44.5843H237.776L233.402 49.0123H233.258V44.5843H231.872V49.0123H231.728L227.354 44.5843H225.554L230.144 49.2463L225.446 54.1963H227.354L231.728 49.5343H231.872V54.1963H233.258V49.5343H233.402L237.776 54.1963H239.684ZM242.913 48.6343V44.5843H241.509V54.1963H242.913V49.8763H248.439V54.1963H249.843V44.5843H248.439V48.6343H242.913ZM257.253 54.3583C260.061 54.3583 262.239 52.1983 262.239 49.3543C262.239 46.6003 260.061 44.4223 257.289 44.4223C254.445 44.4223 252.303 46.5823 252.303 49.4263C252.303 52.1623 254.463 54.3583 257.253 54.3583ZM257.289 53.1163C255.183 53.1163 253.743 51.3703 253.743 49.3543C253.743 47.3383 255.165 45.6463 257.253 45.6463C259.341 45.6463 260.799 47.4103 260.799 49.4263C260.799 51.4243 259.341 53.1163 257.289 53.1163ZM270.477 49.3363C270.477 47.3383 271.899 45.6643 273.951 45.6643C275.949 45.6643 276.903 47.1583 277.119 47.8963L278.415 47.4823C278.019 45.8623 276.237 44.4223 274.005 44.4223C271.287 44.4223 269.037 46.5103 269.037 49.4263C269.037 52.3063 271.161 54.3583 273.933 54.3583C276.453 54.3583 278.037 52.6843 278.469 51.2443L277.155 50.8123C276.885 51.5323 276.075 53.1163 273.951 53.1163C271.773 53.1163 270.477 51.3343 270.477 49.3363ZM282.199 54.1963V46.0783H282.235L286.015 54.1963H286.933L290.713 46.0423H290.731V54.1963H292.135V44.5843H290.083L286.483 52.3783L282.883 44.5843H280.813V54.1963H282.199ZM296.035 49.8223H303.811C303.829 49.6783 303.829 49.5163 303.829 49.3543C303.829 46.5463 302.263 44.4223 299.293 44.4223C296.593 44.4223 294.613 46.7623 294.613 49.3723C294.613 52.1443 296.701 54.3583 299.491 54.3583C301.399 54.3583 303.127 53.3143 303.703 51.4603L302.443 51.0643C301.993 52.4143 300.895 53.1163 299.473 53.1163C297.601 53.1163 296.143 51.6943 296.035 49.8223ZM302.407 48.6343H296.053C296.287 47.0323 297.619 45.6463 299.293 45.6463C301.129 45.6463 302.227 46.8883 302.407 48.6343ZM308.34 50.4523L308.862 45.8263H312.948V54.1963H314.352V44.5843H307.602L306.954 50.2183C306.828 51.3163 306.36 53.0083 304.974 53.0083V54.2323L305.028 54.2503C307.152 54.3583 308.124 52.2883 308.34 50.4523ZM321.764 54.3583C324.572 54.3583 326.75 52.1983 326.75 49.3543C326.75 46.6003 324.572 44.4223 321.8 44.4223C318.956 44.4223 316.814 46.5823 316.814 49.4263C316.814 52.1623 318.974 54.3583 321.764 54.3583ZM321.8 53.1163C319.694 53.1163 318.254 51.3703 318.254 49.3543C318.254 47.3383 319.676 45.6463 321.764 45.6463C323.852 45.6463 325.31 47.4103 325.31 49.4263C325.31 51.4243 323.852 53.1163 321.8 53.1163ZM51.425 69.8263V68.5843H43.181V69.8263H46.583V78.1963H48.005V69.8263H51.425ZM58.955 72.6523H56.291C54.581 72.6523 52.493 73.3363 52.493 75.4243V75.5323C52.493 77.1523 53.771 78.3583 55.715 78.3583C57.155 78.3583 58.199 77.6923 58.955 76.5043H58.973V78.1963H60.341V71.9863C60.341 71.6803 60.269 70.9243 60.053 70.4023C59.585 69.3403 58.577 68.4223 56.543 68.4223C53.789 68.4223 52.709 70.5283 52.637 71.3383L53.987 71.6263C54.149 70.7083 54.887 69.6643 56.507 69.6643C58.109 69.6643 58.955 70.4563 58.955 72.0043V72.6523ZM58.955 73.8043V74.1463C58.955 75.9103 57.677 77.1163 55.967 77.1163C54.815 77.1163 53.897 76.5043 53.897 75.4243C53.897 74.1283 55.247 73.8043 56.273 73.8043H58.955ZM64.7934 72.6343V68.5843H63.3894V78.1963H64.7934V73.8763H70.3194V78.1963H71.7234V68.5843H70.3194V72.6343H64.7934ZM76.2895 68.5843H74.8855V78.1963H82.8235V81.1663H84.1735V76.9543H83.0575V68.5843H81.6535V76.9543H76.2895V68.5843ZM87.1895 73.8223H94.9655C94.9835 73.6783 94.9835 73.5163 94.9835 73.3543C94.9835 70.5463 93.4175 68.4223 90.4475 68.4223C87.7475 68.4223 85.7675 70.7623 85.7675 73.3723C85.7675 76.1443 87.8555 78.3583 90.6455 78.3583C92.5535 78.3583 94.2815 77.3143 94.8575 75.4603L93.5975 75.0643C93.1475 76.4143 92.0495 77.1163 90.6275 77.1163C88.7555 77.1163 87.2975 75.6943 87.1895 73.8223ZM93.5615 72.6343H87.2075C87.4415 71.0323 88.7735 69.6463 90.4475 69.6463C92.2835 69.6463 93.3815 70.8883 93.5615 72.6343ZM102.119 68.5843H97.4031V78.1963H102.299C103.991 78.1963 105.791 77.4583 105.791 75.5683C105.791 74.1463 104.747 73.4983 103.667 73.2103C104.387 72.8863 105.269 72.3103 105.269 70.9963C105.269 69.2503 103.667 68.5843 102.119 68.5843ZM101.903 72.7423H98.8071V69.8083H101.939C102.695 69.8083 103.865 70.0243 103.865 71.1403C103.865 72.4903 102.623 72.7423 101.903 72.7423ZM102.155 76.9903H98.8071V73.8763H101.957C103.145 73.8763 104.369 74.1643 104.369 75.3523C104.369 76.6843 103.073 76.9903 102.155 76.9903ZM114.062 72.6523H111.398C109.688 72.6523 107.6 73.3363 107.6 75.4243V75.5323C107.6 77.1523 108.878 78.3583 110.822 78.3583C112.262 78.3583 113.306 77.6923 114.062 76.5043H114.08V78.1963H115.448V71.9863C115.448 71.6803 115.376 70.9243 115.16 70.4023C114.692 69.3403 113.684 68.4223 111.65 68.4223C108.896 68.4223 107.816 70.5283 107.744 71.3383L109.094 71.6263C109.256 70.7083 109.994 69.6643 111.614 69.6643C113.216 69.6643 114.062 70.4563 114.062 72.0043V72.6523ZM114.062 73.8043V74.1463C114.062 75.9103 112.784 77.1163 111.074 77.1163C109.922 77.1163 109.004 76.5043 109.004 75.4243C109.004 74.1283 110.354 73.8043 111.38 73.8043H114.062ZM125.341 69.8263V68.5843H117.097V69.8263H120.499V78.1963H121.921V69.8263H125.341ZM131.714 72.0943H128.672V68.5843H127.268V78.1963H131.894C133.838 78.1963 135.584 77.1883 135.584 75.0103C135.584 72.8323 133.676 72.0943 131.714 72.0943ZM131.768 76.9543H128.672V73.3003H131.696C132.902 73.3003 134.162 73.6963 134.162 75.0463C134.162 76.5223 132.92 76.9543 131.768 76.9543ZM143.719 69.8263H149.155V78.1963H150.559V68.5843H142.315V78.1963H143.719V69.8263ZM157.971 78.3583C160.779 78.3583 162.957 76.1983 162.957 73.3543C162.957 70.6003 160.779 68.4223 158.007 68.4223C155.163 68.4223 153.021 70.5823 153.021 73.4263C153.021 76.1623 155.181 78.3583 157.971 78.3583ZM158.007 77.1163C155.901 77.1163 154.461 75.3703 154.461 73.3543C154.461 71.3383 155.883 69.6463 157.971 69.6463C160.059 69.6463 161.517 71.4103 161.517 73.4263C161.517 75.4243 160.059 77.1163 158.007 77.1163ZM164.07 76.9903H164.034V81.1663H165.402V78.1963H173.196V81.1663H174.546V76.9543H173.43V68.5843H166.68L166.176 72.9763C165.942 75.0823 165.438 76.9903 164.07 76.9903ZM167.562 73.0843L167.922 69.8263H172.026V76.9543H166.176C167.094 76.2163 167.418 74.3083 167.562 73.0843ZM182.797 73.3363C182.797 71.3383 184.219 69.6643 186.271 69.6643C188.269 69.6643 189.223 71.1583 189.439 71.8963L190.735 71.4823C190.339 69.8623 188.557 68.4223 186.325 68.4223C183.607 68.4223 181.357 70.5103 181.357 73.4263C181.357 76.3063 183.481 78.3583 186.253 78.3583C188.773 78.3583 190.357 76.6843 190.789 75.2443L189.475 74.8123C189.205 75.5323 188.395 77.1163 186.271 77.1163C184.093 77.1163 182.797 75.3343 182.797 73.3363ZM197.85 68.5843H193.134V78.1963H198.03C199.722 78.1963 201.522 77.4583 201.522 75.5683C201.522 74.1463 200.478 73.4983 199.398 73.2103C200.118 72.8863 201 72.3103 201 70.9963C201 69.2503 199.398 68.5843 197.85 68.5843ZM197.634 72.7423H194.538V69.8083H197.67C198.426 69.8083 199.596 70.0243 199.596 71.1403C199.596 72.4903 198.354 72.7423 197.634 72.7423ZM197.886 76.9903H194.538V73.8763H197.688C198.876 73.8763 200.1 74.1643 200.1 75.3523C200.1 76.6843 198.804 76.9903 197.886 76.9903ZM204.717 73.8223H212.493C212.511 73.6783 212.511 73.5163 212.511 73.3543C212.511 70.5463 210.945 68.4223 207.975 68.4223C205.275 68.4223 203.295 70.7623 203.295 73.3723C203.295 76.1443 205.383 78.3583 208.173 78.3583C210.081 78.3583 211.809 77.3143 212.385 75.4603L211.125 75.0643C210.675 76.4143 209.577 77.1163 208.155 77.1163C206.283 77.1163 204.825 75.6943 204.717 73.8223ZM211.089 72.6343H204.735C204.969 71.0323 206.301 69.6463 207.975 69.6463C209.811 69.6463 210.909 70.8883 211.089 72.6343ZM221.757 69.8263V68.5843H213.513V69.8263H216.915V78.1963H218.337V69.8263H221.757ZM227.598 78.3583C230.406 78.3583 232.584 76.1983 232.584 73.3543C232.584 70.6003 230.406 68.4223 227.634 68.4223C224.79 68.4223 222.648 70.5823 222.648 73.4263C222.648 76.1623 224.808 78.3583 227.598 78.3583ZM227.634 77.1163C225.528 77.1163 224.088 75.3703 224.088 73.3543C224.088 71.3383 225.51 69.6463 227.598 69.6463C229.686 69.6463 231.144 71.4103 231.144 73.4263C231.144 75.4243 229.686 77.1163 227.634 77.1163ZM236.443 78.1963V70.0783H236.479L240.259 78.1963H241.177L244.957 70.0423H244.975V78.1963H246.379V68.5843H244.327L240.727 76.3783L237.127 68.5843H235.057V78.1963H236.443ZM258.343 68.5843H256.831L253.501 76.0183L249.973 68.5843H248.353L252.727 77.5483L250.243 82.9303H251.755L258.343 68.5843ZM263.073 78.3583C265.179 78.3583 266.619 77.1343 266.619 75.5503C266.619 74.4163 266.025 73.6423 264.927 73.2643C266.007 72.7603 266.439 71.9683 266.439 71.0683C266.439 69.5923 264.981 68.4043 263.001 68.4043C261.129 68.4043 259.797 69.5563 259.455 71.1043L260.715 71.4463C261.093 70.2223 261.885 69.6463 263.001 69.6463C264.333 69.6463 265.035 70.4383 265.035 71.1763C265.035 72.0943 264.387 72.7063 263.073 72.7063H261.615V73.9123H263.109C264.549 73.9123 265.197 74.5423 265.197 75.4963C265.197 76.3423 264.387 77.1163 263.073 77.1163C261.525 77.1163 260.895 76.0723 260.679 75.2083L259.383 75.5143C259.563 76.5943 260.427 78.3583 263.073 78.3583ZM273.587 72.0943H270.545V68.5843H269.141V78.1963H273.767C275.711 78.1963 277.457 77.1883 277.457 75.0103C277.457 72.8323 275.549 72.0943 273.587 72.0943ZM279.653 78.1963V68.5843H281.057V78.1963H279.653ZM273.641 76.9543H270.545V73.3003H273.569C274.775 73.3003 276.035 73.6963 276.035 75.0463C276.035 76.5223 274.793 76.9543 273.641 76.9543ZM285.753 72.8143H285.645V68.5843H284.241V78.1963H285.645V73.7143H285.753L290.649 78.1963H292.611L287.085 73.2463L292.359 68.5843H290.415L285.753 72.8143ZM302.992 68.5843H301.48L298.15 76.0183L294.622 68.5843H293.002L297.376 77.5483L294.892 82.9303H296.404L302.992 68.5843ZM305.147 66.5683L305.219 74.1103H306.533L306.623 66.5683V64.1023H305.147V66.5683ZM304.823 77.2963C304.823 77.8903 305.291 78.3583 305.885 78.3583C306.461 78.3583 306.947 77.8903 306.947 77.2963C306.947 76.7203 306.461 76.2523 305.885 76.2523C305.291 76.2523 304.823 76.7203 304.823 77.2963Z" fill="black"/>
</g>
<defs>
<filter id="filter0_d" x="0.313477" y="7.37939" width="365.948" height="102.213" filterUnits="userSpaceOnUse" color-interpolation-filters="sRGB">
<feFlood flood-opacity="0" result="BackgroundImageFix"/>
<feColorMatrix in="SourceAlpha" type="matrix" values="0 0 0 0 0 0 0 0 0 0 0 0 0 0 0 0 0 0 127 0"/>
<feOffset dy="4"/>
<feGaussianBlur stdDeviation="2"/>
<feColorMatrix type="matrix" values="0 0 0 0 0 0 0 0 0 0 0 0 0 0 0 0 0 0 0.25 0"/>
<feBlend mode="normal" in2="BackgroundImageFix" result="effect1_dropShadow"/>
<feBlend mode="normal" in="SourceGraphic" in2="effect1_dropShadow" result="shape"/>
</filter>
</defs>
</svg>
