<svg width="458" height="82" viewBox="0 0 458 82" fill="none" xmlns="http://www.w3.org/2000/svg">
<path d="M456.261 9.2946C456.261 8.23303 454.825 7.90289 454.362 8.85789L454.065 9.46995C450.887 16.0161 444.249 20.1723 436.972 20.1723H4.31357C2.65671 20.1723 1.31357 21.5154 1.31357 23.1723V77.5804C1.31357 79.2372 2.65671 80.5804 4.31357 80.5804H453.261C454.918 80.5804 456.261 79.2372 456.261 77.5804V35.9723V9.2946Z" fill="#FFF6E9" stroke="black" stroke-width="2"/>
<path d="M41.0603 51.3088C41.0603 49.6528 40.0883 48.3928 38.4863 47.9428V47.9248C39.8363 47.3128 40.7363 46.2868 40.7363 44.6848C40.7363 42.7408 39.1703 40.9588 36.1103 40.9588C33.4283 40.9588 31.5923 42.6868 31.3403 44.6488L32.7623 44.9548C33.0143 43.4608 34.1123 42.3088 36.1103 42.3088C38.1443 42.3088 39.2783 43.2988 39.2783 44.8108C39.2783 46.1608 38.0903 47.3488 36.0923 47.3488H34.3643V48.7168H36.1283C38.3963 48.7168 39.5843 49.7248 39.5843 51.3268C39.5843 52.9828 38.0183 53.9728 36.1283 53.9728C34.1123 53.9728 32.8883 52.7848 32.6363 51.1648L31.2143 51.4708C31.5023 53.8288 33.6083 55.3228 36.1283 55.3228C39.0803 55.3228 41.0603 53.5408 41.0603 51.3088ZM49.4763 49.6528H46.8123C45.1023 49.6528 43.0143 50.3368 43.0143 52.4248V52.5328C43.0143 54.1528 44.2923 55.3588 46.2363 55.3588C47.6763 55.3588 48.7203 54.6928 49.4763 53.5048H49.4943V55.1968H50.8623V48.9868C50.8623 48.6808 50.7903 47.9248 50.5743 47.4028C50.1063 46.3408 49.0983 45.4228 47.0643 45.4228C44.3103 45.4228 43.2303 47.5288 43.1583 48.3388L44.5083 48.6268C44.6703 47.7088 45.4083 46.6648 47.0283 46.6648C48.6303 46.6648 49.4763 47.4568 49.4763 49.0048V49.6528ZM49.4763 50.8048V51.1468C49.4763 52.9108 48.1983 54.1168 46.4883 54.1168C45.3363 54.1168 44.4183 53.5048 44.4183 52.4248C44.4183 51.1288 45.7683 50.8048 46.7943 50.8048H49.4763ZM54.6128 49.0408V45.5848H53.2268V49.2388C53.2268 51.2008 54.6128 52.1008 56.3948 52.1008C57.5288 52.1008 58.8788 51.6328 59.5628 51.2368V55.1968H60.9668V45.5848H59.5628V49.9588C58.8068 50.4988 57.6368 50.8768 56.5748 50.8768C55.4048 50.8768 54.6128 50.2648 54.6128 49.0408ZM64.8613 50.8228H72.6373C72.6553 50.6788 72.6553 50.5168 72.6553 50.3548C72.6553 47.5468 71.0893 45.4228 68.1193 45.4228C65.4193 45.4228 63.4393 47.7628 63.4393 50.3728C63.4393 53.1448 65.5273 55.3588 68.3173 55.3588C70.2253 55.3588 71.9533 54.3148 72.5293 52.4608L71.2693 52.0648C70.8193 53.4148 69.7213 54.1168 68.2993 54.1168C66.4273 54.1168 64.9693 52.6948 64.8613 50.8228ZM71.2333 49.6348H64.8793C65.1133 48.0328 66.4453 46.6468 68.1193 46.6468C69.9553 46.6468 71.0533 47.8888 71.2333 49.6348ZM76.4608 55.1968V47.0788H76.4968L80.2768 55.1968H81.1948L84.9748 47.0428H84.9928V55.1968H86.3968V45.5848H84.3448L80.7448 53.3788L77.1448 45.5848H75.0748V55.1968H76.4608ZM96.0081 46.8268H101.444V55.1968H102.848V45.5848H94.6041V55.1968H96.0081V46.8268ZM110.26 55.3588C113.068 55.3588 115.246 53.1988 115.246 50.3548C115.246 47.6008 113.068 45.4228 110.296 45.4228C107.452 45.4228 105.31 47.5828 105.31 50.4268C105.31 53.1628 107.47 55.3588 110.26 55.3588ZM110.296 54.1168C108.19 54.1168 106.75 52.3708 106.75 50.3548C106.75 48.3388 108.172 46.6468 110.26 46.6468C112.348 46.6468 113.806 48.4108 113.806 50.4268C113.806 52.4248 112.348 54.1168 110.296 54.1168ZM127.349 50.3728C127.349 47.8708 125.567 45.4228 122.831 45.4228C121.013 45.4228 119.879 46.4668 119.105 47.6728V45.5848H117.719V59.9308H119.123V53.2168C119.897 54.4408 121.049 55.3408 122.831 55.3408C125.567 55.3408 127.349 52.9648 127.349 50.3728ZM122.543 54.0988C120.509 54.0988 119.105 52.3348 119.105 50.3548C119.105 48.4288 120.563 46.6648 122.543 46.6648C124.667 46.6648 125.909 48.4108 125.909 50.4088C125.909 52.4428 124.667 54.0988 122.543 54.0988ZM136.517 46.8268V45.5848H128.273V46.8268H131.675V55.1968H133.097V46.8268H136.517ZM138.444 55.1968H139.866L145.482 47.5828V55.1968H146.886V45.5848H145.482L139.848 53.2708V45.5848H138.444V55.1968ZM157.101 46.8268V45.5848H148.857V46.8268H152.259V55.1968H153.681V46.8268H157.101ZM163.474 49.0948H160.432V45.5848H159.028V55.1968H163.654C165.598 55.1968 167.344 54.1888 167.344 52.0108C167.344 49.8328 165.436 49.0948 163.474 49.0948ZM163.528 53.9548H160.432V50.3008H163.456C164.662 50.3008 165.922 50.6968 165.922 52.0468C165.922 53.5228 164.68 53.9548 163.528 53.9548ZM178.791 45.5848H174.075V55.1968H178.971C180.663 55.1968 182.463 54.4588 182.463 52.5688C182.463 51.1468 181.419 50.4988 180.339 50.2108C181.059 49.8868 181.941 49.3108 181.941 47.9968C181.941 46.2508 180.339 45.5848 178.791 45.5848ZM178.575 49.7428H175.479V46.8088H178.611C179.367 46.8088 180.537 47.0248 180.537 48.1408C180.537 49.4908 179.295 49.7428 178.575 49.7428ZM178.827 53.9908H175.479V50.8768H178.629C179.817 50.8768 181.041 51.1648 181.041 52.3528C181.041 53.6848 179.745 53.9908 178.827 53.9908ZM185.658 50.8228H193.434C193.452 50.6788 193.452 50.5168 193.452 50.3548C193.452 47.5468 191.886 45.4228 188.916 45.4228C186.216 45.4228 184.236 47.7628 184.236 50.3728C184.236 53.1448 186.324 55.3588 189.114 55.3588C191.022 55.3588 192.75 54.3148 193.326 52.4608L192.066 52.0648C191.616 53.4148 190.518 54.1168 189.096 54.1168C187.224 54.1168 185.766 52.6948 185.658 50.8228ZM192.03 49.6348H185.676C185.91 48.0328 187.242 46.6468 188.916 46.6468C190.752 46.6468 191.85 47.8888 192.03 49.6348ZM196.574 49.0408V45.5848H195.188V49.2388C195.188 51.2008 196.574 52.1008 198.356 52.1008C199.49 52.1008 200.84 51.6328 201.524 51.2368V55.1968H202.928V45.5848H201.524V49.9588C200.768 50.4988 199.598 50.8768 198.536 50.8768C197.366 50.8768 196.574 50.2648 196.574 49.0408ZM206.822 50.8228H214.598C214.616 50.6788 214.616 50.5168 214.616 50.3548C214.616 47.5468 213.05 45.4228 210.08 45.4228C207.38 45.4228 205.4 47.7628 205.4 50.3728C205.4 53.1448 207.488 55.3588 210.278 55.3588C212.186 55.3588 213.914 54.3148 214.49 52.4608L213.23 52.0648C212.78 53.4148 211.682 54.1168 210.26 54.1168C208.388 54.1168 206.93 52.6948 206.822 50.8228ZM213.194 49.6348H206.84C207.074 48.0328 208.406 46.6468 210.08 46.6468C211.916 46.6468 213.014 47.8888 213.194 49.6348ZM226.666 50.3728C226.666 47.8708 224.884 45.4228 222.148 45.4228C220.33 45.4228 219.196 46.4668 218.422 47.6728V45.5848H217.036V59.9308H218.44V53.2168C219.214 54.4408 220.366 55.3408 222.148 55.3408C224.884 55.3408 226.666 52.9648 226.666 50.3728ZM221.86 54.0988C219.826 54.0988 218.422 52.3348 218.422 50.3548C218.422 48.4288 219.88 46.6648 221.86 46.6648C223.984 46.6648 225.226 48.4108 225.226 50.4088C225.226 52.4428 223.984 54.0988 221.86 54.0988ZM229.147 55.1968H230.569L236.185 47.5828V55.1968H237.589V45.5848H236.185L230.551 53.2708V45.5848H229.147V55.1968ZM242.188 49.6348V45.5848H240.784V55.1968H242.188V50.8768H247.714V55.1968H249.118V45.5848H247.714V49.6348H242.188ZM253.792 49.8148H253.684V45.5848H252.28V55.1968H253.684V50.7148H253.792L258.688 55.1968H260.65L255.124 50.2468L260.398 45.5848H258.454L253.792 49.8148ZM271.031 45.5848H269.519L266.189 53.0188L262.661 45.5848H261.041L265.415 54.5488L262.931 59.9308H264.443L271.031 45.5848ZM279.014 46.8268H284.45V55.1968H285.854V45.5848H277.61V55.1968H279.014V46.8268ZM291.232 51.4528L291.754 46.8268H295.84V55.1968H297.244V45.5848H290.494L289.846 51.2188C289.72 52.3168 289.252 54.0088 287.866 54.0088V55.2328L287.92 55.2508C290.044 55.3588 291.016 53.2888 291.232 51.4528ZM304.657 55.3588C307.465 55.3588 309.643 53.1988 309.643 50.3548C309.643 47.6008 307.465 45.4228 304.693 45.4228C301.849 45.4228 299.707 47.5828 299.707 50.4268C299.707 53.1628 301.867 55.3588 304.657 55.3588ZM304.693 54.1168C302.587 54.1168 301.147 52.3708 301.147 50.3548C301.147 48.3388 302.569 46.6468 304.657 46.6468C306.745 46.6468 308.203 48.4108 308.203 50.4268C308.203 52.4248 306.745 54.1168 304.693 54.1168ZM315.008 49.3108L312.164 45.5848H310.508L314.162 50.3188L310.382 55.1968H312.002L314.99 51.2908L317.96 55.1968H319.634L315.836 50.3008L319.472 45.5848H317.852L315.008 49.3108ZM321.538 55.1968H322.96L328.576 47.5828V55.1968H329.98V45.5848H328.576L322.942 53.2708V45.5848H321.538V55.1968ZM334.56 55.1968V47.0788H334.596L338.376 55.1968H339.294L343.074 47.0428H343.092V55.1968H344.496V45.5848H342.444L338.844 53.3788L335.244 45.5848H333.174V55.1968H334.56ZM355.53 55.3588C357.636 55.3588 359.076 54.1348 359.076 52.5508C359.076 51.4168 358.482 50.6428 357.384 50.2648C358.464 49.7608 358.896 48.9688 358.896 48.0688C358.896 46.5928 357.438 45.4048 355.458 45.4048C353.586 45.4048 352.254 46.5568 351.912 48.1048L353.172 48.4468C353.55 47.2228 354.342 46.6468 355.458 46.6468C356.79 46.6468 357.492 47.4388 357.492 48.1768C357.492 49.0948 356.844 49.7068 355.53 49.7068H354.072V50.9128H355.566C357.006 50.9128 357.654 51.5428 357.654 52.4968C357.654 53.3428 356.844 54.1168 355.53 54.1168C353.982 54.1168 353.352 53.0728 353.136 52.2088L351.84 52.5148C352.02 53.5948 352.884 55.3588 355.53 55.3588ZM366.314 45.5848H361.598V55.1968H366.494C368.186 55.1968 369.986 54.4588 369.986 52.5688C369.986 51.1468 368.942 50.4988 367.862 50.2108C368.582 49.8868 369.464 49.3108 369.464 47.9968C369.464 46.2508 367.862 45.5848 366.314 45.5848ZM366.098 49.7428H363.002V46.8088H366.134C366.89 46.8088 368.06 47.0248 368.06 48.1408C368.06 49.4908 366.818 49.7428 366.098 49.7428ZM366.35 53.9908H363.002V50.8768H366.152C367.34 50.8768 368.564 51.1648 368.564 52.3528C368.564 53.6848 367.268 53.9908 366.35 53.9908ZM380.912 45.5848H379.4L376.07 53.0188L372.542 45.5848H370.922L375.296 54.5488L372.812 59.9308H374.324L380.912 45.5848ZM384.327 49.8148H384.219V45.5848H382.815V55.1968H384.219V50.7148H384.327L389.223 55.1968H391.185L385.659 50.2468L390.933 45.5848H388.989L384.327 49.8148ZM396.344 55.3588C399.152 55.3588 401.33 53.1988 401.33 50.3548C401.33 47.6008 399.152 45.4228 396.38 45.4228C393.536 45.4228 391.394 47.5828 391.394 50.4268C391.394 53.1628 393.554 55.3588 396.344 55.3588ZM396.38 54.1168C394.274 54.1168 392.834 52.3708 392.834 50.3548C392.834 48.3388 394.256 46.6468 396.344 46.6468C398.432 46.6468 399.89 48.4108 399.89 50.4268C399.89 52.4248 398.432 54.1168 396.38 54.1168ZM405.189 55.1968V47.0788H405.225L409.005 55.1968H409.923L413.703 47.0428H413.721V55.1968H415.125V45.5848H413.073L409.473 53.3788L405.873 45.5848H403.803V55.1968H405.189ZM422.031 51.1108C422.067 49.6888 422.715 49.1128 423.633 48.1948C424.893 46.9348 425.739 46.0348 425.739 44.6308C425.739 42.6868 424.119 40.9408 421.599 40.9408C419.367 40.9408 417.441 42.5788 417.441 44.9008C417.441 45.0448 417.441 45.1708 417.459 45.3148L418.899 45.3868C418.791 43.6588 419.781 42.3268 421.599 42.3268C423.435 42.3268 424.227 43.4608 424.227 44.6308C424.227 45.8728 423.255 46.6288 422.445 47.4928C421.671 48.3028 420.645 49.1128 420.645 50.7868C420.645 50.8948 420.645 51.0028 420.663 51.1108H422.031ZM420.231 54.2968C420.231 53.7208 420.717 53.2528 421.293 53.2528C421.887 53.2528 422.337 53.7208 422.337 54.2968C422.337 54.8908 421.887 55.3588 421.293 55.3588C420.717 55.3588 420.231 54.8908 420.231 54.2968Z" fill="black"/>
</svg>
