<svg width="388" height="102" viewBox="0 0 388 102" fill="none" xmlns="http://www.w3.org/2000/svg">
<path d="M386.261 9.38225C386.261 8.31828 384.82 7.9903 384.36 8.94947L384.146 9.39448C380.984 15.9816 374.325 20.1718 367.018 20.1718H4.55884C2.90198 20.1718 1.55884 21.5149 1.55884 23.1718V97.5922C1.55884 99.249 2.90198 100.592 4.55884 100.592H383.261C384.918 100.592 386.261 99.249 386.261 97.5922V35.9718V9.38225Z" fill="#FFF6E9" stroke="black" stroke-width="2"/>
<path d="M46.9505 46.3303V40.1023H45.4745V54.1963H46.9505V47.7523H54.9785V54.1963H56.4545V40.1023H54.9785V46.3303H46.9505ZM68.7867 44.5843H67.2747L63.9447 52.0183L60.4167 44.5843H58.7967L63.1707 53.5483L60.6867 58.9303H62.1987L68.7867 44.5843ZM76.77 45.8263H82.206V54.1963H83.61V44.5843H75.366V54.1963H76.77V45.8263ZM96.4042 49.3723C96.4042 46.8703 94.6222 44.4223 91.8862 44.4223C90.0682 44.4223 88.9342 45.4663 88.1602 46.6723V44.5843H86.7742V58.9303H88.1782V52.2163C88.9522 53.4403 90.1042 54.3403 91.8862 54.3403C94.6222 54.3403 96.4042 51.9643 96.4042 49.3723ZM91.5982 53.0983C89.5642 53.0983 88.1602 51.3343 88.1602 49.3543C88.1602 47.4283 89.6182 45.6643 91.5982 45.6643C93.7222 45.6643 94.9642 47.4103 94.9642 49.4083C94.9642 51.4423 93.7222 53.0983 91.5982 53.0983ZM103.134 54.3583C105.942 54.3583 108.12 52.1983 108.12 49.3543C108.12 46.6003 105.942 44.4223 103.17 44.4223C100.326 44.4223 98.1835 46.5823 98.1835 49.4263C98.1835 52.1623 100.344 54.3583 103.134 54.3583ZM103.17 53.1163C101.064 53.1163 99.6235 51.3703 99.6235 49.3543C99.6235 47.3383 101.046 45.6463 103.134 45.6463C105.222 45.6463 106.68 47.4103 106.68 49.4263C106.68 51.4243 105.222 53.1163 103.17 53.1163ZM111.331 49.3363C111.331 47.3383 112.753 45.6643 114.805 45.6643C116.803 45.6643 117.757 47.1583 117.973 47.8963L119.269 47.4823C118.873 45.8623 117.091 44.4223 114.859 44.4223C112.141 44.4223 109.891 46.5103 109.891 49.4263C109.891 52.3063 112.015 54.3583 114.787 54.3583C117.307 54.3583 118.891 52.6843 119.323 51.2443L118.009 50.8123C117.739 51.5323 116.929 53.1163 114.805 53.1163C112.627 53.1163 111.331 51.3343 111.331 49.3363ZM128.546 45.8263V44.5843H120.302V45.8263H123.704V54.1963H125.126V45.8263H128.546ZM134.387 54.3583C137.195 54.3583 139.373 52.1983 139.373 49.3543C139.373 46.6003 137.195 44.4223 134.423 44.4223C131.579 44.4223 129.437 46.5823 129.437 49.4263C129.437 52.1623 131.597 54.3583 134.387 54.3583ZM134.423 53.1163C132.317 53.1163 130.877 51.3703 130.877 49.3543C130.877 47.3383 132.299 45.6463 134.387 45.6463C136.475 45.6463 137.933 47.4103 137.933 49.4263C137.933 51.4243 136.475 53.1163 134.423 53.1163ZM148.26 54.1963V46.0783H148.296L152.076 54.1963H152.994L156.774 46.0423H156.792V54.1963H158.196V44.5843H156.144L152.544 52.3783L148.944 44.5843H146.874V54.1963H148.26ZM167.172 48.6523H164.508C162.798 48.6523 160.71 49.3363 160.71 51.4243V51.5323C160.71 53.1523 161.988 54.3583 163.932 54.3583C165.372 54.3583 166.416 53.6923 167.172 52.5043H167.19V54.1963H168.558V47.9863C168.558 47.6803 168.486 46.9243 168.27 46.4023C167.802 45.3403 166.794 44.4223 164.76 44.4223C162.006 44.4223 160.926 46.5283 160.854 47.3383L162.204 47.6263C162.366 46.7083 163.104 45.6643 164.724 45.6643C166.326 45.6643 167.172 46.4563 167.172 48.0043V48.6523ZM167.172 49.8043V50.1463C167.172 51.9103 165.894 53.1163 164.184 53.1163C163.032 53.1163 162.114 52.5043 162.114 51.4243C162.114 50.1283 163.464 49.8043 164.49 49.8043H167.172ZM172.344 49.3363C172.344 47.3383 173.766 45.6643 175.818 45.6643C177.816 45.6643 178.77 47.1583 178.986 47.8963L180.282 47.4823C179.886 45.8623 178.104 44.4223 175.872 44.4223C173.154 44.4223 170.904 46.5103 170.904 49.4263C170.904 52.3063 173.028 54.3583 175.8 54.3583C178.32 54.3583 179.904 52.6843 180.336 51.2443L179.022 50.8123C178.752 51.5323 177.942 53.1163 175.818 53.1163C173.64 53.1163 172.344 51.3343 172.344 49.3363ZM189.56 45.8263V44.5843H181.316V45.8263H184.718V54.1963H186.14V45.8263H189.56ZM191.873 49.8223H199.649C199.667 49.6783 199.667 49.5163 199.667 49.3543C199.667 46.5463 198.101 44.4223 195.131 44.4223C192.431 44.4223 190.451 46.7623 190.451 49.3723C190.451 52.1443 192.539 54.3583 195.329 54.3583C197.237 54.3583 198.965 53.3143 199.541 51.4603L198.281 51.0643C197.831 52.4143 196.733 53.1163 195.311 53.1163C193.439 53.1163 191.981 51.6943 191.873 49.8223ZM198.245 48.6343H191.891C192.125 47.0323 193.457 45.6463 195.131 45.6463C196.967 45.6463 198.065 46.8883 198.245 48.6343ZM211.717 49.3723C211.717 46.8703 209.935 44.4223 207.199 44.4223C205.381 44.4223 204.247 45.4663 203.473 46.6723V44.5843H202.087V58.9303H203.491V52.2163C204.265 53.4403 205.417 54.3403 207.199 54.3403C209.935 54.3403 211.717 51.9643 211.717 49.3723ZM206.911 53.0983C204.877 53.0983 203.473 51.3343 203.473 49.3543C203.473 47.4283 204.931 45.6643 206.911 45.6643C209.035 45.6643 210.277 47.4103 210.277 49.4083C210.277 51.4423 209.035 53.0983 206.911 53.0983ZM220.629 48.6343V44.5843H219.225V54.1963H220.629V49.8763H226.155V54.1963H227.559V44.5843H226.155V48.6343H220.629ZM236.517 48.6523H233.853C232.143 48.6523 230.055 49.3363 230.055 51.4243V51.5323C230.055 53.1523 231.333 54.3583 233.277 54.3583C234.717 54.3583 235.761 53.6923 236.517 52.5043H236.535V54.1963H237.903V47.9863C237.903 47.6803 237.831 46.9243 237.615 46.4023C237.147 45.3403 236.139 44.4223 234.105 44.4223C231.351 44.4223 230.271 46.5283 230.199 47.3383L231.549 47.6263C231.711 46.7083 232.449 45.6643 234.069 45.6643C235.671 45.6643 236.517 46.4563 236.517 48.0043V48.6523ZM236.517 49.8043V50.1463C236.517 51.9103 235.239 53.1163 233.529 53.1163C232.377 53.1163 231.459 52.5043 231.459 51.4243C231.459 50.1283 232.809 49.8043 233.835 49.8043H236.517ZM250.695 44.5843H245.979V54.1963H250.875C252.567 54.1963 254.367 53.4583 254.367 51.5683C254.367 50.1463 253.323 49.4983 252.243 49.2103C252.963 48.8863 253.845 48.3103 253.845 46.9963C253.845 45.2503 252.243 44.5843 250.695 44.5843ZM250.479 48.7423H247.383V45.8083H250.515C251.271 45.8083 252.441 46.0243 252.441 47.1403C252.441 48.4903 251.199 48.7423 250.479 48.7423ZM250.731 52.9903H247.383V49.8763H250.533C251.721 49.8763 252.945 50.1643 252.945 51.3523C252.945 52.6843 251.649 52.9903 250.731 52.9903ZM257.581 49.3363C257.581 47.3383 259.003 45.6643 261.055 45.6643C263.053 45.6643 264.007 47.1583 264.223 47.8963L265.519 47.4823C265.123 45.8623 263.341 44.4223 261.109 44.4223C258.391 44.4223 256.141 46.5103 256.141 49.4263C256.141 52.3063 258.265 54.3583 261.037 54.3583C263.557 54.3583 265.141 52.6843 265.573 51.2443L264.259 50.8123C263.989 51.5323 263.179 53.1163 261.055 53.1163C258.877 53.1163 257.581 51.3343 257.581 49.3363ZM268.637 49.8223H276.413C276.431 49.6783 276.431 49.5163 276.431 49.3543C276.431 46.5463 274.865 44.4223 271.895 44.4223C269.195 44.4223 267.215 46.7623 267.215 49.3723C267.215 52.1443 269.303 54.3583 272.093 54.3583C274.001 54.3583 275.729 53.3143 276.305 51.4603L275.045 51.0643C274.595 52.4143 273.497 53.1163 272.075 53.1163C270.203 53.1163 268.745 51.6943 268.637 49.8223ZM275.009 48.6343H268.655C268.889 47.0323 270.221 45.6463 271.895 45.6463C273.731 45.6463 274.829 46.8883 275.009 48.6343ZM293.508 49.3723C293.508 46.8703 291.726 44.4223 288.99 44.4223C287.172 44.4223 286.038 45.4663 285.264 46.6723V44.5843H283.878V58.9303H285.282V52.2163C286.056 53.4403 287.208 54.3403 288.99 54.3403C291.726 54.3403 293.508 51.9643 293.508 49.3723ZM288.702 53.0983C286.668 53.0983 285.264 51.3343 285.264 49.3543C285.264 47.4283 286.722 45.6643 288.702 45.6643C290.826 45.6643 292.068 47.4103 292.068 49.4083C292.068 51.4423 290.826 53.0983 288.702 53.0983ZM304.369 44.5843H302.857L299.527 52.0183L295.999 44.5843H294.379L298.753 53.5483L296.269 58.9303H297.781L304.369 44.5843ZM307.784 48.8143H307.676V44.5843H306.272V54.1963H307.676V49.7143H307.784L312.68 54.1963H314.642L309.116 49.2463L314.39 44.5843H312.446L307.784 48.8143ZM316.239 54.1963H317.661L323.277 46.5823V54.1963H324.681V44.5843H323.277L317.643 52.2703V44.5843H316.239V54.1963ZM328.128 42.5683L328.2 50.1103H329.514L329.604 42.5683V40.1023H328.128V42.5683ZM327.804 53.2963C327.804 53.8903 328.272 54.3583 328.866 54.3583C329.442 54.3583 329.928 53.8903 329.928 53.2963C329.928 52.7203 329.442 52.2523 328.866 52.2523C328.272 52.2523 327.804 52.7203 327.804 53.2963ZM52.1345 78.1963H53.4665L58.7045 66.1183H58.7225V78.1963H60.1805V64.1023H58.0565L52.8365 76.1803L47.5625 64.1023H45.4745V78.1963H46.9325V66.2083L52.1345 78.1963ZM67.9773 78.3583C70.7853 78.3583 72.9633 76.1983 72.9633 73.3543C72.9633 70.6003 70.7853 68.4223 68.0133 68.4223C65.1693 68.4223 63.0273 70.5823 63.0273 73.4263C63.0273 76.1623 65.1873 78.3583 67.9773 78.3583ZM68.0133 77.1163C65.9073 77.1163 64.4673 75.3703 64.4673 73.3543C64.4673 71.3383 65.8893 69.6463 67.9773 69.6463C70.0653 69.6463 71.5233 71.4103 71.5233 73.4263C71.5233 75.4243 70.0653 77.1163 68.0133 77.1163ZM76.9483 72.8143H76.8403V68.5843H75.4363V78.1963H76.8403V73.7143H76.9483L81.8443 78.1963H83.8063L78.2803 73.2463L83.5543 68.5843H81.6103L76.9483 72.8143ZM95.0331 73.3723C95.0331 70.8703 93.2511 68.4223 90.5151 68.4223C88.6971 68.4223 87.5631 69.4663 86.7891 70.6723V68.5843H85.4031V82.9303H86.8071V76.2163C87.5811 77.4403 88.7331 78.3403 90.5151 78.3403C93.2511 78.3403 95.0331 75.9643 95.0331 73.3723ZM90.2271 77.0983C88.1931 77.0983 86.7891 75.3343 86.7891 73.3543C86.7891 71.4283 88.2471 69.6643 90.2271 69.6643C92.3511 69.6643 93.5931 71.4103 93.5931 73.4083C93.5931 75.4423 92.3511 77.0983 90.2271 77.0983ZM101.96 72.0943H98.9184V68.5843H97.5144V78.1963H102.14C104.084 78.1963 105.83 77.1883 105.83 75.0103C105.83 72.8323 103.922 72.0943 101.96 72.0943ZM108.026 78.1963V68.5843H109.43V78.1963H108.026ZM102.014 76.9543H98.9184V73.3003H101.942C103.148 73.3003 104.408 73.6963 104.408 75.0463C104.408 76.5223 103.166 76.9543 102.014 76.9543ZM113.334 73.8223H121.11C121.128 73.6783 121.128 73.5163 121.128 73.3543C121.128 70.5463 119.562 68.4223 116.592 68.4223C113.892 68.4223 111.912 70.7623 111.912 73.3723C111.912 76.1443 114 78.3583 116.79 78.3583C118.698 78.3583 120.426 77.3143 121.002 75.4603L119.742 75.0643C119.292 76.4143 118.194 77.1163 116.772 77.1163C114.9 77.1163 113.442 75.6943 113.334 73.8223ZM119.706 72.6343H113.352C113.586 71.0323 114.918 69.6463 116.592 69.6463C118.428 69.6463 119.526 70.8883 119.706 72.6343ZM129.979 69.8263H135.019V68.5843H128.575V78.1963H129.979V69.8263ZM140.803 78.3583C143.611 78.3583 145.789 76.1983 145.789 73.3543C145.789 70.6003 143.611 68.4223 140.839 68.4223C137.995 68.4223 135.853 70.5823 135.853 73.4263C135.853 76.1623 138.013 78.3583 140.803 78.3583ZM140.839 77.1163C138.733 77.1163 137.293 75.3703 137.293 73.3543C137.293 71.3383 138.715 69.6463 140.803 69.6463C142.891 69.6463 144.349 71.4103 144.349 73.4263C144.349 75.4243 142.891 77.1163 140.839 77.1163ZM149 73.3363C149 71.3383 150.422 69.6643 152.474 69.6643C154.472 69.6643 155.426 71.1583 155.642 71.8963L156.938 71.4823C156.542 69.8623 154.76 68.4223 152.528 68.4223C149.81 68.4223 147.56 70.5103 147.56 73.4263C147.56 76.3063 149.684 78.3583 152.456 78.3583C154.976 78.3583 156.56 76.6843 156.992 75.2443L155.678 74.8123C155.408 75.5323 154.598 77.1163 152.474 77.1163C150.296 77.1163 149 75.3343 149 73.3363ZM166.216 69.8263V68.5843H157.972V69.8263H161.374V78.1963H162.796V69.8263H166.216ZM168.143 78.1963H169.565L175.181 70.5823V78.1963H176.585V68.5843H175.181L169.547 76.2703V68.5843H168.143V78.1963ZM200.269 73.2643V71.8603H184.573V73.2643H200.269ZM209.643 69.8263H214.683V68.5843H208.239V78.1963H209.643V69.8263ZM226.236 73.3723C226.236 70.8703 224.454 68.4223 221.718 68.4223C219.9 68.4223 218.766 69.4663 217.992 70.6723V68.5843H216.606V82.9303H218.01V76.2163C218.784 77.4403 219.936 78.3403 221.718 78.3403C224.454 78.3403 226.236 75.9643 226.236 73.3723ZM221.43 77.0983C219.396 77.0983 217.992 75.3343 217.992 73.3543C217.992 71.4283 219.45 69.6643 221.43 69.6643C223.554 69.6643 224.796 71.4103 224.796 73.4083C224.796 75.4423 223.554 77.0983 221.43 77.0983ZM237.097 68.5843H235.585L232.255 76.0183L228.727 68.5843H227.107L231.481 77.5483L228.997 82.9303H230.509L237.097 68.5843ZM239.387 73.3363C239.387 71.3383 240.809 69.6643 242.861 69.6643C244.859 69.6643 245.813 71.1583 246.029 71.8963L247.325 71.4823C246.929 69.8623 245.147 68.4223 242.915 68.4223C240.197 68.4223 237.947 70.5103 237.947 73.4263C237.947 76.3063 240.071 78.3583 242.843 78.3583C245.363 78.3583 246.947 76.6843 247.379 75.2443L246.065 74.8123C245.795 75.5323 244.985 77.1163 242.861 77.1163C240.683 77.1163 239.387 75.3343 239.387 73.3363ZM256.603 69.8263V68.5843H248.359V69.8263H251.761V78.1963H253.183V69.8263H256.603ZM259.934 72.6343V68.5843H258.53V78.1963H259.934V73.8763H265.46V78.1963H266.864V68.5843H265.46V72.6343H259.934ZM274.472 72.0943H271.43V68.5843H270.026V78.1963H274.652C276.596 78.1963 278.342 77.1883 278.342 75.0103C278.342 72.8323 276.434 72.0943 274.472 72.0943ZM280.538 78.1963V68.5843H281.942V78.1963H280.538ZM274.526 76.9543H271.43V73.3003H274.454C275.66 73.3003 276.92 73.6963 276.92 75.0463C276.92 76.5223 275.678 76.9543 274.526 76.9543ZM285.846 73.8223H293.622C293.64 73.6783 293.64 73.5163 293.64 73.3543C293.64 70.5463 292.074 68.4223 289.104 68.4223C286.404 68.4223 284.424 70.7623 284.424 73.3723C284.424 76.1443 286.512 78.3583 289.302 78.3583C291.21 78.3583 292.938 77.3143 293.514 75.4603L292.254 75.0643C291.804 76.4143 290.706 77.1163 289.284 77.1163C287.412 77.1163 285.954 75.6943 285.846 73.8223ZM292.218 72.6343H285.864C286.098 71.0323 287.43 69.6463 289.104 69.6463C290.94 69.6463 292.038 70.8883 292.218 72.6343ZM302.491 69.8263H307.531V68.5843H301.087V78.1963H302.491V69.8263ZM313.315 78.3583C316.123 78.3583 318.301 76.1983 318.301 73.3543C318.301 70.6003 316.123 68.4223 313.351 68.4223C310.507 68.4223 308.365 70.5823 308.365 73.4263C308.365 76.1623 310.525 78.3583 313.315 78.3583ZM313.351 77.1163C311.245 77.1163 309.805 75.3703 309.805 73.3543C309.805 71.3383 311.227 69.6463 313.315 69.6463C315.403 69.6463 316.861 71.4103 316.861 73.4263C316.861 75.4243 315.403 77.1163 313.351 77.1163ZM321.512 73.3363C321.512 71.3383 322.934 69.6643 324.986 69.6643C326.984 69.6643 327.938 71.1583 328.154 71.8963L329.45 71.4823C329.054 69.8623 327.272 68.4223 325.04 68.4223C322.322 68.4223 320.072 70.5103 320.072 73.4263C320.072 76.3063 322.196 78.3583 324.968 78.3583C327.488 78.3583 329.072 76.6843 329.504 75.2443L328.19 74.8123C327.92 75.5323 327.11 77.1163 324.986 77.1163C322.808 77.1163 321.512 75.3343 321.512 73.3363ZM338.728 69.8263V68.5843H330.484V69.8263H333.886V78.1963H335.308V69.8263H338.728ZM340.655 78.1963H342.077L347.693 70.5823V78.1963H349.097V68.5843H347.693L342.059 76.2703V68.5843H340.655V78.1963ZM351.932 77.0623C351.932 77.7823 352.508 78.3583 353.228 78.3583C353.93 78.3583 354.506 77.7823 354.506 77.0623C354.506 76.3423 353.93 75.7663 353.228 75.7663C352.508 75.7663 351.932 76.3423 351.932 77.0623Z" fill="black"/>
</svg>
