<svg width="486" height="82" viewBox="0 0 486 82" fill="none" xmlns="http://www.w3.org/2000/svg">
<path d="M484.414 9.65886C484.414 8.59729 482.978 8.26715 482.514 9.22215L482.217 9.83421C479.039 16.3804 472.402 20.5365 465.125 20.5365H4.4664C2.80954 20.5365 1.4664 21.8797 1.4664 23.5365V77.9446C1.4664 79.6015 2.80954 80.9446 4.4664 80.9446H481.414C483.071 80.9446 484.414 79.6015 484.414 77.9446V36.3365V9.65886Z" fill="#FFF6E9" stroke="black" stroke-width="2"/>
<path d="M38.5189 41.467H33.8029V55.561H35.2789V50.053H38.2669C41.6869 50.053 43.4689 48.091 43.4689 45.697C43.4689 43.501 41.9569 41.467 38.5189 41.467ZM38.3209 48.685H35.2789V42.853H38.3929C41.1649 42.853 41.9569 44.365 41.9569 45.751C41.9569 47.173 40.9129 48.685 38.3209 48.685ZM51.1741 50.017H48.5101C46.8001 50.017 44.7121 50.701 44.7121 52.789V52.897C44.7121 54.517 45.9901 55.723 47.9341 55.723C49.3741 55.723 50.4181 55.057 51.1741 53.869H51.1921V55.561H52.5601V49.351C52.5601 49.045 52.4881 48.289 52.2721 47.767C51.8041 46.705 50.7961 45.787 48.7621 45.787C46.0081 45.787 44.9281 47.893 44.8561 48.703L46.2061 48.991C46.3681 48.073 47.1061 47.029 48.7261 47.029C50.3281 47.029 51.1741 47.821 51.1741 49.369V50.017ZM51.1741 51.169V51.511C51.1741 53.275 49.8961 54.481 48.1861 54.481C47.0341 54.481 46.1161 53.869 46.1161 52.789C46.1161 51.493 47.4661 51.169 48.4921 51.169H51.1741ZM58.4345 55.723C60.5405 55.723 61.9805 54.499 61.9805 52.915C61.9805 51.781 61.3865 51.007 60.2885 50.629C61.3685 50.125 61.8005 49.333 61.8005 48.433C61.8005 46.957 60.3425 45.769 58.3625 45.769C56.4905 45.769 55.1585 46.921 54.8165 48.469L56.0765 48.811C56.4545 47.587 57.2465 47.011 58.3625 47.011C59.6945 47.011 60.3965 47.803 60.3965 48.541C60.3965 49.459 59.7485 50.071 58.4345 50.071H56.9765V51.277H58.4705C59.9105 51.277 60.5585 51.907 60.5585 52.861C60.5585 53.707 59.7485 54.481 58.4345 54.481C56.8865 54.481 56.2565 53.437 56.0405 52.573L54.7445 52.879C54.9245 53.959 55.7885 55.723 58.4345 55.723ZM65.4751 48.127H65.4571C65.6371 46.021 65.9791 44.311 69.8851 43.285L73.3411 42.385L72.9631 41.215L69.3271 42.115C64.3051 43.393 64.1791 46.633 64.1791 49.963C64.1791 53.995 66.2851 55.723 68.9671 55.723C71.7751 55.723 73.8091 53.743 73.8091 50.665C73.8091 47.659 71.6671 45.841 69.2911 45.841C68.1571 45.841 66.4471 46.183 65.4751 48.127ZM65.6191 50.737C65.6191 48.433 67.0411 47.047 69.0031 47.047C70.9291 47.047 72.4051 48.451 72.4051 50.737C72.4051 52.933 71.0011 54.499 68.9851 54.499C66.9871 54.499 65.6191 52.951 65.6191 50.737ZM77.0356 51.187H84.8116C84.8296 51.043 84.8296 50.881 84.8296 50.719C84.8296 47.911 83.2636 45.787 80.2936 45.787C77.5936 45.787 75.6136 48.127 75.6136 50.737C75.6136 53.509 77.7016 55.723 80.4916 55.723C82.3996 55.723 84.1276 54.679 84.7036 52.825L83.4436 52.429C82.9936 53.779 81.8956 54.481 80.4736 54.481C78.6016 54.481 77.1436 53.059 77.0356 51.187ZM83.4076 49.999H77.0536C77.2876 48.397 78.6196 47.011 80.2936 47.011C82.1296 47.011 83.2276 48.253 83.4076 49.999ZM96.8792 50.737C96.8792 48.235 95.0972 45.787 92.3612 45.787C90.5432 45.787 89.4092 46.831 88.6352 48.037V45.949H87.2492V60.295H88.6532V53.581C89.4272 54.805 90.5792 55.705 92.3612 55.705C95.0972 55.705 96.8792 53.329 96.8792 50.737ZM92.0732 54.463C90.0392 54.463 88.6352 52.699 88.6352 50.719C88.6352 48.793 90.0932 47.029 92.0732 47.029C94.1972 47.029 95.4392 48.775 95.4392 50.773C95.4392 52.807 94.1972 54.463 92.0732 54.463ZM99.3605 55.561H100.782L106.398 47.947V55.561H107.802V45.949H106.398L100.764 53.635V45.949H99.3605V55.561ZM111.735 50.701C111.735 48.703 113.157 47.029 115.209 47.029C117.207 47.029 118.161 48.523 118.377 49.261L119.673 48.847C119.277 47.227 117.495 45.787 115.263 45.787C112.545 45.787 110.295 47.875 110.295 50.791C110.295 53.671 112.419 55.723 115.191 55.723C117.711 55.723 119.295 54.049 119.727 52.609L118.413 52.177C118.143 52.897 117.333 54.481 115.209 54.481C113.031 54.481 111.735 52.699 111.735 50.701ZM126.517 49.459H123.475V45.949H122.071V55.561H126.697C128.641 55.561 130.387 54.553 130.387 52.375C130.387 50.197 128.479 49.459 126.517 49.459ZM126.571 54.319H123.475V50.665H126.499C127.705 50.665 128.965 51.061 128.965 52.411C128.965 53.887 127.723 54.319 126.571 54.319ZM137.856 50.701C137.856 48.703 139.278 47.029 141.33 47.029C143.328 47.029 144.282 48.523 144.498 49.261L145.794 48.847C145.398 47.227 143.616 45.787 141.384 45.787C138.666 45.787 136.416 47.875 136.416 50.791C136.416 53.671 138.54 55.723 141.312 55.723C143.832 55.723 145.416 54.049 145.848 52.609L144.534 52.177C144.264 52.897 143.454 54.481 141.33 54.481C139.152 54.481 137.856 52.699 137.856 50.701ZM154.732 50.179H154.624V45.949H153.22V55.561H154.624V51.079H154.732L159.628 55.561H161.59L156.064 50.611L161.338 45.949H159.394L154.732 50.179ZM166.749 55.723C169.557 55.723 171.735 53.563 171.735 50.719C171.735 47.965 169.557 45.787 166.785 45.787C163.941 45.787 161.799 47.947 161.799 50.791C161.799 53.527 163.959 55.723 166.749 55.723ZM166.785 54.481C164.679 54.481 163.239 52.735 163.239 50.719C163.239 48.703 164.661 47.011 166.749 47.011C168.837 47.011 170.295 48.775 170.295 50.791C170.295 52.789 168.837 54.481 166.785 54.481ZM176.211 51.817L176.733 47.191H180.819V55.561H182.223V45.949H175.473L174.825 51.583C174.699 52.681 174.231 54.373 172.845 54.373V55.597L172.899 55.615C175.023 55.723 175.995 53.653 176.211 51.817ZM189.636 55.723C192.444 55.723 194.622 53.563 194.622 50.719C194.622 47.965 192.444 45.787 189.672 45.787C186.828 45.787 184.686 47.947 184.686 50.791C184.686 53.527 186.846 55.723 189.636 55.723ZM189.672 54.481C187.566 54.481 186.126 52.735 186.126 50.719C186.126 48.703 187.548 47.011 189.636 47.011C191.724 47.011 193.182 48.775 193.182 50.791C193.182 52.789 191.724 54.481 189.672 54.481ZM198.499 49.999V45.949H197.095V55.561H198.499V51.241H204.025V55.561H205.429V45.949H204.025V49.999H198.499ZM210.103 50.179H209.995V45.949H208.591V55.561H209.995V51.079H210.103L214.999 55.561H216.961L211.435 50.611L216.709 45.949H214.765L210.103 50.179ZM222.12 55.723C224.928 55.723 227.106 53.563 227.106 50.719C227.106 47.965 224.928 45.787 222.156 45.787C219.312 45.787 217.17 47.947 217.17 50.791C217.17 53.527 219.33 55.723 222.12 55.723ZM222.156 54.481C220.05 54.481 218.61 52.735 218.61 50.719C218.61 48.703 220.032 47.011 222.12 47.011C224.208 47.011 225.666 48.775 225.666 50.791C225.666 52.789 224.208 54.481 222.156 54.481ZM233.809 44.347C235.303 44.347 236.437 43.285 236.725 41.773L235.717 41.593C235.447 42.529 234.889 43.213 233.809 43.213C232.729 43.213 232.153 42.529 231.883 41.593L230.893 41.773C231.163 43.285 232.297 44.347 233.809 44.347ZM229.579 55.561H231.001L236.617 47.947V55.561H238.021V45.949H236.599L230.983 53.635V45.949H229.579V55.561ZM250.959 45.949H246.243V55.561H251.139C252.831 55.561 254.631 54.823 254.631 52.933C254.631 51.511 253.587 50.863 252.507 50.575C253.227 50.251 254.109 49.675 254.109 48.361C254.109 46.615 252.507 45.949 250.959 45.949ZM250.743 50.107H247.647V47.173H250.779C251.535 47.173 252.705 47.389 252.705 48.505C252.705 49.855 251.463 50.107 250.743 50.107ZM250.995 54.355H247.647V51.241H250.797C251.985 51.241 253.209 51.529 253.209 52.717C253.209 54.049 251.913 54.355 250.995 54.355ZM263.538 47.191H268.974V55.561H270.378V45.949H262.134V55.561H263.538V47.191ZM277.79 55.723C280.598 55.723 282.776 53.563 282.776 50.719C282.776 47.965 280.598 45.787 277.826 45.787C274.982 45.787 272.84 47.947 272.84 50.791C272.84 53.527 275 55.723 277.79 55.723ZM277.826 54.481C275.72 54.481 274.28 52.735 274.28 50.719C274.28 48.703 275.702 47.011 277.79 47.011C279.878 47.011 281.336 48.775 281.336 50.791C281.336 52.789 279.878 54.481 277.826 54.481ZM285.987 50.701C285.987 48.703 287.409 47.029 289.461 47.029C291.459 47.029 292.413 48.523 292.629 49.261L293.925 48.847C293.529 47.227 291.747 45.787 289.515 45.787C286.797 45.787 284.547 47.875 284.547 50.791C284.547 53.671 286.671 55.723 289.443 55.723C291.963 55.723 293.547 54.049 293.979 52.609L292.665 52.177C292.395 52.897 291.585 54.481 289.461 54.481C287.283 54.481 285.987 52.699 285.987 50.701ZM298.537 51.817L299.059 47.191H303.145V55.561H304.549V45.949H297.799L297.151 51.583C297.025 52.681 296.557 54.373 295.171 54.373V55.597L295.225 55.615C297.349 55.723 298.321 53.653 298.537 51.817ZM308.434 51.187H316.21C316.228 51.043 316.228 50.881 316.228 50.719C316.228 47.911 314.662 45.787 311.692 45.787C308.992 45.787 307.012 48.127 307.012 50.737C307.012 53.509 309.1 55.723 311.89 55.723C313.798 55.723 315.526 54.679 316.102 52.825L314.842 52.429C314.392 53.779 313.294 54.481 311.872 54.481C310 54.481 308.542 53.059 308.434 51.187ZM314.806 49.999H308.452C308.686 48.397 310.018 47.011 311.692 47.011C313.528 47.011 314.626 48.253 314.806 49.999ZM317.463 54.355H317.427V58.531H318.795V55.561H326.589V58.531H327.939V54.319H326.823V45.949H320.073L319.569 50.341C319.335 52.447 318.831 54.355 317.463 54.355ZM320.955 50.449L321.315 47.191H325.419V54.319H319.569C320.487 53.581 320.811 51.673 320.955 50.449ZM331.829 49.999V45.949H330.425V55.561H331.829V51.241H337.355V55.561H338.759V45.949H337.355V49.999H331.829ZM350.183 45.787C347.627 45.787 345.701 47.659 345.431 50.143H343.325V45.949H341.921V55.561H343.325V51.331H345.413C345.665 53.851 347.609 55.723 350.165 55.723C352.937 55.723 354.989 53.545 354.989 50.773C354.989 47.911 352.955 45.787 350.183 45.787ZM350.183 54.481C348.203 54.481 346.817 52.771 346.817 50.773C346.817 48.793 348.095 46.993 350.165 46.993C352.199 46.993 353.531 48.739 353.531 50.791C353.531 52.789 352.217 54.481 350.183 54.481ZM365.74 45.787C363.184 45.787 361.258 47.659 360.988 50.143H358.882V45.949H357.478V55.561H358.882V51.331H360.97C361.222 53.851 363.166 55.723 365.722 55.723C368.494 55.723 370.546 53.545 370.546 50.773C370.546 47.911 368.512 45.787 365.74 45.787ZM365.74 54.481C363.76 54.481 362.374 52.771 362.374 50.773C362.374 48.793 363.652 46.993 365.722 46.993C367.756 46.993 369.088 48.739 369.088 50.791C369.088 52.789 367.774 54.481 365.74 54.481ZM382.31 55.723C385.118 55.723 387.296 53.563 387.296 50.719C387.296 47.965 385.118 45.787 382.346 45.787C379.502 45.787 377.36 47.947 377.36 50.791C377.36 53.527 379.52 55.723 382.31 55.723ZM382.346 54.481C380.24 54.481 378.8 52.735 378.8 50.719C378.8 48.703 380.222 47.011 382.31 47.011C384.398 47.011 385.856 48.775 385.856 50.791C385.856 52.789 384.398 54.481 382.346 54.481ZM390.471 49.405V45.949H389.085V49.603C389.085 51.565 390.471 52.465 392.253 52.465C393.387 52.465 394.737 51.997 395.421 51.601V55.561H396.825V45.949H395.421V50.323C394.665 50.863 393.495 51.241 392.433 51.241C391.263 51.241 390.471 50.629 390.471 49.405ZM400.719 51.187H408.495C408.513 51.043 408.513 50.881 408.513 50.719C408.513 47.911 406.947 45.787 403.977 45.787C401.277 45.787 399.297 48.127 399.297 50.737C399.297 53.509 401.385 55.723 404.175 55.723C406.083 55.723 407.811 54.679 408.387 52.825L407.127 52.429C406.677 53.779 405.579 54.481 404.157 54.481C402.285 54.481 400.827 53.059 400.719 51.187ZM407.091 49.999H400.737C400.971 48.397 402.303 47.011 403.977 47.011C405.813 47.011 406.911 48.253 407.091 49.999ZM420.563 50.737C420.563 48.235 418.781 45.787 416.045 45.787C414.227 45.787 413.093 46.831 412.319 48.037V45.949H410.933V60.295H412.337V53.581C413.111 54.805 414.263 55.705 416.045 55.705C418.781 55.705 420.563 53.329 420.563 50.737ZM415.757 54.463C413.723 54.463 412.319 52.699 412.319 50.719C412.319 48.793 413.777 47.029 415.757 47.029C417.881 47.029 419.123 48.775 419.123 50.773C419.123 52.807 417.881 54.463 415.757 54.463ZM423.764 51.187H431.54C431.558 51.043 431.558 50.881 431.558 50.719C431.558 47.911 429.992 45.787 427.022 45.787C424.322 45.787 422.342 48.127 422.342 50.737C422.342 53.509 424.43 55.723 427.22 55.723C429.128 55.723 430.856 54.679 431.432 52.825L430.172 52.429C429.722 53.779 428.624 54.481 427.202 54.481C425.33 54.481 423.872 53.059 423.764 51.187ZM430.136 49.999H423.782C424.016 48.397 425.348 47.011 427.022 47.011C428.858 47.011 429.956 48.253 430.136 49.999ZM432.793 54.355H432.757V58.531H434.125V55.561H441.919V58.531H443.269V54.319H442.153V45.949H435.403L434.899 50.341C434.665 52.447 434.161 54.355 432.793 54.355ZM436.285 50.449L436.645 47.191H440.749V54.319H434.899C435.817 53.581 436.141 51.673 436.285 50.449ZM450.201 49.459H447.159V45.949H445.755V55.561H450.381C452.325 55.561 454.071 54.553 454.071 52.375C454.071 50.197 452.163 49.459 450.201 49.459ZM450.255 54.319H447.159V50.665H450.183C451.389 50.665 452.649 51.061 452.649 52.411C452.649 53.887 451.407 54.319 450.255 54.319Z" fill="black"/>
</svg>
