<svg width="494" height="102" viewBox="0 0 494 102" fill="none" xmlns="http://www.w3.org/2000/svg">
<path d="M492.261 8.99504C492.261 7.9419 490.843 7.60425 490.369 8.5444L489.768 9.73421C486.537 16.1353 479.977 20.172 472.807 20.172H4.38089C2.72403 20.172 1.38089 21.5152 1.38089 23.172V97.5924C1.38089 99.2493 2.72403 100.592 4.38089 100.592H489.261C490.918 100.592 492.261 99.2493 492.261 97.5924V35.972V8.99504Z" fill="#FFF6E9" stroke="black" stroke-width="2"/>
<path d="M66.089 41.4883V40.1023H55.199V41.4883H59.915V54.1963H61.391V41.4883H66.089ZM72.1678 48.6523H69.5038C67.7938 48.6523 65.7058 49.3363 65.7058 51.4243V51.5323C65.7058 53.1523 66.9838 54.3583 68.9278 54.3583C70.3678 54.3583 71.4118 53.6923 72.1678 52.5043H72.1858V54.1963H73.5538V47.9863C73.5538 47.6803 73.4818 46.9243 73.2658 46.4023C72.7978 45.3403 71.7898 44.4223 69.7558 44.4223C67.0018 44.4223 65.9218 46.5283 65.8498 47.3383L67.1998 47.6263C67.3618 46.7083 68.0998 45.6643 69.7198 45.6643C71.3218 45.6643 72.1678 46.4563 72.1678 48.0043V48.6523ZM72.1678 49.8043V50.1463C72.1678 51.9103 70.8898 53.1163 69.1798 53.1163C68.0278 53.1163 67.1098 52.5043 67.1098 51.4243C67.1098 50.1283 68.4598 49.8043 69.4858 49.8043H72.1678ZM82.3677 49.3363C82.3677 47.3383 83.7897 45.6643 85.8417 45.6643C87.8397 45.6643 88.7937 47.1583 89.0097 47.8963L90.3057 47.4823C89.9097 45.8623 88.1277 44.4223 85.8957 44.4223C83.1777 44.4223 80.9277 46.5103 80.9277 49.4263C80.9277 52.3063 83.0517 54.3583 85.8237 54.3583C88.3437 54.3583 89.9277 52.6843 90.3597 51.2443L89.0457 50.8123C88.7757 51.5323 87.9657 53.1163 85.8417 53.1163C83.6637 53.1163 82.3677 51.3343 82.3677 49.3363ZM98.4999 48.6523H95.8359C94.1259 48.6523 92.0379 49.3363 92.0379 51.4243V51.5323C92.0379 53.1523 93.3159 54.3583 95.2599 54.3583C96.6999 54.3583 97.7439 53.6923 98.4999 52.5043H98.5179V54.1963H99.8859V47.9863C99.8859 47.6803 99.8139 46.9243 99.5979 46.4023C99.1299 45.3403 98.1219 44.4223 96.0879 44.4223C93.3339 44.4223 92.2539 46.5283 92.1819 47.3383L93.5319 47.6263C93.6939 46.7083 94.4319 45.6643 96.0519 45.6643C97.6539 45.6643 98.4999 46.4563 98.4999 48.0043V48.6523ZM98.4999 49.8043V50.1463C98.4999 51.9103 97.2219 53.1163 95.5119 53.1163C94.3599 53.1163 93.4419 52.5043 93.4419 51.4243C93.4419 50.1283 94.7919 49.8043 95.8179 49.8043H98.4999ZM104.32 54.1963V46.0783H104.356L108.136 54.1963H109.054L112.834 46.0423H112.852V54.1963H114.256V44.5843H112.204L108.604 52.3783L105.004 44.5843H102.934V54.1963H104.32ZM123.232 48.6523H120.568C118.858 48.6523 116.77 49.3363 116.77 51.4243V51.5323C116.77 53.1523 118.048 54.3583 119.992 54.3583C121.432 54.3583 122.476 53.6923 123.232 52.5043H123.25V54.1963H124.618V47.9863C124.618 47.6803 124.546 46.9243 124.33 46.4023C123.862 45.3403 122.854 44.4223 120.82 44.4223C118.066 44.4223 116.986 46.5283 116.914 47.3383L118.264 47.6263C118.426 46.7083 119.164 45.6643 120.784 45.6643C122.386 45.6643 123.232 46.4563 123.232 48.0043V48.6523ZM123.232 49.8043V50.1463C123.232 51.9103 121.954 53.1163 120.244 53.1163C119.092 53.1163 118.174 52.5043 118.174 51.4243C118.174 50.1283 119.524 49.8043 120.55 49.8043H123.232ZM129.611 50.4523L126.803 54.1963H128.495L131.015 50.7043H133.643V54.1963H135.047V44.5843H130.781C128.153 44.5843 127.163 46.1503 127.163 47.5723C127.163 49.1563 128.225 50.1283 129.611 50.4523ZM130.853 45.8263H133.643V49.5163H130.889C129.251 49.5163 128.549 48.5983 128.549 47.6443C128.549 46.2943 129.737 45.8263 130.853 45.8263ZM138.61 56.9503C139.87 56.0503 140.536 54.8623 140.536 53.6023V53.5303C140.536 52.4503 139.942 51.7663 139.114 51.7663C138.43 51.7663 137.854 52.3063 137.854 53.0443C137.854 53.7643 138.358 54.2323 139.042 54.2323C139.186 54.2323 139.348 54.1963 139.474 54.1423C139.348 54.9703 138.718 55.6903 137.908 56.3023L138.61 56.9503ZM148.708 48.8143H148.6V44.5843H147.196V54.1963H148.6V49.7143H148.708L153.604 54.1963H155.566L150.04 49.2463L155.314 44.5843H153.37L148.708 48.8143ZM160.725 54.3583C163.533 54.3583 165.711 52.1983 165.711 49.3543C165.711 46.6003 163.533 44.4223 160.761 44.4223C157.917 44.4223 155.775 46.5823 155.775 49.4263C155.775 52.1623 157.935 54.3583 160.725 54.3583ZM160.761 53.1163C158.655 53.1163 157.215 51.3703 157.215 49.3543C157.215 47.3383 158.637 45.6463 160.725 45.6463C162.813 45.6463 164.271 47.4103 164.271 49.4263C164.271 51.4243 162.813 53.1163 160.761 53.1163ZM174.87 45.8263V44.5843H166.626V45.8263H170.028V54.1963H171.45V45.8263H174.87ZM180.712 54.3583C183.52 54.3583 185.698 52.1983 185.698 49.3543C185.698 46.6003 183.52 44.4223 180.748 44.4223C177.904 44.4223 175.762 46.5823 175.762 49.4263C175.762 52.1623 177.922 54.3583 180.712 54.3583ZM180.748 53.1163C178.642 53.1163 177.202 51.3703 177.202 49.3543C177.202 47.3383 178.624 45.6463 180.712 45.6463C182.8 45.6463 184.258 47.4103 184.258 49.4263C184.258 51.4243 182.8 53.1163 180.748 53.1163ZM197.801 49.3723C197.801 46.8703 196.019 44.4223 193.283 44.4223C191.465 44.4223 190.331 45.4663 189.557 46.6723V44.5843H188.171V58.9303H189.575V52.2163C190.349 53.4403 191.501 54.3403 193.283 54.3403C196.019 54.3403 197.801 51.9643 197.801 49.3723ZM192.995 53.0983C190.961 53.0983 189.557 51.3343 189.557 49.3543C189.557 47.4283 191.015 45.6643 192.995 45.6643C195.119 45.6643 196.361 47.4103 196.361 49.4083C196.361 51.4423 195.119 53.0983 192.995 53.0983ZM208.662 44.5843H207.15L203.82 52.0183L200.292 44.5843H198.672L203.046 53.5483L200.562 58.9303H202.074L208.662 44.5843ZM218.827 44.4223C216.271 44.4223 214.345 46.2943 214.075 48.7783H211.969V44.5843H210.565V54.1963H211.969V49.9663H214.057C214.309 52.4863 216.253 54.3583 218.809 54.3583C221.581 54.3583 223.633 52.1803 223.633 49.4083C223.633 46.5463 221.599 44.4223 218.827 44.4223ZM218.827 53.1163C216.847 53.1163 215.461 51.4063 215.461 49.4083C215.461 47.4283 216.739 45.6283 218.809 45.6283C220.843 45.6283 222.175 47.3743 222.175 49.4263C222.175 51.4243 220.861 53.1163 218.827 53.1163ZM232.553 45.8263H237.989V54.1963H239.393V44.5843H231.149V54.1963H232.553V45.8263ZM246.805 54.3583C249.613 54.3583 251.791 52.1983 251.791 49.3543C251.791 46.6003 249.613 44.4223 246.841 44.4223C243.997 44.4223 241.855 46.5823 241.855 49.4263C241.855 52.1623 244.015 54.3583 246.805 54.3583ZM246.841 53.1163C244.735 53.1163 243.295 51.3703 243.295 49.3543C243.295 47.3383 244.717 45.6463 246.805 45.6463C248.893 45.6463 250.351 47.4103 250.351 49.4263C250.351 51.4243 248.893 53.1163 246.841 53.1163ZM252.904 52.9903H252.868V57.1663H254.236V54.1963H262.03V57.1663H263.38V52.9543H262.264V44.5843H255.514L255.01 48.9763C254.776 51.0823 254.272 52.9903 252.904 52.9903ZM256.396 49.0843L256.756 45.8263H260.86V52.9543H255.01C255.928 52.2163 256.252 50.3083 256.396 49.0843ZM271.662 48.6523H268.998C267.288 48.6523 265.2 49.3363 265.2 51.4243V51.5323C265.2 53.1523 266.478 54.3583 268.422 54.3583C269.862 54.3583 270.906 53.6923 271.662 52.5043H271.68V54.1963H273.048V47.9863C273.048 47.6803 272.976 46.9243 272.76 46.4023C272.292 45.3403 271.284 44.4223 269.25 44.4223C266.496 44.4223 265.416 46.5283 265.344 47.3383L266.694 47.6263C266.856 46.7083 267.594 45.6643 269.214 45.6643C270.816 45.6643 271.662 46.4563 271.662 48.0043V48.6523ZM271.662 49.8043V50.1463C271.662 51.9103 270.384 53.1163 268.674 53.1163C267.522 53.1163 266.604 52.5043 266.604 51.4243C266.604 50.1283 267.954 49.8043 268.98 49.8043H271.662ZM285.726 49.3723C285.726 46.8703 283.944 44.4223 281.208 44.4223C279.39 44.4223 278.256 45.4663 277.482 46.6723V44.5843H276.096V58.9303H277.5V52.2163C278.274 53.4403 279.426 54.3403 281.208 54.3403C283.944 54.3403 285.726 51.9643 285.726 49.3723ZM280.92 53.0983C278.886 53.0983 277.482 51.3343 277.482 49.3543C277.482 47.4283 278.94 45.6643 280.92 45.6643C283.044 45.6643 284.286 47.4103 284.286 49.4083C284.286 51.4423 283.044 53.0983 280.92 53.0983ZM288.208 54.1963H289.63L295.246 46.5823V54.1963H296.65V44.5843H295.246L289.612 52.2703V44.5843H288.208V54.1963ZM302.058 50.4523L302.58 45.8263H306.666V54.1963H308.07V44.5843H301.32L300.672 50.2183C300.546 51.3163 300.078 53.0083 298.692 53.0083V54.2323L298.746 54.2503C300.87 54.3583 301.842 52.2883 302.058 50.4523ZM317.031 48.6523H314.367C312.657 48.6523 310.569 49.3363 310.569 51.4243V51.5323C310.569 53.1523 311.847 54.3583 313.791 54.3583C315.231 54.3583 316.275 53.6923 317.031 52.5043H317.049V54.1963H318.417V47.9863C318.417 47.6803 318.345 46.9243 318.129 46.4023C317.661 45.3403 316.653 44.4223 314.619 44.4223C311.865 44.4223 310.785 46.5283 310.713 47.3383L312.063 47.6263C312.225 46.7083 312.963 45.6643 314.583 45.6643C316.185 45.6643 317.031 46.4563 317.031 48.0043V48.6523ZM317.031 49.8043V50.1463C317.031 51.9103 315.753 53.1163 314.043 53.1163C312.891 53.1163 311.973 52.5043 311.973 51.4243C311.973 50.1283 313.323 49.8043 314.349 49.8043H317.031ZM327.879 54.1963V46.0783H327.915L331.695 54.1963H332.613L336.393 46.0423H336.411V54.1963H337.815V44.5843H335.763L332.163 52.3783L328.563 44.5843H326.493V54.1963H327.879ZM346.791 48.6523H344.127C342.417 48.6523 340.329 49.3363 340.329 51.4243V51.5323C340.329 53.1523 341.607 54.3583 343.551 54.3583C344.991 54.3583 346.035 53.6923 346.791 52.5043H346.809V54.1963H348.177V47.9863C348.177 47.6803 348.105 46.9243 347.889 46.4023C347.421 45.3403 346.413 44.4223 344.379 44.4223C341.625 44.4223 340.545 46.5283 340.473 47.3383L341.823 47.6263C341.985 46.7083 342.723 45.6643 344.343 45.6643C345.945 45.6643 346.791 46.4563 346.791 48.0043V48.6523ZM346.791 49.8043V50.1463C346.791 51.9103 345.513 53.1163 343.803 53.1163C342.651 53.1163 341.733 52.5043 341.733 51.4243C341.733 50.1283 343.083 49.8043 344.109 49.8043H346.791ZM352.611 54.1963V46.0783H352.647L356.427 54.1963H357.345L361.125 46.0423H361.143V54.1963H362.547V44.5843H360.495L356.895 52.3783L353.295 44.5843H351.225V54.1963H352.611ZM371.523 48.6523H368.859C367.149 48.6523 365.061 49.3363 365.061 51.4243V51.5323C365.061 53.1523 366.339 54.3583 368.283 54.3583C369.723 54.3583 370.767 53.6923 371.523 52.5043H371.541V54.1963H372.909V47.9863C372.909 47.6803 372.837 46.9243 372.621 46.4023C372.153 45.3403 371.145 44.4223 369.111 44.4223C366.357 44.4223 365.277 46.5283 365.205 47.3383L366.555 47.6263C366.717 46.7083 367.455 45.6643 369.075 45.6643C370.677 45.6643 371.523 46.4563 371.523 48.0043V48.6523ZM371.523 49.8043V50.1463C371.523 51.9103 370.245 53.1163 368.535 53.1163C367.383 53.1163 366.465 52.5043 366.465 51.4243C366.465 50.1283 367.815 49.8043 368.841 49.8043H371.523ZM375.598 53.0623C375.598 53.7823 376.174 54.3583 376.894 54.3583C377.596 54.3583 378.172 53.7823 378.172 53.0623C378.172 52.3423 377.596 51.7663 376.894 51.7663C376.174 51.7663 375.598 52.3423 375.598 53.0623ZM62.813 78.3403C66.899 78.3403 68.735 75.4063 69.239 73.6783L67.817 73.1563C67.421 74.3443 66.269 76.9363 62.867 76.9363C59.681 76.9363 57.341 74.4523 57.341 71.1043C57.341 67.7023 59.861 65.3623 62.849 65.3623C66.341 65.3623 67.547 68.1703 67.763 69.0883L69.185 68.5843C68.699 66.6403 66.737 63.9403 62.885 63.9403C59.033 63.9403 55.793 66.9103 55.793 71.1943C55.793 75.4423 58.925 78.3403 62.813 78.3403ZM83.0247 69.8263V68.5843H74.7807V69.8263H78.1827V78.1963H79.6047V69.8263H83.0247ZM90.5546 72.6523H87.8906C86.1806 72.6523 84.0926 73.3363 84.0926 75.4243V75.5323C84.0926 77.1523 85.3706 78.3583 87.3146 78.3583C88.7546 78.3583 89.7986 77.6923 90.5546 76.5043H90.5726V78.1963H91.9406V71.9863C91.9406 71.6803 91.8686 70.9243 91.6526 70.4023C91.1846 69.3403 90.1766 68.4223 88.1426 68.4223C85.3886 68.4223 84.3086 70.5283 84.2366 71.3383L85.5866 71.6263C85.7486 70.7083 86.4866 69.6643 88.1066 69.6643C89.7086 69.6643 90.5546 70.4563 90.5546 72.0043V72.6523ZM90.5546 73.8043V74.1463C90.5546 75.9103 89.2766 77.1163 87.5666 77.1163C86.4146 77.1163 85.4966 76.5043 85.4966 75.4243C85.4966 74.1283 86.8466 73.8043 87.8726 73.8043H90.5546ZM96.501 72.8143H96.393V68.5843H94.989V78.1963H96.393V73.7143H96.501L101.397 78.1963H103.359L97.833 73.2463L103.107 68.5843H101.163L96.501 72.8143ZM104.956 78.1963H106.378L111.994 70.5823V78.1963H113.398V68.5843H111.994L106.36 76.2703V68.5843H104.956V78.1963ZM117.979 78.1963V70.0783H118.015L121.795 78.1963H122.713L126.493 70.0423H126.511V78.1963H127.915V68.5843H125.863L122.263 76.3783L118.663 68.5843H116.593V78.1963H117.979ZM131.094 78.1963H132.516L138.132 70.5823V78.1963H139.536V68.5843H138.132L132.498 76.2703V68.5843H131.094V78.1963ZM152.475 68.5843H147.759V78.1963H152.655C154.347 78.1963 156.147 77.4583 156.147 75.5683C156.147 74.1463 155.103 73.4983 154.023 73.2103C154.743 72.8863 155.625 72.3103 155.625 70.9963C155.625 69.2503 154.023 68.5843 152.475 68.5843ZM152.259 72.7423H149.163V69.8083H152.295C153.051 69.8083 154.221 70.0243 154.221 71.1403C154.221 72.4903 152.979 72.7423 152.259 72.7423ZM152.511 76.9903H149.163V73.8763H152.313C153.501 73.8763 154.725 74.1643 154.725 75.3523C154.725 76.6843 153.429 76.9903 152.511 76.9903ZM159.342 73.8223H167.118C167.136 73.6783 167.136 73.5163 167.136 73.3543C167.136 70.5463 165.57 68.4223 162.6 68.4223C159.9 68.4223 157.92 70.7623 157.92 73.3723C157.92 76.1443 160.008 78.3583 162.798 78.3583C164.706 78.3583 166.434 77.3143 167.01 75.4603L165.75 75.0643C165.3 76.4143 164.202 77.1163 162.78 77.1163C160.908 77.1163 159.45 75.6943 159.342 73.8223ZM165.714 72.6343H159.36C159.594 71.0323 160.926 69.6463 162.6 69.6463C164.436 69.6463 165.534 70.8883 165.714 72.6343ZM170.959 68.5843H169.555V78.1963H182.695V81.1663H184.063V76.9543H182.929V68.5843H181.507V76.9543H176.935V68.5843H175.531V76.9543H170.959V68.5843ZM192.314 72.6523H189.65C187.94 72.6523 185.852 73.3363 185.852 75.4243V75.5323C185.852 77.1523 187.13 78.3583 189.074 78.3583C190.514 78.3583 191.558 77.6923 192.314 76.5043H192.332V78.1963H193.7V71.9863C193.7 71.6803 193.628 70.9243 193.412 70.4023C192.944 69.3403 191.936 68.4223 189.902 68.4223C187.148 68.4223 186.068 70.5283 185.996 71.3383L187.346 71.6263C187.508 70.7083 188.246 69.6643 189.866 69.6643C191.468 69.6643 192.314 70.4563 192.314 72.0043V72.6523ZM192.314 73.8043V74.1463C192.314 75.9103 191.036 77.1163 189.326 77.1163C188.174 77.1163 187.256 76.5043 187.256 75.4243C187.256 74.1283 188.606 73.8043 189.632 73.8043H192.314ZM198.135 78.1963V70.0783H198.171L201.951 78.1963H202.869L206.649 70.0423H206.667V78.1963H208.071V68.5843H206.019L202.419 76.3783L198.819 68.5843H196.749V78.1963H198.135ZM211.251 78.1963H212.673L218.289 70.5823V78.1963H219.693V68.5843H218.289L212.655 76.2703V68.5843H211.251V78.1963ZM229.319 72.6343V68.5843H227.915V78.1963H229.319V73.8763H234.845V78.1963H236.249V68.5843H234.845V72.6343H229.319ZM248.195 68.5843H246.683L243.353 76.0183L239.825 68.5843H238.205L242.579 77.5483L240.095 82.9303H241.607L248.195 68.5843ZM262.986 78.1963L258.288 73.2463L262.878 68.5843H261.078L256.704 73.0123H256.56V68.5843H255.174V73.0123H255.03L250.656 68.5843H248.856L253.446 73.2463L248.748 78.1963H250.656L255.03 73.5343H255.174V78.1963H256.56V73.5343H256.704L261.078 78.1963H262.986ZM266.215 72.6343V68.5843H264.811V78.1963H266.215V73.8763H271.741V78.1963H273.145V68.5843H271.741V72.6343H266.215ZM280.555 78.3583C283.363 78.3583 285.541 76.1983 285.541 73.3543C285.541 70.6003 283.363 68.4223 280.591 68.4223C277.747 68.4223 275.605 70.5823 275.605 73.4263C275.605 76.1623 277.765 78.3583 280.555 78.3583ZM280.591 77.1163C278.485 77.1163 277.045 75.3703 277.045 73.3543C277.045 71.3383 278.467 69.6463 280.555 69.6463C282.643 69.6463 284.101 71.4103 284.101 73.4263C284.101 75.4243 282.643 77.1163 280.591 77.1163ZM294.014 70.7623H293.996C294.176 68.6563 294.518 66.9463 298.424 65.9203L301.88 65.0203L301.502 63.8503L297.866 64.7503C292.844 66.0283 292.718 69.2683 292.718 72.5983C292.718 76.6303 294.824 78.3583 297.506 78.3583C300.314 78.3583 302.348 76.3783 302.348 73.3003C302.348 70.2943 300.206 68.4763 297.83 68.4763C296.696 68.4763 294.986 68.8183 294.014 70.7623ZM294.158 73.3723C294.158 71.0683 295.58 69.6823 297.542 69.6823C299.468 69.6823 300.944 71.0863 300.944 73.3723C300.944 75.5683 299.54 77.1343 297.524 77.1343C295.526 77.1343 294.158 75.5863 294.158 73.3723ZM309.3 72.0943H306.258V68.5843H304.854V78.1963H309.48C311.424 78.1963 313.17 77.1883 313.17 75.0103C313.17 72.8323 311.262 72.0943 309.3 72.0943ZM315.366 78.1963V68.5843H316.77V78.1963H315.366ZM309.354 76.9543H306.258V73.3003H309.282C310.488 73.3003 311.748 73.6963 311.748 75.0463C311.748 76.5223 310.506 76.9543 309.354 76.9543ZM326.974 69.8263V68.5843H318.73V69.8263H322.132V78.1963H323.554V69.8263H326.974ZM333.347 72.0943H330.305V68.5843H328.901V78.1963H333.527C335.471 78.1963 337.217 77.1883 337.217 75.0103C337.217 72.8323 335.309 72.0943 333.347 72.0943ZM333.401 76.9543H330.305V73.3003H333.329C334.535 73.3003 335.795 73.6963 335.795 75.0463C335.795 76.5223 334.553 76.9543 333.401 76.9543ZM349.744 72.6523H347.08C345.37 72.6523 343.282 73.3363 343.282 75.4243V75.5323C343.282 77.1523 344.56 78.3583 346.504 78.3583C347.944 78.3583 348.988 77.6923 349.744 76.5043H349.762V78.1963H351.13V71.9863C351.13 71.6803 351.058 70.9243 350.842 70.4023C350.374 69.3403 349.366 68.4223 347.332 68.4223C344.578 68.4223 343.498 70.5283 343.426 71.3383L344.776 71.6263C344.938 70.7083 345.676 69.6643 347.296 69.6643C348.898 69.6643 349.744 70.4563 349.744 72.0043V72.6523ZM349.744 73.8043V74.1463C349.744 75.9103 348.466 77.1163 346.756 77.1163C345.604 77.1163 344.686 76.5043 344.686 75.4243C344.686 74.1283 346.036 73.8043 347.062 73.8043H349.744ZM355.69 72.8143H355.582V68.5843H354.178V78.1963H355.582V73.7143H355.69L360.586 78.1963H362.548L357.022 73.2463L362.296 68.5843H360.352L355.69 72.8143ZM365.657 72.8143H365.549V68.5843H364.145V78.1963H365.549V73.7143H365.657L370.553 78.1963H372.515L366.989 73.2463L372.263 68.5843H370.319L365.657 72.8143ZM382.896 68.5843H381.384L378.054 76.0183L374.526 68.5843H372.906L377.28 77.5483L374.796 82.9303H376.308L382.896 68.5843ZM394.43 73.3723C394.43 70.8703 392.648 68.4223 389.912 68.4223C388.094 68.4223 386.96 69.4663 386.186 70.6723V68.5843H384.8V82.9303H386.204V76.2163C386.978 77.4403 388.13 78.3403 389.912 78.3403C392.648 78.3403 394.43 75.9643 394.43 73.3723ZM389.624 77.0983C387.59 77.0983 386.186 75.3343 386.186 73.3543C386.186 71.4283 387.644 69.6643 389.624 69.6643C391.748 69.6643 392.99 71.4103 392.99 73.4083C392.99 75.4423 391.748 77.0983 389.624 77.0983ZM402.707 72.6523H400.043C398.333 72.6523 396.245 73.3363 396.245 75.4243V75.5323C396.245 77.1523 397.523 78.3583 399.467 78.3583C400.907 78.3583 401.951 77.6923 402.707 76.5043H402.725V78.1963H404.093V71.9863C404.093 71.6803 404.021 70.9243 403.805 70.4023C403.337 69.3403 402.329 68.4223 400.295 68.4223C397.541 68.4223 396.461 70.5283 396.389 71.3383L397.739 71.6263C397.901 70.7083 398.639 69.6643 400.259 69.6643C401.861 69.6643 402.707 70.4563 402.707 72.0043V72.6523ZM402.707 73.8043V74.1463C402.707 75.9103 401.429 77.1163 399.719 77.1163C398.567 77.1163 397.649 76.5043 397.649 75.4243C397.649 74.1283 398.999 73.8043 400.025 73.8043H402.707ZM413.986 69.8263V68.5843H405.742V69.8263H409.144V78.1963H410.566V69.8263H413.986ZM417.317 72.6343V68.5843H415.913V78.1963H417.317V73.8763H422.843V78.1963H424.247V68.5843H422.843V72.6343H417.317ZM428.129 73.8223H435.905C435.923 73.6783 435.923 73.5163 435.923 73.3543C435.923 70.5463 434.357 68.4223 431.387 68.4223C428.687 68.4223 426.707 70.7623 426.707 73.3723C426.707 76.1443 428.795 78.3583 431.585 78.3583C433.493 78.3583 435.221 77.3143 435.797 75.4603L434.537 75.0643C434.087 76.4143 432.989 77.1163 431.567 77.1163C429.695 77.1163 428.237 75.6943 428.129 73.8223ZM434.501 72.6343H428.147C428.381 71.0323 429.713 69.6463 431.387 69.6463C433.223 69.6463 434.321 70.8883 434.501 72.6343ZM439.063 73.8223H446.839C446.857 73.6783 446.857 73.5163 446.857 73.3543C446.857 70.5463 445.291 68.4223 442.321 68.4223C439.621 68.4223 437.641 70.7623 437.641 73.3723C437.641 76.1443 439.729 78.3583 442.519 78.3583C444.427 78.3583 446.155 77.3143 446.731 75.4603L445.471 75.0643C445.021 76.4143 443.923 77.1163 442.501 77.1163C440.629 77.1163 439.171 75.6943 439.063 73.8223ZM445.435 72.6343H439.081C439.315 71.0323 440.647 69.6463 442.321 69.6463C444.157 69.6463 445.255 70.8883 445.435 72.6343ZM449.528 66.5683L449.6 74.1103H450.914L451.004 66.5683V64.1023H449.528V66.5683ZM449.204 77.2963C449.204 77.8903 449.672 78.3583 450.266 78.3583C450.842 78.3583 451.328 77.8903 451.328 77.2963C451.328 76.7203 450.842 76.2523 450.266 76.2523C449.672 76.2523 449.204 76.7203 449.204 77.2963Z" fill="black"/>
</svg>
