<svg width="454" height="82" viewBox="0 0 454 82" fill="none" xmlns="http://www.w3.org/2000/svg">
<path d="M1.31357 23.1723V77.5804C1.31357 79.2372 2.65671 80.5804 4.31357 80.5804H449.261C450.918 80.5804 452.261 79.2372 452.261 77.5804V35.9723V9.2946C452.261 8.23303 450.825 7.90289 450.362 8.85789L450.065 9.46995C446.887 16.0161 440.249 20.1723 432.972 20.1723H4.31357C2.65671 20.1723 1.31357 21.5154 1.31357 23.1723Z" fill="#FFF6E9" stroke="black" stroke-width="2"/>
<path d="M37.9503 47.3308V41.1028H36.4743V55.1968H37.9503V48.7528H45.9783V55.1968H47.4543V41.1028H45.9783V47.3308H37.9503ZM51.7226 50.8228H59.4986C59.5166 50.6788 59.5166 50.5168 59.5166 50.3548C59.5166 47.5468 57.9506 45.4228 54.9806 45.4228C52.2806 45.4228 50.3006 47.7628 50.3006 50.3728C50.3006 53.1448 52.3886 55.3588 55.1786 55.3588C57.0866 55.3588 58.8146 54.3148 59.3906 52.4608L58.1306 52.0648C57.6806 53.4148 56.5826 54.1168 55.1606 54.1168C53.2886 54.1168 51.8306 52.6948 51.7226 50.8228ZM58.0946 49.6348H51.7406C51.9746 48.0328 53.3066 46.6468 54.9806 46.6468C56.8166 46.6468 57.9146 47.8888 58.0946 49.6348ZM64.0271 51.4528L64.5491 46.8268H68.6351V55.1968H70.0391V45.5848H63.2891L62.6411 51.2188C62.5151 52.3168 62.0471 54.0088 60.6611 54.0088V55.2328L60.7151 55.2508C62.8391 55.3588 63.8111 53.2888 64.0271 51.4528ZM77.6498 49.0948H74.6078V45.5848H73.2038V55.1968H77.8298C79.7738 55.1968 81.5198 54.1888 81.5198 52.0108C81.5198 49.8328 79.6118 49.0948 77.6498 49.0948ZM77.7038 53.9548H74.6078V50.3008H77.6318C78.8378 50.3008 80.0978 50.6968 80.0978 52.0468C80.0978 53.5228 78.8558 53.9548 77.7038 53.9548ZM86.5239 55.3588C88.6299 55.3588 90.0699 54.1348 90.0699 52.5508C90.0699 51.4168 89.4759 50.6428 88.3779 50.2648C89.4579 49.7608 89.8899 48.9688 89.8899 48.0688C89.8899 46.5928 88.4319 45.4048 86.4519 45.4048C84.5799 45.4048 83.2479 46.5568 82.9059 48.1048L84.1659 48.4468C84.5439 47.2228 85.3359 46.6468 86.4519 46.6468C87.7839 46.6468 88.4859 47.4388 88.4859 48.1768C88.4859 49.0948 87.8379 49.7068 86.5239 49.7068H85.0659V50.9128H86.5599C87.9999 50.9128 88.6479 51.5428 88.6479 52.4968C88.6479 53.3428 87.8379 54.1168 86.5239 54.1168C84.9759 54.1168 84.3459 53.0728 84.1299 52.2088L82.8339 52.5148C83.0139 53.5948 83.8779 55.3588 86.5239 55.3588ZM94.431 51.4528L91.623 55.1968H93.315L95.835 51.7048H98.463V55.1968H99.867V45.5848H95.601C92.973 45.5848 91.983 47.1508 91.983 48.5728C91.983 50.1568 93.045 51.1288 94.431 51.4528ZM95.673 46.8268H98.463V50.5168H95.709C94.071 50.5168 93.369 49.5988 93.369 48.6448C93.369 47.2948 94.557 46.8268 95.673 46.8268ZM107.035 53.9908H106.999V58.1668H108.367V55.1968H116.161V58.1668H117.511V53.9548H116.395V45.5848H109.645L109.141 49.9768C108.907 52.0828 108.403 53.9908 107.035 53.9908ZM110.527 50.0848L110.887 46.8268H114.991V53.9548H109.141C110.059 53.2168 110.383 51.3088 110.527 50.0848ZM124.051 55.3588C126.859 55.3588 129.037 53.1988 129.037 50.3548C129.037 47.6008 126.859 45.4228 124.087 45.4228C121.243 45.4228 119.101 47.5828 119.101 50.4268C119.101 53.1628 121.261 55.3588 124.051 55.3588ZM124.087 54.1168C121.981 54.1168 120.541 52.3708 120.541 50.3548C120.541 48.3388 121.963 46.6468 124.051 46.6468C126.139 46.6468 127.597 48.4108 127.597 50.4268C127.597 52.4248 126.139 54.1168 124.087 54.1168ZM132.914 46.8268H138.35V55.1968H139.754V45.5848H131.51V55.1968H132.914V46.8268ZM151.703 45.5848H150.191L146.861 53.0188L143.333 45.5848H141.713L146.087 54.5488L143.603 59.9308H145.115L151.703 45.5848ZM153.993 50.3368C153.993 48.3388 155.415 46.6648 157.467 46.6648C159.465 46.6648 160.419 48.1588 160.635 48.8968L161.931 48.4828C161.535 46.8628 159.753 45.4228 157.521 45.4228C154.803 45.4228 152.553 47.5108 152.553 50.4268C152.553 53.3068 154.677 55.3588 157.449 55.3588C159.969 55.3588 161.553 53.6848 161.985 52.2448L160.671 51.8128C160.401 52.5328 159.591 54.1168 157.467 54.1168C155.289 54.1168 153.993 52.3348 153.993 50.3368ZM171.208 46.8268V45.5848H162.964V46.8268H166.366V55.1968H167.788V46.8268H171.208ZM173.135 55.1968H174.557L180.173 47.5828V55.1968H181.577V45.5848H180.173L174.539 53.2708V45.5848H173.135V55.1968ZM191.792 46.8268V45.5848H183.548V46.8268H186.95V55.1968H188.372V46.8268H191.792ZM198.165 49.0948H195.123V45.5848H193.719V55.1968H198.345C200.289 55.1968 202.035 54.1888 202.035 52.0108C202.035 49.8328 200.127 49.0948 198.165 49.0948ZM198.219 53.9548H195.123V50.3008H198.147C199.353 50.3008 200.613 50.6968 200.613 52.0468C200.613 53.5228 199.371 53.9548 198.219 53.9548ZM204.61 57.9508C205.87 57.0508 206.536 55.8628 206.536 54.6028V54.5308C206.536 53.4508 205.942 52.7668 205.114 52.7668C204.43 52.7668 203.854 53.3068 203.854 54.0448C203.854 54.7648 204.358 55.2328 205.042 55.2328C205.186 55.2328 205.348 55.1968 205.474 55.1428C205.348 55.9708 204.718 56.6908 203.908 57.3028L204.61 57.9508ZM213.476 49.0408V45.5848H212.09V49.2388C212.09 51.2008 213.476 52.1008 215.258 52.1008C216.392 52.1008 217.742 51.6328 218.426 51.2368V55.1968H219.83V45.5848H218.426V49.9588C217.67 50.4988 216.5 50.8768 215.438 50.8768C214.268 50.8768 213.476 50.2648 213.476 49.0408ZM230.025 46.8268V45.5848H221.781V46.8268H225.183V55.1968H226.605V46.8268H230.025ZM235.866 55.3588C238.674 55.3588 240.852 53.1988 240.852 50.3548C240.852 47.6008 238.674 45.4228 235.902 45.4228C233.058 45.4228 230.916 47.5828 230.916 50.4268C230.916 53.1628 233.076 55.3588 235.866 55.3588ZM235.902 54.1168C233.796 54.1168 232.356 52.3708 232.356 50.3548C232.356 48.3388 233.778 46.6468 235.866 46.6468C237.954 46.6468 239.412 48.4108 239.412 50.4268C239.412 52.4248 237.954 54.1168 235.902 54.1168ZM244.297 47.7628H244.279C244.459 45.6568 244.801 43.9468 248.707 42.9208L252.163 42.0208L251.785 40.8508L248.149 41.7508C243.127 43.0288 243.001 46.2688 243.001 49.5988C243.001 53.6308 245.107 55.3588 247.789 55.3588C250.597 55.3588 252.631 53.3788 252.631 50.3008C252.631 47.2948 250.489 45.4768 248.113 45.4768C246.979 45.4768 245.269 45.8188 244.297 47.7628ZM244.441 50.3728C244.441 48.0688 245.863 46.6828 247.825 46.6828C249.751 46.6828 251.227 48.0868 251.227 50.3728C251.227 52.5688 249.823 54.1348 247.807 54.1348C245.809 54.1348 244.441 52.5868 244.441 50.3728ZM259.583 49.0948H256.541V45.5848H255.137V55.1968H259.763C261.707 55.1968 263.453 54.1888 263.453 52.0108C263.453 49.8328 261.545 49.0948 259.583 49.0948ZM265.649 55.1968V45.5848H267.053V55.1968H265.649ZM259.637 53.9548H256.541V50.3008H259.565C260.771 50.3008 262.031 50.6968 262.031 52.0468C262.031 53.5228 260.789 53.9548 259.637 53.9548ZM276.668 46.8268H281.708V45.5848H275.264V55.1968H276.668V46.8268ZM287.493 55.3588C290.301 55.3588 292.479 53.1988 292.479 50.3548C292.479 47.6008 290.301 45.4228 287.529 45.4228C284.685 45.4228 282.543 47.5828 282.543 50.4268C282.543 53.1628 284.703 55.3588 287.493 55.3588ZM287.529 54.1168C285.423 54.1168 283.983 52.3708 283.983 50.3548C283.983 48.3388 285.405 46.6468 287.493 46.6468C289.581 46.6468 291.039 48.4108 291.039 50.4268C291.039 52.4248 289.581 54.1168 287.529 54.1168ZM295.69 50.3368C295.69 48.3388 297.112 46.6648 299.164 46.6648C301.162 46.6648 302.116 48.1588 302.332 48.8968L303.628 48.4828C303.232 46.8628 301.45 45.4228 299.218 45.4228C296.5 45.4228 294.25 47.5108 294.25 50.4268C294.25 53.3068 296.374 55.3588 299.146 55.3588C301.666 55.3588 303.25 53.6848 303.682 52.2448L302.368 51.8128C302.098 52.5328 301.288 54.1168 299.164 54.1168C296.986 54.1168 295.69 52.3348 295.69 50.3368ZM312.905 46.8268V45.5848H304.661V46.8268H308.063V55.1968H309.485V46.8268H312.905ZM314.833 55.1968H316.255L321.871 47.5828V55.1968H323.275V45.5848H321.871L316.237 53.2708V45.5848H314.833V55.1968ZM332.901 46.8268H337.941V45.5848H331.497V55.1968H332.901V46.8268ZM343.725 55.3588C346.533 55.3588 348.711 53.1988 348.711 50.3548C348.711 47.6008 346.533 45.4228 343.761 45.4228C340.917 45.4228 338.775 47.5828 338.775 50.4268C338.775 53.1628 340.935 55.3588 343.725 55.3588ZM343.761 54.1168C341.655 54.1168 340.215 52.3708 340.215 50.3548C340.215 48.3388 341.637 46.6468 343.725 46.6468C345.813 46.6468 347.271 48.4108 347.271 50.4268C347.271 52.4248 345.813 54.1168 343.761 54.1168ZM353.187 51.4528L353.709 46.8268H357.795V55.1968H359.199V45.5848H352.449L351.801 51.2188C351.675 52.3168 351.207 54.0088 349.821 54.0088V55.2328L349.875 55.2508C351.999 55.3588 352.971 53.2888 353.187 51.4528ZM366.612 55.3588C369.42 55.3588 371.598 53.1988 371.598 50.3548C371.598 47.6008 369.42 45.4228 366.648 45.4228C363.804 45.4228 361.662 47.5828 361.662 50.4268C361.662 53.1628 363.822 55.3588 366.612 55.3588ZM366.648 54.1168C364.542 54.1168 363.102 52.3708 363.102 50.3548C363.102 48.3388 364.524 46.6468 366.612 46.6468C368.7 46.6468 370.158 48.4108 370.158 50.4268C370.158 52.4248 368.7 54.1168 366.648 54.1168ZM372.711 53.9908H372.675V58.1668H374.043V55.1968H381.837V58.1668H383.187V53.9548H382.071V45.5848H375.321L374.817 49.9768C374.583 52.0828 374.079 53.9908 372.711 53.9908ZM376.203 50.0848L376.563 46.8268H380.667V53.9548H374.817C375.735 53.2168 376.059 51.3088 376.203 50.0848ZM391.469 49.6528H388.805C387.095 49.6528 385.007 50.3368 385.007 52.4248V52.5328C385.007 54.1528 386.285 55.3588 388.229 55.3588C389.669 55.3588 390.713 54.6928 391.469 53.5048H391.487V55.1968H392.855V48.9868C392.855 48.6808 392.783 47.9248 392.567 47.4028C392.099 46.3408 391.091 45.4228 389.057 45.4228C386.303 45.4228 385.223 47.5288 385.151 48.3388L386.501 48.6268C386.663 47.7088 387.401 46.6648 389.021 46.6648C390.623 46.6648 391.469 47.4568 391.469 49.0048V49.6528ZM391.469 50.8048V51.1468C391.469 52.9108 390.191 54.1168 388.481 54.1168C387.329 54.1168 386.411 53.5048 386.411 52.4248C386.411 51.1288 387.761 50.8048 388.787 50.8048H391.469ZM398.117 51.4528L398.639 46.8268H402.725V55.1968H404.129V45.5848H397.379L396.731 51.2188C396.605 52.3168 396.137 54.0088 394.751 54.0088V55.2328L394.805 55.2508C396.929 55.3588 397.901 53.2888 398.117 51.4528ZM407.294 55.1968H408.716L414.332 47.5828V55.1968H415.736V45.5848H414.332L408.698 53.2708V45.5848H407.294V55.1968ZM418.57 54.0628C418.57 54.7828 419.146 55.3588 419.866 55.3588C420.568 55.3588 421.144 54.7828 421.144 54.0628C421.144 53.3428 420.568 52.7668 419.866 52.7668C419.146 52.7668 418.57 53.3428 418.57 54.0628Z" fill="black"/>
</svg>
