<svg width="323" height="102" viewBox="0 0 323 102" fill="none" xmlns="http://www.w3.org/2000/svg">
<path d="M321.261 9.38225C321.261 8.31828 319.82 7.9903 319.359 8.94947L319.146 9.39448C315.984 15.9816 309.324 20.1718 302.017 20.1718H4.85693C3.20007 20.1718 1.85693 21.5149 1.85693 23.1718V97.5922C1.85693 99.249 3.20007 100.592 4.85693 100.592H318.261C319.918 100.592 321.261 99.249 321.261 97.5922V35.9718V9.38225Z" fill="#FFF6E9" stroke="black" stroke-width="2"/>
<path d="M52.377 40.1023H50.901V52.8283H44.259V40.1023H42.783V54.1963H60.513V40.1023H59.037V52.8283H52.377V40.1023ZM69.8573 48.6523H67.1933C65.4833 48.6523 63.3953 49.3363 63.3953 51.4243V51.5323C63.3953 53.1523 64.6733 54.3583 66.6173 54.3583C68.0573 54.3583 69.1013 53.6923 69.8573 52.5043H69.8753V54.1963H71.2433V47.9863C71.2433 47.6803 71.1713 46.9243 70.9553 46.4023C70.4873 45.3403 69.4793 44.4223 67.4453 44.4223C64.6913 44.4223 63.6113 46.5283 63.5393 47.3383L64.8893 47.6263C65.0513 46.7083 65.7893 45.6643 67.4093 45.6643C69.0113 45.6643 69.8573 46.4563 69.8573 48.0043V48.6523ZM69.8573 49.8043V50.1463C69.8573 51.9103 68.5793 53.1163 66.8693 53.1163C65.7173 53.1163 64.7993 52.5043 64.7993 51.4243C64.7993 50.1283 66.1493 49.8043 67.1753 49.8043H69.8573ZM83.9218 49.3723C83.9218 46.8703 82.1398 44.4223 79.4038 44.4223C77.5858 44.4223 76.4518 45.4663 75.6778 46.6723V44.5843H74.2918V58.9303H75.6958V52.2163C76.4698 53.4403 77.6218 54.3403 79.4038 54.3403C82.1398 54.3403 83.9218 51.9643 83.9218 49.3723ZM79.1158 53.0983C77.0818 53.0983 75.6778 51.3343 75.6778 49.3543C75.6778 47.4283 77.1358 45.6643 79.1158 45.6643C81.2398 45.6643 82.4818 47.4103 82.4818 49.4083C82.4818 51.4423 81.2398 53.0983 79.1158 53.0983ZM86.4031 54.1963H87.8251L93.4411 46.5823V54.1963H94.8451V44.5843H93.4411L87.8071 52.2703V44.5843H86.4031V54.1963ZM99.5518 48.8143H99.4438V44.5843H98.0398V54.1963H99.4438V49.7143H99.5518L104.448 54.1963H106.41L100.884 49.2463L106.158 44.5843H104.214L99.5518 48.8143ZM108.007 54.1963H109.429L115.045 46.5823V54.1963H116.449V44.5843H115.045L109.411 52.2703V44.5843H108.007V54.1963ZM140.133 49.2643V47.8603H124.437V49.2643H140.133ZM151.846 44.4223C149.65 44.4223 147.706 45.8623 147.31 47.4643L148.552 47.8783C148.768 47.1223 149.758 45.6463 151.81 45.6463C153.574 45.6463 154.906 46.9243 155.194 48.6163H150.676V49.8403H155.248C155.068 51.6583 153.826 53.1343 151.81 53.1343C149.686 53.1343 148.786 51.5503 148.516 50.8303L147.256 51.2443C147.67 52.6843 149.182 54.3583 151.774 54.3583C154.6 54.3583 156.67 52.2523 156.67 49.3363C156.67 46.4383 154.51 44.4223 151.846 44.4223ZM165.845 45.8263V44.5843H157.601V45.8263H161.003V54.1963H162.425V45.8263H165.845ZM171.686 54.3583C174.494 54.3583 176.672 52.1983 176.672 49.3543C176.672 46.6003 174.494 44.4223 171.722 44.4223C168.878 44.4223 166.736 46.5823 166.736 49.4263C166.736 52.1623 168.896 54.3583 171.686 54.3583ZM171.722 53.1163C169.616 53.1163 168.176 51.3703 168.176 49.3543C168.176 47.3383 169.598 45.6463 171.686 45.6463C173.774 45.6463 175.232 47.4103 175.232 49.4263C175.232 51.4243 173.774 53.1163 171.722 53.1163ZM186.999 54.3583C189.105 54.3583 190.545 53.1343 190.545 51.5503C190.545 50.4163 189.951 49.6423 188.853 49.2643C189.933 48.7603 190.365 47.9683 190.365 47.0683C190.365 45.5923 188.907 44.4043 186.927 44.4043C185.055 44.4043 183.723 45.5563 183.381 47.1043L184.641 47.4463C185.019 46.2223 185.811 45.6463 186.927 45.6463C188.259 45.6463 188.961 46.4383 188.961 47.1763C188.961 48.0943 188.313 48.7063 186.999 48.7063H185.541V49.9123H187.035C188.475 49.9123 189.123 50.5423 189.123 51.4963C189.123 52.3423 188.313 53.1163 186.999 53.1163C185.451 53.1163 184.821 52.0723 184.605 51.2083L183.309 51.5143C183.489 52.5943 184.353 54.3583 186.999 54.3583ZM191.936 52.9903H191.9V57.1663H193.268V54.1963H201.062V57.1663H202.412V52.9543H201.296V44.5843H194.546L194.042 48.9763C193.808 51.0823 193.304 52.9903 191.936 52.9903ZM195.428 49.0843L195.788 45.8263H199.892V52.9543H194.042C194.96 52.2163 195.284 50.3083 195.428 49.0843ZM208.952 54.3583C211.76 54.3583 213.938 52.1983 213.938 49.3543C213.938 46.6003 211.76 44.4223 208.988 44.4223C206.144 44.4223 204.002 46.5823 204.002 49.4263C204.002 52.1623 206.162 54.3583 208.952 54.3583ZM208.988 53.1163C206.882 53.1163 205.442 51.3703 205.442 49.3543C205.442 47.3383 206.864 45.6463 208.952 45.6463C211.04 45.6463 212.498 47.4103 212.498 49.4263C212.498 51.4243 211.04 53.1163 208.988 53.1163ZM226.041 49.3723C226.041 46.8703 224.259 44.4223 221.523 44.4223C219.705 44.4223 218.571 45.4663 217.797 46.6723V44.5843H216.411V58.9303H217.815V52.2163C218.589 53.4403 219.741 54.3403 221.523 54.3403C224.259 54.3403 226.041 51.9643 226.041 49.3723ZM221.235 53.0983C219.201 53.0983 217.797 51.3343 217.797 49.3543C217.797 47.4283 219.255 45.6643 221.235 45.6643C223.359 45.6643 224.601 47.4103 224.601 49.4083C224.601 51.4423 223.359 53.0983 221.235 53.0983ZM232.77 54.3583C235.578 54.3583 237.756 52.1983 237.756 49.3543C237.756 46.6003 235.578 44.4223 232.806 44.4223C229.962 44.4223 227.82 46.5823 227.82 49.4263C227.82 52.1623 229.98 54.3583 232.77 54.3583ZM232.806 53.1163C230.7 53.1163 229.26 51.3703 229.26 49.3543C229.26 47.3383 230.682 45.6463 232.77 45.6463C234.858 45.6463 236.316 47.4103 236.316 49.4263C236.316 51.4243 234.858 53.1163 232.806 53.1163ZM244.945 44.5843H240.229V54.1963H245.125C246.817 54.1963 248.617 53.4583 248.617 51.5683C248.617 50.1463 247.573 49.4983 246.493 49.2103C247.213 48.8863 248.095 48.3103 248.095 46.9963C248.095 45.2503 246.493 44.5843 244.945 44.5843ZM244.729 48.7423H241.633V45.8083H244.765C245.521 45.8083 246.691 46.0243 246.691 47.1403C246.691 48.4903 245.449 48.7423 244.729 48.7423ZM244.981 52.9903H241.633V49.8763H244.783C245.971 49.8763 247.195 50.1643 247.195 51.3523C247.195 52.6843 245.899 52.9903 244.981 52.9903ZM255.341 54.3583C258.149 54.3583 260.327 52.1983 260.327 49.3543C260.327 46.6003 258.149 44.4223 255.377 44.4223C252.533 44.4223 250.391 46.5823 250.391 49.4263C250.391 52.1623 252.551 54.3583 255.341 54.3583ZM255.377 53.1163C253.271 53.1163 251.831 51.3703 251.831 49.3543C251.831 47.3383 253.253 45.6463 255.341 45.6463C257.429 45.6463 258.887 47.4103 258.887 49.4263C258.887 51.4243 257.429 53.1163 255.377 53.1163ZM263.196 56.9503C264.456 56.0503 265.122 54.8623 265.122 53.6023V53.5303C265.122 52.4503 264.528 51.7663 263.7 51.7663C263.016 51.7663 262.44 52.3063 262.44 53.0443C262.44 53.7643 262.944 54.2323 263.628 54.2323C263.772 54.2323 263.934 54.1963 264.06 54.1423C263.934 54.9703 263.304 55.6903 262.494 56.3023L263.196 56.9503ZM43.809 72.6343V68.5843H42.405V78.1963H43.809V73.8763H49.335V78.1963H50.739V68.5843H49.335V72.6343H43.809ZM58.1491 78.3583C60.9571 78.3583 63.1351 76.1983 63.1351 73.3543C63.1351 70.6003 60.9571 68.4223 58.1851 68.4223C55.3411 68.4223 53.1991 70.5823 53.1991 73.4263C53.1991 76.1623 55.3591 78.3583 58.1491 78.3583ZM58.1851 77.1163C56.0791 77.1163 54.6391 75.3703 54.6391 73.3543C54.6391 71.3383 56.0611 69.6463 58.1491 69.6463C60.2371 69.6463 61.6951 71.4103 61.6951 73.4263C61.6951 75.4243 60.2371 77.1163 58.1851 77.1163ZM74.8835 78.3583C77.6915 78.3583 79.8695 76.1983 79.8695 73.3543C79.8695 70.6003 77.6915 68.4223 74.9195 68.4223C72.0755 68.4223 69.9335 70.5823 69.9335 73.4263C69.9335 76.1623 72.0935 78.3583 74.8835 78.3583ZM74.9195 77.1163C72.8135 77.1163 71.3735 75.3703 71.3735 73.3543C71.3735 71.3383 72.7955 69.6463 74.8835 69.6463C76.9715 69.6463 78.4295 71.4103 78.4295 73.4263C78.4295 75.4243 76.9715 77.1163 74.9195 77.1163ZM83.7465 72.6343V68.5843H82.3425V78.1963H83.7465V73.8763H89.2725V78.1963H90.6765V68.5843H89.2725V72.6343H83.7465ZM93.8386 78.1963H95.2606L100.877 70.5823V78.1963H102.281V68.5843H100.877L95.2426 76.2703V68.5843H93.8386V78.1963ZM111.889 78.1963V70.0783H111.925L115.705 78.1963H116.623L120.403 70.0423H120.421V78.1963H121.825V68.5843H119.773L116.173 76.3783L112.573 68.5843H110.503V78.1963H111.889ZM125.725 73.8223H133.501C133.519 73.6783 133.519 73.5163 133.519 73.3543C133.519 70.5463 131.953 68.4223 128.983 68.4223C126.283 68.4223 124.303 70.7623 124.303 73.3723C124.303 76.1443 126.391 78.3583 129.181 78.3583C131.089 78.3583 132.817 77.3143 133.393 75.4603L132.133 75.0643C131.683 76.4143 130.585 77.1163 129.163 77.1163C127.291 77.1163 125.833 75.6943 125.725 73.8223ZM132.097 72.6343H125.743C125.977 71.0323 127.309 69.6463 128.983 69.6463C130.819 69.6463 131.917 70.8883 132.097 72.6343ZM137.342 68.5843H135.938V78.1963H149.312V68.5843H147.89V76.9543H143.318V68.5843H141.914V76.9543H137.342V68.5843ZM158.275 72.6523H155.611C153.901 72.6523 151.813 73.3363 151.813 75.4243V75.5323C151.813 77.1523 153.091 78.3583 155.035 78.3583C156.475 78.3583 157.519 77.6923 158.275 76.5043H158.293V78.1963H159.661V71.9863C159.661 71.6803 159.589 70.9243 159.373 70.4023C158.905 69.3403 157.897 68.4223 155.863 68.4223C153.109 68.4223 152.029 70.5283 151.957 71.3383L153.307 71.6263C153.469 70.7083 154.207 69.6643 155.827 69.6643C157.429 69.6643 158.275 70.4563 158.275 72.0043V72.6523ZM158.275 73.8043V74.1463C158.275 75.9103 156.997 77.1163 155.287 77.1163C154.135 77.1163 153.217 76.5043 153.217 75.4243C153.217 74.1283 154.567 73.8043 155.593 73.8043H158.275ZM170.972 68.4223C168.416 68.4223 166.49 70.2943 166.22 72.7783H164.114V68.5843H162.71V78.1963H164.114V73.9663H166.202C166.454 76.4863 168.398 78.3583 170.954 78.3583C173.726 78.3583 175.778 76.1803 175.778 73.4083C175.778 70.5463 173.744 68.4223 170.972 68.4223ZM170.972 77.1163C168.992 77.1163 167.606 75.4063 167.606 73.4083C167.606 71.4283 168.884 69.6283 170.954 69.6283C172.988 69.6283 174.32 71.3743 174.32 73.4263C174.32 75.4243 173.006 77.1163 170.972 77.1163ZM184.952 69.8263V68.5843H176.708V69.8263H180.11V78.1963H181.532V69.8263H184.952ZM197.872 69.8263V68.5843H189.628V69.8263H193.03V78.1963H194.452V69.8263H197.872ZM205.402 72.6523H202.738C201.028 72.6523 198.94 73.3363 198.94 75.4243V75.5323C198.94 77.1523 200.218 78.3583 202.162 78.3583C203.602 78.3583 204.646 77.6923 205.402 76.5043H205.42V78.1963H206.788V71.9863C206.788 71.6803 206.716 70.9243 206.5 70.4023C206.032 69.3403 205.024 68.4223 202.99 68.4223C200.236 68.4223 199.156 70.5283 199.084 71.3383L200.434 71.6263C200.596 70.7083 201.334 69.6643 202.954 69.6643C204.556 69.6643 205.402 70.4563 205.402 72.0043V72.6523ZM205.402 73.8043V74.1463C205.402 75.9103 204.124 77.1163 202.414 77.1163C201.262 77.1163 200.344 76.5043 200.344 75.4243C200.344 74.1283 201.694 73.8043 202.72 73.8043H205.402ZM211.241 72.6343V68.5843H209.837V78.1963H211.241V73.8763H216.767V78.1963H218.171V68.5843H216.767V72.6343H211.241ZM222.737 68.5843H221.333V78.1963H229.271V81.1663H230.621V76.9543H229.505V68.5843H228.101V76.9543H222.737V68.5843ZM233.637 73.8223H241.413C241.431 73.6783 241.431 73.5163 241.431 73.3543C241.431 70.5463 239.865 68.4223 236.895 68.4223C234.195 68.4223 232.215 70.7623 232.215 73.3723C232.215 76.1443 234.303 78.3583 237.093 78.3583C239.001 78.3583 240.729 77.3143 241.305 75.4603L240.045 75.0643C239.595 76.4143 238.497 77.1163 237.075 77.1163C235.203 77.1163 233.745 75.6943 233.637 73.8223ZM240.009 72.6343H233.655C233.889 71.0323 235.221 69.6463 236.895 69.6463C238.731 69.6463 239.829 70.8883 240.009 72.6343ZM248.566 68.5843H243.85V78.1963H248.746C250.438 78.1963 252.238 77.4583 252.238 75.5683C252.238 74.1463 251.194 73.4983 250.114 73.2103C250.834 72.8863 251.716 72.3103 251.716 70.9963C251.716 69.2503 250.114 68.5843 248.566 68.5843ZM248.35 72.7423H245.254V69.8083H248.386C249.142 69.8083 250.312 70.0243 250.312 71.1403C250.312 72.4903 249.07 72.7423 248.35 72.7423ZM248.602 76.9903H245.254V73.8763H248.404C249.592 73.8763 250.816 74.1643 250.816 75.3523C250.816 76.6843 249.52 76.9903 248.602 76.9903ZM260.51 72.6523H257.846C256.136 72.6523 254.048 73.3363 254.048 75.4243V75.5323C254.048 77.1523 255.326 78.3583 257.27 78.3583C258.71 78.3583 259.754 77.6923 260.51 76.5043H260.528V78.1963H261.896V71.9863C261.896 71.6803 261.824 70.9243 261.608 70.4023C261.14 69.3403 260.132 68.4223 258.098 68.4223C255.344 68.4223 254.264 70.5283 254.192 71.3383L255.542 71.6263C255.704 70.7083 256.442 69.6643 258.062 69.6643C259.664 69.6643 260.51 70.4563 260.51 72.0043V72.6523ZM260.51 73.8043V74.1463C260.51 75.9103 259.232 77.1163 257.522 77.1163C256.37 77.1163 255.452 76.5043 255.452 75.4243C255.452 74.1283 256.802 73.8043 257.828 73.8043H260.51ZM271.788 69.8263V68.5843H263.544V69.8263H266.946V78.1963H268.368V69.8263H271.788ZM278.162 72.0943H275.12V68.5843H273.716V78.1963H278.342C280.286 78.1963 282.032 77.1883 282.032 75.0103C282.032 72.8323 280.124 72.0943 278.162 72.0943ZM278.216 76.9543H275.12V73.3003H278.144C279.35 73.3003 280.61 73.6963 280.61 75.0463C280.61 76.5223 279.368 76.9543 278.216 76.9543ZM284.462 66.5683L284.534 74.1103H285.848L285.938 66.5683V64.1023H284.462V66.5683ZM284.138 77.2963C284.138 77.8903 284.606 78.3583 285.2 78.3583C285.776 78.3583 286.262 77.8903 286.262 77.2963C286.262 76.7203 285.776 76.2523 285.2 76.2523C284.606 76.2523 284.138 76.7203 284.138 77.2963Z" fill="black"/>
</svg>
