<svg width="567" height="102" viewBox="0 0 567 102" fill="none" xmlns="http://www.w3.org/2000/svg">
<path d="M565.261 9.29412C565.261 8.23254 563.825 7.9024 563.362 8.8574L563.065 9.46946C559.887 16.0157 553.249 20.1718 545.972 20.1718H4.64471C2.98779 20.1718 1.64465 21.515 1.64465 23.1718V97.5922C1.64465 99.249 2.98785 100.592 4.64465 100.592H562.261C563.918 100.592 565.261 99.249 565.261 97.5922V35.9718V9.29412Z" fill="#FFF6E9" stroke="black" stroke-width="2"/>
<path d="M39.9505 46.3303V40.1023H38.4745V54.1963H39.9505V47.7523H47.9785V54.1963H49.4545V40.1023H47.9785V46.3303H39.9505ZM57.2507 54.3583C60.0587 54.3583 62.2367 52.1983 62.2367 49.3543C62.2367 46.6003 60.0587 44.4223 57.2867 44.4223C54.4427 44.4223 52.3007 46.5823 52.3007 49.4263C52.3007 52.1623 54.4607 54.3583 57.2507 54.3583ZM57.2867 53.1163C55.1807 53.1163 53.7407 51.3703 53.7407 49.3543C53.7407 47.3383 55.1627 45.6463 57.2507 45.6463C59.3387 45.6463 60.7967 47.4103 60.7967 49.4263C60.7967 51.4243 59.3387 53.1163 57.2867 53.1163ZM69.4257 44.5843H64.7097V54.1963H69.6057C71.2977 54.1963 73.0977 53.4583 73.0977 51.5683C73.0977 50.1463 72.0537 49.4983 70.9737 49.2103C71.6937 48.8863 72.5757 48.3103 72.5757 46.9963C72.5757 45.2503 70.9737 44.5843 69.4257 44.5843ZM69.2097 48.7423H66.1137V45.8083H69.2457C70.0017 45.8083 71.1717 46.0243 71.1717 47.1403C71.1717 48.4903 69.9297 48.7423 69.2097 48.7423ZM69.4617 52.9903H66.1137V49.8763H69.2637C70.4517 49.8763 71.6757 50.1643 71.6757 51.3523C71.6757 52.6843 70.3797 52.9903 69.4617 52.9903ZM80.019 48.0943H76.977V44.5843H75.573V54.1963H80.199C82.143 54.1963 83.889 53.1883 83.889 51.0103C83.889 48.8323 81.981 48.0943 80.019 48.0943ZM86.085 54.1963V44.5843H87.489V54.1963H86.085ZM80.073 52.9543H76.977V49.3003H80.001C81.207 49.3003 82.467 49.6963 82.467 51.0463C82.467 52.5223 81.225 52.9543 80.073 52.9543ZM91.3926 49.8223H99.1686C99.1866 49.6783 99.1866 49.5163 99.1866 49.3543C99.1866 46.5463 97.6206 44.4223 94.6506 44.4223C91.9506 44.4223 89.9706 46.7623 89.9706 49.3723C89.9706 52.1443 92.0586 54.3583 94.8486 54.3583C96.7566 54.3583 98.4846 53.3143 99.0606 51.4603L97.8006 51.0643C97.3506 52.4143 96.2526 53.1163 94.8306 53.1163C92.9586 53.1163 91.5006 51.6943 91.3926 49.8223ZM97.7646 48.6343H91.4106C91.6446 47.0323 92.9766 45.6463 94.6506 45.6463C96.4866 45.6463 97.5846 46.8883 97.7646 48.6343ZM108.038 45.8263H113.078V44.5843H106.634V54.1963H108.038V45.8263ZM118.862 54.3583C121.67 54.3583 123.848 52.1983 123.848 49.3543C123.848 46.6003 121.67 44.4223 118.898 44.4223C116.054 44.4223 113.912 46.5823 113.912 49.4263C113.912 52.1623 116.072 54.3583 118.862 54.3583ZM118.898 53.1163C116.792 53.1163 115.352 51.3703 115.352 49.3543C115.352 47.3383 116.774 45.6463 118.862 45.6463C120.95 45.6463 122.408 47.4103 122.408 49.4263C122.408 51.4243 120.95 53.1163 118.898 53.1163ZM127.059 49.3363C127.059 47.3383 128.481 45.6643 130.533 45.6643C132.531 45.6643 133.485 47.1583 133.701 47.8963L134.997 47.4823C134.601 45.8623 132.819 44.4223 130.587 44.4223C127.869 44.4223 125.619 46.5103 125.619 49.4263C125.619 52.3063 127.743 54.3583 130.515 54.3583C133.035 54.3583 134.619 52.6843 135.051 51.2443L133.737 50.8123C133.467 51.5323 132.657 53.1163 130.533 53.1163C128.355 53.1163 127.059 51.3343 127.059 49.3363ZM144.275 45.8263V44.5843H136.031V45.8263H139.433V54.1963H140.855V45.8263H144.275ZM146.202 54.1963H147.624L153.24 46.5823V54.1963H154.644V44.5843H153.24L147.606 52.2703V44.5843H146.202V54.1963ZM164.27 45.8263H169.706V54.1963H171.11V44.5843H162.866V54.1963H164.27V45.8263ZM183.904 49.3723C183.904 46.8703 182.122 44.4223 179.386 44.4223C177.568 44.4223 176.434 45.4663 175.66 46.6723V44.5843H174.274V58.9303H175.678V52.2163C176.452 53.4403 177.604 54.3403 179.386 54.3403C182.122 54.3403 183.904 51.9643 183.904 49.3723ZM179.098 53.0983C177.064 53.0983 175.66 51.3343 175.66 49.3543C175.66 47.4283 177.118 45.6643 179.098 45.6643C181.222 45.6643 182.464 47.4103 182.464 49.4083C182.464 51.4423 181.222 53.0983 179.098 53.0983ZM186.386 54.1963H187.808L193.424 46.5823V54.1963H194.828V44.5843H193.424L187.79 52.2703V44.5843H186.386V54.1963ZM198.994 46.7623H198.976C199.156 44.6563 199.498 42.9463 203.404 41.9203L206.86 41.0203L206.482 39.8503L202.846 40.7503C197.824 42.0283 197.698 45.2683 197.698 48.5983C197.698 52.6303 199.804 54.3583 202.486 54.3583C205.294 54.3583 207.328 52.3783 207.328 49.3003C207.328 46.2943 205.186 44.4763 202.81 44.4763C201.676 44.4763 199.966 44.8183 198.994 46.7623ZM199.138 49.3723C199.138 47.0683 200.56 45.6823 202.522 45.6823C204.448 45.6823 205.924 47.0863 205.924 49.3723C205.924 51.5683 204.52 53.1343 202.504 53.1343C200.506 53.1343 199.138 51.5863 199.138 49.3723ZM214.281 48.0943H211.239V44.5843H209.835V54.1963H214.461C216.405 54.1963 218.151 53.1883 218.151 51.0103C218.151 48.8323 216.243 48.0943 214.281 48.0943ZM220.347 54.1963V44.5843H221.751V54.1963H220.347ZM214.335 52.9543H211.239V49.3003H214.263C215.469 49.3003 216.729 49.6963 216.729 51.0463C216.729 52.5223 215.487 52.9543 214.335 52.9543ZM229.65 44.5843H224.934V54.1963H229.83C231.522 54.1963 233.322 53.4583 233.322 51.5683C233.322 50.1463 232.278 49.4983 231.198 49.2103C231.918 48.8863 232.8 48.3103 232.8 46.9963C232.8 45.2503 231.198 44.5843 229.65 44.5843ZM229.434 48.7423H226.338V45.8083H229.47C230.226 45.8083 231.396 46.0243 231.396 47.1403C231.396 48.4903 230.154 48.7423 229.434 48.7423ZM229.686 52.9903H226.338V49.8763H229.488C230.676 49.8763 231.9 50.1643 231.9 51.3523C231.9 52.6843 230.604 52.9903 229.686 52.9903ZM241.594 48.6523H238.93C237.22 48.6523 235.132 49.3363 235.132 51.4243V51.5323C235.132 53.1523 236.41 54.3583 238.354 54.3583C239.794 54.3583 240.838 53.6923 241.594 52.5043H241.612V54.1963H242.98V47.9863C242.98 47.6803 242.908 46.9243 242.692 46.4023C242.224 45.3403 241.216 44.4223 239.182 44.4223C236.428 44.4223 235.348 46.5283 235.276 47.3383L236.626 47.6263C236.788 46.7083 237.526 45.6643 239.146 45.6643C240.748 45.6643 241.594 46.4563 241.594 48.0043V48.6523ZM241.594 49.8043V50.1463C241.594 51.9103 240.316 53.1163 238.606 53.1163C237.454 53.1163 236.536 52.5043 236.536 51.4243C236.536 50.1283 237.886 49.8043 238.912 49.8043H241.594ZM254.29 44.4223C251.734 44.4223 249.808 46.2943 249.538 48.7783H247.432V44.5843H246.028V54.1963H247.432V49.9663H249.52C249.772 52.4863 251.716 54.3583 254.272 54.3583C257.044 54.3583 259.096 52.1803 259.096 49.4083C259.096 46.5463 257.062 44.4223 254.29 44.4223ZM254.29 53.1163C252.31 53.1163 250.924 51.4063 250.924 49.4083C250.924 47.4283 252.202 45.6283 254.272 45.6283C256.306 45.6283 257.638 47.3743 257.638 49.4263C257.638 51.4243 256.324 53.1163 254.29 53.1163ZM268.271 45.8263V44.5843H260.027V45.8263H263.429V54.1963H264.851V45.8263H268.271ZM269.627 56.9503C270.887 56.0503 271.553 54.8623 271.553 53.6023V53.5303C271.553 52.4503 270.959 51.7663 270.131 51.7663C269.447 51.7663 268.871 52.3063 268.871 53.0443C268.871 53.7643 269.375 54.2323 270.059 54.2323C270.203 54.2323 270.365 54.1963 270.491 54.1423C270.365 54.9703 269.735 55.6903 268.925 56.3023L269.627 56.9503ZM278.214 54.1963H279.636L285.252 46.5823V54.1963H286.656V44.5843H285.252L279.618 52.2703V44.5843H278.214V54.1963ZM294.878 54.1963H296.3L301.916 46.5823V54.1963H303.32V44.5843H301.916L296.282 52.2703V44.5843H294.878V54.1963ZM307.9 54.1963V46.0783H307.936L311.716 54.1963H312.634L316.414 46.0423H316.432V54.1963H317.836V44.5843H315.784L312.184 52.3783L308.584 44.5843H306.514V54.1963H307.9ZM327.448 48.6343V44.5843H326.044V54.1963H327.448V49.8763H332.974V54.1963H334.378V44.5843H332.974V48.6343H327.448ZM346.324 44.5843H344.812L341.482 52.0183L337.954 44.5843H336.334L340.708 53.5483L338.224 58.9303H339.736L346.324 44.5843ZM361.115 54.1963L356.417 49.2463L361.007 44.5843H359.207L354.833 49.0123H354.689V44.5843H353.303V49.0123H353.159L348.785 44.5843H346.985L351.575 49.2463L346.877 54.1963H348.785L353.159 49.5343H353.303V54.1963H354.689V49.5343H354.833L359.207 54.1963H361.115ZM364.344 48.6343V44.5843H362.94V54.1963H364.344V49.8763H369.87V54.1963H371.274V44.5843H369.87V48.6343H364.344ZM378.684 54.3583C381.492 54.3583 383.67 52.1983 383.67 49.3543C383.67 46.6003 381.492 44.4223 378.72 44.4223C375.876 44.4223 373.734 46.5823 373.734 49.4263C373.734 52.1623 375.894 54.3583 378.684 54.3583ZM378.72 53.1163C376.614 53.1163 375.174 51.3703 375.174 49.3543C375.174 47.3383 376.596 45.6463 378.684 45.6463C380.772 45.6463 382.23 47.4103 382.23 49.4263C382.23 51.4243 380.772 53.1163 378.72 53.1163ZM391.171 54.1963H392.593L398.209 46.5823V54.1963H399.613V44.5843H398.209L392.575 52.2703V44.5843H391.171V54.1963ZM405.633 54.3583C407.739 54.3583 409.179 53.1343 409.179 51.5503C409.179 50.4163 408.585 49.6423 407.487 49.2643C408.567 48.7603 408.999 47.9683 408.999 47.0683C408.999 45.5923 407.541 44.4043 405.561 44.4043C403.689 44.4043 402.357 45.5563 402.015 47.1043L403.275 47.4463C403.653 46.2223 404.445 45.6463 405.561 45.6463C406.893 45.6463 407.595 46.4383 407.595 47.1763C407.595 48.0943 406.947 48.7063 405.633 48.7063H404.175V49.9123H405.669C407.109 49.9123 407.757 50.5423 407.757 51.4963C407.757 52.3423 406.947 53.1163 405.633 53.1163C404.085 53.1163 403.455 52.0723 403.239 51.2083L401.943 51.5143C402.123 52.5943 402.987 54.3583 405.633 54.3583ZM417.009 48.0403V44.5843H415.623V48.2383C415.623 50.2003 417.009 51.1003 418.791 51.1003C419.925 51.1003 421.275 50.6323 421.959 50.2363V54.1963H423.363V44.5843H421.959V48.9583C421.203 49.4983 420.033 49.8763 418.971 49.8763C417.801 49.8763 417.009 49.2643 417.009 48.0403ZM427.258 49.8223H435.034C435.052 49.6783 435.052 49.5163 435.052 49.3543C435.052 46.5463 433.486 44.4223 430.516 44.4223C427.816 44.4223 425.836 46.7623 425.836 49.3723C425.836 52.1443 427.924 54.3583 430.714 54.3583C432.622 54.3583 434.35 53.3143 434.926 51.4603L433.666 51.0643C433.216 52.4143 432.118 53.1163 430.696 53.1163C428.824 53.1163 427.366 51.6943 427.258 49.8223ZM433.63 48.6343H427.276C427.51 47.0323 428.842 45.6463 430.516 45.6463C432.352 45.6463 433.45 46.8883 433.63 48.6343ZM438.875 45.8263H443.915V44.5843H437.471V54.1963H438.875V45.8263ZM449.7 54.3583C452.508 54.3583 454.686 52.1983 454.686 49.3543C454.686 46.6003 452.508 44.4223 449.736 44.4223C446.892 44.4223 444.75 46.5823 444.75 49.4263C444.75 52.1623 446.91 54.3583 449.7 54.3583ZM449.736 53.1163C447.63 53.1163 446.19 51.3703 446.19 49.3543C446.19 47.3383 447.612 45.6463 449.7 45.6463C451.788 45.6463 453.246 47.4103 453.246 49.4263C453.246 51.4243 451.788 53.1163 449.736 53.1163ZM456.925 47.8243V49.3183H462.073V47.8243H456.925ZM471.175 45.8263V44.5843H462.931V45.8263H466.333V54.1963H467.755V45.8263H471.175ZM477.016 54.3583C479.824 54.3583 482.002 52.1983 482.002 49.3543C482.002 46.6003 479.824 44.4223 477.052 44.4223C474.208 44.4223 472.066 46.5823 472.066 49.4263C472.066 52.1623 474.226 54.3583 477.016 54.3583ZM477.052 53.1163C474.946 53.1163 473.506 51.3703 473.506 49.3543C473.506 47.3383 474.928 45.6463 477.016 45.6463C479.104 45.6463 480.562 47.4103 480.562 49.4263C480.562 51.4243 479.104 53.1163 477.052 53.1163ZM490.907 45.8263H496.343V54.1963H497.747V44.5843H489.503V54.1963H490.907V45.8263ZM500.911 54.1963H502.333L507.949 46.5823V54.1963H509.353V44.5843H507.949L502.315 52.2703V44.5843H500.911V54.1963ZM519.568 45.8263V44.5843H511.324V45.8263H514.726V54.1963H516.148V45.8263H519.568ZM525.941 48.0943H522.899V44.5843H521.495V54.1963H526.121C528.065 54.1963 529.811 53.1883 529.811 51.0103C529.811 48.8323 527.903 48.0943 525.941 48.0943ZM525.995 52.9543H522.899V49.3003H525.923C527.129 49.3003 528.389 49.6963 528.389 51.0463C528.389 52.5223 527.147 52.9543 525.995 52.9543ZM531.629 53.0623C531.629 53.7823 532.205 54.3583 532.925 54.3583C533.627 54.3583 534.203 53.7823 534.203 53.0623C534.203 52.3423 533.627 51.7663 532.925 51.7663C532.205 51.7663 531.629 52.3423 531.629 53.0623ZM50.4085 78.1963L44.3245 64.1023H42.6505L36.5665 78.1963H38.0785L39.6265 74.5963H47.3125L48.8425 78.1963H50.4085ZM43.4605 65.6323L46.7365 73.2463H40.1845L43.4605 65.6323ZM57.9575 69.8263H62.9975V68.5843H56.5535V78.1963H57.9575V69.8263ZM74.5507 73.3723C74.5507 70.8703 72.7687 68.4223 70.0327 68.4223C68.2147 68.4223 67.0807 69.4663 66.3067 70.6723V68.5843H64.9207V82.9303H66.3247V76.2163C67.0987 77.4403 68.2507 78.3403 70.0327 78.3403C72.7687 78.3403 74.5507 75.9643 74.5507 73.3723ZM69.7447 77.0983C67.7107 77.0983 66.3067 75.3343 66.3067 73.3543C66.3067 71.4283 67.7647 69.6643 69.7447 69.6643C71.8687 69.6643 73.1107 71.4103 73.1107 73.4083C73.1107 75.4423 71.8687 77.0983 69.7447 77.0983ZM78.976 74.4523L76.168 78.1963H77.86L80.38 74.7043H83.008V78.1963H84.412V68.5843H80.146C77.518 68.5843 76.528 70.1503 76.528 71.5723C76.528 73.1563 77.59 74.1283 78.976 74.4523ZM80.218 69.8263H83.008V73.5163H80.254C78.616 73.5163 77.914 72.5983 77.914 71.6443C77.914 70.2943 79.102 69.8263 80.218 69.8263ZM90.4049 78.3583C92.5109 78.3583 93.9509 77.1343 93.9509 75.5503C93.9509 74.4163 93.3569 73.6423 92.2589 73.2643C93.3389 72.7603 93.7709 71.9683 93.7709 71.0683C93.7709 69.5923 92.3129 68.4043 90.3329 68.4043C88.4609 68.4043 87.1289 69.5563 86.7869 71.1043L88.0469 71.4463C88.4249 70.2223 89.2169 69.6463 90.3329 69.6463C91.6649 69.6463 92.3669 70.4383 92.3669 71.1763C92.3669 72.0943 91.7189 72.7063 90.4049 72.7063H88.9469V73.9123H90.4409C91.8809 73.9123 92.5289 74.5423 92.5289 75.4963C92.5289 76.3423 91.7189 77.1163 90.4049 77.1163C88.8569 77.1163 88.2269 76.0723 88.0109 75.2083L86.7149 75.5143C86.8949 76.5943 87.7589 78.3583 90.4049 78.3583ZM97.8774 72.6343V68.5843H96.4734V78.1963H97.8774V73.8763H103.403V78.1963H104.807V68.5843H103.403V72.6343H97.8774ZM113.765 72.6523H111.101C109.391 72.6523 107.303 73.3363 107.303 75.4243V75.5323C107.303 77.1523 108.581 78.3583 110.525 78.3583C111.965 78.3583 113.009 77.6923 113.765 76.5043H113.783V78.1963H115.151V71.9863C115.151 71.6803 115.079 70.9243 114.863 70.4023C114.395 69.3403 113.387 68.4223 111.353 68.4223C108.599 68.4223 107.519 70.5283 107.447 71.3383L108.797 71.6263C108.959 70.7083 109.697 69.6643 111.317 69.6643C112.919 69.6643 113.765 70.4563 113.765 72.0043V72.6523ZM113.765 73.8043V74.1463C113.765 75.9103 112.487 77.1163 110.777 77.1163C109.625 77.1163 108.707 76.5043 108.707 75.4243C108.707 74.1283 110.057 73.8043 111.083 73.8043H113.765ZM120.144 74.4523L117.336 78.1963H119.028L121.548 74.7043H124.176V78.1963H125.58V68.5843H121.314C118.686 68.5843 117.696 70.1503 117.696 71.5723C117.696 73.1563 118.758 74.1283 120.144 74.4523ZM121.386 69.8263H124.176V73.5163H121.422C119.784 73.5163 119.082 72.5983 119.082 71.6443C119.082 70.2943 120.27 69.8263 121.386 69.8263ZM135.178 69.8263H140.614V78.1963H142.018V68.5843H133.774V78.1963H135.178V69.8263ZM149.43 78.3583C152.238 78.3583 154.416 76.1983 154.416 73.3543C154.416 70.6003 152.238 68.4223 149.466 68.4223C146.622 68.4223 144.48 70.5823 144.48 73.4263C144.48 76.1623 146.64 78.3583 149.43 78.3583ZM149.466 77.1163C147.36 77.1163 145.92 75.3703 145.92 73.3543C145.92 71.3383 147.342 69.6463 149.43 69.6463C151.518 69.6463 152.976 71.4103 152.976 73.4263C152.976 75.4243 151.518 77.1163 149.466 77.1163ZM157.627 73.3363C157.627 71.3383 159.049 69.6643 161.101 69.6643C163.099 69.6643 164.053 71.1583 164.269 71.8963L165.565 71.4823C165.169 69.8623 163.387 68.4223 161.155 68.4223C158.437 68.4223 156.187 70.5103 156.187 73.4263C156.187 76.3063 158.311 78.3583 161.083 78.3583C163.603 78.3583 165.187 76.6843 165.619 75.2443L164.305 74.8123C164.035 75.5323 163.225 77.1163 161.101 77.1163C158.923 77.1163 157.627 75.3343 157.627 73.3363ZM176.396 68.5843H174.884L171.554 76.0183L168.026 68.5843H166.406L170.78 77.5483L168.296 82.9303H169.808L176.396 68.5843ZM176.553 76.9903H176.517V81.1663H177.885V78.1963H185.679V81.1663H187.029V76.9543H185.913V68.5843H179.163L178.659 72.9763C178.425 75.0823 177.921 76.9903 176.553 76.9903ZM180.045 73.0843L180.405 69.8263H184.509V76.9543H178.659C179.577 76.2163 179.901 74.3083 180.045 73.0843ZM195.31 72.6523H192.646C190.936 72.6523 188.848 73.3363 188.848 75.4243V75.5323C188.848 77.1523 190.126 78.3583 192.07 78.3583C193.51 78.3583 194.554 77.6923 195.31 76.5043H195.328V78.1963H196.696V71.9863C196.696 71.6803 196.624 70.9243 196.408 70.4023C195.94 69.3403 194.932 68.4223 192.898 68.4223C190.144 68.4223 189.064 70.5283 188.992 71.3383L190.342 71.6263C190.504 70.7083 191.242 69.6643 192.862 69.6643C194.464 69.6643 195.31 70.4563 195.31 72.0043V72.6523ZM195.31 73.8043V74.1463C195.31 75.9103 194.032 77.1163 192.322 77.1163C191.17 77.1163 190.252 76.5043 190.252 75.4243C190.252 74.1283 191.602 73.8043 192.628 73.8043H195.31ZM206.176 69.8263H211.612V78.1963H213.016V68.5843H204.772V78.1963H206.176V69.8263ZM220.428 78.3583C223.236 78.3583 225.414 76.1983 225.414 73.3543C225.414 70.6003 223.236 68.4223 220.464 68.4223C217.62 68.4223 215.478 70.5823 215.478 73.4263C215.478 76.1623 217.638 78.3583 220.428 78.3583ZM220.464 77.1163C218.358 77.1163 216.918 75.3703 216.918 73.3543C216.918 71.3383 218.34 69.6463 220.428 69.6463C222.516 69.6463 223.974 71.4103 223.974 73.4263C223.974 75.4243 222.516 77.1163 220.464 77.1163ZM237.517 73.3723C237.517 70.8703 235.735 68.4223 232.999 68.4223C231.181 68.4223 230.047 69.4663 229.273 70.6723V68.5843H227.887V82.9303H229.291V76.2163C230.065 77.4403 231.217 78.3403 232.999 78.3403C235.735 78.3403 237.517 75.9643 237.517 73.3723ZM232.711 77.0983C230.677 77.0983 229.273 75.3343 229.273 73.3543C229.273 71.4283 230.731 69.6643 232.711 69.6643C234.835 69.6643 236.077 71.4103 236.077 73.4083C236.077 75.4423 234.835 77.0983 232.711 77.0983ZM246.685 69.8263V68.5843H238.441V69.8263H241.843V78.1963H243.265V69.8263H246.685ZM248.612 78.1963H250.034L255.65 70.5823V78.1963H257.054V68.5843H255.65L250.016 76.2703V68.5843H248.612V78.1963ZM267.269 69.8263V68.5843H259.025V69.8263H262.427V78.1963H263.849V69.8263H267.269ZM277.944 78.3583C280.752 78.3583 282.93 76.1983 282.93 73.3543C282.93 70.6003 280.752 68.4223 277.98 68.4223C275.136 68.4223 272.994 70.5823 272.994 73.4263C272.994 76.1623 275.154 78.3583 277.944 78.3583ZM277.98 77.1163C275.874 77.1163 274.434 75.3703 274.434 73.3543C274.434 71.3383 275.856 69.6463 277.944 69.6463C280.032 69.6463 281.49 71.4103 281.49 73.4263C281.49 75.4243 280.032 77.1163 277.98 77.1163ZM286.375 70.7623H286.357C286.537 68.6563 286.879 66.9463 290.785 65.9203L294.241 65.0203L293.863 63.8503L290.227 64.7503C285.205 66.0283 285.079 69.2683 285.079 72.5983C285.079 76.6303 287.185 78.3583 289.867 78.3583C292.675 78.3583 294.709 76.3783 294.709 73.3003C294.709 70.2943 292.567 68.4763 290.191 68.4763C289.057 68.4763 287.347 68.8183 286.375 70.7623ZM286.519 73.3723C286.519 71.0683 287.941 69.6823 289.903 69.6823C291.829 69.6823 293.305 71.0863 293.305 73.3723C293.305 75.5683 291.901 77.1343 289.885 77.1343C287.887 77.1343 286.519 75.5863 286.519 73.3723ZM298.62 68.5843H297.216V78.1963H310.356V81.1663H311.724V76.9543H310.59V68.5843H309.168V76.9543H304.596V68.5843H303.192V76.9543H298.62V68.5843ZM314.705 73.8223H322.481C322.499 73.6783 322.499 73.5163 322.499 73.3543C322.499 70.5463 320.933 68.4223 317.963 68.4223C315.263 68.4223 313.283 70.7623 313.283 73.3723C313.283 76.1443 315.371 78.3583 318.161 78.3583C320.069 78.3583 321.797 77.3143 322.373 75.4603L321.113 75.0643C320.663 76.4143 319.565 77.1163 318.143 77.1163C316.271 77.1163 314.813 75.6943 314.705 73.8223ZM321.077 72.6343H314.723C314.957 71.0323 316.289 69.6463 317.963 69.6463C319.799 69.6463 320.897 70.8883 321.077 72.6343ZM325.639 73.8223H333.415C333.433 73.6783 333.433 73.5163 333.433 73.3543C333.433 70.5463 331.867 68.4223 328.897 68.4223C326.197 68.4223 324.217 70.7623 324.217 73.3723C324.217 76.1443 326.305 78.3583 329.095 78.3583C331.003 78.3583 332.731 77.3143 333.307 75.4603L332.047 75.0643C331.597 76.4143 330.499 77.1163 329.077 77.1163C327.205 77.1163 325.747 75.6943 325.639 73.8223ZM332.011 72.6343H325.657C325.891 71.0323 327.223 69.6463 328.897 69.6463C330.733 69.6463 331.831 70.8883 332.011 72.6343ZM345.596 68.5843H340.88V78.1963H345.776C347.468 78.1963 349.268 77.4583 349.268 75.5683C349.268 74.1463 348.224 73.4983 347.144 73.2103C347.864 72.8863 348.746 72.3103 348.746 70.9963C348.746 69.2503 347.144 68.5843 345.596 68.5843ZM345.38 72.7423H342.284V69.8083H345.416C346.172 69.8083 347.342 70.0243 347.342 71.1403C347.342 72.4903 346.1 72.7423 345.38 72.7423ZM345.632 76.9903H342.284V73.8763H345.434C346.622 73.8763 347.846 74.1643 347.846 75.3523C347.846 76.6843 346.55 76.9903 345.632 76.9903ZM353.147 69.8263H358.583V78.1963H359.987V68.5843H351.743V78.1963H353.147V69.8263ZM363.871 73.8223H371.647C371.665 73.6783 371.665 73.5163 371.665 73.3543C371.665 70.5463 370.099 68.4223 367.129 68.4223C364.429 68.4223 362.449 70.7623 362.449 73.3723C362.449 76.1443 364.537 78.3583 367.327 78.3583C369.235 78.3583 370.963 77.3143 371.539 75.4603L370.279 75.0643C369.829 76.4143 368.731 77.1163 367.309 77.1163C365.437 77.1163 363.979 75.6943 363.871 73.8223ZM370.243 72.6343H363.889C364.123 71.0323 365.455 69.6463 367.129 69.6463C368.965 69.6463 370.063 70.8883 370.243 72.6343ZM374.787 72.0403V68.5843H373.401V72.2383C373.401 74.2003 374.787 75.1003 376.569 75.1003C377.703 75.1003 379.053 74.6323 379.737 74.2363V78.1963H381.141V68.5843H379.737V72.9583C378.981 73.4983 377.811 73.8763 376.749 73.8763C375.579 73.8763 374.787 73.2643 374.787 72.0403ZM390.111 72.6523H387.447C385.737 72.6523 383.649 73.3363 383.649 75.4243V75.5323C383.649 77.1523 384.927 78.3583 386.871 78.3583C388.311 78.3583 389.355 77.6923 390.111 76.5043H390.129V78.1963H391.497V71.9863C391.497 71.6803 391.425 70.9243 391.209 70.4023C390.741 69.3403 389.733 68.4223 387.699 68.4223C384.945 68.4223 383.865 70.5283 383.793 71.3383L385.143 71.6263C385.305 70.7083 386.043 69.6643 387.663 69.6643C389.265 69.6643 390.111 70.4563 390.111 72.0043V72.6523ZM390.111 73.8043V74.1463C390.111 75.9103 388.833 77.1163 387.123 77.1163C385.971 77.1163 385.053 76.5043 385.053 75.4243C385.053 74.1283 386.403 73.8043 387.429 73.8043H390.111ZM401.39 69.8263V68.5843H393.146V69.8263H396.548V78.1963H397.97V69.8263H401.39ZM404.828 74.4523L405.35 69.8263H409.436V78.1963H410.84V68.5843H404.09L403.442 74.2183C403.316 75.3163 402.848 77.0083 401.462 77.0083V78.2323L401.516 78.2503C403.64 78.3583 404.612 76.2883 404.828 74.4523ZM414.725 73.8223H422.501C422.519 73.6783 422.519 73.5163 422.519 73.3543C422.519 70.5463 420.953 68.4223 417.983 68.4223C415.283 68.4223 413.303 70.7623 413.303 73.3723C413.303 76.1443 415.391 78.3583 418.181 78.3583C420.089 78.3583 421.817 77.3143 422.393 75.4603L421.133 75.0643C420.683 76.4143 419.585 77.1163 418.163 77.1163C416.291 77.1163 414.833 75.6943 414.725 73.8223ZM421.097 72.6343H414.743C414.977 71.0323 416.309 69.6463 417.983 69.6463C419.819 69.6463 420.917 70.8883 421.097 72.6343ZM426.342 72.6343V68.5843H424.938V78.1963H426.342V73.8763H431.868V78.1963H433.272V68.5843H431.868V72.6343H426.342ZM436.434 78.1963H437.856L443.472 70.5823V78.1963H444.876V68.5843H443.472L437.838 76.2703V68.5843H436.434V78.1963ZM448.791 73.8223H456.567C456.585 73.6783 456.585 73.5163 456.585 73.3543C456.585 70.5463 455.019 68.4223 452.049 68.4223C449.349 68.4223 447.369 70.7623 447.369 73.3723C447.369 76.1443 449.457 78.3583 452.247 78.3583C454.155 78.3583 455.883 77.3143 456.459 75.4603L455.199 75.0643C454.749 76.4143 453.651 77.1163 452.229 77.1163C450.357 77.1163 448.899 75.6943 448.791 73.8223ZM455.163 72.6343H448.809C449.043 71.0323 450.375 69.6463 452.049 69.6463C453.885 69.6463 454.983 70.8883 455.163 72.6343ZM459.257 66.5683L459.329 74.1103H460.643L460.733 66.5683V64.1023H459.257V66.5683ZM458.933 77.2963C458.933 77.8903 459.401 78.3583 459.995 78.3583C460.571 78.3583 461.057 77.8903 461.057 77.2963C461.057 76.7203 460.571 76.2523 459.995 76.2523C459.401 76.2523 458.933 76.7203 458.933 77.2963Z" fill="black"/>
</svg>
