<svg width="359" height="102" viewBox="0 0 359 102" fill="none" xmlns="http://www.w3.org/2000/svg">
<path d="M357.114 9.73478C357.114 8.67082 355.673 8.34284 355.212 9.30201L354.999 9.74702C351.837 16.3342 345.177 20.5243 337.87 20.5243H4.56909C2.91223 20.5243 1.56909 21.8675 1.56909 23.5243V97.9447C1.56909 99.6016 2.91223 100.945 4.56909 100.945H354.114C355.771 100.945 357.114 99.6015 357.114 97.9447V36.3243V9.73478Z" fill="#FFF6E9" stroke="black" stroke-width="2"/>
<path d="M38.2466 40.4548H33.1886V54.5488H38.4266C41.0906 54.5488 43.4126 53.3968 43.4126 50.6788C43.4126 49.5988 42.7286 47.7628 40.6406 47.2228C42.6206 46.3408 42.7826 44.6308 42.7826 44.0008C42.7826 41.6968 40.8206 40.4548 38.2466 40.4548ZM38.0126 46.7188H34.6466V41.8048H38.1206C39.7406 41.8048 41.2886 42.4528 41.2886 44.1628C41.2886 45.5488 40.3346 46.7188 38.0126 46.7188ZM38.4626 53.1988H34.6466V48.0328H38.1926C39.8306 48.0328 41.9006 48.5728 41.9006 50.5708C41.9006 52.5868 39.9926 53.1988 38.4626 53.1988ZM50.4577 48.4468H47.4157V44.9368H46.0117V54.5488H50.6377C52.5817 54.5488 54.3277 53.5408 54.3277 51.3628C54.3277 49.1848 52.4197 48.4468 50.4577 48.4468ZM56.5237 54.5488V44.9368H57.9277V54.5488H56.5237ZM50.5117 53.3068H47.4157V49.6528H50.4397C51.6457 49.6528 52.9057 50.0488 52.9057 51.3988C52.9057 52.8748 51.6637 53.3068 50.5117 53.3068ZM62.6233 49.1668H62.5153V44.9368H61.1113V54.5488H62.5153V50.0668H62.6233L67.5193 54.5488H69.4813L63.9553 49.5988L69.2293 44.9368H67.2853L62.6233 49.1668ZM73.2921 50.8048L73.8141 46.1788H77.9001V54.5488H79.3041V44.9368H72.5541L71.9061 50.5708C71.7801 51.6688 71.3121 53.3608 69.9261 53.3608V54.5848L69.9801 54.6028C72.1041 54.7108 73.0761 52.6408 73.2921 50.8048ZM90.7308 44.7748C88.1748 44.7748 86.2488 46.6468 85.9788 49.1308H83.8728V44.9368H82.4688V54.5488H83.8728V50.3188H85.9608C86.2128 52.8388 88.1568 54.7108 90.7128 54.7108C93.4848 54.7108 95.5368 52.5328 95.5368 49.7608C95.5368 46.8988 93.5028 44.7748 90.7308 44.7748ZM90.7308 53.4688C88.7508 53.4688 87.3648 51.7588 87.3648 49.7608C87.3648 47.7808 88.6428 45.9808 90.7128 45.9808C92.7468 45.9808 94.0788 47.7268 94.0788 49.7788C94.0788 51.7768 92.7648 53.4688 90.7308 53.4688ZM98.7274 48.3928V44.9368H97.3414V48.5908C97.3414 50.5528 98.7274 51.4528 100.509 51.4528C101.643 51.4528 102.993 50.9848 103.677 50.5888V54.5488H105.081V44.9368H103.677V49.3108C102.921 49.8508 101.751 50.2288 100.689 50.2288C99.5194 50.2288 98.7274 49.6168 98.7274 48.3928ZM108.256 54.5488H109.678L115.294 46.9348V54.5488H116.698V44.9368H115.294L109.66 52.6228V44.9368H108.256V54.5488ZM125.658 49.6888C125.658 47.6908 127.08 46.0168 129.132 46.0168C131.13 46.0168 132.084 47.5108 132.3 48.2488L133.596 47.8348C133.2 46.2148 131.418 44.7748 129.186 44.7748C126.468 44.7748 124.218 46.8628 124.218 49.7788C124.218 52.6588 126.342 54.7108 129.114 54.7108C131.634 54.7108 133.218 53.0368 133.65 51.5968L132.336 51.1648C132.066 51.8848 131.256 53.4688 129.132 53.4688C126.954 53.4688 125.658 51.6868 125.658 49.6888ZM142.874 46.1788V44.9368H134.63V46.1788H138.032V54.5488H139.454V46.1788H142.874ZM144.801 54.5488H146.223L151.839 46.9348V54.5488H153.243V44.9368H151.839L146.205 52.6228V44.9368H144.801V54.5488ZM166.068 49.7248C166.068 47.2228 164.286 44.7748 161.55 44.7748C159.732 44.7748 158.598 45.8188 157.824 47.0248V44.9368H156.438V59.2828H157.842V52.5688C158.616 53.7928 159.768 54.6928 161.55 54.6928C164.286 54.6928 166.068 52.3168 166.068 49.7248ZM161.262 53.4508C159.228 53.4508 157.824 51.6868 157.824 49.7068C157.824 47.7808 159.282 46.0168 161.262 46.0168C163.386 46.0168 164.628 47.7628 164.628 49.7608C164.628 51.7948 163.386 53.4508 161.262 53.4508ZM174.345 49.0048H171.681C169.971 49.0048 167.883 49.6888 167.883 51.7768V51.8848C167.883 53.5048 169.161 54.7108 171.105 54.7108C172.545 54.7108 173.589 54.0448 174.345 52.8568H174.363V54.5488H175.731V48.3388C175.731 48.0328 175.659 47.2768 175.443 46.7548C174.975 45.6928 173.967 44.7748 171.933 44.7748C169.179 44.7748 168.099 46.8808 168.027 47.6908L169.377 47.9788C169.539 47.0608 170.277 46.0168 171.897 46.0168C173.499 46.0168 174.345 46.8088 174.345 48.3568V49.0048ZM174.345 50.1568V50.4988C174.345 52.2628 173.067 53.4688 171.357 53.4688C170.205 53.4688 169.287 52.8568 169.287 51.7768C169.287 50.4808 170.637 50.1568 171.663 50.1568H174.345ZM180.993 50.8048L181.515 46.1788H185.601V54.5488H187.005V44.9368H180.255L179.607 50.5708C179.481 51.6688 179.013 53.3608 177.627 53.3608V54.5848L177.681 54.6028C179.805 54.7108 180.777 52.6408 180.993 50.8048ZM194.616 48.4468H191.574V44.9368H190.17V54.5488H194.796C196.74 54.5488 198.486 53.5408 198.486 51.3628C198.486 49.1848 196.578 48.4468 194.616 48.4468ZM194.67 53.3068H191.574V49.6528H194.598C195.804 49.6528 197.064 50.0488 197.064 51.3988C197.064 52.8748 195.822 53.3068 194.67 53.3068ZM202.068 48.9868V44.9368H200.664V54.5488H202.068V50.2288H207.594V54.5488H208.998V44.9368H207.594V48.9868H202.068ZM220.944 44.9368H219.432L216.102 52.3708L212.574 44.9368H210.954L215.328 53.9008L212.844 59.2828H214.356L220.944 44.9368ZM231.11 44.7748C228.554 44.7748 226.628 46.6468 226.358 49.1308H224.252V44.9368H222.848V54.5488H224.252V50.3188H226.34C226.592 52.8388 228.536 54.7108 231.092 54.7108C233.864 54.7108 235.916 52.5328 235.916 49.7608C235.916 46.8988 233.882 44.7748 231.11 44.7748ZM231.11 53.4688C229.13 53.4688 227.744 51.7588 227.744 49.7608C227.744 47.7808 229.022 45.9808 231.092 45.9808C233.126 45.9808 234.458 47.7268 234.458 49.7788C234.458 51.7768 233.144 53.4688 231.11 53.4688ZM244.818 54.5488V46.4308H244.854L248.634 54.5488H249.552L253.332 46.3948H253.35V54.5488H254.754V44.9368H252.702L249.102 52.7308L245.502 44.9368H243.432V54.5488H244.818ZM263.73 49.0048H261.066C259.356 49.0048 257.268 49.6888 257.268 51.7768V51.8848C257.268 53.5048 258.546 54.7108 260.49 54.7108C261.93 54.7108 262.974 54.0448 263.73 52.8568H263.748V54.5488H265.116V48.3388C265.116 48.0328 265.044 47.2768 264.828 46.7548C264.36 45.6928 263.352 44.7748 261.318 44.7748C258.564 44.7748 257.484 46.8808 257.412 47.6908L258.762 47.9788C258.924 47.0608 259.662 46.0168 261.282 46.0168C262.884 46.0168 263.73 46.8088 263.73 48.3568V49.0048ZM263.73 50.1568V50.4988C263.73 52.2628 262.452 53.4688 260.742 53.4688C259.59 53.4688 258.672 52.8568 258.672 51.7768C258.672 50.4808 260.022 50.1568 261.048 50.1568H263.73ZM269.568 44.9368H268.164V54.5488H281.538V44.9368H280.116V53.3068H275.544V44.9368H274.14V53.3068H269.568V44.9368ZM284.705 54.5488H286.127L291.743 46.9348V54.5488H293.147V44.9368H291.743L286.109 52.6228V44.9368H284.705V54.5488ZM297.746 48.9868V44.9368H296.342V54.5488H297.746V50.2288H303.272V54.5488H304.676V44.9368H303.272V48.9868H297.746ZM309.35 49.1668H309.242V44.9368H307.838V54.5488H309.242V50.0668H309.35L314.246 54.5488H316.208L310.682 49.5988L315.956 44.9368H314.012L309.35 49.1668ZM326.589 44.9368H325.077L321.747 52.3708L318.219 44.9368H316.599L320.973 53.9008L318.489 59.2828H320.001L326.589 44.9368ZM37.5266 68.9368H32.8106V78.5488H37.7066C39.3986 78.5488 41.1986 77.8108 41.1986 75.9208C41.1986 74.4988 40.1546 73.8508 39.0746 73.5628C39.7946 73.2388 40.6766 72.6628 40.6766 71.3488C40.6766 69.6028 39.0746 68.9368 37.5266 68.9368ZM37.3106 73.0948H34.2146V70.1608H37.3466C38.1026 70.1608 39.2726 70.3768 39.2726 71.4928C39.2726 72.8428 38.0306 73.0948 37.3106 73.0948ZM37.5626 77.3428H34.2146V74.2288H37.3646C38.5526 74.2288 39.7766 74.5168 39.7766 75.7048C39.7766 77.0368 38.4806 77.3428 37.5626 77.3428ZM50.1052 70.1788H55.5412V78.5488H56.9452V68.9368H48.7012V78.5488H50.1052V70.1788ZM64.3574 78.7108C67.1654 78.7108 69.3434 76.5508 69.3434 73.7068C69.3434 70.9528 67.1654 68.7748 64.3934 68.7748C61.5494 68.7748 59.4074 70.9348 59.4074 73.7788C59.4074 76.5148 61.5674 78.7108 64.3574 78.7108ZM64.3934 77.4688C62.2874 77.4688 60.8474 75.7228 60.8474 73.7068C60.8474 71.6908 62.2694 69.9988 64.3574 69.9988C66.4454 69.9988 67.9034 71.7628 67.9034 73.7788C67.9034 75.7768 66.4454 77.4688 64.3934 77.4688ZM72.5544 73.6888C72.5544 71.6908 73.9764 70.0168 76.0284 70.0168C78.0264 70.0168 78.9804 71.5108 79.1964 72.2488L80.4924 71.8348C80.0964 70.2148 78.3144 68.7748 76.0824 68.7748C73.3644 68.7748 71.1144 70.8628 71.1144 73.7788C71.1144 76.6588 73.2384 78.7108 76.0104 78.7108C78.5304 78.7108 80.1144 77.0368 80.5464 75.5968L79.2324 75.1648C78.9624 75.8848 78.1524 77.4688 76.0284 77.4688C73.8504 77.4688 72.5544 75.6868 72.5544 73.6888ZM85.1046 74.8048L85.6266 70.1788H89.7126V78.5488H91.1166V68.9368H84.3666L83.7186 74.5708C83.5926 75.6688 83.1246 77.3608 81.7386 77.3608V78.5848L81.7926 78.6028C83.9166 78.7108 84.8886 76.6408 85.1046 74.8048ZM95.0013 74.1748H102.777C102.795 74.0308 102.795 73.8688 102.795 73.7068C102.795 70.8988 101.229 68.7748 98.2593 68.7748C95.5593 68.7748 93.5793 71.1148 93.5793 73.7248C93.5793 76.4968 95.6673 78.7108 98.4573 78.7108C100.365 78.7108 102.093 77.6668 102.669 75.8128L101.409 75.4168C100.959 76.7668 99.8613 77.4688 98.4393 77.4688C96.5673 77.4688 95.1093 76.0468 95.0013 74.1748ZM101.373 72.9868H95.0193C95.2533 71.3848 96.5853 69.9988 98.2593 69.9988C100.095 69.9988 101.193 71.2408 101.373 72.9868ZM104.031 77.3428H103.995V81.5188H105.363V78.5488H113.157V81.5188H114.507V77.3068H113.391V68.9368H106.641L106.137 73.3288C105.903 75.4348 105.399 77.3428 104.031 77.3428ZM107.523 73.4368L107.883 70.1788H111.987V77.3068H106.137C107.055 76.5688 107.379 74.6608 107.523 73.4368ZM118.396 72.9868V68.9368H116.992V78.5488H118.396V74.2288H123.922V78.5488H125.326V68.9368H123.922V72.9868H118.396ZM136.75 68.7748C134.194 68.7748 132.268 70.6468 131.998 73.1308H129.892V68.9368H128.488V78.5488H129.892V74.3188H131.98C132.232 76.8388 134.176 78.7108 136.732 78.7108C139.504 78.7108 141.556 76.5328 141.556 73.7608C141.556 70.8988 139.522 68.7748 136.75 68.7748ZM136.75 77.4688C134.77 77.4688 133.384 75.7588 133.384 73.7608C133.384 71.7808 134.662 69.9808 136.732 69.9808C138.766 69.9808 140.098 71.7268 140.098 73.7788C140.098 75.7768 138.784 77.4688 136.75 77.4688ZM152.307 68.7748C149.751 68.7748 147.825 70.6468 147.555 73.1308H145.449V68.9368H144.045V78.5488H145.449V74.3188H147.537C147.789 76.8388 149.733 78.7108 152.289 78.7108C155.061 78.7108 157.113 76.5328 157.113 73.7608C157.113 70.8988 155.079 68.7748 152.307 68.7748ZM152.307 77.4688C150.327 77.4688 148.941 75.7588 148.941 73.7608C148.941 71.7808 150.219 69.9808 152.289 69.9808C154.323 69.9808 155.655 71.7268 155.655 73.7788C155.655 75.7768 154.341 77.4688 152.307 77.4688ZM168.877 78.7108C171.685 78.7108 173.863 76.5508 173.863 73.7068C173.863 70.9528 171.685 68.7748 168.913 68.7748C166.069 68.7748 163.927 70.9348 163.927 73.7788C163.927 76.5148 166.087 78.7108 168.877 78.7108ZM168.913 77.4688C166.807 77.4688 165.367 75.7228 165.367 73.7068C165.367 71.6908 166.789 69.9988 168.877 69.9988C170.965 69.9988 172.423 71.7628 172.423 73.7788C172.423 75.7768 170.965 77.4688 168.913 77.4688ZM177.038 72.3928V68.9368H175.652V72.5908C175.652 74.5528 177.038 75.4528 178.82 75.4528C179.954 75.4528 181.304 74.9848 181.988 74.5888V78.5488H183.392V68.9368H181.988V73.3108C181.232 73.8508 180.062 74.2288 179 74.2288C177.83 74.2288 177.038 73.6168 177.038 72.3928ZM187.286 74.1748H195.062C195.08 74.0308 195.08 73.8688 195.08 73.7068C195.08 70.8988 193.514 68.7748 190.544 68.7748C187.844 68.7748 185.864 71.1148 185.864 73.7248C185.864 76.4968 187.952 78.7108 190.742 78.7108C192.65 78.7108 194.378 77.6668 194.954 75.8128L193.694 75.4168C193.244 76.7668 192.146 77.4688 190.724 77.4688C188.852 77.4688 187.394 76.0468 187.286 74.1748ZM193.658 72.9868H187.304C187.538 71.3848 188.87 69.9988 190.544 69.9988C192.38 69.9988 193.478 71.2408 193.658 72.9868ZM207.13 73.7248C207.13 71.2228 205.348 68.7748 202.612 68.7748C200.794 68.7748 199.66 69.8188 198.886 71.0248V68.9368H197.5V83.2828H198.904V76.5688C199.678 77.7928 200.83 78.6928 202.612 78.6928C205.348 78.6928 207.13 76.3168 207.13 73.7248ZM202.324 77.4508C200.29 77.4508 198.886 75.6868 198.886 73.7068C198.886 71.7808 200.344 70.0168 202.324 70.0168C204.448 70.0168 205.69 71.7628 205.69 73.7608C205.69 75.7948 204.448 77.4508 202.324 77.4508ZM210.331 74.1748H218.107C218.125 74.0308 218.125 73.8688 218.125 73.7068C218.125 70.8988 216.559 68.7748 213.589 68.7748C210.889 68.7748 208.909 71.1148 208.909 73.7248C208.909 76.4968 210.997 78.7108 213.787 78.7108C215.695 78.7108 217.423 77.6668 217.999 75.8128L216.739 75.4168C216.289 76.7668 215.191 77.4688 213.769 77.4688C211.897 77.4688 210.439 76.0468 210.331 74.1748ZM216.703 72.9868H210.349C210.583 71.3848 211.915 69.9988 213.589 69.9988C215.425 69.9988 216.523 71.2408 216.703 72.9868ZM219.361 77.3428H219.325V81.5188H220.693V78.5488H228.487V81.5188H229.837V77.3068H228.721V68.9368H221.971L221.467 73.3288C221.233 75.4348 220.729 77.3428 219.361 77.3428ZM222.853 73.4368L223.213 70.1788H227.317V77.3068H221.467C222.385 76.5688 222.709 74.6608 222.853 73.4368ZM236.768 72.4468H233.726V68.9368H232.322V78.5488H236.948C238.892 78.5488 240.638 77.5408 240.638 75.3628C240.638 73.1848 238.73 72.4468 236.768 72.4468ZM236.822 77.3068H233.726V73.6528H236.75C237.956 73.6528 239.216 74.0488 239.216 75.3988C239.216 76.8748 237.974 77.3068 236.822 77.3068Z" fill="black"/>
</svg>
