<svg width="1350" height="824" viewBox="0 0 1350 824" fill="none" xmlns="http://www.w3.org/2000/svg">
<path d="M0.5 819.19V562.111H1349.5V819.19C1349.5 821.123 1347.93 822.69 1346 822.69H3.99998C2.06699 822.69 0.5 821.123 0.5 819.19Z" fill="#404040" stroke="black" stroke-miterlimit="10"/>
<rect x="0.5" y="-0.5" width="1349" height="476.145" rx="3.5" transform="matrix(1 0 0 -1 0 476.335)" stroke="black"/>
<rect x="0.5" y="-0.5" width="75.0622" height="74.7702" rx="3.5" transform="matrix(1 0 0 -1 899.526 149.963)" fill="#A0DBE9" stroke="black"/>
<rect x="0.5" y="-0.5" width="75.0622" height="74.7702" rx="3.5" transform="matrix(1 0 0 -1 1199.44 149.963)" fill="#A0DBE9" stroke="black"/>
<rect x="0.5" y="-0.5" width="75.0622" height="74.7702" rx="3.5" transform="matrix(1 0 0 -1 899.526 74.9598)" fill="#A0DBE9" stroke="black"/>
<rect x="0.5" y="-0.5" width="75.0622" height="74.7702" rx="3.5" transform="matrix(1 0 0 -1 1199.44 74.9598)" fill="#A0DBE9" stroke="black"/>
<rect x="0.5" y="-0.5" width="75.0622" height="74.7702" rx="3.5" transform="matrix(1 0 0 -1 899.526 299.29)" fill="#A0DBE9" stroke="black"/>
<rect x="0.5" y="-0.5" width="75.0622" height="74.7702" rx="3.5" transform="matrix(1 0 0 -1 1199.44 299.29)" fill="#A0DBE9" stroke="black"/>
<rect x="0.5" y="-0.5" width="75.0622" height="74.7702" rx="3.5" transform="matrix(1 0 0 -1 1049.43 149.962)" fill="#A0DBE9" stroke="black"/>
<rect x="0.5" y="-0.5" width="75.0622" height="74.7702" rx="3.5" transform="matrix(1 0 0 -1 1049.43 74.9598)" fill="#A0DBE9" stroke="black"/>
<rect x="0.5" y="-0.5" width="75.0622" height="74.7702" rx="3.5" transform="matrix(1 0 0 -1 1049.43 299.29)" fill="#A0DBE9" stroke="black"/>
<rect x="0.5" y="-0.5" width="75.0622" height="74.7702" rx="3.5" transform="matrix(1 0 0 -1 974.478 149.962)" fill="#A0DBE9" stroke="black"/>
<rect x="0.5" y="-0.5" width="74.4715" height="74.7702" rx="3.5" transform="matrix(1 0 0 -1 1274.39 149.962)" fill="#A0DBE9" stroke="black"/>
<rect x="0.5" y="-0.5" width="75.0622" height="74.7702" rx="3.5" transform="matrix(1 0 0 -1 974.478 74.9598)" fill="#A0DBE9" stroke="black"/>
<rect x="0.5" y="-0.5" width="74.4715" height="74.7702" rx="3.5" transform="matrix(1 0 0 -1 1274.39 74.9598)" fill="#A0DBE9" stroke="black"/>
<rect x="0.5" y="-0.5" width="75.0622" height="74.7702" rx="3.5" transform="matrix(1 0 0 -1 974.478 299.29)" fill="#A0DBE9" stroke="black"/>
<rect x="0.5" y="-0.5" width="74.4715" height="74.7702" rx="3.5" transform="matrix(1 0 0 -1 1274.39 299.29)" fill="#A0DBE9" stroke="black"/>
<rect x="0.5" y="-0.5" width="75.0622" height="74.7702" rx="3.5" transform="matrix(1 0 0 -1 1124.38 149.962)" fill="#A0DBE9" stroke="black"/>
<rect x="0.5" y="-0.5" width="75.0622" height="74.7702" rx="3.5" transform="matrix(1 0 0 -1 1124.38 74.9598)" fill="#A0DBE9" stroke="black"/>
<rect x="0.5" y="-0.5" width="75.0622" height="74.7702" rx="3.5" transform="matrix(1 0 0 -1 1124.38 299.29)" fill="#A0DBE9" stroke="black"/>
<rect x="0.5" y="-0.5" width="75.0622" height="74.7702" rx="3.5" transform="matrix(1 0 0 -1 899.526 224.627)" fill="#A0DBE9" stroke="black"/>
<rect x="0.5" y="-0.5" width="75.0622" height="74.7702" rx="3.5" transform="matrix(1 0 0 -1 1199.44 224.627)" fill="#A0DBE9" stroke="black"/>
<rect x="0.5" y="-0.5" width="75.0622" height="74.7702" rx="3.5" transform="matrix(1 0 0 -1 899.526 373.954)" fill="#A0DBE9" stroke="black"/>
<rect x="0.5" y="-0.5" width="75.0622" height="74.7702" rx="3.5" transform="matrix(1 0 0 -1 1199.44 373.954)" fill="#A0DBE9" stroke="black"/>
<rect x="0.5" y="-0.5" width="75.0622" height="74.7702" rx="3.5" transform="matrix(1 0 0 -1 1049.43 224.627)" fill="#A0DBE9" stroke="black"/>
<rect x="0.5" y="-0.5" width="75.0622" height="74.7702" rx="3.5" transform="matrix(1 0 0 -1 1049.43 373.954)" fill="#A0DBE9" stroke="black"/>
<rect x="0.5" y="-0.5" width="75.0622" height="74.7702" rx="3.5" transform="matrix(1 0 0 -1 974.478 224.627)" fill="#A0DBE9" stroke="black"/>
<rect x="0.5" y="-0.5" width="74.4715" height="74.7702" rx="3.5" transform="matrix(1 0 0 -1 1274.39 224.627)" fill="#A0DBE9" stroke="black"/>
<rect x="0.5" y="-0.5" width="75.0622" height="74.7702" rx="3.5" transform="matrix(1 0 0 -1 974.478 373.954)" fill="#A0DBE9" stroke="black"/>
<rect x="0.5" y="-0.5" width="74.4715" height="74.7702" rx="3.5" transform="matrix(1 0 0 -1 1274.39 373.954)" fill="#A0DBE9" stroke="black"/>
<rect x="0.5" y="-0.5" width="75.0622" height="74.7702" rx="3.5" transform="matrix(1 0 0 -1 1124.38 224.627)" fill="#A0DBE9" stroke="black"/>
<rect x="0.5" y="-0.5" width="75.0622" height="74.7702" rx="3.5" transform="matrix(1 0 0 -1 1124.38 373.954)" fill="#A0DBE9" stroke="black"/>
<rect x="0.5" y="-0.5" width="75.0622" height="74.7702" rx="3.5" transform="matrix(1 0 0 -1 0 149.963)" fill="#A0DBE9" stroke="black"/>
<rect x="0.5" y="-0.5" width="75.0622" height="74.7702" rx="3.5" transform="matrix(1 0 0 -1 0 74.9603)" fill="#A0DBE9" stroke="black"/>
<rect x="0.5" y="-0.5" width="75.0622" height="74.7702" rx="3.5" transform="matrix(1 0 0 -1 0 299.29)" fill="#A0DBE9" stroke="black"/>
<rect x="0.5" y="-0.5" width="75.0622" height="74.7702" rx="3.5" transform="matrix(1 0 0 -1 149.903 149.962)" fill="#A0DBE9" stroke="black"/>
<rect x="0.5" y="-0.5" width="75.0622" height="74.7702" rx="3.5" transform="matrix(1 0 0 -1 149.903 74.9598)" fill="#A0DBE9" stroke="black"/>
<rect x="0.5" y="-0.5" width="75.0622" height="74.7702" rx="3.5" transform="matrix(1 0 0 -1 149.903 299.29)" fill="#A0DBE9" stroke="black"/>
<rect x="0.5" y="-0.5" width="75.0622" height="74.7702" rx="3.5" transform="matrix(1 0 0 -1 74.9516 149.962)" fill="#A0DBE9" stroke="black"/>
<rect x="0.5" y="-0.5" width="75.0622" height="74.7702" rx="3.5" transform="matrix(1 0 0 -1 74.9516 74.9598)" fill="#A0DBE9" stroke="black"/>
<rect x="0.5" y="-0.5" width="75.0622" height="74.7702" rx="3.5" transform="matrix(1 0 0 -1 74.9516 299.29)" fill="#A0DBE9" stroke="black"/>
<rect x="0.5" y="-0.5" width="75.0622" height="74.7702" rx="3.5" transform="matrix(1 0 0 -1 224.855 149.962)" fill="#A0DBE9" stroke="black"/>
<rect x="0.5" y="-0.5" width="75.0622" height="74.7702" rx="3.5" transform="matrix(1 0 0 -1 224.855 74.9598)" fill="#A0DBE9" stroke="black"/>
<rect x="0.5" y="-0.5" width="75.0622" height="74.7702" rx="3.5" transform="matrix(1 0 0 -1 224.855 299.29)" fill="#A0DBE9" stroke="black"/>
<rect x="0.5" y="-0.5" width="75.0622" height="74.7702" rx="3.5" transform="matrix(1 0 0 -1 0 224.627)" fill="#A0DBE9" stroke="black"/>
<rect x="0.5" y="-0.5" width="75.0622" height="74.7702" rx="3.5" transform="matrix(1 0 0 -1 0 373.954)" fill="#A0DBE9" stroke="black"/>
<rect x="0.5" y="-0.5" width="75.0622" height="74.7702" rx="3.5" transform="matrix(1 0 0 -1 149.903 224.627)" fill="#A0DBE9" stroke="black"/>
<rect x="0.5" y="-0.5" width="75.0622" height="74.7702" rx="3.5" transform="matrix(1 0 0 -1 149.903 373.954)" fill="#A0DBE9" stroke="black"/>
<rect x="0.5" y="-0.5" width="75.0622" height="74.7702" rx="3.5" transform="matrix(1 0 0 -1 -1.52588e-05 448.735)" fill="#A0DBE9" stroke="black"/>
<rect x="0.5" y="-0.5" width="75.0622" height="74.7702" rx="3.5" transform="matrix(1 0 0 -1 299.914 448.735)" fill="#A0DBE9" stroke="black"/>
<rect x="0.5" y="-0.5" width="75.0622" height="74.7702" rx="3.5" transform="matrix(1 0 0 -1 149.957 448.735)" fill="#A0DBE9" stroke="black"/>
<rect x="0.5" y="-0.5" width="75.0622" height="74.7702" rx="3.5" transform="matrix(1 0 0 -1 449.87 448.735)" fill="#A0DBE9" stroke="black"/>
<rect x="0.5" y="-0.5" width="75.0622" height="74.7702" rx="3.5" transform="matrix(1 0 0 -1 74.9785 448.735)" fill="#A0DBE9" stroke="black"/>
<rect x="0.5" y="-0.5" width="75.0622" height="74.7702" rx="3.5" transform="matrix(1 0 0 -1 374.892 448.735)" fill="#A0DBE9" stroke="black"/>
<rect x="0.5" y="-0.5" width="75.0622" height="74.7702" rx="3.5" transform="matrix(1 0 0 -1 224.935 448.735)" fill="#A0DBE9" stroke="black"/>
<rect x="0.5" y="-0.5" width="75.0622" height="74.7702" rx="3.5" transform="matrix(1 0 0 -1 524.848 448.735)" fill="#A0DBE9" stroke="black"/>
<rect x="0.5" y="-0.5" width="75.0622" height="74.7702" rx="3.5" transform="matrix(1 0 0 -1 599.91 448.735)" fill="#A0DBE9" stroke="black"/>
<rect x="0.5" y="-0.5" width="75.0622" height="74.7702" rx="3.5" transform="matrix(1 0 0 -1 899.824 448.735)" fill="#A0DBE9" stroke="black"/>
<rect x="0.5" y="-0.5" width="75.0622" height="74.7702" rx="3.5" transform="matrix(1 0 0 -1 1198.87 448.735)" fill="#A0DBE9" stroke="black"/>
<rect x="0.5" y="-0.5" width="75.0622" height="74.7702" rx="3.5" transform="matrix(1 0 0 -1 749.867 448.735)" fill="#A0DBE9" stroke="black"/>
<rect x="0.5" y="-0.5" width="75.0622" height="74.7702" rx="3.5" transform="matrix(1 0 0 -1 1049.78 448.735)" fill="#A0DBE9" stroke="black"/>
<rect x="0.5" y="-0.5" width="75.0622" height="74.7702" rx="3.5" transform="matrix(1 0 0 -1 674.889 448.735)" fill="#A0DBE9" stroke="black"/>
<rect x="0.5" y="-0.5" width="75.0622" height="74.7702" rx="3.5" transform="matrix(1 0 0 -1 974.802 448.735)" fill="#A0DBE9" stroke="black"/>
<rect x="0.5" y="-0.5" width="74.4715" height="74.7702" rx="3.5" transform="matrix(1 0 0 -1 1274.39 448.735)" fill="#A0DBE9" stroke="black"/>
<rect x="0.5" y="-0.5" width="75.0622" height="74.7702" rx="3.5" transform="matrix(1 0 0 -1 824.845 448.735)" fill="#A0DBE9" stroke="black"/>
<rect x="0.5" y="-0.5" width="75.0622" height="74.7702" rx="3.5" transform="matrix(1 0 0 -1 1124.76 448.735)" fill="#A0DBE9" stroke="black"/>
<rect x="0.5" y="-0.5" width="75.0622" height="74.7702" rx="3.5" transform="matrix(1 0 0 -1 74.9516 224.627)" fill="#A0DBE9" stroke="black"/>
<rect x="0.5" y="-0.5" width="75.0622" height="74.7702" rx="3.5" transform="matrix(1 0 0 -1 74.9516 373.954)" fill="#A0DBE9" stroke="black"/>
<rect x="0.5" y="-0.5" width="75.0622" height="74.7702" rx="3.5" transform="matrix(1 0 0 -1 224.855 224.627)" fill="#A0DBE9" stroke="black"/>
<rect x="0.5" y="-0.5" width="75.0622" height="74.7702" rx="3.5" transform="matrix(1 0 0 -1 224.855 373.954)" fill="#A0DBE9" stroke="black"/>
<rect x="0.5" y="-0.5" width="75.0622" height="74.7702" rx="3.5" transform="matrix(1 0 0 -1 599.613 149.963)" fill="#A0DBE9" stroke="black"/>
<rect x="0.5" y="-0.5" width="75.0622" height="74.7702" rx="3.5" transform="matrix(1 0 0 -1 599.613 74.9598)" fill="#A0DBE9" stroke="black"/>
<rect x="0.5" y="-0.5" width="75.0622" height="74.7702" rx="3.5" transform="matrix(1 0 0 -1 599.613 299.291)" fill="#A0DBE9" stroke="black"/>
<rect x="0.5" y="-0.5" width="75.0622" height="74.7702" rx="3.5" transform="matrix(1 0 0 -1 749.516 149.962)" fill="#A0DBE9" stroke="black"/>
<rect x="0.5" y="-0.5" width="75.0622" height="74.7702" rx="3.5" transform="matrix(1 0 0 -1 749.516 74.9598)" fill="#A0DBE9" stroke="black"/>
<rect x="0.5" y="-0.5" width="75.0622" height="74.7702" rx="3.5" transform="matrix(1 0 0 -1 749.516 299.29)" fill="#A0DBE9" stroke="black"/>
<rect x="0.5" y="-0.5" width="75.0622" height="74.7702" rx="3.5" transform="matrix(1 0 0 -1 674.565 149.962)" fill="#A0DBE9" stroke="black"/>
<rect x="0.5" y="-0.5" width="75.0622" height="74.7702" rx="3.5" transform="matrix(1 0 0 -1 674.565 74.9598)" fill="#A0DBE9" stroke="black"/>
<rect x="0.5" y="-0.5" width="75.0622" height="74.7702" rx="3.5" transform="matrix(1 0 0 -1 674.565 299.29)" fill="#A0DBE9" stroke="black"/>
<rect x="0.5" y="-0.5" width="75.0622" height="74.7702" rx="3.5" transform="matrix(1 0 0 -1 824.468 149.962)" fill="#A0DBE9" stroke="black"/>
<rect x="0.5" y="-0.5" width="75.0622" height="74.7702" rx="3.5" transform="matrix(1 0 0 -1 824.468 74.9598)" fill="#A0DBE9" stroke="black"/>
<rect x="0.5" y="-0.5" width="75.0622" height="74.7702" rx="3.5" transform="matrix(1 0 0 -1 824.468 299.29)" fill="#A0DBE9" stroke="black"/>
<rect x="0.5" y="-0.5" width="75.0622" height="74.7702" rx="3.5" transform="matrix(1 0 0 -1 599.613 224.627)" fill="#A0DBE9" stroke="black"/>
<rect x="0.5" y="-0.5" width="75.0622" height="74.7702" rx="3.5" transform="matrix(1 0 0 -1 599.613 373.954)" fill="#A0DBE9" stroke="black"/>
<rect x="0.5" y="-0.5" width="75.0622" height="74.7702" rx="3.5" transform="matrix(1 0 0 -1 749.516 224.627)" fill="#A0DBE9" stroke="black"/>
<rect x="0.5" y="-0.5" width="75.0622" height="74.7702" rx="3.5" transform="matrix(1 0 0 -1 749.516 373.954)" fill="#A0DBE9" stroke="black"/>
<rect x="0.5" y="-0.5" width="75.0622" height="74.7702" rx="3.5" transform="matrix(1 0 0 -1 674.565 224.627)" fill="#A0DBE9" stroke="black"/>
<rect x="0.5" y="-0.5" width="75.0622" height="74.7702" rx="3.5" transform="matrix(1 0 0 -1 674.565 373.954)" fill="#A0DBE9" stroke="black"/>
<rect x="0.5" y="-0.5" width="75.0622" height="74.7702" rx="3.5" transform="matrix(1 0 0 -1 824.468 224.627)" fill="#A0DBE9" stroke="black"/>
<rect x="0.5" y="-0.5" width="75.0622" height="74.7702" rx="3.5" transform="matrix(1 0 0 -1 824.468 373.954)" fill="#A0DBE9" stroke="black"/>
<rect x="0.5" y="-0.5" width="75.0622" height="74.7702" rx="3.5" transform="matrix(1 0 0 -1 299.807 149.963)" fill="#A0DBE9" stroke="black"/>
<rect x="0.5" y="-0.5" width="75.0622" height="74.7702" rx="3.5" transform="matrix(1 0 0 -1 299.807 74.9598)" fill="#A0DBE9" stroke="black"/>
<rect x="0.5" y="-0.5" width="75.0622" height="74.7702" rx="3.5" transform="matrix(1 0 0 -1 299.807 299.29)" fill="#A0DBE9" stroke="black"/>
<rect x="0.5" y="-0.5" width="75.0622" height="74.7702" rx="3.5" transform="matrix(1 0 0 -1 449.71 149.963)" fill="#A0DBE9" stroke="black"/>
<rect x="0.5" y="-0.5" width="75.0622" height="74.7702" rx="3.5" transform="matrix(1 0 0 -1 449.71 74.9598)" fill="#A0DBE9" stroke="black"/>
<rect x="0.5" y="-0.5" width="75.0622" height="74.7702" rx="3.5" transform="matrix(1 0 0 -1 449.71 299.29)" fill="#A0DBE9" stroke="black"/>
<rect x="0.5" y="-0.5" width="75.0622" height="74.7702" rx="3.5" transform="matrix(1 0 0 -1 374.758 149.963)" fill="#A0DBE9" stroke="black"/>
<rect x="0.5" y="-0.5" width="75.0622" height="74.7702" rx="3.5" transform="matrix(1 0 0 -1 374.758 74.9598)" fill="#A0DBE9" stroke="black"/>
<rect x="0.5" y="-0.5" width="75.0622" height="74.7702" rx="3.5" transform="matrix(1 0 0 -1 374.758 299.29)" fill="#A0DBE9" stroke="black"/>
<rect x="0.5" y="-0.5" width="75.0622" height="74.7702" rx="3.5" transform="matrix(1 0 0 -1 524.661 149.963)" fill="#A0DBE9" stroke="black"/>
<rect x="0.5" y="-0.5" width="75.0622" height="74.7702" rx="3.5" transform="matrix(1 0 0 -1 524.661 74.9598)" fill="#A0DBE9" stroke="black"/>
<rect x="0.5" y="-0.5" width="75.0622" height="74.7702" rx="3.5" transform="matrix(1 0 0 -1 524.661 299.29)" fill="#A0DBE9" stroke="black"/>
<rect x="0.5" y="-0.5" width="75.0622" height="74.7702" rx="3.5" transform="matrix(1 0 0 -1 299.807 224.626)" fill="#A0DBE9" stroke="black"/>
<rect x="0.5" y="-0.5" width="75.0622" height="74.7702" rx="3.5" transform="matrix(1 0 0 -1 299.807 373.954)" fill="#A0DBE9" stroke="black"/>
<rect x="0.5" y="-0.5" width="75.0622" height="74.7702" rx="3.5" transform="matrix(1 0 0 -1 449.71 224.626)" fill="#A0DBE9" stroke="black"/>
<rect x="0.5" y="-0.5" width="75.0622" height="74.7702" rx="3.5" transform="matrix(1 0 0 -1 449.71 373.953)" fill="#A0DBE9" stroke="black"/>
<rect x="0.5" y="-0.5" width="75.0622" height="74.7702" rx="3.5" transform="matrix(1 0 0 -1 374.758 224.626)" fill="#A0DBE9" stroke="black"/>
<rect x="0.5" y="-0.5" width="75.0622" height="74.7702" rx="3.5" transform="matrix(1 0 0 -1 374.758 373.953)" fill="#A0DBE9" stroke="black"/>
<rect x="0.5" y="-0.5" width="75.0622" height="74.7702" rx="3.5" transform="matrix(1 0 0 -1 524.661 224.626)" fill="#A0DBE9" stroke="black"/>
<rect x="0.5" y="-0.5" width="75.0622" height="74.7702" rx="3.5" transform="matrix(1 0 0 -1 524.661 373.953)" fill="#A0DBE9" stroke="black"/>
<mask id="mask0" mask-type="alpha" maskUnits="userSpaceOnUse" x="0" y="616" width="1350" height="208">
<path d="M0.5 819.19V616.695H1349.5V819.19C1349.5 821.123 1347.93 822.69 1346 822.69H3.99998C2.06699 822.69 0.5 821.123 0.5 819.19Z" fill="#404040" stroke="black" stroke-miterlimit="10"/>
</mask>
<g mask="url(#mask0)">
<path d="M-73.7407 617.254L0.49855 562.425L74.7378 617.254L0.49855 672.082L-73.7407 617.254Z" fill="white" stroke="black"/>
<path d="M-73.7764 728.115L0.49855 673.307L74.7735 728.115L0.49855 782.923L-73.7764 728.115Z" fill="white" stroke="black"/>
<path d="M527.347 617.254L601.586 562.425L675.825 617.254L601.586 672.082L527.347 617.254Z" fill="white" stroke="black"/>
<path d="M527.311 728.115L601.586 673.307L675.861 728.115L601.586 782.923L527.311 728.115Z" fill="white" stroke="black"/>
<path d="M226.803 617.254L301.042 562.425L375.281 617.254L301.042 672.082L226.803 617.254Z" fill="white" stroke="black"/>
<path d="M226.767 728.115L301.042 673.307L375.317 728.115L301.042 782.923L226.767 728.115Z" fill="white" stroke="black"/>
<path d="M827.89 617.254L902.13 562.425L976.369 617.254L902.13 672.082L827.89 617.254Z" fill="white" stroke="black"/>
<path d="M827.855 728.115L902.13 673.307L976.405 728.115L902.13 782.923L827.855 728.115Z" fill="white" stroke="black"/>
<path d="M76.5312 617.254L150.77 562.425L225.01 617.254L150.77 672.082L76.5312 617.254Z" fill="white" stroke="black"/>
<path d="M76.4955 728.115L150.77 673.307L225.045 728.115L150.77 782.923L76.4955 728.115Z" fill="white" stroke="black"/>
<path d="M677.618 617.254L751.858 562.425L826.097 617.254L751.858 672.082L677.618 617.254Z" fill="white" stroke="black"/>
<path d="M677.583 728.115L751.858 673.307L826.133 728.115L751.858 782.923L677.583 728.115Z" fill="white" stroke="black"/>
<path d="M377.075 617.254L451.314 562.425L525.553 617.254L451.314 672.082L377.075 617.254Z" fill="white" stroke="black"/>
<path d="M377.039 728.115L451.314 673.307L525.589 728.115L451.314 782.923L377.039 728.115Z" fill="white" stroke="black"/>
<path d="M978.162 617.254L1052.4 562.425L1126.64 617.254L1052.4 672.082L978.162 617.254Z" fill="white" stroke="black"/>
<path d="M978.126 728.115L1052.4 673.307L1126.68 728.115L1052.4 782.923L978.126 728.115Z" fill="white" stroke="black"/>
<path d="M1128.43 617.254L1202.67 562.425L1276.91 617.254L1202.67 672.082L1128.43 617.254Z" fill="white" stroke="black"/>
<path d="M1275.41 617.254L1349.65 562.425L1423.89 617.254L1349.65 672.082L1275.41 617.254Z" fill="white" stroke="black"/>
<path d="M1128.4 728.115L1202.67 673.307L1276.95 728.115L1202.67 782.923L1128.4 728.115Z" fill="white" stroke="black"/>
<path d="M1275.38 728.115L1349.65 673.307L1423.93 728.115L1349.65 782.923L1275.38 728.115Z" fill="white" stroke="black"/>
<path d="M-73.7407 837.867L0.49855 783.039L74.7378 837.867L0.49855 892.695L-73.7407 837.867Z" fill="white" stroke="black"/>
<path d="M527.347 837.867L601.586 783.039L675.825 837.867L601.586 892.695L527.347 837.867Z" fill="white" stroke="black"/>
<path d="M226.803 837.867L301.042 783.039L375.281 837.867L301.042 892.695L226.803 837.867Z" fill="white" stroke="black"/>
<path d="M827.89 837.867L902.13 783.039L976.369 837.867L902.13 892.695L827.89 837.867Z" fill="white" stroke="black"/>
<path d="M76.5312 837.867L150.77 783.039L225.01 837.867L150.77 892.695L76.5312 837.867Z" fill="white" stroke="black"/>
<path d="M677.618 837.867L751.858 783.039L826.097 837.867L751.858 892.695L677.618 837.867Z" fill="white" stroke="black"/>
<path d="M377.075 837.867L451.314 783.039L525.553 837.867L451.314 892.695L377.075 837.867Z" fill="white" stroke="black"/>
<path d="M978.162 837.867L1052.4 783.039L1126.64 837.867L1052.4 892.695L978.162 837.867Z" fill="white" stroke="black"/>
<path d="M1128.43 837.867L1202.67 783.039L1276.91 837.867L1202.67 892.695L1128.43 837.867Z" fill="white" stroke="black"/>
<path d="M1275.41 837.867L1349.65 783.039L1423.89 837.867L1349.65 892.695L1275.41 837.867Z" fill="white" stroke="black"/>
<path d="M0.5 819.19V521.041H1349.5V819.19C1349.5 821.123 1347.93 822.69 1346 822.69H3.99998C2.06699 822.69 0.5 821.123 0.5 819.19Z" stroke="black" stroke-miterlimit="10"/>
</g>
<rect x="273.358" y="417.328" width="19" height="5" rx="2.5" transform="rotate(-8.67019 273.358 417.328)" fill="black"/>
<path d="M321.371 551.663L283.315 562.313L277.456 534.8L257.029 515.628C264.099 510.086 308.99 491.089 308.817 492.722C308.602 494.762 310.473 499.381 314.338 501.852C318.204 504.323 314.351 510.107 312.923 515.261C311.495 520.416 314.9 521.66 318.321 525.558C321.741 529.456 320.113 533.705 320.28 540.502C320.345 543.136 321.305 545.279 322.501 546.902C323.583 548.37 323.128 551.171 321.371 551.663Z" fill="#4040B1"/>
<path d="M283.42 562.228L321.361 551.659C323.119 551.169 323.578 548.364 322.496 546.894C321.303 545.272 320.345 543.132 320.28 540.501C320.113 533.705 321.741 529.455 318.321 525.557C314.9 521.659 311.495 520.415 312.923 515.261C314.351 510.106 318.204 504.323 314.338 501.852C310.473 499.38 308.602 494.762 308.817 492.721C308.99 491.089 264.05 510.049 256.98 515.591" stroke="black"/>
<mask id="path-147-inside-1" fill="white">
<path fill-rule="evenodd" clip-rule="evenodd" d="M258.878 492.315C276.649 484.907 288.547 465.373 288.467 443.028L295.223 439.673C298.538 438.028 298.979 433.481 296.042 431.231L285.097 422.845C277.15 399.539 256.289 384.142 234.19 387.06C208.456 390.456 190.787 417.401 194.726 447.241C197.611 469.097 211.287 486.445 228.51 492.829C228.215 494.401 228.161 496.045 228.382 497.716L229.69 507.63C230.811 516.117 238.599 522.088 247.085 520.968C255.572 519.848 261.544 512.06 260.424 503.573L259.115 493.659C259.055 493.203 258.976 492.755 258.878 492.315Z"/>
</mask>
<path fill-rule="evenodd" clip-rule="evenodd" d="M258.878 492.315C276.649 484.907 288.547 465.373 288.467 443.028L295.223 439.673C298.538 438.028 298.979 433.481 296.042 431.231L285.097 422.845C277.15 399.539 256.289 384.142 234.19 387.06C208.456 390.456 190.787 417.401 194.726 447.241C197.611 469.097 211.287 486.445 228.51 492.829C228.215 494.401 228.161 496.045 228.382 497.716L229.69 507.63C230.811 516.117 238.599 522.088 247.085 520.968C255.572 519.848 261.544 512.06 260.424 503.573L259.115 493.659C259.055 493.203 258.976 492.755 258.878 492.315Z" fill="#FFF480"/>
<path d="M288.467 443.028L288.022 442.132L287.465 442.409L287.467 443.032L288.467 443.028ZM258.878 492.315L258.493 491.392L257.72 491.714L257.902 492.531L258.878 492.315ZM295.223 439.673L294.779 438.778L295.223 439.673ZM296.042 431.231L295.434 432.025L296.042 431.231ZM285.097 422.845L284.15 423.168L284.248 423.454L284.489 423.639L285.097 422.845ZM228.51 492.829L229.493 493.014L229.648 492.185L228.857 491.892L228.51 492.829ZM228.382 497.716L227.39 497.847L228.382 497.716ZM229.69 507.63L230.682 507.499L229.69 507.63ZM260.424 503.573L261.415 503.442L260.424 503.573ZM259.115 493.659L258.124 493.79L259.115 493.659ZM287.467 443.032C287.546 465.044 275.828 484.166 258.493 491.392L259.263 493.238C277.47 485.648 289.549 465.703 289.467 443.024L287.467 443.032ZM294.779 438.778L288.022 442.132L288.912 443.924L295.668 440.569L294.779 438.778ZM295.434 432.025C297.783 433.824 297.431 437.461 294.779 438.778L295.668 440.569C299.645 438.595 300.175 433.137 296.651 430.437L295.434 432.025ZM284.489 423.639L295.434 432.025L296.651 430.437L285.705 422.051L284.489 423.639ZM234.321 388.051C255.843 385.21 276.321 400.205 284.15 423.168L286.043 422.522C277.98 398.874 256.736 383.075 234.059 386.068L234.321 388.051ZM195.718 447.111C191.832 417.675 209.267 391.358 234.321 388.051L234.059 386.068C207.645 389.555 189.743 417.127 193.735 447.372L195.718 447.111ZM228.857 491.892C212.021 485.651 198.56 468.642 195.718 447.111L193.735 447.372C196.663 469.552 210.553 487.239 228.162 493.767L228.857 491.892ZM229.373 497.585C229.166 496.02 229.218 494.482 229.493 493.014L227.527 492.645C227.213 494.319 227.156 496.069 227.39 497.847L229.373 497.585ZM230.682 507.499L229.373 497.585L227.39 497.847L228.699 507.761L230.682 507.499ZM246.954 519.977C239.015 521.025 231.73 515.438 230.682 507.499L228.699 507.761C229.891 516.795 238.182 523.152 247.216 521.959L246.954 519.977ZM259.432 503.704C260.48 511.643 254.894 518.929 246.954 519.977L247.216 521.959C256.251 520.767 262.608 512.476 261.415 503.442L259.432 503.704ZM258.124 493.79L259.432 503.704L261.415 503.442L260.106 493.528L258.124 493.79ZM257.902 492.531C257.993 492.943 258.067 493.363 258.124 493.79L260.106 493.528C260.043 493.044 259.958 492.567 259.854 492.098L257.902 492.531Z" fill="black" mask="url(#path-147-inside-1)"/>
<circle cx="198.001" cy="460.152" r="22" transform="rotate(-7.51945 198.001 460.152)" fill="#FFDDF0"/>
<path d="M286.297 457.422C285.251 460.394 281.994 461.954 279.022 460.908C276.051 459.861 274.491 456.604 275.537 453.633" stroke="black"/>
<path fill-rule="evenodd" clip-rule="evenodd" d="M272.488 377.789C278.448 390.549 265.551 409.481 243.681 420.074C240.321 421.701 236.945 423.037 233.615 424.087C233.837 424.945 234.008 425.826 234.127 426.727C234.843 432.148 233.52 437.368 230.75 441.616C240.646 445.843 248.12 455.035 249.63 466.477C251.907 483.725 239.771 499.552 222.523 501.829C211.269 503.314 200.619 498.663 193.944 490.459C190.225 493.167 185.796 495.012 180.914 495.656C165.309 497.716 150.989 486.736 148.929 471.131C147.168 457.787 154.942 445.382 166.989 440.78C164.272 436.912 162.417 432.334 161.753 427.302C159.585 410.876 170.921 395.831 187.074 393.699C190.577 393.237 194.019 393.42 197.284 394.158C202.5 386.519 211.181 379.154 222.097 373.867C243.967 363.273 266.528 365.029 272.488 377.789Z" fill="black"/>
<mask id="path-152-inside-2" fill="white">
<path fill-rule="evenodd" clip-rule="evenodd" d="M303.909 544.483C305.401 540.154 305.938 535.421 305.298 530.573C304.056 521.168 298.654 513.333 291.188 508.676C288.949 507.044 286.373 505.875 283.616 505.281C279.664 504.124 275.413 503.753 271.069 504.326C267.875 504.748 264.863 505.649 262.094 506.948L219.866 512.522C210.102 513.811 202.73 522.016 202.489 531.861L200.534 611.77L316.957 607.35L303.909 544.483Z"/>
</mask>
<path fill-rule="evenodd" clip-rule="evenodd" d="M303.909 544.483C305.401 540.154 305.938 535.421 305.298 530.573C304.056 521.168 298.654 513.333 291.188 508.676C288.949 507.044 286.373 505.875 283.616 505.281C279.664 504.124 275.413 503.753 271.069 504.326C267.875 504.748 264.863 505.649 262.094 506.948L219.866 512.522C210.102 513.811 202.73 522.016 202.489 531.861L200.534 611.77L316.957 607.35L303.909 544.483Z" fill="#4040B1"/>
<path d="M303.909 544.483L302.964 544.157L302.874 544.417L302.93 544.686L303.909 544.483ZM291.188 508.676L290.599 509.484L290.628 509.506L290.659 509.525L291.188 508.676ZM283.616 505.281L283.335 506.241L283.37 506.251L283.405 506.258L283.616 505.281ZM262.094 506.948L262.225 507.94L262.379 507.919L262.519 507.854L262.094 506.948ZM202.489 531.861L201.49 531.837L202.489 531.861ZM200.534 611.77L199.534 611.745L199.508 612.809L200.572 612.769L200.534 611.77ZM316.957 607.35L316.995 608.35L318.176 608.305L317.936 607.147L316.957 607.35ZM304.306 530.704C304.925 535.395 304.406 539.971 302.964 544.157L304.854 544.809C306.396 540.337 306.95 535.448 306.289 530.442L304.306 530.704ZM290.659 509.525C297.882 514.031 303.106 521.608 304.306 530.704L306.289 530.442C305.007 520.729 299.426 512.636 291.718 507.828L290.659 509.525ZM283.405 506.258C286.023 506.823 288.471 507.933 290.599 509.484L291.777 507.868C289.427 506.155 286.722 504.927 283.827 504.303L283.405 506.258ZM271.199 505.318C275.403 504.763 279.515 505.122 283.335 506.241L283.897 504.321C279.814 503.126 275.423 502.743 270.938 503.335L271.199 505.318ZM262.519 507.854C265.196 506.598 268.109 505.726 271.199 505.318L270.938 503.335C267.641 503.77 264.53 504.701 261.669 506.043L262.519 507.854ZM219.997 513.514L262.225 507.94L261.963 505.957L219.735 511.531L219.997 513.514ZM203.489 531.886C203.718 522.532 210.722 514.738 219.997 513.514L219.735 511.531C209.483 512.884 201.743 521.499 201.49 531.837L203.489 531.886ZM201.534 611.794L203.489 531.886L201.49 531.837L199.534 611.745L201.534 611.794ZM316.919 606.351L200.496 610.77L200.572 612.769L316.995 608.35L316.919 606.351ZM302.93 544.686L315.978 607.554L317.936 607.147L304.888 544.28L302.93 544.686Z" fill="black" mask="url(#path-152-inside-2)"/>
<mask id="path-154-inside-3" fill="white">
<path fill-rule="evenodd" clip-rule="evenodd" d="M403.324 532.95C406.483 531.949 408.224 528.58 407.212 525.425C406.2 522.269 402.819 520.522 399.66 521.523L344.367 539.038C341.208 540.038 339.468 543.407 340.48 546.563C341.492 549.718 344.873 551.465 348.032 550.464L403.324 532.95ZM407.641 545.253C410.8 544.252 412.541 540.883 411.529 537.727C410.517 534.572 407.136 532.825 403.977 533.826L349.638 551.038C346.479 552.039 344.738 555.408 345.75 558.564C346.181 559.905 347.039 560.993 348.127 561.722C345.02 562.531 343.129 565.653 343.884 568.803C344.309 570.575 345.483 571.987 346.991 572.78L337.029 574.118C333.744 574.56 331.489 577.573 331.991 580.848C332.493 584.124 335.563 586.421 338.847 585.98L395.339 578.389C398.623 577.948 400.879 574.935 400.377 571.66C399.874 568.384 396.805 566.087 393.521 566.528L363.933 570.503L406.789 561.003C410.025 560.285 412.021 557.092 411.249 553.869C410.476 550.647 407.228 548.616 403.993 549.333L373.232 556.152L407.641 545.253Z"/>
</mask>
<path fill-rule="evenodd" clip-rule="evenodd" d="M403.324 532.95C406.483 531.949 408.224 528.58 407.212 525.425C406.2 522.269 402.819 520.522 399.66 521.523L344.367 539.038C341.208 540.038 339.468 543.407 340.48 546.563C341.492 549.718 344.873 551.465 348.032 550.464L403.324 532.95ZM407.641 545.253C410.8 544.252 412.541 540.883 411.529 537.727C410.517 534.572 407.136 532.825 403.977 533.826L349.638 551.038C346.479 552.039 344.738 555.408 345.75 558.564C346.181 559.905 347.039 560.993 348.127 561.722C345.02 562.531 343.129 565.653 343.884 568.803C344.309 570.575 345.483 571.987 346.991 572.78L337.029 574.118C333.744 574.56 331.489 577.573 331.991 580.848C332.493 584.124 335.563 586.421 338.847 585.98L395.339 578.389C398.623 577.948 400.879 574.935 400.377 571.66C399.874 568.384 396.805 566.087 393.521 566.528L363.933 570.503L406.789 561.003C410.025 560.285 412.021 557.092 411.249 553.869C410.476 550.647 407.228 548.616 403.993 549.333L373.232 556.152L407.641 545.253Z" fill="#FFF480"/>
<path d="M407.212 525.425L408.164 525.119L407.212 525.425ZM403.324 532.95L403.022 531.997L403.324 532.95ZM399.66 521.523L399.962 522.476L399.66 521.523ZM344.367 539.038L344.669 539.991L344.367 539.038ZM340.48 546.563L339.527 546.868L340.48 546.563ZM348.032 550.464L348.334 551.418L348.032 550.464ZM411.529 537.727L412.481 537.422L411.529 537.727ZM407.641 545.253L407.339 544.299L407.641 545.253ZM403.977 533.826L404.279 534.779L404.279 534.779L403.977 533.826ZM349.638 551.038L349.336 550.085L349.638 551.038ZM345.75 558.564L346.703 558.258L345.75 558.564ZM348.127 561.722L348.684 560.891L350.531 562.13L348.379 562.69L348.127 561.722ZM343.884 568.803L342.912 569.036L343.884 568.803ZM346.991 572.78L347.456 571.894L350.233 573.353L347.124 573.771L346.991 572.78ZM337.029 574.118L336.895 573.127L337.029 574.118ZM331.991 580.848L331.003 581L331.991 580.848ZM338.847 585.98L338.98 586.971L338.847 585.98ZM395.339 578.389L395.472 579.38L395.339 578.389ZM400.377 571.66L399.388 571.811L400.377 571.66ZM393.521 566.528L393.654 567.519L393.521 566.528ZM363.933 570.503L364.067 571.494L363.717 569.527L363.933 570.503ZM406.789 561.003L407.006 561.979L406.789 561.003ZM411.249 553.869L410.276 554.102L411.249 553.869ZM403.993 549.333L403.776 548.357L403.776 548.357L403.993 549.333ZM373.232 556.152L373.448 557.129L372.93 555.199L373.232 556.152ZM408.164 525.119C409.345 528.802 407.313 532.735 403.626 533.903L403.022 531.997C405.653 531.163 407.102 528.358 406.26 525.73L408.164 525.119ZM399.358 520.57C403.042 519.403 406.984 521.439 408.164 525.119L406.26 525.73C405.416 523.099 402.595 521.642 399.962 522.476L399.358 520.57ZM344.065 538.084L399.358 520.57L399.962 522.476L344.669 539.991L344.065 538.084ZM339.527 546.868C338.346 543.186 340.379 539.252 344.065 538.084L344.669 539.991C342.038 540.824 340.589 543.629 341.432 546.257L339.527 546.868ZM348.334 551.418C344.65 552.585 340.708 550.548 339.527 546.868L341.432 546.257C342.276 548.888 345.096 550.345 347.73 549.511L348.334 551.418ZM403.626 533.903L348.334 551.418L347.73 549.511L403.022 531.997L403.626 533.903ZM412.481 537.422C413.662 541.105 411.63 545.038 407.943 546.206L407.339 544.299C409.971 543.466 411.42 540.661 410.577 538.033L412.481 537.422ZM403.675 532.873C407.359 531.706 411.301 533.742 412.481 537.422L410.577 538.033C409.733 535.402 406.913 533.945 404.279 534.779L403.675 532.873ZM349.336 550.085L403.675 532.873L404.279 534.779L349.94 551.992L349.336 550.085ZM344.798 558.869C343.617 555.186 345.649 551.253 349.336 550.085L349.94 551.992C347.309 552.825 345.86 555.63 346.703 558.258L344.798 558.869ZM347.57 562.553C346.302 561.702 345.3 560.433 344.798 558.869L346.703 558.258C347.061 559.378 347.776 560.283 348.684 560.891L347.57 562.553ZM342.912 569.036C342.029 565.355 344.242 561.7 347.875 560.754L348.379 562.69C345.798 563.362 344.229 565.951 344.857 568.57L342.912 569.036ZM346.526 573.665C344.776 572.745 343.407 571.103 342.912 569.036L344.857 568.57C345.211 570.048 346.19 571.229 347.456 571.894L346.526 573.665ZM336.895 573.127L346.858 571.789L347.124 573.771L337.162 575.109L336.895 573.127ZM331.003 581C330.416 577.171 333.057 573.643 336.895 573.127L337.162 575.109C334.432 575.476 332.562 577.974 332.98 580.697L331.003 581ZM338.98 586.971C335.156 587.485 331.587 584.814 331.003 581L332.98 580.697C333.399 583.433 335.97 585.357 338.714 584.989L338.98 586.971ZM395.472 579.38L338.98 586.971L338.714 584.989L395.206 577.398L395.472 579.38ZM401.365 571.508C401.952 575.337 399.311 578.865 395.472 579.38L395.206 577.398C397.936 577.031 399.805 574.533 399.388 571.811L401.365 571.508ZM393.388 565.537C397.212 565.023 400.78 567.694 401.365 571.508L399.388 571.811C398.969 569.074 396.398 567.15 393.654 567.519L393.388 565.537ZM363.8 569.512L393.388 565.537L393.654 567.519L364.067 571.494L363.8 569.512ZM407.006 561.979L364.15 571.48L363.717 569.527L406.573 560.026L407.006 561.979ZM412.221 553.636C413.124 557.402 410.787 561.141 407.006 561.979L406.573 560.026C409.262 559.43 410.918 556.781 410.276 554.102L412.221 553.636ZM403.776 548.357C407.544 547.522 411.322 549.883 412.221 553.636L410.276 554.102C409.631 551.411 406.911 549.71 404.209 550.309L403.776 548.357ZM373.015 555.176L403.776 548.357L404.209 550.309L373.448 557.129L373.015 555.176ZM407.943 546.206L373.534 557.106L372.93 555.199L407.339 544.299L407.943 546.206Z" fill="black" mask="url(#path-154-inside-3)"/>
<circle cx="233.088" cy="441.345" r="9.5" transform="rotate(-7.51945 233.088 441.345)" fill="#FFF480"/>
<path d="M236.842 446.977C235.329 446.744 234.291 445.33 234.523 443.817C234.755 442.304 236.17 441.266 237.683 441.498" stroke="black"/>
<path d="M228.446 438.761C229.255 436.373 231.846 435.093 234.234 435.901C236.622 436.71 237.903 439.301 237.094 441.689" stroke="black"/>
<mask id="path-159-inside-4" fill="white">
<path fill-rule="evenodd" clip-rule="evenodd" d="M188.236 565.413C181.137 560.71 176.035 553.076 174.833 543.971C172.629 527.271 184.38 511.946 201.08 509.742C210.087 508.553 218.694 511.424 225.059 516.941C234.986 523.295 257.28 546.63 255.874 547.211C253.972 547.997 251.475 552.025 251.147 556.597C250.908 559.939 246.768 560.412 242.515 560.898C240.951 561.076 239.373 561.257 237.967 561.582C233.973 562.507 233.341 564.814 232.464 568.02C232.193 569.011 231.898 570.088 231.473 571.236C230.174 574.749 227.452 576.039 223.811 577.763C222.412 578.426 220.877 579.154 219.235 580.096C216.867 581.455 215.419 583.404 214.572 585.285C213.835 586.922 211.258 587.87 209.971 586.614L188.236 565.413Z"/>
</mask>
<path fill-rule="evenodd" clip-rule="evenodd" d="M188.236 565.413C181.137 560.71 176.035 553.076 174.833 543.971C172.629 527.271 184.38 511.946 201.08 509.742C210.087 508.553 218.694 511.424 225.059 516.941C234.986 523.295 257.28 546.63 255.874 547.211C253.972 547.997 251.475 552.025 251.147 556.597C250.908 559.939 246.768 560.412 242.515 560.898C240.951 561.076 239.373 561.257 237.967 561.582C233.973 562.507 233.341 564.814 232.464 568.02C232.193 569.011 231.898 570.088 231.473 571.236C230.174 574.749 227.452 576.039 223.811 577.763C222.412 578.426 220.877 579.154 219.235 580.096C216.867 581.455 215.419 583.404 214.572 585.285C213.835 586.922 211.258 587.87 209.971 586.614L188.236 565.413Z" fill="#4040B1"/>
<path d="M188.236 565.413L188.934 564.697L188.867 564.632L188.788 564.58L188.236 565.413ZM225.059 516.941L224.403 517.697L224.458 517.744L224.519 517.784L225.059 516.941ZM255.874 547.211L256.256 548.136L256.256 548.136L255.874 547.211ZM251.147 556.597L250.15 556.525L251.147 556.597ZM242.515 560.898L242.402 559.904L242.515 560.898ZM237.967 561.582L237.741 560.608L237.741 560.608L237.967 561.582ZM232.464 568.02L233.429 568.284L233.429 568.284L232.464 568.02ZM231.473 571.236L230.535 570.889L230.535 570.889L231.473 571.236ZM223.811 577.763L223.383 576.86L223.811 577.763ZM219.235 580.096L218.737 579.229L218.737 579.229L219.235 580.096ZM214.572 585.285L213.66 584.875L213.66 584.875L214.572 585.285ZM209.971 586.614L210.669 585.898L210.669 585.898L209.971 586.614ZM188.788 564.58C181.92 560.029 176.987 552.647 175.825 543.84L173.842 544.102C175.083 553.506 180.354 561.391 187.684 566.247L188.788 564.58ZM175.825 543.84C173.693 527.688 185.058 512.866 201.211 510.733L200.949 508.751C183.701 511.027 171.565 526.855 173.842 544.102L175.825 543.84ZM201.211 510.733C209.922 509.584 218.246 512.359 224.403 517.697L225.714 516.186C219.142 510.489 210.252 507.523 200.949 508.751L201.211 510.733ZM224.519 517.784C229.378 520.893 237.363 528.24 244.006 534.945C247.315 538.285 250.264 541.438 252.292 543.784C253.309 544.961 254.077 545.915 254.542 546.578C254.781 546.92 254.904 547.135 254.951 547.243C254.98 547.31 254.94 547.248 254.938 547.112C254.936 547.034 254.945 546.877 255.037 546.702C255.14 546.507 255.306 546.364 255.492 546.287L256.256 548.136C256.486 548.041 256.684 547.868 256.808 547.633C256.921 547.418 256.94 547.211 256.937 547.071C256.932 546.812 256.846 546.585 256.786 546.448C256.656 546.147 256.435 545.795 256.18 545.431C255.656 544.682 254.834 543.667 253.805 542.476C251.738 540.085 248.756 536.898 245.427 533.537C238.792 526.841 230.666 519.343 225.598 516.099L224.519 517.784ZM255.492 546.287C254.828 546.562 254.198 547.076 253.638 547.695C253.068 548.325 252.522 549.114 252.04 550.01C251.075 551.801 250.324 554.087 250.15 556.525L252.144 556.668C252.297 554.535 252.959 552.522 253.8 550.959C254.221 550.178 254.677 549.527 255.12 549.038C255.573 548.538 255.969 548.254 256.256 548.136L255.492 546.287ZM250.15 556.525C250.106 557.137 249.893 557.576 249.565 557.928C249.219 558.298 248.7 558.615 247.986 558.882C246.529 559.427 244.568 559.657 242.402 559.904L242.629 561.891C244.714 561.653 246.95 561.404 248.686 560.755C249.568 560.426 250.395 559.968 251.026 559.294C251.674 558.601 252.069 557.728 252.144 556.668L250.15 556.525ZM242.402 559.904C240.851 560.081 239.213 560.267 237.741 560.608L238.192 562.556C239.532 562.246 241.052 562.072 242.629 561.891L242.402 559.904ZM237.741 560.608C235.555 561.114 234.164 562.037 233.228 563.371C232.342 564.635 231.926 566.198 231.5 567.756L233.429 568.284C233.88 566.636 234.218 565.443 234.865 564.52C235.463 563.667 236.385 562.975 238.192 562.556L237.741 560.608ZM231.5 567.756C231.228 568.75 230.943 569.787 230.535 570.889L232.411 571.583C232.853 570.388 233.158 569.272 233.429 568.284L231.5 567.756ZM230.535 570.889C229.398 573.966 227.08 575.108 223.383 576.86L224.239 578.667C227.823 576.969 230.95 575.532 232.411 571.583L230.535 570.889ZM223.383 576.86C221.986 577.522 220.418 578.264 218.737 579.229L219.733 580.963C221.336 580.043 222.838 579.331 224.239 578.667L223.383 576.86ZM218.737 579.229C216.153 580.712 214.577 582.839 213.66 584.875L215.484 585.696C216.261 583.968 217.58 582.199 219.733 580.963L218.737 579.229ZM213.66 584.875C213.432 585.382 212.861 585.864 212.175 586.081C211.486 586.3 210.956 586.178 210.669 585.898L209.272 587.33C210.274 588.306 211.675 588.338 212.78 587.988C213.889 587.636 214.975 586.826 215.484 585.696L213.66 584.875ZM210.669 585.898L188.934 564.697L187.538 566.129L209.272 587.33L210.669 585.898Z" fill="black" mask="url(#path-159-inside-4)"/>
<circle cx="265.616" cy="426.304" r="6" transform="rotate(13.134 265.616 426.304)" fill="white" stroke="black"/>
<circle cx="268.765" cy="426.012" r="3.5" transform="rotate(13.134 268.765 426.012)" fill="black"/>
<rect x="251.024" y="416.225" width="19" height="5" rx="2.5" transform="rotate(-8.67019 251.024 416.225)" fill="black"/>
<rect x="0.5" y="449.262" width="1349" height="167.555" fill="#E9E9E9" stroke="black"/>
<path d="M938.821 565.53L971.038 701.05L829.412 701.05L861.63 565.53L938.821 565.53Z" fill="#FFC1E4" stroke="black"/>
<path d="M817.312 548.204C817.312 545.271 819.689 542.894 822.622 542.894H977.829C980.761 542.894 983.139 545.271 983.139 548.204C983.139 579.694 957.611 605.222 926.12 605.222H874.33C842.84 605.222 817.312 579.694 817.312 548.204Z" fill="#FFC1E4" stroke="black"/>
<path d="M817.312 549.3C817.312 544.053 821.565 539.8 826.812 539.8H973.639C978.885 539.8 983.139 544.053 983.139 549.3V556.031C983.139 560.725 979.333 564.531 974.639 564.531H825.812C821.118 564.531 817.312 560.725 817.312 556.031V549.3Z" fill="#FFDDF0" stroke="black"/>
<path d="M887.426 395.533C887.426 391.391 890.784 388.033 894.926 388.033H904.99C909.132 388.033 912.49 391.391 912.49 395.533V404.521H887.426V395.533Z" fill="#FFC1E4" stroke="black"/>
<path d="M811.509 418.943C811.775 407.531 821.109 398.36 832.586 398.36H967.864C979.341 398.36 988.676 407.531 988.941 418.943H811.509Z" fill="#FFDDF0" stroke="black"/>
<path d="M829.979 532.702L817.371 418.941H983.08L970.471 532.702H829.979Z" fill="#FFDDF0" stroke="black"/>
<path d="M817.322 541.894C817.584 535.096 823.178 529.666 830.04 529.666H970.411C977.273 529.666 982.866 535.096 983.129 541.894H817.322Z" fill="#FFDDF0" stroke="black"/>
<rect x="1017.92" y="361.407" width="249.406" height="339.644" transform="rotate(-0.00868784 1017.92 361.407)" fill="#C4C4C4" stroke="black"/>
<circle cx="1228.73" cy="393.509" r="20.7517" transform="rotate(-0.00868784 1228.73 393.509)" fill="#E8E8E8" stroke="black"/>
<circle cx="1228.73" cy="393.509" r="12.8861" transform="rotate(-0.00868784 1228.73 393.509)" fill="#FF4713" stroke="black"/>
<rect x="1110.74" y="372.775" width="27.6374" height="12.0394" rx="6.01969" transform="rotate(-0.00868784 1110.74 372.775)" fill="#E8E8E8" stroke="black"/>
<rect x="1110.74" y="387.825" width="27.6374" height="12.0394" rx="6.01969" transform="rotate(-0.00868784 1110.74 387.825)" fill="#E8E8E8" stroke="black"/>
<rect x="1141.93" y="387.821" width="27.6374" height="12.0394" rx="6.01969" transform="rotate(-0.00868784 1141.93 387.821)" fill="#E8E8E8" stroke="black"/>
<rect x="1173.12" y="387.816" width="27.6374" height="12.0394" rx="6.01969" transform="rotate(-0.00868784 1173.12 387.816)" fill="#E8E8E8" stroke="black"/>
<rect x="1141.93" y="372.771" width="27.6374" height="12.0394" rx="6.01969" transform="rotate(-0.00868784 1141.93 372.771)" fill="#E8E8E8" stroke="black"/>
<rect x="1173.12" y="372.766" width="27.6374" height="12.0394" rx="6.01969" transform="rotate(-0.00868784 1173.12 372.766)" fill="#E8E8E8" stroke="black"/>
<rect x="1026.73" y="372.788" width="73.4716" height="41.5034" rx="7.5" transform="rotate(-0.00868784 1026.73 372.788)" fill="#E8E8E8" stroke="black"/>
<path d="M1026.73 400.878L1100.21 400.866L1100.21 406.78C1100.21 410.922 1096.85 414.281 1092.71 414.281L1034.24 414.29C1030.09 414.291 1026.74 410.934 1026.73 406.791L1026.73 400.878Z" fill="#7A7A7A" stroke="black"/>
<circle cx="1142.65" cy="529.147" r="92.1923" transform="rotate(-0.00868784 1142.65 529.147)" fill="#E8E8E8" stroke="black"/>
<path d="M1082.95 314.049L1017.73 361.447L1267.16 361.409L1332.37 314.011L1082.95 314.049Z" fill="#E8E8E8" stroke="black" stroke-linejoin="round"/>
<path d="M1267.21 700.644L1332.42 653.246L1332.37 314.449L1267.16 360.914L1267.21 700.644Z" fill="#7A7A7A" stroke="black" stroke-linejoin="round"/>
<path d="M1285.13 447.378L1285.16 656.872" stroke="black"/>
<path d="M1301.13 434.51L1301.16 644.005" stroke="black"/>
<path d="M1317.13 424.374L1317.16 633.868" stroke="black"/>
<mask id="path-189-inside-5" fill="white">
<path fill-rule="evenodd" clip-rule="evenodd" d="M1214.83 514.698C1207.45 515.411 1201.68 521.632 1201.68 529.201C1201.68 536.761 1207.44 542.975 1214.81 543.697C1208.06 577.372 1178.32 602.742 1142.66 602.748C1102.01 602.754 1069.06 569.807 1069.05 529.158C1069.04 488.51 1101.99 455.553 1142.64 455.547C1178.35 455.541 1208.12 480.964 1214.83 514.698Z"/>
</mask>
<path fill-rule="evenodd" clip-rule="evenodd" d="M1214.83 514.698C1207.45 515.411 1201.68 521.632 1201.68 529.201C1201.68 536.761 1207.44 542.975 1214.81 543.697C1208.06 577.372 1178.32 602.742 1142.66 602.748C1102.01 602.754 1069.06 569.807 1069.05 529.158C1069.04 488.51 1101.99 455.553 1142.64 455.547C1178.35 455.541 1208.12 480.964 1214.83 514.698Z" fill="#A0DBE9"/>
<path d="M1214.83 514.698L1214.93 515.693L1216.03 515.587L1215.81 514.503L1214.83 514.698ZM1214.81 543.697L1215.79 543.893L1216.01 542.809L1214.91 542.701L1214.81 543.697ZM1202.68 529.2C1202.68 522.152 1208.05 516.357 1214.93 515.693L1214.74 513.703C1206.85 514.465 1200.68 521.112 1200.68 529.201L1202.68 529.2ZM1214.91 542.701C1208.05 542.029 1202.68 536.241 1202.68 529.2L1200.68 529.201C1200.68 537.28 1206.84 543.92 1214.72 544.692L1214.91 542.701ZM1213.83 543.5C1207.17 576.717 1177.84 601.742 1142.66 601.748L1142.66 603.748C1178.81 603.742 1208.95 578.027 1215.79 543.893L1213.83 543.5ZM1142.66 601.748C1102.56 601.754 1070.06 569.254 1070.05 529.158L1068.05 529.159C1068.06 570.359 1101.46 603.754 1142.66 603.748L1142.66 601.748ZM1070.05 529.158C1070.04 489.062 1102.54 456.553 1142.64 456.547L1142.64 454.547C1101.44 454.553 1068.04 487.958 1068.05 529.159L1070.05 529.158ZM1142.64 456.547C1177.86 456.541 1207.23 481.618 1213.85 514.893L1215.81 514.503C1209.01 480.31 1178.83 454.541 1142.64 454.547L1142.64 456.547Z" fill="black" mask="url(#path-189-inside-5)"/>
<path d="M1173.42 494.028C1192.63 513.234 1192.63 544.385 1173.43 563.596C1158.29 578.734 1133.75 578.737 1118.62 563.604C1106.74 551.734 1106.74 532.478 1118.61 520.604C1127.87 511.337 1142.9 511.335 1152.17 520.599C1159.35 527.777 1159.35 539.408 1152.17 546.588C1146.66 552.098 1137.74 552.099 1132.23 546.591C1128.06 542.421 1128.06 535.653 1132.23 531.482C1135.33 528.377 1140.36 528.381 1143.46 531.481C1145.71 533.728 1145.71 537.375 1143.46 539.627C1141.9 541.19 1139.36 541.19 1137.79 539.627C1136.78 538.61 1136.78 536.965 1137.79 535.949C1138.96 534.778 1138.96 532.878 1137.79 531.707C1136.62 530.535 1134.72 530.536 1133.55 531.707C1130.2 535.061 1130.19 540.506 1133.55 543.871C1137.46 547.776 1143.8 547.775 1147.7 543.869C1152.3 539.27 1152.29 531.824 1147.7 527.237C1142.26 521.797 1133.43 521.789 1127.98 527.24C1121.47 533.754 1121.47 544.322 1127.99 550.834C1135.84 558.685 1148.56 558.683 1156.41 550.83C1165.93 541.306 1165.93 525.876 1156.41 516.355C1144.8 504.749 1125.97 504.752 1114.37 516.362C1100.15 530.58 1100.16 553.634 1114.37 567.848C1131.85 585.323 1160.19 585.319 1177.67 567.838C1199.22 546.283 1199.21 511.333 1177.66 489.785C1163.98 476.107 1143.06 472.935 1124.67 477.097C1106.31 481.25 1089.45 492.956 1084.41 510.284C1083.94 511.875 1084.86 513.54 1086.45 514.003C1088.04 514.466 1089.7 513.552 1090.17 511.961C1094.39 497.456 1108.91 486.815 1125.99 482.949C1143.03 479.092 1161.61 482.227 1173.42 494.028Z" fill="#FFF480" stroke="black" stroke-linecap="round"/>
<mask id="mask1" mask-type="alpha" maskUnits="userSpaceOnUse" x="0" y="429" width="403" height="315">
<rect y="429.409" width="402.701" height="314.154" fill="#C4C4C4"/>
</mask>
<g mask="url(#mask1)">
<path d="M-353.463 461.908L-354.615 449.166H314.789C327.942 449.166 338.257 460.455 337.073 473.555C324.978 607.38 212.797 709.879 78.4262 709.879H-82.0693C-223.062 709.879 -340.772 602.328 -353.463 461.908Z" fill="#FFC1E4" stroke="black"/>
<rect x="-150.409" y="449.147" width="489.733" height="33.2308" rx="16.5" fill="#FFDDF0" stroke="black"/>
</g>
<path d="M0.511383 400.172L0.511369 719.693" stroke="black"/>
<path d="M717.117 199.925C717.117 193.022 722.714 187.425 729.617 187.425H791.271C798.175 187.425 803.771 193.022 803.771 199.925V329.64H717.117V199.925Z" fill="#FF9476" stroke="black"/>
<rect x="678.529" y="191.99" width="141.097" height="6.967" fill="white" stroke="black"/>
<circle cx="675.299" cy="194.911" r="7.48569" fill="white" stroke="black"/>
<circle cx="824.189" cy="194.911" r="7.48569" fill="white" stroke="black"/>
<rect x="300.205" y="336.252" width="75.0365" height="18" rx="9" fill="#E9E9E9" stroke="black"/>
<rect x="300.205" y="336.252" width="75.0365" height="8.98223" rx="4.49112" fill="white" stroke="black"/>
<circle cx="524.484" cy="302.045" r="123.476" fill="white" stroke="black"/>
<mask id="mask2" mask-type="alpha" maskUnits="userSpaceOnUse" x="401" y="179" width="247" height="247">
<circle cx="524.484" cy="302.045" r="122.476" fill="white" stroke="black"/>
</mask>
<g mask="url(#mask2)">
<rect width="22.372" height="263.989" transform="matrix(0.489966 0.871742 -0.71813 0.695909 582.851 164.44)" fill="#E1F9FF"/>
<rect width="13.4232" height="257.278" transform="matrix(0.489966 0.871742 -0.71813 0.695909 603.459 195.445)" fill="#E1F9FF"/>
<rect width="10.5435" height="257.278" transform="matrix(0.489966 0.871742 -0.71813 0.695909 665.103 277.138)" fill="#E1F9FF"/>
</g>
<rect x="1049.57" y="248.6" width="223.889" height="18" rx="9" fill="#E9E9E9" stroke="black"/>
<rect x="1049.57" y="248.6" width="223.889" height="8.98223" rx="4.49112" fill="white" stroke="black"/>
<path d="M705.935 198.952C705.935 192.049 711.532 186.452 718.435 186.452H780.09C786.993 186.452 792.59 192.049 792.59 198.952V270.615V281.353V299.537V307.155V313.996H705.935V307.155V299.537V287.496V270.615V198.952Z" fill="#FF9476" stroke="black"/>
<mask id="path-210-inside-6" fill="white">
<path d="M516.076 520.088C516.076 516.24 519.195 513.12 523.044 513.12C526.892 513.12 530.011 516.24 530.011 520.088V569.707C530.011 573.555 526.892 576.674 523.044 576.674C519.195 576.674 516.076 573.555 516.076 569.707V520.088Z"/>
</mask>
<path d="M516.076 520.088C516.076 516.24 519.195 513.12 523.044 513.12C526.892 513.12 530.011 516.24 530.011 520.088V569.707C530.011 573.555 526.892 576.674 523.044 576.674C519.195 576.674 516.076 573.555 516.076 569.707V520.088Z" fill="#FFC1E4"/>
<path d="M529.011 520.088V569.707H531.011V520.088H529.011ZM517.076 569.707V520.088H515.076V569.707H517.076ZM523.044 575.674C519.748 575.674 517.076 573.003 517.076 569.707H515.076C515.076 574.107 518.643 577.674 523.044 577.674V575.674ZM529.011 569.707C529.011 573.003 526.34 575.674 523.044 575.674V577.674C527.444 577.674 531.011 574.107 531.011 569.707H529.011ZM523.044 514.12C526.34 514.12 529.011 516.792 529.011 520.088H531.011C531.011 515.688 527.444 512.12 523.044 512.12V514.12ZM523.044 512.12C518.643 512.12 515.076 515.688 515.076 520.088H517.076C517.076 516.792 519.748 514.12 523.044 514.12V512.12Z" fill="black" mask="url(#path-210-inside-6)"/>
<rect x="0.5" y="-0.5" width="22.6971" height="15.0246" rx="4.5" transform="matrix(1 0 0 -1 511.195 523.106)" fill="#FFC1E4" stroke="black"/>
<path d="M633.259 449.889C632.99 484.684 604.701 512.808 569.842 512.808H481.675C446.817 512.808 418.527 484.684 418.259 449.889H633.259Z" fill="#FFC1E4" stroke="black"/>
<path d="M499.294 441.932C498.334 438.35 500.46 434.668 504.042 433.708C507.624 432.749 511.306 434.874 512.266 438.457L516.629 454.741L503.657 458.217L499.294 441.932Z" fill="#FFC1E4" stroke="black"/>
<path d="M511.311 433.701C511.489 434.362 511.136 435.236 510.111 436.145C509.111 437.032 507.581 437.839 505.756 438.329C503.93 438.818 502.202 438.883 500.893 438.615C499.551 438.341 498.808 437.759 498.631 437.099C498.454 436.438 498.807 435.563 499.831 434.654C500.831 433.768 502.361 432.96 504.186 432.471C506.012 431.982 507.74 431.916 509.049 432.184C510.391 432.459 511.134 433.04 511.311 433.701Z" fill="#A0DBE9" stroke="black"/>
<path d="M531.769 438.456C532.729 434.874 536.411 432.748 539.994 433.708C543.576 434.668 545.702 438.35 544.742 441.932L540.554 457.561L527.582 454.085L531.769 438.456Z" fill="#FFC1E4" stroke="black"/>
<path d="M548.06 375.807C548.06 367.135 540.984 360.06 532.312 360.06C523.64 360.06 516.564 367.135 516.564 375.807V453.837H527.338V375.807C527.338 373.059 529.563 370.833 532.312 370.833C535.061 370.833 537.286 373.059 537.286 375.807V391.466C537.286 394.441 539.698 396.853 542.673 396.853C545.648 396.853 548.06 394.441 548.06 391.466V375.807Z" fill="#FFDDF0" stroke="black"/>
<path d="M545.981 437.224C545.804 437.884 545.061 438.466 543.719 438.74C542.41 439.008 540.681 438.943 538.856 438.453C537.03 437.964 535.501 437.157 534.501 436.27C533.476 435.361 533.123 434.486 533.3 433.826C533.477 433.165 534.22 432.584 535.562 432.309C536.872 432.041 538.6 432.107 540.425 432.596C542.251 433.085 543.78 433.893 544.78 434.779C545.805 435.688 546.158 436.563 545.981 437.224Z" fill="#FF4713" stroke="black"/>
<path d="M407.478 461.829C407.478 454.862 413.126 449.214 420.093 449.214H631.425C638.392 449.214 644.04 454.862 644.04 461.829C644.04 468.796 638.392 474.444 631.425 474.444H420.093C413.126 474.444 407.478 468.796 407.478 461.829Z" fill="#FFDDF0" stroke="black"/>
<path d="M1269.76 175.885C1268.16 137.431 1267.16 135.933 1266.46 131.938C1266.16 129.94 1264.36 125.046 1263.75 123.748C1263.05 122.05 1261.65 121.65 1259.95 121.151C1258.35 120.652 1255.04 119.753 1251.84 118.354C1248.53 117.056 1247.33 117.056 1247.33 117.056L1246.03 116.956C1241.92 116.656 1237.91 116.656 1233.81 116.956L1232.51 117.056C1232.51 117.056 1231.3 117.056 1228 118.354C1224.69 119.653 1221.49 120.652 1219.89 121.151C1218.28 121.65 1216.88 122.15 1216.08 123.748C1215.38 125.446 1213.98 128.542 1213.38 131.938C1212.68 135.833 1211.67 137.431 1210.07 175.885C1210.07 175.885 1209.57 206.048 1209.97 214.638C1210.37 223.227 1210.87 232.216 1211.37 235.312C1211.87 238.509 1212.98 244.302 1212.98 244.302L1215.48 251.892C1215.68 252.591 1216.38 253.091 1217.08 253.091H1223.59C1224.89 253.091 1226.2 252.791 1227.3 252.292L1228.5 251.792C1228.9 251.593 1229.3 251.593 1229.7 251.792L1230.9 252.492C1231.4 252.791 1231.91 252.891 1232.51 252.891H1247.03C1247.53 252.891 1248.13 252.791 1248.63 252.492L1249.83 251.792C1250.23 251.593 1250.73 251.593 1251.04 251.792L1252.24 252.292C1253.44 252.791 1254.64 253.091 1255.94 253.091H1262.45C1263.25 253.091 1263.86 252.591 1264.06 251.892L1266.56 244.302C1266.56 244.302 1267.66 238.409 1268.16 235.312C1268.66 232.116 1269.16 223.227 1269.56 214.638C1270.26 206.048 1269.76 175.885 1269.76 175.885Z" fill="#404041" stroke="#231F20" stroke-miterlimit="10"/>
<path d="M1262.35 127.843C1262.25 127.543 1262.05 127.244 1261.65 127.144C1260.65 126.844 1258.55 126.145 1257.24 126.045C1256.94 126.045 1255.84 125.745 1253.64 127.244C1251.24 128.941 1247.33 128.842 1244.63 128.642C1241.42 128.342 1238.82 128.342 1235.61 128.642C1232.91 128.842 1229 128.941 1226.6 127.244C1226.5 127.244 1226.5 127.144 1226.4 127.144C1224.29 125.745 1223.09 125.945 1222.89 126.045C1221.79 126.145 1219.99 126.644 1219.09 126.944C1218.78 127.044 1218.48 127.343 1218.38 127.643C1216.58 134.734 1216.08 153.212 1216.08 153.212L1216.38 175.585L1216.58 204.25C1216.58 204.25 1216.98 222.328 1218.28 231.217C1218.78 234.813 1219.99 237.11 1221.29 238.608C1222.69 240.306 1224.89 241.305 1227.2 241.305H1253.64C1256.04 241.305 1258.25 240.206 1259.75 238.409C1260.95 236.91 1262.05 234.613 1262.55 231.217C1263.86 222.328 1264.26 204.25 1264.26 204.25L1264.46 175.585L1264.76 153.212C1264.66 153.312 1264.16 134.934 1262.35 127.843Z" fill="url(#paint0_linear)" stroke="#231F20" stroke-miterlimit="10"/>
<path d="M1248.33 222.728H1234.21V234.413H1248.33V222.728Z" fill="white" stroke="black" stroke-miterlimit="10"/>
<path d="M1245.53 230.818H1243.32V226.323H1244.02V230.119C1244.02 230.318 1244.22 230.518 1244.42 230.518C1244.63 230.518 1244.83 230.318 1244.83 230.119V229.32H1245.53V230.818ZM1242.72 227.821C1242.72 228.021 1242.52 228.421 1242.22 228.421C1242.52 228.421 1242.72 228.72 1242.72 228.82V230.119C1242.72 230.318 1242.52 230.718 1242.02 230.718H1240.52V226.223H1242.02C1242.32 226.223 1242.72 226.423 1242.72 226.923V227.821ZM1239.92 230.019C1239.92 230.418 1239.62 230.918 1238.82 230.918C1238.01 230.918 1237.71 230.418 1237.71 230.019V229.419H1238.42V230.219C1238.42 230.418 1238.62 230.618 1238.82 230.618C1239.02 230.618 1239.22 230.418 1239.22 230.219V226.423H1239.92V230.019ZM1238.11 228.021C1238.32 228.021 1238.52 228.221 1238.52 228.421C1238.52 228.62 1238.32 228.82 1238.11 228.82C1237.91 228.82 1237.71 228.62 1237.71 228.421C1237.61 228.221 1237.81 228.021 1238.11 228.021ZM1238.72 226.323L1238.01 227.921L1237.31 226.323H1238.72ZM1234.71 233.914H1247.83V223.227H1234.71V233.914ZM1241.72 228.62H1241.32V230.418H1241.72C1242.02 230.418 1242.02 230.219 1242.02 229.519C1242.02 228.82 1242.02 228.62 1241.72 228.62ZM1241.62 226.723H1241.22V228.221H1241.62C1241.92 228.221 1241.92 228.221 1241.92 227.422C1242.02 226.823 1241.92 226.723 1241.62 226.723Z" fill="#FF4713"/>
<rect x="325.48" y="275.868" width="3.49439" height="41.6968" transform="rotate(-15 325.48 275.868)" fill="#C4C4C4" stroke="black"/>
<rect x="-0.612372" y="0.353553" width="3.49439" height="41.6968" transform="matrix(-0.965926 -0.258819 -0.258819 0.965926 353.305 275.748)" fill="#4AE6D1" stroke="black"/>
<rect x="-0.513939" y="0.485661" width="3.49439" height="41.6968" transform="matrix(-0.9996 -0.0282772 -0.0282772 0.9996 342.464 277.246)" fill="#FFF480" stroke="black"/>
<rect x="328.313" y="275.109" width="3.49439" height="7.73909" transform="rotate(-15 328.313 275.109)" fill="white" stroke="black"/>
<rect x="-0.612372" y="0.353553" width="3.49439" height="7.73909" transform="matrix(-0.965926 -0.258819 -0.258819 0.965926 350.472 274.989)" fill="white" stroke="black"/>
<rect x="-0.513939" y="0.485661" width="3.49439" height="7.73909" transform="matrix(-0.9996 -0.0282772 -0.0282772 0.9996 339.532 277.163)" fill="white" stroke="black"/>
<rect x="328.757" y="302.41" width="22.1352" height="37.8334" fill="#FF9476" stroke="black"/>
<mask id="path-231-inside-7" fill="white">
<path fill-rule="evenodd" clip-rule="evenodd" d="M1230.79 318.871C1231.48 317.519 1231.87 315.988 1231.87 314.366C1231.87 308.881 1227.43 304.434 1221.94 304.434C1216.46 304.434 1212.01 308.881 1212.01 314.366C1212.01 317.025 1213.05 319.44 1214.76 321.222C1212.27 326.971 1211.83 334.402 1216.8 336.662C1218.32 337.355 1220.16 337.723 1222.36 337.723C1222.98 337.723 1223.65 337.73 1224.36 337.738C1234.49 337.843 1253.04 338.036 1246.45 319.559C1243.27 310.667 1240.24 312.821 1236.15 315.73C1234.55 316.866 1232.79 318.118 1230.79 318.871Z"/>
</mask>
<path fill-rule="evenodd" clip-rule="evenodd" d="M1230.79 318.871C1231.48 317.519 1231.87 315.988 1231.87 314.366C1231.87 308.881 1227.43 304.434 1221.94 304.434C1216.46 304.434 1212.01 308.881 1212.01 314.366C1212.01 317.025 1213.05 319.44 1214.76 321.222C1212.27 326.971 1211.83 334.402 1216.8 336.662C1218.32 337.355 1220.16 337.723 1222.36 337.723C1222.98 337.723 1223.65 337.73 1224.36 337.738C1234.49 337.843 1253.04 338.036 1246.45 319.559C1243.27 310.667 1240.24 312.821 1236.15 315.73C1234.55 316.866 1232.79 318.118 1230.79 318.871Z" fill="#FFF480"/>
<path d="M1230.79 318.871L1229.9 318.417L1228.73 320.719L1231.15 319.807L1230.79 318.871ZM1214.76 321.222L1215.67 321.619L1215.94 321.011L1215.48 320.532L1214.76 321.222ZM1216.8 336.662L1217.21 335.752L1216.8 336.662ZM1224.36 337.738L1224.37 336.738H1224.37L1224.36 337.738ZM1246.45 319.559L1245.5 319.895V319.895L1246.45 319.559ZM1236.15 315.73L1236.73 316.545L1236.15 315.73ZM1230.87 314.366C1230.87 315.826 1230.52 317.202 1229.9 318.417L1231.68 319.326C1232.44 317.836 1232.87 316.149 1232.87 314.366H1230.87ZM1221.94 305.434C1226.87 305.434 1230.87 309.433 1230.87 314.366H1232.87C1232.87 308.328 1227.98 303.434 1221.94 303.434V305.434ZM1213.01 314.366C1213.01 309.433 1217.01 305.434 1221.94 305.434V303.434C1215.9 303.434 1211.01 308.328 1211.01 314.366H1213.01ZM1215.48 320.532C1213.95 318.928 1213.01 316.757 1213.01 314.366H1211.01C1211.01 317.292 1212.16 319.952 1214.03 321.913L1215.48 320.532ZM1217.21 335.752C1215.19 334.831 1214.16 332.835 1213.98 330.181C1213.79 327.522 1214.48 324.389 1215.67 321.619L1213.84 320.826C1212.55 323.805 1211.77 327.261 1211.98 330.32C1212.2 333.384 1213.44 336.233 1216.38 337.572L1217.21 335.752ZM1222.36 336.723C1220.27 336.723 1218.58 336.374 1217.21 335.752L1216.38 337.572C1218.06 338.337 1220.05 338.723 1222.36 338.723V336.723ZM1224.37 336.738C1223.66 336.73 1222.98 336.723 1222.36 336.723V338.723C1222.97 338.723 1223.64 338.73 1224.35 338.738L1224.37 336.738ZM1245.5 319.895C1247.11 324.39 1247.12 327.581 1246.26 329.857C1245.42 332.112 1243.64 333.651 1241.27 334.703C1238.88 335.761 1235.94 336.292 1232.93 336.544C1229.92 336.795 1226.91 336.764 1224.37 336.738L1224.35 338.738C1226.88 338.764 1229.98 338.797 1233.1 338.537C1236.2 338.277 1239.39 337.721 1242.08 336.531C1244.78 335.335 1247.04 333.464 1248.14 330.561C1249.22 327.68 1249.08 323.967 1247.39 319.223L1245.5 319.895ZM1236.73 316.545C1237.77 315.806 1238.67 315.171 1239.5 314.738C1240.34 314.304 1240.98 314.143 1241.52 314.211C1242.02 314.274 1242.61 314.56 1243.29 315.421C1243.99 316.3 1244.73 317.715 1245.5 319.895L1247.39 319.223C1246.58 316.956 1245.75 315.306 1244.86 314.179C1243.95 313.034 1242.93 312.373 1241.77 312.227C1240.64 312.085 1239.56 312.452 1238.58 312.963C1237.6 313.473 1236.58 314.199 1235.57 314.914L1236.73 316.545ZM1231.15 319.807C1233.28 319.001 1235.15 317.669 1236.73 316.545L1235.57 314.914C1233.95 316.063 1232.3 317.236 1230.44 317.936L1231.15 319.807Z" fill="black" mask="url(#path-231-inside-7)"/>
<circle cx="1222.34" cy="312.357" r="1.68733" fill="black"/>
<path d="M1209.09 314.477C1208.75 314.285 1208.75 313.804 1209.09 313.611L1213.1 311.296C1213.43 311.104 1213.85 311.344 1213.85 311.729L1213.85 316.36C1213.85 316.745 1213.43 316.985 1213.1 316.793L1209.09 314.477Z" fill="#FF4713" stroke="black"/>
<mask id="path-235-inside-8" fill="white">
<path fill-rule="evenodd" clip-rule="evenodd" d="M225.935 359.419C224.868 357.325 224.266 354.955 224.266 352.444C224.266 343.952 231.149 337.068 239.641 337.068C248.133 337.068 255.016 343.952 255.016 352.444C255.016 355.965 253.833 359.21 251.842 361.802C255.826 367.586 257.755 374.237 254.578 380.241C251.776 385.537 246.901 388.605 238.995 388.605C238.038 388.605 236.998 388.616 235.893 388.627C220.213 388.791 191.499 389.09 201.702 360.483C206.612 346.717 211.305 350.052 217.642 354.555C220.118 356.315 222.846 358.253 225.935 359.419Z"/>
</mask>
<path fill-rule="evenodd" clip-rule="evenodd" d="M225.935 359.419C224.868 357.325 224.266 354.955 224.266 352.444C224.266 343.952 231.149 337.068 239.641 337.068C248.133 337.068 255.016 343.952 255.016 352.444C255.016 355.965 253.833 359.21 251.842 361.802C255.826 367.586 257.755 374.237 254.578 380.241C251.776 385.537 246.901 388.605 238.995 388.605C238.038 388.605 236.998 388.616 235.893 388.627C220.213 388.791 191.499 389.09 201.702 360.483C206.612 346.717 211.305 350.052 217.642 354.555C220.118 356.315 222.846 358.253 225.935 359.419Z" fill="#FFF480"/>
<path d="M225.935 359.419L226.826 358.964L228 361.266L225.582 360.354L225.935 359.419ZM251.842 361.802L251.018 362.369L250.605 361.77L251.049 361.192L251.842 361.802ZM254.578 380.241L255.462 380.709H255.462L254.578 380.241ZM235.893 388.627L235.904 389.627L235.893 388.627ZM201.702 360.483L200.761 360.147L201.702 360.483ZM217.642 354.555L218.221 353.74L217.642 354.555ZM225.266 352.444C225.266 354.793 225.829 357.008 226.826 358.964L225.044 359.873C223.907 357.642 223.266 355.116 223.266 352.444H225.266ZM239.641 338.068C231.702 338.068 225.266 344.504 225.266 352.444H223.266C223.266 343.4 230.597 336.068 239.641 336.068V338.068ZM254.016 352.444C254.016 344.504 247.58 338.068 239.641 338.068V336.068C248.685 336.068 256.016 343.4 256.016 352.444H254.016ZM251.049 361.192C252.91 358.769 254.016 355.737 254.016 352.444H256.016C256.016 356.193 254.755 359.65 252.635 362.411L251.049 361.192ZM253.694 379.773C256.615 374.253 254.914 368.024 251.018 362.369L252.665 361.234C256.739 367.148 258.895 374.22 255.462 380.709L253.694 379.773ZM238.995 387.605C242.82 387.605 245.837 386.863 248.213 385.536C250.581 384.212 252.372 382.273 253.694 379.773L255.462 380.709C253.982 383.505 251.934 385.747 249.188 387.282C246.449 388.813 243.077 389.605 238.995 389.605V387.605ZM235.883 387.627C236.986 387.616 238.032 387.605 238.995 387.605V389.605C238.044 389.605 237.01 389.616 235.904 389.627L235.883 387.627ZM202.644 360.819C200.138 367.846 200.083 372.93 201.471 376.62C202.852 380.288 205.729 382.762 209.497 384.429C213.28 386.104 217.893 386.933 222.584 387.325C227.268 387.716 231.957 387.668 235.883 387.627L235.904 389.627C231.989 389.668 227.209 389.718 222.418 389.318C217.634 388.918 212.766 388.064 208.687 386.258C204.592 384.445 201.223 381.64 199.599 377.324C197.983 373.029 198.165 367.423 200.761 360.147L202.644 360.819ZM217.062 355.37C215.462 354.233 214.041 353.225 212.708 352.533C211.375 351.841 210.258 351.535 209.262 351.66C208.303 351.781 207.274 352.326 206.157 353.736C205.026 355.165 203.856 357.421 202.644 360.819L200.761 360.147C202.004 356.662 203.262 354.172 204.589 352.495C205.931 350.8 207.393 349.879 209.013 349.676C210.596 349.477 212.147 349.988 213.629 350.758C215.111 351.527 216.653 352.625 218.221 353.74L217.062 355.37ZM225.582 360.354C222.352 359.136 219.522 357.118 217.062 355.37L218.221 353.74C220.714 355.512 223.339 357.371 226.288 358.483L225.582 360.354Z" fill="black" mask="url(#path-235-inside-8)"/>
<circle r="2.61226" transform="matrix(-1 0 0 1 239.027 349.334)" fill="black"/>
<path d="M260.502 352.379C260.835 352.187 260.835 351.706 260.502 351.513L252.649 346.979C252.315 346.787 251.899 347.027 251.899 347.412L251.899 356.48C251.899 356.865 252.315 357.106 252.649 356.913L260.502 352.379Z" fill="#FF4713" stroke="black"/>
<path d="M760.552 458.596H770.659C775.128 451.269 775.128 442.06 770.659 434.733L761.311 435.863L760.552 458.596Z" fill="#404041" stroke="black"/>
<rect x="716.621" y="443.788" width="66.0547" height="6.967" fill="white" stroke="black"/>
<circle cx="713.391" cy="446.709" r="7.48569" fill="white" stroke="black"/>
<circle cx="787.354" cy="446.709" r="7.48569" fill="white" stroke="black"/>
<mask id="path-243-inside-9" fill="white">
<path d="M728.103 443.192C728.103 438.222 732.133 434.192 737.103 434.192H770.523C770.619 434.192 770.665 434.309 770.596 434.375C763.515 441.045 763.515 452.301 770.596 458.971C770.665 459.036 770.619 459.153 770.523 459.153H737.103C732.133 459.153 728.103 455.124 728.103 450.153V443.192Z"/>
</mask>
<path d="M728.103 443.192C728.103 438.222 732.133 434.192 737.103 434.192H770.523C770.619 434.192 770.665 434.309 770.596 434.375C763.515 441.045 763.515 452.301 770.596 458.971C770.665 459.036 770.619 459.153 770.523 459.153H737.103C732.133 459.153 728.103 455.124 728.103 450.153V443.192Z" fill="#C4C4C4"/>
<path d="M737.103 435.192H770.523V433.192H737.103V435.192ZM770.523 458.153H737.103V460.153H770.523V458.153ZM729.103 450.153V443.192H727.103V450.153H729.103ZM769.91 433.647C762.411 440.712 762.411 452.634 769.91 459.699L771.281 458.243C764.62 451.968 764.62 441.378 771.281 435.103L769.91 433.647ZM737.103 458.153C732.685 458.153 729.103 454.572 729.103 450.153H727.103C727.103 455.676 731.58 460.153 737.103 460.153V458.153ZM770.523 460.153C771.524 460.153 772.01 458.929 771.281 458.243L769.91 459.699C769.321 459.143 769.713 458.153 770.523 458.153V460.153ZM770.523 435.192C769.713 435.192 769.321 434.202 769.91 433.647L771.281 435.103C772.01 434.416 771.524 433.192 770.523 433.192V435.192ZM737.103 433.192C731.58 433.192 727.103 437.669 727.103 443.192H729.103C729.103 438.774 732.685 435.192 737.103 435.192V433.192Z" fill="black" mask="url(#path-243-inside-9)"/>
<rect x="1114.06" y="209.573" width="35.9144" height="38.9018" fill="white" stroke="black"/>
<rect x="1149.95" y="209.573" width="35.9144" height="38.9018" fill="white" stroke="black"/>
<path d="M1186.16 210.903C1188.58 217.999 1189.84 223.641 1189.87 229.213C1189.9 235.207 1188.52 241.159 1185.59 248.789L1185.59 248.795L1185.57 248.833L1185.51 248.984C1185.46 249.117 1185.37 249.314 1185.26 249.571C1185.05 250.086 1184.73 250.84 1184.33 251.796C1183.52 253.71 1182.36 256.434 1180.97 259.68C1178.18 266.173 1174.46 274.748 1170.72 283.084C1166.97 291.422 1163.2 299.51 1160.31 305.032C1158.86 307.8 1157.65 309.895 1156.78 311.055C1156.56 311.344 1156.38 311.563 1156.22 311.717C1156.18 311.758 1156.14 311.791 1156.11 311.819C1156.11 311.813 1156.11 311.806 1156.11 311.799C1155.88 309.891 1155.81 308.695 1155.82 307.92C1155.83 307.143 1155.92 306.834 1156 306.669C1156.04 306.583 1156.09 306.519 1156.16 306.417L1156.16 306.416C1156.23 306.315 1156.33 306.182 1156.41 305.999C1156.58 305.631 1156.67 305.13 1156.67 304.257C1156.68 303.72 1156.6 303.306 1156.47 302.961C1156.33 302.616 1156.15 302.368 1155.99 302.165C1155.96 302.128 1155.94 302.093 1155.91 302.06C1155.79 301.904 1155.69 301.786 1155.61 301.636C1155.52 301.469 1155.44 301.255 1155.42 300.927C1155.36 300.236 1155.52 299.773 1155.72 299.195L1155.73 299.164C1155.95 298.557 1156.18 297.855 1156.11 296.804C1156.07 296.219 1155.87 295.792 1155.57 295.464C1155.31 295.172 1154.98 294.978 1154.72 294.825C1154.71 294.817 1154.69 294.809 1154.68 294.801C1154.39 294.631 1154.19 294.501 1154.03 294.321C1153.92 294.183 1153.82 293.995 1153.78 293.689C1154.48 292.646 1154.86 291.869 1155.02 291.258C1155.2 290.585 1155.09 290.085 1154.81 289.682C1154.68 289.5 1154.53 289.356 1154.4 289.241C1154.35 289.2 1154.31 289.164 1154.27 289.131C1154.19 289.06 1154.12 289 1154.05 288.93C1153.88 288.756 1153.77 288.588 1153.76 288.291C1153.76 287.685 1153.84 287.368 1153.94 287.184C1154.03 287.006 1154.14 286.903 1154.34 286.748C1154.35 286.74 1154.36 286.732 1154.37 286.724C1154.56 286.572 1154.82 286.366 1155.03 286.016C1155.25 285.648 1155.38 285.164 1155.42 284.475C1155.44 283.996 1155.42 283.611 1155.36 283.304C1155.3 282.998 1155.19 282.731 1155 282.535C1154.58 282.11 1154.03 282.239 1153.79 282.294C1153.73 282.307 1153.69 282.318 1153.65 282.327C1153.65 282.327 1153.65 282.328 1153.65 282.328C1153.66 282.197 1153.69 282.01 1153.75 281.747C1154.05 280.448 1154.94 278.854 1156.25 276.938C1157.34 275.346 1158.7 273.575 1160.21 271.612C1160.5 271.225 1160.81 270.83 1161.11 270.428C1164.83 265.56 1169.22 259.639 1172.43 252.718C1176.98 242.911 1180.51 232.024 1182.9 223.597C1184.1 219.382 1185.01 215.778 1185.62 213.228C1185.84 212.309 1186.02 211.527 1186.16 210.903ZM1153.44 282.367C1153.44 282.367 1153.45 282.367 1153.45 282.367C1153.45 282.368 1153.44 282.367 1153.44 282.367ZM1153.65 282.52C1153.65 282.523 1153.65 282.524 1153.65 282.524C1153.65 282.524 1153.65 282.523 1153.65 282.52Z" fill="white" stroke="black"/>
<line x1="166.744" y1="500.464" x2="56.7063" y2="600.346" stroke="black" stroke-linecap="round"/>
<line x1="154.058" y1="529.718" x2="44.0201" y2="629.6" stroke="black" stroke-linecap="round"/>
<line x1="278.605" y1="520.053" x2="229.636" y2="569.021" stroke="black" stroke-linecap="round"/>
<line x1="899.519" y1="424.69" x2="850.55" y2="473.658" stroke="black" stroke-linecap="round"/>
<line x1="895.618" y1="447.368" x2="846.649" y2="496.337" stroke="black" stroke-linecap="round"/>
<line x1="951.611" y1="443.167" x2="924.751" y2="470.027" stroke="black" stroke-linecap="round"/>
<line x1="124.016" y1="163.852" x2="84.9718" y2="202.897" stroke="black" stroke-linecap="round"/>
<line x1="882.46" y1="15.863" x2="843.416" y2="54.9071" stroke="black" stroke-linecap="round"/>
<line x1="951.611" y1="244.532" x2="912.567" y2="283.576" stroke="black" stroke-linecap="round"/>
<line x1="951.611" y1="234.928" x2="912.567" y2="273.972" stroke="black" stroke-linecap="round"/>
<line x1="118.579" y1="179.737" x2="79.5345" y2="218.781" stroke="black" stroke-linecap="round"/>
<line x1="657.029" y1="81.7019" x2="617.985" y2="120.746" stroke="black" stroke-linecap="round"/>
<line x1="637.154" y1="113.784" x2="617.985" y2="132.953" stroke="black" stroke-linecap="round"/>
<line x1="407.115" y1="163.852" x2="387.946" y2="183.021" stroke="black" stroke-linecap="round"/>
<line x1="424.424" y1="174.313" x2="389.342" y2="209.395" stroke="black" stroke-linecap="round"/>
<line x1="259.1" y1="265.545" x2="239.931" y2="284.714" stroke="black" stroke-linecap="round"/>
<line x1="38.0182" y1="330.847" x2="18.8492" y2="350.016" stroke="black" stroke-linecap="round"/>
<line x1="63.19" y1="315.545" x2="30.5708" y2="348.164" stroke="black" stroke-linecap="round"/>
<rect x="415.865" y="543.877" width="84.6779" height="6.97435" rx="3.48717" transform="rotate(90.3249 415.865 543.877)" fill="#C49A56" stroke="black"/>
<path d="M433.532 641.801C434.231 643.69 433.78 645.443 432.649 646.738C431.509 648.043 429.665 648.891 427.59 648.879L427.566 648.879L427.542 648.879L427.518 648.879L427.493 648.879L427.469 648.879L427.445 648.878L427.421 648.878L427.396 648.878L427.372 648.878L427.348 648.878L427.323 648.878L427.299 648.878L427.274 648.877L427.25 648.877L427.225 648.877L427.201 648.877L427.176 648.877L427.152 648.877L427.127 648.877L427.102 648.876L427.078 648.876L427.053 648.876L427.028 648.876L427.003 648.876L426.979 648.876L426.954 648.876L426.929 648.876L426.904 648.875L426.879 648.875L426.854 648.875L426.829 648.875L426.804 648.875L426.779 648.875L426.754 648.875L426.729 648.874L426.704 648.874L426.679 648.874L426.653 648.874L426.628 648.874L426.603 648.874L426.578 648.874L426.553 648.873L426.527 648.873L426.502 648.873L426.477 648.873L426.451 648.873L426.426 648.873L426.4 648.873L426.375 648.872L426.349 648.872L426.324 648.872L426.298 648.872L426.273 648.872L426.247 648.872L426.221 648.871L426.196 648.871L426.17 648.871L426.144 648.871L426.119 648.871L426.093 648.871L426.067 648.871L426.041 648.87L426.015 648.87L425.989 648.87L425.963 648.87L425.938 648.87L425.912 648.87L425.886 648.87L425.86 648.869L425.834 648.869L425.807 648.869L425.781 648.869L425.755 648.869L425.729 648.869L425.703 648.869L425.677 648.868L425.65 648.868L425.624 648.868L425.598 648.868L425.572 648.868L425.545 648.868L425.519 648.868L425.493 648.867L425.466 648.867L425.44 648.867L425.413 648.867L425.387 648.867L425.36 648.867L425.334 648.866L425.307 648.866L425.28 648.866L425.254 648.866L425.227 648.866L425.201 648.866L425.174 648.866L425.147 648.865L425.12 648.865L425.094 648.865L425.067 648.865L425.04 648.865L425.013 648.865L424.986 648.864L424.959 648.864L424.932 648.864L424.905 648.864L424.878 648.864L424.851 648.864L424.824 648.864L424.797 648.863L424.77 648.863L424.743 648.863L424.716 648.863L424.689 648.863L424.662 648.863L424.634 648.862L424.607 648.862L424.58 648.862L424.553 648.862L424.525 648.862L424.498 648.862L424.471 648.862L424.443 648.861L424.416 648.861L424.388 648.861L424.361 648.861L424.333 648.861L424.306 648.861L424.278 648.86L424.251 648.86L424.223 648.86L424.196 648.86L424.168 648.86L424.14 648.86L424.113 648.86L424.085 648.859L424.057 648.859L424.029 648.859L424.002 648.859L423.974 648.859L423.946 648.859L423.918 648.858L423.89 648.858L423.862 648.858L423.834 648.858L423.806 648.858L423.778 648.858L423.75 648.857L423.722 648.857L423.694 648.857L423.666 648.857L423.638 648.857L423.61 648.857L423.582 648.857L423.554 648.856L423.526 648.856L423.497 648.856L423.469 648.856L423.441 648.856L423.413 648.856L423.384 648.855L423.356 648.855L423.328 648.855L423.299 648.855L423.271 648.855L423.242 648.855L423.214 648.854L423.185 648.854L423.157 648.854L423.128 648.854L423.1 648.854L423.071 648.854L423.043 648.853L423.014 648.853L422.985 648.853L422.957 648.853L422.928 648.853L422.899 648.853L422.871 648.852L422.842 648.852L422.813 648.852L422.784 648.852L422.755 648.852L422.727 648.852L422.698 648.852L422.669 648.851L422.64 648.851L422.611 648.851L422.582 648.851L422.553 648.851L422.524 648.851L422.495 648.85L422.466 648.85L422.437 648.85L422.408 648.85L422.379 648.85L422.35 648.85L422.32 648.849L422.291 648.849L422.262 648.849L422.233 648.849L422.203 648.849L422.174 648.849L422.145 648.848L422.116 648.848L422.086 648.848L422.057 648.848L422.027 648.848L421.998 648.848L421.969 648.847L421.939 648.847L421.91 648.847L421.88 648.847L421.851 648.847L421.821 648.847L421.792 648.846L421.762 648.846L421.732 648.846L421.703 648.846L421.673 648.846L421.643 648.846L421.614 648.845L421.584 648.845L421.554 648.845L421.525 648.845L421.495 648.845L421.465 648.845L421.435 648.844L421.405 648.844L421.375 648.844L421.346 648.844L421.316 648.844L421.286 648.844L421.256 648.843L421.226 648.843L421.196 648.843L421.166 648.843L421.136 648.843L421.106 648.842L421.076 648.842L421.046 648.842L421.015 648.842L420.985 648.842L420.955 648.842L420.925 648.841L420.895 648.841L420.865 648.841L420.834 648.841L420.804 648.841L420.774 648.841L420.743 648.84L420.713 648.84L420.683 648.84L420.652 648.84L420.622 648.84L420.592 648.84L420.561 648.839L420.531 648.839L420.5 648.839L420.47 648.839L420.439 648.839L420.409 648.839L420.378 648.838L420.348 648.838L420.317 648.838L420.286 648.838L420.256 648.838L420.225 648.837L420.194 648.837L420.164 648.837L420.133 648.837L420.102 648.837L420.072 648.837L420.041 648.836L420.01 648.836L419.979 648.836L419.948 648.836L419.917 648.836L419.887 648.836L419.856 648.835L419.825 648.835L419.794 648.835L419.763 648.835L419.732 648.835L419.701 648.835L419.67 648.834L419.639 648.834L419.608 648.834L419.577 648.834L419.546 648.834L419.515 648.833L419.484 648.833L419.452 648.833L419.421 648.833L419.39 648.833L419.359 648.833L419.328 648.832L419.296 648.832L419.265 648.832L419.234 648.832L419.203 648.832L419.171 648.832L419.14 648.831L419.109 648.831L419.077 648.831L419.046 648.831L419.014 648.831L418.983 648.83L418.952 648.83L418.92 648.83L418.889 648.83L418.857 648.83L418.826 648.83L418.794 648.829L418.763 648.829L418.731 648.829L418.699 648.829L418.668 648.829L418.636 648.828L418.604 648.828L418.573 648.828L418.541 648.828L418.509 648.828L418.478 648.828L418.446 648.827L418.414 648.827L418.382 648.827L418.351 648.827L418.319 648.827L418.287 648.826L418.255 648.826L418.223 648.826L418.191 648.826L418.16 648.826L418.128 648.826L418.096 648.825L418.064 648.825L418.032 648.825L418 648.825L417.968 648.825L417.936 648.825L417.904 648.824L417.872 648.824L417.84 648.824L417.807 648.824L417.775 648.824L417.743 648.823L417.711 648.823L417.679 648.823L417.647 648.823L417.615 648.823L417.582 648.823L417.55 648.822L417.518 648.822L417.486 648.822L417.453 648.822L417.421 648.822L417.389 648.821L417.356 648.821L417.324 648.821L417.292 648.821L417.259 648.821L417.227 648.82L417.194 648.82L417.162 648.82L417.13 648.82L417.097 648.82L417.065 648.82L417.032 648.819L417 648.819L416.967 648.819L416.935 648.819L416.902 648.819L416.869 648.818L416.837 648.818L416.804 648.818L416.772 648.818L416.739 648.818L416.706 648.818L416.674 648.817L416.641 648.817L416.608 648.817L416.575 648.817L416.543 648.817L416.51 648.816L416.477 648.816L416.444 648.816L416.412 648.816L416.379 648.816L416.346 648.815L416.313 648.815L416.28 648.815L416.247 648.815L416.214 648.815L416.181 648.815L416.148 648.814L416.116 648.814L416.083 648.814L416.05 648.814L416.017 648.814L415.984 648.813L415.951 648.813L415.917 648.813L415.884 648.813L415.851 648.813L415.818 648.812L415.785 648.812L415.752 648.812L415.719 648.812L415.686 648.812L415.653 648.812L415.619 648.811L415.586 648.811L415.553 648.811L415.52 648.811L415.487 648.811L415.453 648.81L415.42 648.81L415.387 648.81L415.353 648.81L415.32 648.81L415.287 648.809L415.253 648.809L415.22 648.809L415.187 648.809L415.153 648.809L415.12 648.809L415.086 648.808L415.053 648.808L415.02 648.808L414.986 648.808L414.953 648.808L414.919 648.807L414.886 648.807L414.852 648.807L414.819 648.807L414.785 648.807L414.751 648.806L414.718 648.806L414.684 648.806L414.651 648.806L414.617 648.806L414.583 648.805L414.55 648.805L414.516 648.805L414.482 648.805L414.449 648.805L414.415 648.805L414.381 648.804L414.348 648.804L414.314 648.804L414.28 648.804L414.246 648.804L414.213 648.803L414.179 648.803L414.145 648.803L414.111 648.803L414.077 648.803L414.043 648.802L414.01 648.802L413.976 648.802L413.942 648.802L413.908 648.802L413.874 648.801L413.84 648.801L413.806 648.801L413.772 648.801L413.738 648.801L413.704 648.801L413.67 648.8L413.636 648.8L413.602 648.8L413.568 648.8L413.534 648.8L413.5 648.799L413.466 648.799L413.432 648.799L413.398 648.799L413.364 648.799L413.329 648.798L413.295 648.798L413.261 648.798L413.227 648.798L413.193 648.798L413.159 648.797L413.124 648.797L413.09 648.797L413.056 648.797L413.022 648.797L412.987 648.796L412.953 648.796L412.919 648.796L412.885 648.796L412.85 648.796L412.816 648.795L412.782 648.795L412.747 648.795L412.713 648.795L412.679 648.795L412.644 648.794L412.61 648.794L412.575 648.794L412.541 648.794L412.507 648.794L412.472 648.794L412.438 648.793L412.403 648.793L412.369 648.793L412.334 648.793L412.3 648.793L412.265 648.792L412.231 648.792L412.196 648.792L412.162 648.792L412.128 648.792L412.095 648.791L412.061 648.791L412.027 648.791L411.993 648.791L411.959 648.791L411.925 648.79L411.892 648.79L411.858 648.79L411.824 648.79L411.79 648.79L411.756 648.789L411.722 648.789L411.689 648.789L411.655 648.789L411.621 648.789L411.587 648.789L411.553 648.788L411.52 648.788L411.486 648.788L411.452 648.788L411.418 648.788L411.385 648.787L411.351 648.787L411.317 648.787L411.283 648.787L411.25 648.787L411.216 648.786L411.182 648.786L411.148 648.786L411.115 648.786L411.081 648.786L411.047 648.785L411.013 648.785L410.98 648.785L410.946 648.785L410.912 648.785L410.879 648.784L410.845 648.784L410.811 648.784L410.778 648.784L410.744 648.784L410.71 648.784L410.677 648.783L410.643 648.783L410.609 648.783L410.576 648.783L410.542 648.783L410.508 648.782L410.475 648.782L410.441 648.782L410.407 648.782L410.374 648.782L410.34 648.781L410.307 648.781L410.273 648.781L410.239 648.781L410.206 648.781L410.172 648.78L410.139 648.78L410.105 648.78L410.072 648.78L410.038 648.78L410.004 648.78L409.971 648.779L409.937 648.779L409.904 648.779L409.87 648.779L409.837 648.779L409.803 648.778L409.77 648.778L409.736 648.778L409.703 648.778L409.669 648.778L409.636 648.777L409.603 648.777L409.569 648.777L409.536 648.777L409.502 648.777L409.469 648.776L409.435 648.776L409.402 648.776L409.368 648.776L409.335 648.776L409.302 648.776L409.268 648.775L409.235 648.775L409.202 648.775L409.168 648.775L409.135 648.775L409.101 648.774L409.068 648.774L409.035 648.774L409.002 648.774L408.968 648.774L408.935 648.773L408.902 648.773L408.868 648.773L408.835 648.773L408.802 648.773L408.768 648.773L408.735 648.772L408.702 648.772L408.669 648.772L408.636 648.772L408.602 648.772L408.569 648.771L408.536 648.771L408.503 648.771L408.47 648.771L408.436 648.771L408.403 648.77L408.37 648.77L408.337 648.77L408.304 648.77L408.271 648.77L408.237 648.77L408.204 648.769L408.171 648.769L408.138 648.769L408.105 648.769L408.072 648.769L408.039 648.768L408.006 648.768L407.973 648.768L407.94 648.768L407.907 648.768L407.874 648.767L407.841 648.767L407.808 648.767L407.775 648.767L407.742 648.767L407.709 648.767L407.676 648.766L407.643 648.766L407.61 648.766L407.577 648.766L407.544 648.766L407.511 648.765L407.478 648.765L407.446 648.765L407.413 648.765L407.38 648.765L407.347 648.764L407.314 648.764L407.281 648.764L407.249 648.764L407.216 648.764L407.183 648.764L407.15 648.763L407.117 648.763L407.085 648.763L407.052 648.763L407.019 648.763L406.986 648.762L406.954 648.762L406.921 648.762L406.888 648.762L406.856 648.762L406.823 648.761L406.79 648.761L406.758 648.761L406.725 648.761L406.692 648.761L406.66 648.761L406.627 648.76L406.595 648.76L406.562 648.76L406.529 648.76L406.497 648.76L406.464 648.759L406.432 648.759L406.399 648.759L406.367 648.759L406.334 648.759L406.302 648.759L406.269 648.758L406.237 648.758L406.205 648.758L406.172 648.758L406.14 648.758L406.107 648.757L406.075 648.757L406.043 648.757L406.01 648.757L405.978 648.757L405.946 648.757L405.913 648.756L405.881 648.756L405.849 648.756L405.816 648.756L405.784 648.756L405.752 648.755L405.72 648.755L405.687 648.755L405.655 648.755L405.623 648.755L405.591 648.754L405.559 648.754L405.526 648.754L405.494 648.754L405.462 648.754L405.43 648.754L405.398 648.753L405.366 648.753L405.334 648.753L405.302 648.753L405.27 648.753L405.238 648.752L405.206 648.752L405.174 648.752L405.142 648.752L405.11 648.752L405.078 648.752L405.046 648.751L405.014 648.751L404.982 648.751L404.95 648.751L404.918 648.751L404.886 648.751L404.854 648.75L404.823 648.75L404.791 648.75L404.759 648.75L404.727 648.75L404.695 648.749L404.664 648.749L404.632 648.749L404.6 648.749L404.568 648.749L404.537 648.749L404.505 648.748L404.473 648.748L404.442 648.748L404.41 648.748L404.379 648.748L404.347 648.747L404.315 648.747L404.284 648.747L404.252 648.747L404.221 648.747L404.189 648.747L404.158 648.746L404.126 648.746L404.095 648.746L404.063 648.746L404.032 648.746L404 648.745L403.969 648.745L403.937 648.745L403.906 648.745L403.875 648.745L403.843 648.745L403.812 648.744L403.781 648.744L403.749 648.744L403.718 648.744L403.687 648.744L403.656 648.744L403.624 648.743L403.593 648.743L403.562 648.743L403.531 648.743L403.5 648.743L403.468 648.742L403.437 648.742L403.406 648.742L403.375 648.742L403.344 648.742L403.313 648.742L403.282 648.741L403.251 648.741L403.22 648.741L403.189 648.741L403.158 648.741L403.127 648.741L403.096 648.74L403.065 648.74L403.034 648.74L403.003 648.74L402.973 648.74L402.942 648.739L402.911 648.739L402.88 648.739L402.849 648.739L402.819 648.739L402.788 648.739L402.757 648.738L402.726 648.738L402.696 648.738L402.665 648.738L402.634 648.738L402.604 648.738L402.573 648.737L402.542 648.737L402.512 648.737L402.481 648.737L402.451 648.737L402.42 648.737L402.39 648.736L402.359 648.736L402.329 648.736L402.298 648.736L402.268 648.736L402.237 648.735L402.207 648.735L402.177 648.735L402.146 648.735L402.116 648.735L402.086 648.735L402.055 648.734L402.025 648.734L401.995 648.734L401.965 648.734L401.934 648.734L401.904 648.734L401.874 648.733L401.844 648.733L401.814 648.733L401.784 648.733L401.754 648.733L401.723 648.733L401.693 648.732L401.663 648.732L401.633 648.732L401.603 648.732L401.573 648.732L401.543 648.732L401.514 648.731L401.484 648.731L401.454 648.731L401.424 648.731L401.394 648.731L401.364 648.731L401.334 648.73L401.305 648.73L401.275 648.73L401.245 648.73L401.215 648.73L401.186 648.73L401.156 648.729L401.126 648.729L401.097 648.729L401.067 648.729L401.038 648.729L401.008 648.729L400.978 648.728L400.949 648.728L400.919 648.728L400.89 648.728L400.86 648.728L400.831 648.728L400.802 648.727L400.772 648.727L400.743 648.727L400.713 648.727L400.684 648.727L400.655 648.727L400.626 648.726L400.596 648.726L400.567 648.726L400.538 648.726L400.509 648.726L400.479 648.726L400.45 648.725L400.421 648.725L400.392 648.725L400.363 648.725L400.334 648.725L400.305 648.725L400.276 648.724L400.247 648.724L400.218 648.724L400.189 648.724L400.16 648.724L400.131 648.724L400.102 648.723L400.073 648.723L400.045 648.723L400.016 648.723L399.987 648.723L399.958 648.723L399.929 648.722L399.901 648.722L399.872 648.722L399.843 648.722L399.815 648.722L399.786 648.722L399.758 648.721L399.729 648.721L399.7 648.721L399.672 648.721L399.643 648.721L399.615 648.721L399.587 648.72L399.558 648.72L399.53 648.72L399.501 648.72L399.473 648.72L399.445 648.72L399.416 648.719L399.388 648.719L399.36 648.719L399.332 648.719L399.303 648.719L399.275 648.719L399.247 648.719L399.219 648.718L399.191 648.718L399.163 648.718L399.135 648.718L399.107 648.718L399.079 648.718L399.051 648.717L399.023 648.717L398.995 648.717L398.967 648.717L398.939 648.717L398.911 648.717L398.883 648.716L398.856 648.716L398.828 648.716L398.8 648.716L398.772 648.716L398.745 648.716L398.717 648.716L398.689 648.715L398.662 648.715L398.634 648.715L398.606 648.715L398.579 648.715L398.551 648.715L398.524 648.714L398.496 648.714L398.469 648.714L398.442 648.714L398.414 648.714L398.387 648.714L398.36 648.713L398.332 648.713L398.305 648.713L398.278 648.713L398.25 648.713L398.223 648.713L398.196 648.713L398.169 648.712L398.142 648.712L398.115 648.712L398.088 648.712L398.061 648.712L398.034 648.712L398.007 648.711L397.98 648.711L397.953 648.711L397.926 648.711L397.899 648.711L397.872 648.711L397.845 648.711L397.819 648.71L397.792 648.71L397.765 648.71L397.738 648.71L397.712 648.71L397.685 648.71L397.658 648.71L397.632 648.709L397.605 648.709L397.579 648.709L397.552 648.709L397.526 648.709L397.499 648.709L397.473 648.708L397.446 648.708L397.42 648.708L397.394 648.708L397.367 648.708L397.341 648.708L397.315 648.708L397.289 648.707L397.262 648.707L397.236 648.707L397.21 648.707L397.184 648.707L397.158 648.707L397.132 648.707L397.106 648.706L397.08 648.706L397.054 648.706L397.028 648.706L397.002 648.706L396.976 648.706L396.95 648.705L396.924 648.705L396.899 648.705L396.873 648.705L396.847 648.705L396.821 648.705L396.796 648.705L396.77 648.704L396.744 648.704L396.719 648.704L396.693 648.704L396.668 648.704L396.642 648.704L396.617 648.704L396.591 648.703L396.566 648.703L396.541 648.703L396.515 648.703L396.49 648.703L396.465 648.703C394.392 648.691 392.649 647.825 391.61 646.518C390.578 645.22 390.214 643.457 390.941 641.559C392.654 637.088 395.611 632.396 399.35 628.836C403.092 625.274 407.573 622.885 412.343 622.912C417.113 622.939 421.566 625.379 425.267 628.983C428.966 632.585 431.869 637.31 433.532 641.801Z" fill="black" stroke="black"/>
<path d="M617.086 570.918L647.46 599.343H457.855L433.903 571.746C433.622 571.422 433.852 570.918 434.28 570.918H617.086Z" fill="#FF9476" stroke="black"/>
<path d="M432.577 571.38C432.577 570.916 433.154 570.703 433.457 571.054L458.062 599.693L458.062 606.043C458.062 606.507 457.486 606.721 457.183 606.369L433.181 578.433C432.792 577.98 432.577 577.402 432.577 576.804L432.577 571.38Z" fill="#FF9476" stroke="black"/>
<path d="M458.09 599.236H646.11C648.133 599.236 649.774 600.877 649.774 602.9C649.774 604.924 648.133 606.564 646.11 606.564H458.09V599.236Z" fill="#FF9476" stroke="black"/>
<path d="M499.191 521.175C499.191 520.095 498.314 519.218 497.233 519.218C496.152 519.218 495.276 520.095 495.276 521.175V529.924H499.191V521.175Z" fill="#FFDDF0" stroke="black"/>
<path d="M504.7 535.165C504.7 531.041 501.357 527.698 497.233 527.698C493.11 527.698 489.767 531.041 489.767 535.165V579.196C489.767 582.786 492.677 585.696 496.267 585.696H498.2C501.79 585.696 504.7 582.786 504.7 579.196V535.165Z" fill="#FFDDF0" stroke="black"/>
<path d="M504.7 545.273H489.767V556.197H504.7V545.273Z" fill="#FFF480" stroke="black"/>
<path d="M502.811 548.453C502.907 549.434 503.031 550.42 503.077 551.406C503.082 551.511 503.126 551.922 502.896 551.73C502.402 551.318 502.282 550.525 502.188 549.932C502.121 549.504 501.997 549.074 501.949 548.645C501.942 548.584 501.853 549.368 501.853 549.538C501.853 549.777 501.981 551.483 501.651 551.299C501.181 551.038 501.102 550.151 500.991 549.698C500.894 549.3 500.8 548.188 500.8 549.23C500.8 549.903 500.878 550.63 500.789 551.299C500.686 552.075 499.803 550.216 499.757 550.092C499.698 549.934 499.239 548.539 499.193 548.847C499.083 549.579 499.172 550.374 499.172 551.113C499.172 551.522 499.167 550.748 499.161 550.688C499.133 550.387 498.515 548.551 498.177 549.315C497.939 549.853 497.896 551.639 498.065 551.076C498.147 550.803 497.595 549.202 497.422 549.389C497.081 549.756 497.493 550.734 497.31 551.198C497.198 551.481 496.878 550.719 496.874 550.709C496.611 550.102 496.429 549.464 496.193 548.847C495.872 548.011 496.012 549.783 496.012 550.001C496.012 550.202 496.012 550.402 496.012 550.602C496.012 550.656 496.048 550.771 495.996 550.762C495.83 550.734 495.592 550.052 495.544 549.943C495.536 549.926 495.328 549.298 495.246 549.294C495.122 549.288 495.15 550.374 495.15 550.4C495.148 550.67 495.138 554.048 495.629 553.784C496.383 553.378 495.844 551.944 495.512 551.47C495.146 550.948 494.704 550.473 494.315 549.969C494.231 549.862 493.741 549.033 493.777 549.655C493.817 550.347 494.096 552.402 494.096 551.709C494.096 551.221 493.631 550.334 493.277 550.017C492.991 549.762 493.622 551.142 493.24 551.166C492.598 551.208 492.164 550.151 491.564 549.98C491.554 549.977 491.81 549.698 492.011 550.017C492.111 550.176 492.61 551.677 492.117 551.315C491.787 551.073 491.556 550.709 491.341 550.368C491.214 550.169 491.039 549.758 490.936 550.209C490.763 550.973 490.656 551.848 489.787 551.326" stroke="black" stroke-linecap="round" stroke-linejoin="round"/>
<path d="M497.528 376.999L508.098 387.569" stroke="black"/>
<path d="M501.983 367.036L508.417 380.529" stroke="black"/>
<path d="M569.356 356.157L558.369 366.293" stroke="black"/>
<path d="M565.093 344.129L553.274 365.376" stroke="black"/>
<path d="M478.87 380.872L501.683 389.871" stroke="black"/>
<path d="M1004.03 291.112L1008.02 313.799L1016.56 298.402L1020.6 321.942" stroke="black" stroke-linecap="round"/>
<path d="M1098.61 639.91L1085.14 649.772L1094.95 660.866L1080.98 670.93" stroke="black" stroke-linecap="round"/>
<path d="M1033.18 435.83L1042.1 457.071L1047.02 440.165L1056.16 462.229" stroke="black" stroke-linecap="round"/>
<path d="M1246.48 440.104L1229.9 448.393L1238.62 455.117L1223.79 463.225" stroke="black" stroke-linecap="round"/>
<path d="M1317.14 267.1L1302.15 278.003L1311.87 283.2L1298.57 293.638" stroke="black" stroke-linecap="round"/>
<path d="M992.736 332.368L998.215 349.286L1002.13 339.326L1007.74 356.866" stroke="black" stroke-linecap="round"/>
<path d="M1073.02 628.517L1063.13 639.827L1069.38 644.459L1059.12 656.077" stroke="black" stroke-linecap="round"/>
<path d="M1320.22 281.531L1333.3 275.859M1040.58 297.672L1044.23 329.156" stroke="black"/>
<path d="M1001.6 325.777L1012.51 330.14" stroke="black"/>
<path d="M997.978 465.535L1008.88 469.898" stroke="black"/>
<path d="M1218.02 439.513L1218.33 451.255" stroke="black"/>
<path d="M1256.13 465.041L1232.73 470.392" stroke="black"/>
<path d="M1298.57 255.413L1293.11 278.786" stroke="black"/>
<path d="M20.1318 18.4634C20.1318 16.8065 21.475 15.4634 23.1318 15.4634H169.842V96.7634H23.1318C21.475 96.7634 20.1318 95.4202 20.1318 93.7634V18.4634Z" fill="#FFDDF0" stroke="black" stroke-width="2"/>
<path d="M57.6675 31.602H49.5945V52.743H57.9375C62.9865 52.743 65.4435 50.232 65.4435 46.83C65.4435 45.156 64.6335 42.753 61.4205 41.727C63.9315 40.593 64.4715 38.298 64.4715 37.164C64.4715 33.681 61.7175 31.602 57.6675 31.602ZM57.0465 40.539H52.8885V34.599H57.2355C60.0705 34.599 61.1505 35.895 61.1505 37.515C61.1505 39.135 59.9355 40.539 57.0465 40.539ZM57.9915 49.746H52.8885V43.455H57.7755C60.8265 43.455 62.1225 44.832 62.1225 46.56C62.1225 48.396 60.7455 49.746 57.9915 49.746ZM80.2497 52.743V43.563C80.2497 42.591 80.1147 41.754 79.7637 40.971C78.8187 38.892 76.7937 38.028 74.3637 38.028C73.3107 38.028 72.2847 38.217 71.4477 38.595C69.4497 39.459 68.3427 41.295 68.2077 42.51L71.1237 43.158C71.3667 41.781 72.5277 40.782 74.2827 40.782C76.1727 40.782 77.1177 41.835 77.1177 42.969C77.1177 43.671 76.7397 44.184 75.7677 44.184H73.9857C71.4747 44.184 67.9917 45.237 67.9917 48.585V48.747C67.9917 51.231 70.0437 52.986 72.8517 52.986C74.2017 52.986 76.0377 52.527 77.0907 50.772V52.743H80.2497ZM77.0907 46.911C77.0907 49.071 75.6867 50.421 73.4997 50.421C72.1497 50.421 71.2047 49.638 71.2047 48.45C71.2047 47.1 72.7707 46.452 73.9857 46.452H77.0907V46.911ZM87.6259 52.743V46.857H94.1599V52.743H97.3729V38.325H94.1599V44.049H87.6259V38.325H84.4129V52.743H87.6259ZM104.896 52.743V46.857H111.43V52.743H114.643V38.325H111.43V44.049H104.896V38.325H101.683V52.743H104.896ZM130.321 52.743V43.563C130.321 42.591 130.186 41.754 129.835 40.971C128.89 38.892 126.865 38.028 124.435 38.028C123.382 38.028 122.356 38.217 121.519 38.595C119.521 39.459 118.414 41.295 118.279 42.51L121.195 43.158C121.438 41.781 122.599 40.782 124.354 40.782C126.244 40.782 127.189 41.835 127.189 42.969C127.189 43.671 126.811 44.184 125.839 44.184H124.057C121.546 44.184 118.063 45.237 118.063 48.585V48.747C118.063 51.231 120.115 52.986 122.923 52.986C124.273 52.986 126.109 52.527 127.162 50.772V52.743H130.321ZM127.162 46.911C127.162 49.071 125.758 50.421 123.571 50.421C122.221 50.421 121.276 49.638 121.276 48.45C121.276 47.1 122.842 46.452 124.057 46.452H127.162V46.911ZM137.049 52.743L140.559 47.991H143.529V52.743H146.742V38.325H139.506C135.564 38.325 133.809 40.512 133.809 43.023C133.809 44.94 134.754 46.614 137.265 47.424L133.215 52.743H137.049ZM139.857 41.025H143.529V45.426H139.911C137.805 45.426 137.049 44.292 137.049 43.185C137.049 41.403 138.777 41.025 139.857 41.025Z" fill="black"/>
<path d="M1006.03 18.4653C1006.03 16.8085 1007.37 15.4653 1009.03 15.4653H1326.26C1327.92 15.4653 1329.26 16.8085 1329.26 18.4653V93.7633C1329.26 95.4202 1327.92 96.7633 1326.26 96.7633H1009.03C1007.37 96.7633 1006.03 95.4202 1006.03 93.7633V18.4653Z" fill="#EAECFF" stroke="black" stroke-width="2"/>
<defs>
<linearGradient id="paint0_linear" x1="1240.37" y1="231.945" x2="1240.37" y2="146.173" gradientUnits="userSpaceOnUse">
<stop stop-color="#993CFF"/>
<stop offset="0.40625" stop-color="#92EAFF"/>
<stop offset="0.708333" stop-color="#7ADDFF"/>
<stop offset="1" stop-color="#00ADE8"/>
</linearGradient>
</defs>
</svg>
