<svg width="31" height="67" viewBox="0 0 31 67" fill="none" xmlns="http://www.w3.org/2000/svg">
<path d="M29.9335 28.7991C29.1695 10.4153 28.692 9.69902 28.3577 7.78901C28.2145 6.83401 27.355 4.49424 27.0685 3.87349C26.7342 3.06174 26.0657 2.87073 25.2539 2.63198C24.4899 2.39323 22.9142 1.96348 21.3862 1.29498C19.8104 0.674228 19.2374 0.67422 19.2374 0.67422L18.6167 0.626481C16.6589 0.48323 14.7489 0.48323 12.7911 0.626481L12.1704 0.67422C12.1704 0.67422 11.5974 0.674228 10.0216 1.29498C8.44588 1.91573 6.91786 2.39323 6.15386 2.63198C5.38985 2.87073 4.72136 3.10949 4.33935 3.87349C4.0051 4.68524 3.33659 6.16551 3.05009 7.78901C2.71584 9.65127 2.23834 10.4153 1.47434 28.7991C1.47434 28.7991 1.2356 43.2197 1.4266 47.3262C1.6176 51.4327 1.85634 55.7302 2.09509 57.2105C2.33384 58.7385 2.85911 61.508 2.85911 61.508L4.05286 65.137C4.14837 65.4713 4.4826 65.71 4.81686 65.71H7.92062C8.54137 65.71 9.16213 65.5668 9.68738 65.328L10.2604 65.0893C10.4514 64.9938 10.6424 64.9938 10.8334 65.0893L11.4064 65.4235C11.6451 65.5668 11.8839 65.6145 12.1704 65.6145H19.0942C19.3329 65.6145 19.6194 65.5668 19.8582 65.4235L20.4312 65.0893C20.6222 64.9938 20.8609 64.9938 21.0042 65.0893L21.5772 65.328C22.1502 65.5668 22.7232 65.71 23.3439 65.71H26.4477C26.8297 65.71 27.1162 65.4713 27.2117 65.137L28.4055 61.508C28.4055 61.508 28.9307 58.6907 29.1695 57.2105C29.4082 55.6825 29.647 51.4327 29.838 47.3262C30.1722 43.2197 29.9335 28.7991 29.9335 28.7991Z" fill="#404041" stroke="#231F20" stroke-miterlimit="10"/>
<path d="M26.4 5.83125C26.3522 5.688 26.2567 5.54474 26.0657 5.49699C25.5882 5.35374 24.5855 5.01949 23.9647 4.97174C23.8215 4.97174 23.2962 4.82849 22.2457 5.54474C21.0997 6.3565 19.2374 6.30875 17.9482 6.21324C16.4202 6.06999 15.1787 6.06999 13.6506 6.21324C12.3614 6.30875 10.4991 6.3565 9.35313 5.54474C9.30538 5.54474 9.30537 5.49699 9.25762 5.49699C8.25487 4.82849 7.68186 4.92399 7.58636 4.97174C7.06111 5.01949 6.20161 5.25825 5.77186 5.4015C5.62861 5.44925 5.48535 5.59249 5.4376 5.73574C4.5781 9.12601 4.33936 17.9598 4.33936 17.9598L4.4826 28.6558L4.57811 42.3602C4.57811 42.3602 4.76911 51.0029 5.38987 55.2527C5.62862 56.9717 6.20162 58.07 6.82237 58.7862C7.49088 59.598 8.54139 60.0755 9.63965 60.0755H22.2457C23.3917 60.0755 24.4422 59.5502 25.1585 58.6907C25.7315 57.9745 26.2567 56.8762 26.4955 55.2527C27.1162 51.0029 27.3072 42.3602 27.3072 42.3602L27.4027 28.6558L27.546 17.9598C27.4982 18.0076 27.2595 9.22151 26.4 5.83125Z" fill="url(#paint0_linear)" stroke="#231F20" stroke-miterlimit="10"/>
<path d="M19.7149 51.1941H12.9822V56.7809H19.7149V51.1941Z" fill="white" stroke="black" stroke-miterlimit="10"/>
<path d="M18.3782 55.0619H17.3277V52.9131H17.662V54.7276C17.662 54.8231 17.7574 54.9187 17.8529 54.9187C17.9484 54.9187 18.044 54.8231 18.044 54.7276V54.3456H18.3782V55.0619ZM17.0412 53.6294C17.0412 53.7249 16.9457 53.9159 16.8025 53.9159C16.9457 53.9159 17.0412 54.0591 17.0412 54.1069V54.7276C17.0412 54.8231 16.9457 55.0141 16.707 55.0141H15.9907V52.8654H16.707C16.8502 52.8654 17.0412 52.9609 17.0412 53.1996V53.6294ZM15.7042 54.6799C15.7042 54.8709 15.5609 55.1096 15.1789 55.1096C14.7969 55.1096 14.6537 54.8709 14.6537 54.6799V54.3934H14.9879V54.7754C14.9879 54.8709 15.0834 54.9664 15.1789 54.9664C15.2744 54.9664 15.37 54.8709 15.37 54.7754V52.9609H15.7042V54.6799ZM14.8447 53.7249C14.9402 53.7249 15.0357 53.8204 15.0357 53.9159C15.0357 54.0114 14.9402 54.1069 14.8447 54.1069C14.7492 54.1069 14.6537 54.0114 14.6537 53.9159C14.6059 53.8204 14.7014 53.7249 14.8447 53.7249ZM15.1312 52.9131L14.7969 53.6771L14.4627 52.9131H15.1312ZM13.2212 56.5421H19.4765V51.4329H13.2212V56.5421ZM16.5637 54.0114H16.3727V54.8709H16.5637C16.707 54.8709 16.707 54.7754 16.707 54.4411C16.707 54.1069 16.707 54.0114 16.5637 54.0114ZM16.5159 53.1041H16.325V53.8204H16.5159C16.6592 53.8204 16.6592 53.8204 16.6592 53.4384C16.7069 53.1519 16.6592 53.1041 16.5159 53.1041Z" fill="#FF4713"/>
<defs>
<linearGradient id="paint0_linear" x1="15.9203" y1="55.6005" x2="15.9203" y2="14.5948" gradientUnits="userSpaceOnUse">
<stop stop-color="#993CFF"/>
<stop offset="0.40625" stop-color="#92EAFF"/>
<stop offset="0.708333" stop-color="#7ADDFF"/>
<stop offset="1" stop-color="#00ADE8"/>
</linearGradient>
</defs>
</svg>
