<svg width="310" height="74" viewBox="0 0 310 74" fill="none" xmlns="http://www.w3.org/2000/svg">
<path d="M289.635 27.7462L291.044 20.4902L292.454 27.7462C293.115 31.1485 295.775 33.8088 299.177 34.4696L306.433 35.8789L299.177 37.2882C295.775 37.949 293.115 40.6094 292.454 44.0117L291.044 51.2677L289.635 44.0117C288.974 40.6094 286.314 37.949 282.912 37.2882L275.656 35.8789L282.912 34.4696C286.314 33.8088 288.974 31.1485 289.635 27.7462Z" fill="#FFF480" stroke="black"/>
<path d="M16.6127 27.7462L18.022 20.4902L19.4313 27.7462C20.0921 31.1485 22.7524 33.8088 26.1547 34.4696L33.4108 35.8789L26.1547 37.2882C22.7524 37.949 20.0921 40.6094 19.4313 44.0117L18.022 51.2677L16.6127 44.0117C15.9519 40.6094 13.2916 37.949 9.88924 37.2882L2.63322 35.8789L9.88924 34.4696C13.2916 33.8088 15.9519 31.1485 16.6127 27.7462Z" fill="#FFF480" stroke="black"/>
<rect x="57.2571" y="1.94653" width="193.419" height="70.3589" rx="3" fill="#FF4713" stroke="black" stroke-width="2"/>
<path d="M98.6663 47.8678H102.602V36.0278L113.13 47.8678H118.442L106.602 34.7798L117.802 22.8118H112.586L102.602 33.6278V22.8118H98.6663V47.8678ZM116.416 30.7798L124.032 45.9478L119.328 56.2838H123.392L135.136 30.7798H131.008L126.08 41.9798L120.768 30.7798H116.416ZM141.866 47.8678V34.2038H149.482V47.8678H153.29V30.7798H138.058V47.8678H141.866ZM162.081 47.8678L170.177 36.4758V47.8678H173.889V30.7798H170.209L162.113 42.2038V30.7798H158.401V47.8678H162.081ZM182.643 34.2038V47.8678H186.483V34.2038H192.051V30.7798H177.107V34.2038H182.643ZM210.54 41.9798C210.54 38.1078 207.5 36.4118 203.564 36.4118H199.084V30.7798H195.276V47.8678H203.852C208.3 47.8678 210.54 45.4038 210.54 41.9798ZM206.7 41.9478C206.7 43.8678 205.324 44.6678 203.34 44.6678H199.084V39.3878H203.276C205.228 39.3878 206.7 40.1878 206.7 41.9478Z" fill="white"/>
</svg>
