<svg width="278" height="73" viewBox="0 0 278 73" fill="none" xmlns="http://www.w3.org/2000/svg">
<rect x="1" y="1.94653" width="276" height="70" rx="3" fill="#FF4713"/>
<path d="M70.232 24.3905H54.2V49.4465H70.36V45.8625H58.136V38.4705H69.144V34.9185H58.136V27.9425H70.232V24.3905ZM78.5868 46.0225V32.3585H74.7788V49.4465H97.9148V54.7265H101.531V46.0225H99.3228V32.3585H95.5148V46.0225H88.9228V32.3585H85.1468V46.0225H78.5868ZM108.963 29.5745C110.275 29.5745 111.363 28.5185 111.363 27.1745C111.363 25.8945 110.307 24.7745 108.963 24.7745C107.587 24.7745 106.562 25.8945 106.562 27.1745C106.562 28.5185 107.651 29.5745 108.963 29.5745ZM116.067 29.5745C117.379 29.5745 118.467 28.5185 118.467 27.1745C118.467 25.8945 117.411 24.7745 116.067 24.7745C114.691 24.7745 113.667 25.8945 113.667 27.1745C113.667 28.5185 114.723 29.5745 116.067 29.5745ZM112.579 35.2705C114.947 35.2705 116.899 36.7105 117.027 39.1425H108.067C108.419 36.8065 110.243 35.2705 112.579 35.2705ZM120.835 42.0225C120.899 41.6065 120.899 41.2225 120.899 40.8385C120.899 35.6865 117.891 32.0065 112.579 32.0065C107.619 32.0065 103.971 36.0385 103.971 40.8705C103.971 45.9585 107.875 49.7665 112.931 49.7665C116.323 49.7665 119.619 47.8785 120.579 44.6785L117.411 43.5905C116.707 45.6705 114.947 46.4705 112.867 46.4705C110.371 46.4705 107.939 44.6465 107.875 42.0225H120.835ZM151.072 40.8385C151.072 36.5505 147.936 32.0385 142.688 32.0385C141.184 32.0385 138.4 32.6785 136.96 35.0145V32.3585H133.248V57.8625H137.056V46.9505C138.4 49.0305 141.28 49.7025 142.592 49.7025C147.648 49.7025 151.072 45.4785 151.072 40.8385ZM136.992 40.8705C136.992 37.9265 139.008 35.4625 142.112 35.4625C145.216 35.4625 147.232 37.9265 147.232 40.8705C147.232 43.8145 145.184 46.2465 142.112 46.2465C139.008 46.2465 136.992 43.8145 136.992 40.8705ZM168.501 49.4465V38.5665C168.501 37.4145 168.341 36.4225 167.925 35.4945C166.805 33.0305 164.405 32.0065 161.525 32.0065C160.277 32.0065 159.061 32.2305 158.069 32.6785C155.701 33.7025 154.389 35.8785 154.229 37.3185L157.685 38.0865C157.973 36.4545 159.349 35.2705 161.429 35.2705C163.669 35.2705 164.789 36.5185 164.789 37.8625C164.789 38.6945 164.341 39.3025 163.189 39.3025H161.077C158.101 39.3025 153.973 40.5505 153.973 44.5185V44.7105C153.973 47.6545 156.405 49.7345 159.733 49.7345C161.333 49.7345 163.509 49.1905 164.757 47.1105V49.4465H168.501ZM164.757 42.5345C164.757 45.0945 163.093 46.6945 160.501 46.6945C158.901 46.6945 157.781 45.7665 157.781 44.3585C157.781 42.7585 159.637 41.9905 161.077 41.9905H164.757V42.5345ZM178.779 49.7345C182.715 49.7345 185.499 47.8465 185.499 44.5825C185.499 42.5985 184.603 41.3505 182.587 40.5505V40.5185C184.251 39.8145 185.179 38.4705 185.179 36.9025C185.179 34.0225 182.747 32.0065 178.683 32.0065C175.771 32.0065 172.731 33.5105 172.027 36.7425L175.291 37.6065C175.771 35.9105 177.115 35.0785 178.619 35.0785C180.539 35.0785 181.307 36.1345 181.307 37.1585C181.307 38.4385 180.379 39.3665 178.619 39.3665H176.315V42.2465H178.715C180.923 42.2465 181.595 43.1105 181.595 44.4225C181.595 45.5745 180.507 46.6305 178.715 46.6305C176.891 46.6305 175.547 45.4145 175.227 43.9425L171.963 44.7745C172.187 46.6945 174.107 49.7345 178.779 49.7345ZM188.407 40.8705C188.407 45.9265 192.503 49.7345 197.431 49.7345C202.455 49.7345 206.423 45.8625 206.423 40.8065C206.423 35.7825 202.359 32.0065 197.463 32.0065C192.503 32.0065 188.407 35.8145 188.407 40.8705ZM192.311 40.8065C192.311 37.8625 194.359 35.4625 197.431 35.4625C200.535 35.4625 202.551 37.9265 202.551 40.8705C202.551 43.8145 200.567 46.2785 197.463 46.2785C194.359 46.2785 192.311 43.7185 192.311 40.8065ZM210.404 49.4465H214.212V41.5425H214.372L221.604 49.4465H226.756L218.404 40.5505L226.212 32.3585H221.156L214.372 39.5585H214.212V32.3585H210.404V49.4465Z" fill="white"/>
<rect x="1" y="1.94653" width="276" height="70" rx="3" stroke="black" stroke-width="2"/>
</svg>
