<svg width="1360" height="1276" viewBox="0 0 1360 1276" fill="none" xmlns="http://www.w3.org/2000/svg">
<circle cx="27.1309" cy="164.308" r="7" fill="white" stroke="black"/>
<circle cx="1224.2" cy="256.304" r="7" fill="#FFA6D7" stroke="black"/>
<circle cx="77.0928" cy="673.66" r="7" fill="#4AE6D1" stroke="black"/>
<circle cx="430.209" cy="10.5876" r="7" fill="#4A4AD1" stroke="black"/>
<path d="M4.10988 9.27784L13.8092 0.922426C16.7933 7.81913 19.6721 12.879 23.4277 17.2311C27.1846 21.5848 31.7984 25.2063 38.2197 29.2531L28.5221 37.6071C21.6901 33.885 16.8894 30.5232 13.1491 26.2492C9.40871 21.9752 6.70084 16.7567 4.10988 9.27784Z" fill="#4AE6D1" stroke="black"/>
<path d="M1275.13 178.982L1268.57 167.991C1275.88 166.236 1281.35 164.27 1286.29 161.318C1291.22 158.365 1295.58 154.443 1300.67 148.813L1307.24 159.802C1302.4 165.892 1298.26 170.044 1293.41 172.994C1288.55 175.944 1282.95 177.715 1275.13 178.982Z" fill="#FFF480" stroke="black"/>
<circle cx="124.379" cy="30.7815" r="7" fill="#FFF480" stroke="black"/>
<circle cx="1351.55" cy="606.421" r="7" fill="#FFF480" stroke="black"/>
<circle cx="1285.36" cy="24.6628" r="7" fill="#FFF480" stroke="black"/>
<circle cx="1324.75" cy="1056.33" r="7" fill="#FFA6D7" stroke="black"/>
<circle cx="145.992" cy="983.578" r="7" fill="#FFA6D7" stroke="black"/>
<path d="M1271.32 661.217L1275.56 658.661L1284.56 667.755L1280.53 670.186C1272.02 675.313 1264.9 682.457 1259.81 690.987L1257.97 694.054L1248.98 684.963L1250.94 681.675C1255.95 673.286 1262.95 666.26 1271.32 661.217Z" fill="#FFF480" stroke="black"/>
<circle cx="1260.29" cy="798.29" r="7" fill="white" stroke="black"/>
<path d="M111.569 786.113L114.117 773.567C120.7 777.19 126.075 779.426 131.71 780.565C137.346 781.705 143.211 781.741 150.766 781.006L148.218 793.55C140.538 794.793 134.684 795.077 129.11 793.99C123.535 792.903 118.198 790.437 111.569 786.113Z" fill="#4AE6D1" stroke="black"/>
<path d="M1260 1185.34L1257.98 1172.7C1265.41 1173.78 1271.23 1173.99 1276.91 1173.07C1282.58 1172.16 1288.09 1170.13 1294.9 1166.79L1296.92 1179.42C1290.17 1183.29 1284.79 1185.61 1279.19 1186.55C1273.59 1187.5 1267.73 1187.06 1260 1185.34Z" fill="#4AE6D1" stroke="black"/>
<path d="M164.979 696.105L154.761 703.818C160.871 708.193 165.208 712.077 168.667 716.668C172.128 721.26 174.692 726.535 177.29 733.667L187.505 725.955C185.312 718.491 183.041 713.088 179.655 708.528C176.268 703.969 171.741 700.219 164.979 696.105Z" fill="#FF4713" stroke="black"/>
<path d="M1221.7 1235.1L1209.72 1239.62C1214.35 1245.54 1217.41 1250.49 1219.43 1255.87C1221.46 1261.25 1222.43 1267.04 1222.9 1274.61L1234.88 1270.1C1234.89 1262.32 1234.23 1256.5 1232.27 1251.17C1230.31 1245.84 1227.03 1240.96 1221.7 1235.1Z" fill="#FF4713" stroke="black"/>
<circle cx="45.2256" cy="798.29" r="7" fill="#FFF480" stroke="black"/>
<circle cx="820.529" cy="1239.39" r="7" fill="#FFF480" stroke="black"/>
<mask id="path-21-inside-1" fill="white">
<path fill-rule="evenodd" clip-rule="evenodd" d="M1290.58 934.918L1289.41 928.228L1260.29 923.269L1261.11 927.962L1261.11 927.963L1267.78 965.984L1267.84 965.973C1269.08 970.059 1273.2 972.671 1277.51 971.915C1282.16 971.099 1285.27 966.667 1284.45 962.016C1283.63 957.365 1279.2 954.255 1274.55 955.071C1273.21 955.307 1271.99 955.845 1270.96 956.604L1268.39 941.933L1287.56 945.199L1292.11 971.144L1292.12 971.17L1292.12 971.195L1292.24 971.871L1292.27 971.866C1293.38 976.127 1297.6 978.889 1302.02 978.114C1306.67 977.298 1309.78 972.866 1308.96 968.215C1308.15 963.563 1303.71 960.454 1299.06 961.27C1297.72 961.506 1296.5 962.044 1295.47 962.803L1290.58 934.918Z"/>
</mask>
<path fill-rule="evenodd" clip-rule="evenodd" d="M1290.58 934.918L1289.41 928.228L1260.29 923.269L1261.11 927.962L1261.11 927.963L1267.78 965.984L1267.84 965.973C1269.08 970.059 1273.2 972.671 1277.51 971.915C1282.16 971.099 1285.27 966.667 1284.45 962.016C1283.63 957.365 1279.2 954.255 1274.55 955.071C1273.21 955.307 1271.99 955.845 1270.96 956.604L1268.39 941.933L1287.56 945.199L1292.11 971.144L1292.12 971.17L1292.12 971.195L1292.24 971.871L1292.27 971.866C1293.38 976.127 1297.6 978.889 1302.02 978.114C1306.67 977.298 1309.78 972.866 1308.96 968.215C1308.15 963.563 1303.71 960.454 1299.06 961.27C1297.72 961.506 1296.5 962.044 1295.47 962.803L1290.58 934.918Z" fill="#FFF480"/>
<path d="M1289.41 928.228L1290.39 928.056L1290.27 927.361L1289.57 927.243L1289.41 928.228ZM1290.58 934.918L1291.56 934.745L1291.56 934.745L1290.58 934.918ZM1260.29 923.269L1260.46 922.283L1259.06 922.045L1259.31 923.442L1260.29 923.269ZM1261.11 927.962L1261.29 928.947L1262.27 928.775L1262.1 927.79L1261.11 927.962ZM1261.11 927.963L1260.94 926.978L1259.96 927.15L1260.13 928.135L1261.11 927.963ZM1267.78 965.984L1266.8 966.157L1266.97 967.142L1267.96 966.969L1267.78 965.984ZM1267.84 965.973L1268.8 965.684L1268.55 964.835L1267.67 964.988L1267.84 965.973ZM1270.96 956.604L1269.98 956.777L1270.25 958.366L1271.55 957.409L1270.96 956.604ZM1268.39 941.933L1268.55 940.947L1267.16 940.709L1267.4 942.106L1268.39 941.933ZM1287.56 945.199L1288.55 945.026L1288.42 944.332L1287.73 944.213L1287.56 945.199ZM1292.11 971.144L1293.1 970.973L1293.1 970.972L1292.11 971.144ZM1292.12 971.17L1291.13 971.341L1291.13 971.344L1292.12 971.17ZM1292.12 971.195L1293.11 971.022L1293.11 971.021L1292.12 971.195ZM1292.24 971.871L1291.25 972.044L1291.43 973.029L1292.41 972.856L1292.24 971.871ZM1292.27 971.866L1293.24 971.613L1293 970.722L1292.1 970.881L1292.27 971.866ZM1295.47 962.803L1294.49 962.975L1294.77 964.565L1296.06 963.608L1295.47 962.803ZM1288.42 928.401L1289.59 935.091L1291.56 934.745L1290.39 928.056L1288.42 928.401ZM1260.12 924.255L1289.24 929.214L1289.57 927.243L1260.46 922.283L1260.12 924.255ZM1262.1 927.79L1261.28 923.096L1259.31 923.442L1260.13 928.135L1262.1 927.79ZM1261.29 928.947L1261.29 928.947L1260.94 926.978L1260.94 926.978L1261.29 928.947ZM1268.77 965.811L1262.1 927.79L1260.13 928.135L1266.8 966.157L1268.77 965.811ZM1267.67 964.988L1267.61 964.999L1267.96 966.969L1268.02 966.958L1267.67 964.988ZM1277.33 970.931C1273.53 971.598 1269.89 969.292 1268.8 965.684L1266.89 966.262C1268.26 970.827 1272.87 973.745 1277.68 972.9L1277.33 970.931ZM1283.47 962.189C1284.19 966.296 1281.44 970.21 1277.33 970.931L1277.68 972.9C1282.87 971.989 1286.35 967.038 1285.44 961.843L1283.47 962.189ZM1274.72 956.056C1278.83 955.336 1282.74 958.081 1283.47 962.189L1285.44 961.843C1284.52 956.648 1279.57 953.175 1274.38 954.086L1274.72 956.056ZM1271.55 957.409C1272.46 956.74 1273.53 956.265 1274.72 956.056L1274.38 954.086C1272.88 954.35 1271.52 954.951 1270.37 955.799L1271.55 957.409ZM1267.4 942.106L1269.98 956.777L1271.95 956.431L1269.37 941.76L1267.4 942.106ZM1287.73 944.213L1268.55 940.947L1268.22 942.919L1287.39 946.185L1287.73 944.213ZM1286.58 945.372L1291.13 971.317L1293.1 970.972L1288.55 945.026L1286.58 945.372ZM1291.13 971.316L1291.13 971.341L1293.1 970.998L1293.1 970.973L1291.13 971.316ZM1291.13 971.344L1291.14 971.369L1293.11 971.021L1293.1 970.996L1291.13 971.344ZM1291.14 971.368L1291.25 972.044L1293.22 971.698L1293.11 971.022L1291.14 971.368ZM1292.41 972.856L1292.44 972.851L1292.1 970.881L1292.07 970.886L1292.41 972.856ZM1291.3 972.119C1292.55 976.879 1297.26 979.965 1302.19 979.099L1301.84 977.129C1297.95 977.813 1294.22 975.374 1293.24 971.613L1291.3 972.119ZM1302.19 979.099C1307.38 978.188 1310.86 973.237 1309.95 968.042L1307.98 968.388C1308.7 972.495 1305.95 976.409 1301.84 977.129L1302.19 979.099ZM1309.95 968.042C1309.03 962.847 1304.08 959.374 1298.89 960.285L1299.23 962.255C1303.34 961.535 1307.26 964.28 1307.98 968.388L1309.95 968.042ZM1298.89 960.285C1297.39 960.548 1296.03 961.15 1294.88 961.997L1296.06 963.608C1296.97 962.939 1298.04 962.464 1299.23 962.255L1298.89 960.285ZM1296.46 962.63L1291.56 934.745L1289.59 935.091L1294.49 962.975L1296.46 962.63Z" fill="black" mask="url(#path-21-inside-1)"/>
<mask id="path-23-inside-2" fill="white">
<path fill-rule="evenodd" clip-rule="evenodd" d="M92.362 1071.54L91.5979 1064.79L118.127 1051.81L118.663 1056.54L118.663 1056.54L123.006 1094.9L122.945 1094.91C122.917 1099.17 119.702 1102.84 115.355 1103.34C110.663 1103.87 106.428 1100.49 105.897 1095.8C105.366 1091.11 108.739 1086.87 113.432 1086.34C114.788 1086.19 116.107 1086.36 117.308 1086.8L115.633 1072L98.1623 1080.55L101.126 1106.72L101.129 1106.75L101.132 1106.77L101.209 1107.46L101.18 1107.46C101.314 1111.86 98.0484 1115.7 93.5942 1116.21C88.9017 1116.74 84.6671 1113.37 84.1358 1108.67C83.6046 1103.98 86.9779 1099.75 91.6703 1099.21C93.0269 1099.06 94.3452 1099.23 95.5469 1099.67L92.362 1071.54Z"/>
</mask>
<path fill-rule="evenodd" clip-rule="evenodd" d="M92.362 1071.54L91.5979 1064.79L118.127 1051.81L118.663 1056.54L118.663 1056.54L123.006 1094.9L122.945 1094.91C122.917 1099.17 119.702 1102.84 115.355 1103.34C110.663 1103.87 106.428 1100.49 105.897 1095.8C105.366 1091.11 108.739 1086.87 113.432 1086.34C114.788 1086.19 116.107 1086.36 117.308 1086.8L115.633 1072L98.1623 1080.55L101.126 1106.72L101.129 1106.75L101.132 1106.77L101.209 1107.46L101.18 1107.46C101.314 1111.86 98.0484 1115.7 93.5942 1116.21C88.9017 1116.74 84.6671 1113.37 84.1358 1108.67C83.6046 1103.98 86.9779 1099.75 91.6703 1099.21C93.0269 1099.06 94.3452 1099.23 95.5469 1099.67L92.362 1071.54Z" fill="#4AE6D1"/>
<path d="M91.5979 1064.79L90.6043 1064.9L90.525 1064.2L91.1584 1063.89L91.5979 1064.79ZM92.362 1071.54L91.3684 1071.65L91.3684 1071.65L92.362 1071.54ZM118.127 1051.81L117.687 1050.91L118.961 1050.29L119.121 1051.7L118.127 1051.81ZM118.663 1056.54L118.775 1057.54L117.782 1057.65L117.669 1056.66L118.663 1056.54ZM118.663 1056.54L118.551 1055.55L119.544 1055.44L119.657 1056.43L118.663 1056.54ZM123.006 1094.9L123.999 1094.79L124.112 1095.78L123.118 1095.89L123.006 1094.9ZM122.945 1094.91L121.945 1094.9L121.951 1094.01L122.832 1093.91L122.945 1094.91ZM117.308 1086.8L118.302 1086.69L118.483 1088.29L116.967 1087.74L117.308 1086.8ZM115.633 1072L115.193 1071.1L116.467 1070.48L116.626 1071.89L115.633 1072ZM98.1623 1080.55L97.1687 1080.66L97.0893 1079.96L97.7228 1079.65L98.1623 1080.55ZM101.126 1106.72L100.132 1106.84L100.132 1106.84L101.126 1106.72ZM101.129 1106.75L102.122 1106.63L102.122 1106.64L101.129 1106.75ZM101.132 1106.77L100.138 1106.89L100.138 1106.89L101.132 1106.77ZM101.209 1107.46L102.202 1107.34L102.315 1108.34L101.321 1108.45L101.209 1107.46ZM101.18 1107.46L100.18 1107.49L100.152 1106.57L101.067 1106.47L101.18 1107.46ZM95.5469 1099.67L96.5405 1099.56L96.7221 1101.16L95.2054 1100.61L95.5469 1099.67ZM92.5916 1064.68L93.3557 1071.43L91.3684 1071.65L90.6043 1064.9L92.5916 1064.68ZM118.566 1052.71L92.0375 1065.69L91.1584 1063.89L117.687 1050.91L118.566 1052.71ZM117.669 1056.66L117.133 1051.92L119.121 1051.7L119.657 1056.43L117.669 1056.66ZM118.776 1057.54L118.775 1057.54L118.55 1055.55L118.551 1055.55L118.776 1057.54ZM122.012 1095.01L117.669 1056.66L119.657 1056.43L123.999 1094.79L122.012 1095.01ZM122.832 1093.91L122.893 1093.91L123.118 1095.89L123.057 1095.9L122.832 1093.91ZM115.243 1102.34C119.08 1101.91 121.92 1098.67 121.945 1094.9L123.945 1094.91C123.913 1099.68 120.324 1103.78 115.468 1104.33L115.243 1102.34ZM106.891 1095.69C107.36 1099.83 111.099 1102.81 115.243 1102.34L115.468 1104.33C110.227 1104.92 105.497 1101.16 104.903 1095.91L106.891 1095.69ZM113.544 1087.34C109.4 1087.81 106.422 1091.55 106.891 1095.69L104.903 1095.91C104.31 1090.67 108.078 1085.94 113.319 1085.35L113.544 1087.34ZM116.967 1087.74C115.907 1087.35 114.744 1087.2 113.544 1087.34L113.319 1085.35C114.833 1085.18 116.306 1085.37 117.65 1085.86L116.967 1087.74ZM116.626 1071.89L118.302 1086.69L116.315 1086.91L114.639 1072.11L116.626 1071.89ZM97.7228 1079.65L115.193 1071.1L116.072 1072.9L98.6019 1081.45L97.7228 1079.65ZM99.156 1080.44L102.119 1106.61L100.132 1106.84L97.1687 1080.66L99.156 1080.44ZM102.119 1106.61L102.122 1106.63L100.135 1106.86L100.132 1106.84L102.119 1106.61ZM102.122 1106.64L102.125 1106.66L100.138 1106.89L100.135 1106.86L102.122 1106.64ZM102.125 1106.66L102.202 1107.34L100.215 1107.57L100.138 1106.89L102.125 1106.66ZM101.321 1108.45L101.292 1108.45L101.067 1106.47L101.096 1106.46L101.321 1108.45ZM102.179 1107.43C102.329 1112.35 98.6823 1116.64 93.7067 1117.2L93.4817 1115.21C97.4145 1114.77 100.299 1111.38 100.18 1107.49L102.179 1107.43ZM93.7067 1117.2C88.4654 1117.79 83.7356 1114.03 83.1422 1108.79L85.1295 1108.56C85.5986 1112.7 89.338 1115.68 93.4817 1115.21L93.7067 1117.2ZM83.1422 1108.79C82.5488 1103.54 86.3166 1098.81 91.5578 1098.22L91.7828 1100.21C87.6391 1100.68 84.6603 1104.42 85.1295 1108.56L83.1422 1108.79ZM91.5578 1098.22C93.0713 1098.05 94.5448 1098.24 95.8884 1098.73L95.2054 1100.61C94.1456 1100.22 92.9825 1100.07 91.7828 1100.21L91.5578 1098.22ZM94.5532 1099.78L91.3684 1071.65L93.3557 1071.43L96.5405 1099.56L94.5532 1099.78Z" fill="black" mask="url(#path-23-inside-2)"/>
<mask id="path-25-inside-3" fill="white">
<path fill-rule="evenodd" clip-rule="evenodd" d="M827.948 1144.26L825.9 1136.44L806.68 1135.36L809.892 1147.64L823.177 1148.38L830.513 1176.42L830.583 1176.4C832.446 1181.13 837.593 1183.83 842.635 1182.51C848.077 1181.09 851.334 1175.52 849.91 1170.08C848.486 1164.64 842.92 1161.38 837.478 1162.8C835.905 1163.21 834.514 1163.97 833.366 1164.97L827.948 1144.26L827.948 1144.26Z"/>
</mask>
<path fill-rule="evenodd" clip-rule="evenodd" d="M827.948 1144.26L825.9 1136.44L806.68 1135.36L809.892 1147.64L823.177 1148.38L830.513 1176.42L830.583 1176.4C832.446 1181.13 837.593 1183.83 842.635 1182.51C848.077 1181.09 851.334 1175.52 849.91 1170.08C848.486 1164.64 842.92 1161.38 837.478 1162.8C835.905 1163.21 834.514 1163.97 833.366 1164.97L827.948 1144.26L827.948 1144.26Z" fill="#FFA6D7"/>
<path d="M825.9 1136.44L826.868 1136.18L826.683 1135.48L825.956 1135.44L825.9 1136.44ZM827.948 1144.26L826.981 1144.52L827.234 1145.49L828.201 1145.23L827.948 1144.26ZM806.68 1135.36L806.736 1134.36L805.365 1134.29L805.713 1135.61L806.68 1135.36ZM809.892 1147.64L808.925 1147.89L809.109 1148.6L809.836 1148.64L809.892 1147.64ZM823.177 1148.38L824.144 1148.13L823.96 1147.42L823.233 1147.38L823.177 1148.38ZM830.513 1176.42L829.545 1176.67L829.798 1177.64L830.766 1177.39L830.513 1176.42ZM830.583 1176.4L831.513 1176.03L831.188 1175.21L830.33 1175.43L830.583 1176.4ZM833.366 1164.97L832.399 1165.23L832.807 1166.79L834.024 1165.73L833.366 1164.97ZM827.948 1144.26L828.916 1144.01L828.662 1143.04L827.695 1143.3L827.948 1144.26ZM824.933 1136.69L826.981 1144.52L828.915 1144.01L826.868 1136.18L824.933 1136.69ZM806.624 1136.36L825.844 1137.44L825.956 1135.44L806.736 1134.36L806.624 1136.36ZM810.86 1147.39L807.648 1135.11L805.713 1135.61L808.925 1147.89L810.86 1147.39ZM823.233 1147.38L809.948 1146.64L809.836 1148.64L823.121 1149.38L823.233 1147.38ZM822.209 1148.64L829.545 1176.67L831.48 1176.17L824.144 1148.13L822.209 1148.64ZM830.766 1177.39L830.836 1177.37L830.33 1175.43L830.259 1175.45L830.766 1177.39ZM829.653 1176.77C831.699 1181.96 837.351 1184.93 842.888 1183.48L842.382 1181.54C837.836 1182.73 833.193 1180.3 831.513 1176.03L829.653 1176.77ZM842.888 1183.48C848.864 1181.91 852.442 1175.8 850.878 1169.83L848.943 1170.33C850.227 1175.24 847.289 1180.26 842.382 1181.54L842.888 1183.48ZM850.878 1169.83C849.314 1163.85 843.202 1160.27 837.225 1161.84L837.731 1163.77C842.639 1162.49 847.659 1165.42 848.943 1170.33L850.878 1169.83ZM837.225 1161.84C835.499 1162.29 833.971 1163.12 832.709 1164.22L834.024 1165.73C835.058 1164.82 836.311 1164.14 837.731 1163.77L837.225 1161.84ZM834.334 1164.72L828.916 1144.01L826.981 1144.52L832.399 1165.23L834.334 1164.72ZM827.695 1143.3L827.695 1143.3L828.201 1145.23L828.201 1145.23L827.695 1143.3Z" fill="black" mask="url(#path-25-inside-3)"/>
<mask id="path-27-inside-4" fill="white">
<path fill-rule="evenodd" clip-rule="evenodd" d="M924.879 1195.62L928.092 1181.57L964.791 1189.96L962.742 1198.92L962.742 1198.92L954.7 1234.09L954.619 1234.07C952.671 1239.5 946.921 1242.75 941.151 1241.43C934.922 1240.01 931.027 1233.8 932.451 1227.57C933.876 1221.34 940.081 1217.45 946.31 1218.87C948.111 1219.28 949.717 1220.09 951.056 1221.19L955.312 1202.58L931.144 1197.05L924.267 1227.13L924.186 1227.11C922.237 1232.54 916.488 1235.79 910.718 1234.47C904.489 1233.05 900.594 1226.84 902.018 1220.61C903.443 1214.38 909.648 1210.49 915.877 1211.91C917.678 1212.32 919.284 1213.13 920.622 1214.23L924.879 1195.62L924.879 1195.62Z"/>
</mask>
<path fill-rule="evenodd" clip-rule="evenodd" d="M924.879 1195.62L928.092 1181.57L964.791 1189.96L962.742 1198.92L962.742 1198.92L954.7 1234.09L954.619 1234.07C952.671 1239.5 946.921 1242.75 941.151 1241.43C934.922 1240.01 931.027 1233.8 932.451 1227.57C933.876 1221.34 940.081 1217.45 946.31 1218.87C948.111 1219.28 949.717 1220.09 951.056 1221.19L955.312 1202.58L931.144 1197.05L924.267 1227.13L924.186 1227.11C922.237 1232.54 916.488 1235.79 910.718 1234.47C904.489 1233.05 900.594 1226.84 902.018 1220.61C903.443 1214.38 909.648 1210.49 915.877 1211.91C917.678 1212.32 919.284 1213.13 920.622 1214.23L924.879 1195.62L924.879 1195.62Z" fill="#4AE6D1"/>
<path d="M928.092 1181.57L927.117 1181.35L927.34 1180.37L928.315 1180.59L928.092 1181.57ZM924.879 1195.62L924.656 1196.6L923.681 1196.37L923.904 1195.4L924.879 1195.62ZM964.791 1189.96L965.014 1188.99L965.989 1189.21L965.766 1190.18L964.791 1189.96ZM962.742 1198.92L962.519 1199.9L961.544 1199.67L961.767 1198.7L962.742 1198.92ZM962.742 1198.92L962.965 1197.95L963.94 1198.17L963.717 1199.14L962.742 1198.92ZM954.7 1234.09L955.675 1234.31L955.452 1235.28L954.477 1235.06L954.7 1234.09ZM954.619 1234.07L953.677 1233.73L953.977 1232.9L954.842 1233.09L954.619 1234.07ZM951.056 1221.19L952.03 1221.41L951.671 1222.99L950.422 1221.96L951.056 1221.19ZM955.312 1202.58L955.535 1201.61L956.509 1201.83L956.287 1202.8L955.312 1202.58ZM931.144 1197.05L930.169 1196.83L930.392 1195.86L931.367 1196.08L931.144 1197.05ZM924.267 1227.13L925.241 1227.35L925.018 1228.32L924.044 1228.1L924.267 1227.13ZM924.186 1227.11L923.244 1226.77L923.544 1225.94L924.409 1226.13L924.186 1227.11ZM920.622 1214.23L921.597 1214.45L921.237 1216.03L919.989 1215L920.622 1214.23ZM924.879 1195.62L925.102 1194.65L926.076 1194.87L925.853 1195.84L924.879 1195.62ZM929.067 1181.79L925.853 1195.84L923.904 1195.4L927.117 1181.35L929.067 1181.79ZM964.568 1190.94L927.869 1182.54L928.315 1180.59L965.014 1188.99L964.568 1190.94ZM961.767 1198.7L963.816 1189.74L965.766 1190.18L963.717 1199.14L961.767 1198.7ZM962.519 1199.9L962.519 1199.9L962.965 1197.95L962.965 1197.95L962.519 1199.9ZM953.725 1233.86L961.767 1198.7L963.717 1199.14L955.675 1234.31L953.725 1233.86ZM954.842 1233.09L954.923 1233.11L954.477 1235.06L954.396 1235.04L954.842 1233.09ZM941.374 1240.46C946.645 1241.66 951.898 1238.7 953.677 1233.73L955.56 1234.41C953.443 1240.31 947.198 1243.84 940.928 1242.4L941.374 1240.46ZM933.426 1227.79C932.125 1233.49 935.683 1239.15 941.374 1240.46L940.928 1242.4C934.16 1240.86 929.929 1234.12 931.477 1227.35L933.426 1227.79ZM946.087 1219.85C940.396 1218.54 934.728 1222.1 933.426 1227.79L931.477 1227.35C933.024 1220.58 939.765 1216.35 946.533 1217.9L946.087 1219.85ZM950.422 1221.96C949.2 1220.96 947.734 1220.22 946.087 1219.85L946.533 1217.9C948.488 1218.34 950.234 1219.23 951.689 1220.42L950.422 1221.96ZM956.287 1202.8L952.03 1221.41L950.081 1220.97L954.337 1202.36L956.287 1202.8ZM931.367 1196.08L955.535 1201.61L955.089 1203.56L930.921 1198.03L931.367 1196.08ZM932.119 1197.28L925.241 1227.35L923.292 1226.9L930.169 1196.83L932.119 1197.28ZM924.044 1228.1L923.963 1228.08L924.409 1226.13L924.49 1226.15L924.044 1228.1ZM925.127 1227.45C923.01 1233.35 916.765 1236.88 910.495 1235.44L910.941 1233.5C916.212 1234.7 921.465 1231.74 923.244 1226.77L925.127 1227.45ZM910.495 1235.44C903.727 1233.9 899.496 1227.16 901.043 1220.39L902.993 1220.83C901.692 1226.53 905.25 1232.19 910.941 1233.5L910.495 1235.44ZM901.043 1220.39C902.591 1213.62 909.332 1209.39 916.1 1210.94L915.654 1212.89C909.963 1211.58 904.295 1215.14 902.993 1220.83L901.043 1220.39ZM916.1 1210.94C918.055 1211.38 919.801 1212.27 921.256 1213.46L919.989 1215C918.767 1214 917.301 1213.26 915.654 1212.89L916.1 1210.94ZM919.648 1214.01L923.904 1195.4L925.853 1195.84L921.597 1214.45L919.648 1214.01ZM925.101 1194.65L925.102 1194.65L924.656 1196.6L924.656 1196.6L925.101 1194.65Z" fill="black" mask="url(#path-27-inside-4)"/>
<path d="M197.187 349.942L200.217 353.86L192.224 363.851L189.343 360.124C183.267 352.263 175.348 346.02 166.286 341.946L163.028 340.482L171.018 330.494L174.511 332.064C183.423 336.071 191.211 342.211 197.187 349.942Z" fill="#FF4713" stroke="black"/>
</svg>
