<svg width="52" height="46" viewBox="0 0 52 46" fill="none" xmlns="http://www.w3.org/2000/svg">
<rect x="0.987793" y="0.00531006" width="50.0231" height="45.6351" rx="5" fill="#00CDFF"/>
<path d="M41.3573 13.4558C40.2277 13.9356 38.9985 14.281 37.7324 14.4154C39.0469 13.6464 40.0313 12.4315 40.5009 10.9985C39.2674 11.7211 37.916 12.2278 36.5068 12.4962C35.9178 11.8761 35.2055 11.3822 34.4142 11.0451C33.6229 10.708 32.7695 10.535 31.9074 10.5369C28.419 10.5369 25.6136 13.3213 25.6136 16.7382C25.6136 17.218 25.6726 17.6979 25.7686 18.1595C20.5453 17.8905 15.8868 15.4333 12.7897 11.671C12.2254 12.6202 11.9297 13.7009 11.9333 14.8008C11.9333 16.9527 13.0444 18.8502 14.7388 19.9661C13.7403 19.9274 12.7652 19.6571 11.8927 19.1773V19.2537C11.8927 22.2671 14.0559 24.7643 16.9388 25.3387C16.3975 25.4771 15.8407 25.548 15.2814 25.5495C14.8717 25.5495 14.4841 25.5095 14.0928 25.455C14.8901 27.9123 17.212 29.6971 19.9768 29.7552C17.8137 31.4237 15.1042 32.4052 12.1622 32.4052C11.6343 32.4052 11.1471 32.387 10.6414 32.3288C13.432 34.0918 16.7432 35.1096 20.3091 35.1096C31.8852 35.1096 38.2196 25.6658 38.2196 17.4689C38.2196 17.1999 38.2196 16.9309 38.2012 16.6619C39.4267 15.7786 40.5009 14.6844 41.3573 13.4558Z" fill="white"/>
</svg>
