<svg width="51" height="46" viewBox="0 0 51 46" fill="none" xmlns="http://www.w3.org/2000/svg">
<rect x="0.486816" y="0.00531006" width="50.0231" height="45.6351" rx="5" fill="#305C99"/>
<path d="M40.9893 14.4767C41.2162 13.7224 40.9893 13.1692 39.9166 13.1692H36.363C35.4588 13.1692 35.0455 13.6477 34.8187 14.1733C34.8187 14.1733 33.0119 18.584 30.4516 21.4439C29.6252 22.2761 29.2476 22.5389 28.7971 22.5389C28.5719 22.5389 28.2445 22.2761 28.2445 21.5218V14.4767C28.2445 13.5715 27.9837 13.1692 27.2302 13.1692H21.6461C21.0822 13.1692 20.7419 13.5877 20.7419 13.9868C20.7419 14.8433 22.0221 15.0412 22.1533 17.455V22.6914C22.1533 23.8383 21.9475 24.0475 21.4938 24.0475C20.2898 24.0475 17.36 19.6206 15.6213 14.5529C15.2826 13.5682 14.9407 13.1708 14.0333 13.1708H10.4813C9.46525 13.1708 9.2627 13.6494 9.2627 14.1749C9.2627 15.119 10.4667 19.7909 14.871 25.9698C17.8073 30.1891 21.941 32.4763 25.7069 32.4763C27.9642 32.4763 28.2429 31.9686 28.2429 31.0926V27.9034C28.2429 26.8879 28.4584 26.6836 29.1731 26.6836C29.6981 26.6836 30.6023 26.9496 32.7105 28.9822C35.1185 31.3927 35.5171 32.4747 36.8702 32.4747H40.4222C41.4366 32.4747 41.9438 31.967 41.6521 30.9645C41.3329 29.9668 40.1823 28.515 38.6559 26.7971C37.8262 25.8173 36.5866 24.7629 36.209 24.2357C35.6824 23.556 35.8347 23.2559 36.209 22.6524C36.2106 22.6541 40.5388 16.5514 40.9893 14.4767Z" fill="white"/>
</svg>
