<svg width="320" height="568" viewBox="0 0 320 568" fill="none" xmlns="http://www.w3.org/2000/svg">
<path d="M155.187 204.711C135.761 207.894 120.939 224.758 120.939 245.084C120.939 267.68 139.257 285.998 161.853 285.998C184.449 285.998 202.767 267.68 202.767 245.084V244.584H202.267H197.297H196.797V245.084C196.797 264.383 181.152 280.027 161.853 280.027C142.554 280.027 126.91 264.383 126.91 245.084C126.91 228.597 138.327 214.776 153.687 211.099L143.927 220.859C142.762 222.025 142.762 223.915 143.927 225.081C145.093 226.247 146.983 226.247 148.149 225.081L163.964 209.266C165.13 208.1 165.13 206.21 163.964 205.044L148.149 189.229C146.983 188.064 145.093 188.064 143.927 189.229C142.762 190.395 142.762 192.285 143.927 193.451L155.187 204.711Z" fill="#4AE6D1" stroke="black"/>
<path d="M151.48 202.1C132.055 205.283 117.233 222.147 117.233 242.473C117.233 265.069 135.551 283.387 158.147 283.387C180.743 283.387 199.06 265.069 199.06 242.473V241.973H198.56H193.59H193.09V242.473C193.09 261.772 177.445 277.417 158.147 277.417C138.848 277.417 123.203 261.772 123.203 242.473C123.203 225.987 134.621 212.166 149.981 208.489L140.221 218.249C139.055 219.414 139.055 221.305 140.221 222.47C141.387 223.636 143.277 223.636 144.442 222.47L160.257 206.655C161.423 205.49 161.423 203.599 160.257 202.434L144.442 186.619C143.277 185.453 141.387 185.453 140.221 186.619C139.055 187.784 139.055 189.674 140.221 190.84L151.48 202.1Z" fill="white" stroke="black"/>
<path d="M88.379 312.646V301.306H94.175V312.646H97.073V298.552H85.463V312.646H88.379ZM99.3454 307.858C99.3454 310.756 101.667 312.862 104.583 312.862C107.481 312.862 109.839 310.702 109.839 307.804C109.839 304.942 107.517 302.818 104.619 302.818C101.703 302.818 99.3454 304.996 99.3454 307.858ZM102.225 307.822C102.225 306.382 103.269 305.374 104.583 305.374C105.897 305.374 106.959 306.382 106.959 307.822C106.959 309.28 105.915 310.288 104.601 310.288C103.287 310.288 102.225 309.28 102.225 307.822ZM117.672 303.034H111.84V312.646H117.618C119.31 312.646 121.182 311.998 121.182 310.018C121.182 308.902 120.678 308.02 119.328 307.624V307.606C120.498 307.102 120.858 306.238 120.858 305.41C120.858 303.592 118.986 303.034 117.672 303.034ZM117.006 306.814H114.594V305.086H117.042C117.78 305.086 118.086 305.482 118.086 305.896C118.086 306.274 117.87 306.814 117.006 306.814ZM117.24 310.45H114.594V308.65H117.168C118.05 308.65 118.392 309.064 118.392 309.532C118.392 309.928 118.176 310.45 117.24 310.45ZM125.516 308.614H132.5C132.536 308.29 132.536 307.948 132.536 307.606C132.536 304.762 130.61 302.8 127.748 302.8C124.976 302.8 122.654 305.05 122.654 307.822C122.654 310.81 125.012 312.862 127.928 312.862C129.818 312.862 131.6 311.872 132.23 310.018L129.926 309.226C129.602 310.018 128.702 310.504 127.892 310.504C126.722 310.504 125.696 309.82 125.516 308.614ZM125.588 306.76C125.696 306.13 126.416 305.086 127.676 305.086C129.08 305.086 129.674 306.058 129.728 306.76H125.588ZM137.359 304.222H137.323V303.034H134.533V317.398H137.341V311.584H137.377C138.277 312.682 139.537 312.826 140.221 312.826C143.011 312.826 144.865 310.324 144.865 307.822C144.865 305.392 143.119 302.854 140.293 302.854C139.627 302.854 138.277 302.98 137.359 304.222ZM137.269 307.822C137.269 306.382 138.331 305.392 139.627 305.392C140.959 305.392 142.021 306.382 142.021 307.822C142.021 309.28 140.959 310.288 139.645 310.288C138.331 310.288 137.269 309.28 137.269 307.822ZM149.681 312.646V308.992H153.065V312.646H155.873V303.034H153.065V306.652H149.681V303.034H146.873V312.646H149.681ZM161.283 312.646L164.793 307.102H164.811V312.646H167.583V303.034H164.775L161.247 308.632H161.229V303.034H158.457V312.646H161.283ZM178.821 302.818C176.769 302.818 174.519 303.898 174.015 306.058L176.481 306.796C176.715 306.058 177.525 305.338 178.803 305.338C179.775 305.338 180.603 305.878 180.927 306.832H177.813V308.758H180.945C180.639 309.694 179.865 310.324 178.785 310.324C177.453 310.324 176.715 309.568 176.427 308.83L173.943 309.586C174.555 311.764 176.553 312.862 178.731 312.862C181.773 312.862 183.915 310.666 183.915 307.804C183.915 304.96 181.773 302.818 178.821 302.818ZM188.722 312.646V308.452H188.776L192.322 312.646H195.904L191.602 307.714L195.724 303.034H192.304L188.758 307.156H188.722V303.034H185.914V312.646H188.722ZM199.955 304.222H199.919V303.034H197.129V317.398H199.937V311.584H199.973C200.873 312.682 202.133 312.826 202.817 312.826C205.607 312.826 207.461 310.324 207.461 307.822C207.461 305.392 205.715 302.854 202.889 302.854C202.223 302.854 200.873 302.98 199.955 304.222ZM199.865 307.822C199.865 306.382 200.927 305.392 202.223 305.392C203.555 305.392 204.617 306.382 204.617 307.822C204.617 309.28 203.555 310.288 202.241 310.288C200.927 310.288 199.865 309.28 199.865 307.822ZM212.115 312.826C213.159 312.826 214.257 312.466 214.977 311.44L215.013 311.458V312.646H217.605V306.688C217.605 304.096 215.859 302.818 213.465 302.818C211.449 302.818 209.469 303.79 209.145 305.842L211.611 306.4C211.827 305.59 212.475 305.086 213.339 305.086C214.347 305.086 214.851 305.662 214.851 306.274C214.851 306.67 214.617 306.94 214.095 306.94H213.159C211.287 306.94 208.929 307.588 208.929 309.892V309.964C208.929 311.746 210.441 312.826 212.115 312.826ZM212.925 310.774C212.331 310.774 211.755 310.486 211.755 309.802C211.755 309.046 212.583 308.704 213.159 308.704H214.833V308.92C214.833 309.892 214.167 310.774 212.925 310.774ZM222.911 312.646V308.992H226.295V312.646H229.103V303.034H226.295V306.652H222.911V303.034H220.103V312.646H222.911ZM235.233 311.35C235.233 309.91 234.351 308.992 233.181 308.992C232.155 308.992 231.309 309.82 231.309 310.864C231.309 311.872 232.011 312.574 232.911 312.574C233.091 312.574 233.343 312.52 233.541 312.448C233.091 313.438 232.497 314.068 231.633 314.644L232.695 315.67C234.207 314.644 235.233 313.078 235.233 311.44V311.35ZM102.496 334.352V337.646H105.304V328.034H102.496V332.102C101.92 332.408 101.308 332.588 100.588 332.588C99.5075 332.588 99.2195 331.76 99.2195 330.986V328.034H96.3935V331.778C96.3935 333.992 97.9955 335 99.8315 335C100.876 335 101.83 334.676 102.496 334.352ZM109.864 330.464V337.646H112.69V330.464H115.606V328.034H106.984V330.464H109.864ZM116.431 332.858C116.431 335.756 118.753 337.862 121.669 337.862C124.567 337.862 126.925 335.702 126.925 332.804C126.925 329.942 124.603 327.818 121.705 327.818C118.789 327.818 116.431 329.996 116.431 332.858ZM119.311 332.822C119.311 331.382 120.355 330.374 121.669 330.374C122.983 330.374 124.045 331.382 124.045 332.822C124.045 334.28 123.001 335.288 121.687 335.288C120.373 335.288 119.311 334.28 119.311 332.822ZM133.876 337.844C136.828 337.844 139.024 335.81 139.024 332.66C139.024 329.834 137.08 327.926 134.668 327.926C134.236 327.926 132.346 327.998 130.996 329.654L130.924 329.636C130.996 328.79 131.842 326.594 135.28 325.928L138.574 325.298L138.088 322.904L135.28 323.408C129.052 324.56 128.602 328.394 128.602 331.85C128.602 335.774 130.834 337.844 133.876 337.844ZM133.858 330.392C134.992 330.392 136.234 331.202 136.234 332.84C136.234 334.388 135.172 335.306 133.876 335.306C132.598 335.306 131.5 334.406 131.5 332.822C131.5 331.256 132.688 330.392 133.858 330.392ZM143.863 328.034H141.055V337.646H146.203C148.615 337.646 150.109 336.386 150.109 334.244C150.109 332.012 148.453 330.914 146.041 330.914H143.863V328.034ZM154.699 328.034H151.891V337.646H154.699V328.034ZM145.789 335.432H143.863V333.02H145.789C146.815 333.02 147.265 333.506 147.265 334.19C147.265 335 146.779 335.432 145.789 335.432ZM164.622 337.646V333.992H168.006V337.646H170.814V328.034H168.006V331.652H164.622V328.034H161.814V337.646H164.622ZM176.044 337.826C177.088 337.826 178.186 337.466 178.906 336.44L178.942 336.458V337.646H181.534V331.688C181.534 329.096 179.788 327.818 177.394 327.818C175.378 327.818 173.398 328.79 173.074 330.842L175.54 331.4C175.756 330.59 176.404 330.086 177.268 330.086C178.276 330.086 178.78 330.662 178.78 331.274C178.78 331.67 178.546 331.94 178.024 331.94H177.088C175.216 331.94 172.858 332.588 172.858 334.892V334.964C172.858 336.746 174.37 337.826 176.044 337.826ZM176.854 335.774C176.26 335.774 175.684 335.486 175.684 334.802C175.684 334.046 176.512 333.704 177.088 333.704H178.762V333.92C178.762 334.892 178.096 335.774 176.854 335.774ZM189.595 334.352V337.646H192.403V328.034H189.595V332.102C189.019 332.408 188.407 332.588 187.687 332.588C186.607 332.588 186.319 331.76 186.319 330.986V328.034H183.493V331.778C183.493 333.992 185.095 335 186.931 335C187.975 335 188.929 334.676 189.595 334.352ZM197.648 337.826C198.692 337.826 199.79 337.466 200.51 336.44L200.546 336.458V337.646H203.138V331.688C203.138 329.096 201.392 327.818 198.998 327.818C196.982 327.818 195.002 328.79 194.678 330.842L197.144 331.4C197.36 330.59 198.008 330.086 198.872 330.086C199.88 330.086 200.384 330.662 200.384 331.274C200.384 331.67 200.15 331.94 199.628 331.94H198.692C196.82 331.94 194.462 332.588 194.462 334.892V334.964C194.462 336.746 195.974 337.826 197.648 337.826ZM198.458 335.774C197.864 335.774 197.288 335.486 197.288 334.802C197.288 334.046 198.116 333.704 198.692 333.704H200.366V333.92C200.366 334.892 199.7 335.774 198.458 335.774ZM207.458 330.464V337.646H210.284V330.464H213.2V328.034H204.578V330.464H207.458ZM217.656 328.034H214.848V337.646H219.996C222.408 337.646 223.902 336.386 223.902 334.244C223.902 332.012 222.246 330.914 219.834 330.914H217.656V328.034ZM219.582 335.432H217.656V333.02H219.582C220.608 333.02 221.058 333.506 221.058 334.19C221.058 335 220.572 335.432 219.582 335.432Z" fill="white"/>
<path d="M310.664 440.337L312.326 439.608L314.506 438.678L315.139 438.47L316.34 437.881L312.249 431.944L309.041 433.395L310.664 440.337Z" fill="#6AD1CB" stroke="black" stroke-miterlimit="10"/>
<path d="M309.288 436.618C310.581 437.248 304.299 449.204 313.273 450.671C324.555 452.515 312.356 461.41 320.663 466.956" stroke="black"/>
<path d="M259.393 405.199C268.309 424.997 294.552 443.619 312.935 435.246C331.325 426.989 334.806 394.85 325.89 375.051C316.974 355.252 294.869 345.961 276.48 354.218C258.152 362.529 250.415 385.344 259.393 405.199Z" fill="#4AE6D1" stroke="black" stroke-miterlimit="10"/>
<path d="M321.927 386.317C321.356 387.81 319.699 388.655 318.147 388.032C316.657 387.464 315.871 385.748 316.443 384.256C317.015 382.763 318.671 381.917 320.223 382.541C321.714 383.108 322.499 384.824 321.927 386.317Z" fill="#77FFF7" stroke="black" stroke-miterlimit="10"/>
<path d="M303.651 372.674C308.853 377.385 313.627 380.477 315.794 378.084C317.905 375.752 316.521 368.915 311.319 364.205C306.117 359.495 299.176 358.795 297.12 361.066C294.953 363.46 298.448 367.964 303.651 372.674Z" fill="#77FFF7" stroke="black" stroke-miterlimit="10"/>
<path d="M177.997 516.245C169.304 536.142 173.113 568.094 191.658 576.103C210.121 584.194 236.283 565.205 244.976 545.307C253.669 525.409 245.721 502.787 227.259 494.696C208.796 486.687 186.691 496.264 177.997 516.245Z" fill="#FFF480" stroke="black" stroke-miterlimit="10"/>
<path d="M233.965 549.93C232.474 550.508 230.736 549.848 230.156 548.279C229.577 546.793 230.322 545.059 231.812 544.481C233.302 543.903 235.041 544.564 235.621 546.132C236.2 547.619 235.455 549.352 233.965 549.93Z" fill="#FFF9B8" stroke="black" stroke-miterlimit="10"/>
<path d="M231.812 527.226C231.812 534.243 232.723 539.858 235.952 539.858C239.098 539.858 243.237 534.243 243.237 527.226C243.237 520.208 239.098 514.593 236.034 514.593C232.806 514.593 231.812 520.208 231.812 527.226Z" fill="#FFF9B8" stroke="black" stroke-miterlimit="10"/>
<path d="M57.1877 128.967L59.0006 129.053L61.3663 129.188L62.0265 129.284L63.3636 129.291L62.3387 122.153L58.8202 122.027L57.1877 128.967Z" fill="#FFF480" stroke="black" stroke-miterlimit="10"/>
<path d="M57.6086 125.024C58.4866 126.163 47.5442 134.08 54.9303 139.384C64.2161 146.051 49.3339 148.595 54.3092 157.256" stroke="black"/>
<path d="M26.8843 74.6972C26.0684 96.3957 41.2961 124.743 61.4856 125.416C81.6283 126.196 99.0357 98.9554 99.8516 77.2569C100.667 55.5584 84.998 37.4087 64.8554 36.6284C44.7429 35.9251 27.6699 52.9219 26.8843 74.6972Z" fill="#FFF480" stroke="black" stroke-miterlimit="10"/>
<path d="M91.2931 85.5866C90.1174 86.6695 88.2577 86.6904 87.1447 85.4422C86.0619 84.2709 86.1214 82.3847 87.2972 81.3019C88.4729 80.2191 90.3327 80.1981 91.4457 81.4463C92.5285 82.6176 92.4689 84.5038 91.2931 85.5866Z" fill="#FFF9B8" stroke="black" stroke-miterlimit="10"/>
<path d="M80.9877 65.241C83.5537 71.7729 86.4541 76.6654 89.4595 75.4848C92.3877 74.3345 94.1878 67.5954 91.6218 61.0634C89.0558 54.5315 83.1501 50.8196 80.2989 51.9397C77.2936 53.1203 78.4217 58.709 80.9877 65.241Z" fill="#FFF9B8" stroke="black" stroke-miterlimit="10"/>
<path d="M222.44 88.5561L224.154 87.9589L226.399 87.2005L227.047 87.0424L228.29 86.5495L224.673 80.3116L221.362 81.5092L222.44 88.5561Z" fill="#6AD1CB" stroke="black" stroke-miterlimit="10"/>
<path d="M221.357 84.7415C222.597 85.4703 215.404 96.9013 224.237 99.0619C235.341 101.778 222.486 109.697 230.337 115.872" stroke="black"/>
<path d="M174.058 49.5345C181.407 69.967 206.121 90.5739 225.1 83.6567C244.076 76.8563 250.048 45.0852 242.7 24.6526C235.351 4.22004 214.036 -6.76277 195.06 0.0375842C176.141 6.89795 166.653 29.0419 174.058 49.5345Z" fill="#4AE6D1" stroke="black" stroke-miterlimit="10"/>
<path d="M237.872 35.5762C237.186 37.0198 235.469 37.7339 233.97 36.9918C232.528 36.3098 231.879 34.5379 232.565 33.0942C233.251 31.6506 234.968 30.9365 236.467 31.6786C237.909 32.3606 238.558 34.1326 237.872 35.5762Z" fill="#77FFF7" stroke="black" stroke-miterlimit="10"/>
<path d="M220.713 20.5527C225.533 25.6533 230.051 29.1083 232.398 26.8905C234.684 24.7296 233.837 17.8059 229.017 12.7053C224.196 7.60476 217.332 6.36755 215.105 8.47157C212.758 10.6893 215.893 15.4522 220.713 20.5527Z" fill="#77FFF7" stroke="black" stroke-miterlimit="10"/>
<path d="M295.521 238.757L297.295 238.372L299.615 237.892L300.278 237.814L301.571 237.476L298.739 230.845L295.307 231.631L295.521 238.757Z" fill="#FF4713" stroke="black" stroke-miterlimit="10"/>
<path d="M294.91 234.839C296.053 235.713 287.524 246.186 296.029 249.403C306.721 253.448 293 259.747 300.042 266.83" stroke="black"/>
<path d="M252.237 194.148C257.049 215.322 279.078 238.778 298.757 234.217C318.418 229.772 328.205 198.961 323.393 177.787C318.58 156.613 298.757 143.123 279.096 147.568C259.483 152.08 247.376 172.908 252.237 194.148Z" fill="#FF4713" stroke="black" stroke-miterlimit="10"/>
<path d="M317.274 188.044C316.418 189.393 314.626 189.894 313.229 188.975C311.88 188.123 311.451 186.285 312.308 184.936C313.164 183.586 314.955 183.086 316.353 184.004C317.701 184.856 318.131 186.694 317.274 188.044Z" fill="#FF9476" stroke="black" stroke-miterlimit="10"/>
<path d="M302.066 171.047C306.231 176.696 310.296 180.674 312.895 178.757C315.427 176.89 315.427 169.915 311.262 164.267C307.097 158.618 300.433 156.557 297.968 158.375C295.369 160.291 297.901 165.399 302.066 171.047Z" fill="#FF9476" stroke="black" stroke-miterlimit="10"/>
<path d="M55.6501 485.668L57.4238 485.284L59.7443 484.804L60.4068 484.725L61.7003 484.387L58.8679 477.756L55.4362 478.543L55.6501 485.668Z" fill="#FF4713" stroke="black" stroke-miterlimit="10"/>
<path d="M55.0391 481.75C56.1814 482.624 47.6531 493.097 56.1578 496.315C66.85 500.36 53.1285 506.658 60.1708 513.741" stroke="black"/>
<path d="M12.3659 441.059C17.1784 462.233 39.2067 485.689 58.8859 481.128C78.5474 476.683 88.3339 445.872 83.5215 424.699C78.709 403.525 58.886 390.034 39.2244 394.48C19.6119 398.991 7.5045 419.819 12.3659 441.059Z" fill="#FF4713" stroke="black" stroke-miterlimit="10"/>
<path d="M77.403 434.955C76.5466 436.305 74.7553 436.805 73.3578 435.886C72.0094 435.034 71.5801 433.196 72.4365 431.847C73.293 430.497 75.0843 429.997 76.4817 430.916C77.8302 431.768 78.2594 433.605 77.403 434.955Z" fill="#FF9476" stroke="black" stroke-miterlimit="10"/>
<path d="M62.1953 417.959C66.3604 423.607 70.4253 427.585 73.0241 425.669C75.5562 423.802 75.5559 416.826 71.3908 411.178C67.2258 405.53 60.5621 403.468 58.0966 405.286C55.4979 407.202 58.0303 412.31 62.1953 417.959Z" fill="#FF9476" stroke="black" stroke-miterlimit="10"/>
<path d="M72.5649 148.107L74.2086 148.876L76.3449 149.902L76.9191 150.241L78.1528 150.757L79.9216 143.766L76.7157 142.311L72.5649 148.107Z" fill="#FF4713" stroke="black" stroke-miterlimit="10"/>
<path d="M74.4548 144.621C74.8331 146.008 61.7012 149.165 66.5128 156.88C72.5621 166.58 57.8319 163.268 59.1364 173.171" stroke="black"/>
<path d="M65.1972 86.3878C56.1843 106.143 59.477 138.152 77.8909 146.459C96.2207 154.846 122.686 136.281 131.699 116.526C140.712 96.7712 133.129 74.0237 114.8 65.6359C96.4684 57.3306 74.2114 66.5503 65.1972 86.3878Z" fill="#FF4713" stroke="black" stroke-miterlimit="10"/>
<path d="M120.614 120.972C119.115 121.526 117.387 120.837 116.833 119.259C116.277 117.764 117.05 116.042 118.55 115.489C120.049 114.935 121.777 115.623 122.331 117.201C122.887 118.696 122.114 120.418 120.614 120.972Z" fill="#FF9476" stroke="black" stroke-miterlimit="10"/>
<path d="M118.828 98.235C118.715 105.252 119.535 110.88 122.763 110.932C125.909 110.983 130.138 105.436 130.252 98.4192C130.365 91.4023 126.316 85.722 123.253 85.6726C120.025 85.6205 118.941 91.218 118.828 98.235Z" fill="#FF9476" stroke="black" stroke-miterlimit="10"/>
<path d="M0.769702 299.31L2.54337 299.695L4.85424 300.219L5.48958 300.423L6.80704 300.651L6.97657 293.442L3.52729 292.736L0.769702 299.31Z" fill="#6AD1CB" stroke="black" stroke-miterlimit="10"/>
<path d="M1.83682 295.491C2.51437 296.76 -9.58654 302.758 -3.17917 309.21C4.87624 317.322 -10.2217 317.369 -6.74705 326.733" stroke="black"/>
<path d="M-20.1422 240.777C-24.535 262.041 -14.2046 292.516 5.59573 296.519C25.3321 300.619 47.0045 276.632 51.3972 255.367C55.79 234.102 43.3377 213.611 23.6013 209.511C3.88203 205.491 -15.7666 219.431 -20.1422 240.777Z" fill="#4AE6D1" stroke="black" stroke-miterlimit="10"/>
<path d="M41.5792 262.167C40.2406 263.04 38.403 262.754 37.5117 261.338C36.6375 260.004 37.0082 258.154 38.3468 257.28C39.6854 256.407 41.523 256.694 42.4143 258.109C43.2885 259.443 42.9178 261.293 41.5792 262.167Z" fill="#77FFF7" stroke="black" stroke-miterlimit="10"/>
<path d="M34.78 240.397C36.2306 247.264 38.2821 252.568 41.4412 251.901C44.5194 251.251 47.4091 244.902 45.9586 238.036C44.508 231.169 39.2974 226.532 36.3003 227.165C33.1411 227.832 33.3295 233.531 34.78 240.397Z" fill="#77FFF7" stroke="black" stroke-miterlimit="10"/>
<path d="M80.9533 527.041L79.2067 526.548L76.9203 525.925L76.264 525.806L74.9938 525.388L78.2305 518.945L81.6071 519.942L80.9533 527.041Z" fill="#6AD1CB" stroke="black" stroke-miterlimit="10"/>
<path d="M81.8052 523.168C80.6111 523.97 88.476 534.95 79.7887 537.636C68.867 541.012 82.1731 548.147 74.7066 554.781" stroke="black"/>
<path d="M126.911 485.192C120.8 506.028 97.364 528.078 78.0042 522.31C58.6549 516.658 50.7909 485.302 56.9024 464.466C63.014 443.63 83.6327 431.39 102.982 437.042C122.278 442.756 133.076 464.292 126.911 485.192Z" fill="#4AE6D1" stroke="black" stroke-miterlimit="10"/>
<path d="M62.3754 475.081C63.1468 476.481 64.9038 477.091 66.3553 476.26C67.7539 475.493 68.2959 473.685 67.5245 472.285C66.7531 470.885 64.9961 470.275 63.5446 471.106C62.1461 471.873 61.604 473.681 62.3754 475.081Z" fill="#77FFF7" stroke="black" stroke-miterlimit="10"/>
<path d="M78.6043 459.056C74.0982 464.437 69.7952 468.156 67.3198 466.083C64.9079 464.063 65.3392 457.101 69.8453 451.72C74.3514 446.34 81.1297 444.694 83.4782 446.661C85.9535 448.734 83.1103 453.676 78.6043 459.056Z" fill="#77FFF7" stroke="black" stroke-miterlimit="10"/>
</svg>
