<svg width="493" height="141" viewBox="0 0 493 141" fill="none" xmlns="http://www.w3.org/2000/svg">
<path d="M1.13208 8.80864C1.13208 7.74467 2.57312 7.41669 3.03358 8.37587L3.24721 8.82088C6.40943 15.408 13.0689 19.5982 20.3758 19.5982H488.17C489.827 19.5982 491.17 20.9413 491.17 22.5982V136.702C491.17 138.358 489.827 139.702 488.17 139.702H4.13209C2.47523 139.702 1.13208 138.358 1.13208 136.702V35.3982V8.80864Z" fill="#FFDDF0" stroke="black" stroke-width="2"/>
<path d="M32.3508 41.7599C28.1908 41.7599 25.7108 44.7599 25.1708 46.9199L26.7308 47.4599C26.9908 46.4199 28.4108 43.3199 32.2908 43.3199C35.4308 43.3199 37.8908 45.5599 38.2508 48.8799H30.7708V50.3999H38.2708C38.0108 53.7799 35.6308 56.2199 32.2708 56.2199C28.4908 56.2199 27.1308 53.3399 26.6908 52.0199L25.1108 52.5799C25.6708 54.5199 27.8108 57.7599 32.2308 57.7599C36.6908 57.7599 40.0508 54.5199 40.0508 49.7199C40.0508 44.9799 36.7308 41.7599 32.3508 41.7599ZM50.7058 48.2999V46.9199H41.5458V48.2999H45.3258V57.5999H46.9058V48.2999H50.7058ZM57.1961 57.7799C60.3161 57.7799 62.7361 55.3799 62.7361 52.2199C62.7361 49.1599 60.3161 46.7399 57.2361 46.7399C54.0761 46.7399 51.6961 49.1399 51.6961 52.2999C51.6961 55.3399 54.0961 57.7799 57.1961 57.7799ZM57.2361 56.3999C54.8961 56.3999 53.2961 54.4599 53.2961 52.2199C53.2961 49.9799 54.8761 48.0999 57.1961 48.0999C59.5161 48.0999 61.1361 50.0599 61.1361 52.2999C61.1361 54.5199 59.5161 56.3999 57.2361 56.3999ZM65.9239 60.6599C67.3239 59.6599 68.0639 58.3399 68.0639 56.9399V56.8599C68.0639 55.6599 67.4039 54.8999 66.4839 54.8999C65.7239 54.8999 65.0839 55.4999 65.0839 56.3199C65.0839 57.1199 65.6439 57.6399 66.4039 57.6399C66.5639 57.6399 66.7439 57.5999 66.8839 57.5399C66.7439 58.4599 66.0439 59.2599 65.1439 59.9399L65.9239 60.6599ZM77.1443 51.6199H77.0243V46.9199H75.4643V57.5999H77.0243V52.6199H77.1443L82.5843 57.5999H84.7643L78.6243 52.0999L84.4843 46.9199H82.3243L77.1443 51.6199ZM90.4968 57.7799C93.6168 57.7799 96.0368 55.3799 96.0368 52.2199C96.0368 49.1599 93.6168 46.7399 90.5368 46.7399C87.3768 46.7399 84.9968 49.1399 84.9968 52.2999C84.9968 55.3399 87.3968 57.7799 90.4968 57.7799ZM90.5368 56.3999C88.1968 56.3999 86.5968 54.4599 86.5968 52.2199C86.5968 49.9799 88.1768 48.0999 90.4968 48.0999C92.8168 48.0999 94.4368 50.0599 94.4368 52.2999C94.4368 54.5199 92.8168 56.3999 90.5368 56.3999ZM100.345 51.4199V46.9199H98.7847V57.5999H100.345V52.7999H106.485V57.5999H108.045V46.9199H106.485V51.4199H100.345ZM112.358 52.7399H120.998C121.018 52.5799 121.018 52.3999 121.018 52.2199C121.018 49.0999 119.278 46.7399 115.978 46.7399C112.978 46.7399 110.778 49.3399 110.778 52.2399C110.778 55.3199 113.098 57.7799 116.198 57.7799C118.318 57.7799 120.238 56.6199 120.878 54.5599L119.478 54.1199C118.978 55.6199 117.758 56.3999 116.178 56.3999C114.098 56.3999 112.478 54.8199 112.358 52.7399ZM119.438 51.4199H112.378C112.638 49.6399 114.118 48.0999 115.978 48.0999C118.018 48.0999 119.238 49.4799 119.438 51.4199ZM124.487 50.7599V46.9199H122.947V50.9799C122.947 53.1599 124.487 54.1599 126.467 54.1599C127.727 54.1599 129.227 53.6399 129.987 53.1999V57.5999H131.547V46.9199H129.987V51.7799C129.147 52.3799 127.847 52.7999 126.667 52.7999C125.367 52.7999 124.487 52.1199 124.487 50.7599ZM136.634 51.4199V46.9199H135.074V57.5999H136.634V52.7999H142.774V57.5999H144.334V46.9199H142.774V51.4199H136.634ZM152.567 57.7799C155.687 57.7799 158.107 55.3799 158.107 52.2199C158.107 49.1599 155.687 46.7399 152.607 46.7399C149.447 46.7399 147.067 49.1399 147.067 52.2999C147.067 55.3399 149.467 57.7799 152.567 57.7799ZM152.607 56.3999C150.267 56.3999 148.667 54.4599 148.667 52.2199C148.667 49.9799 150.247 48.0999 152.567 48.0999C154.887 48.0999 156.507 50.0599 156.507 52.2999C156.507 54.5199 154.887 56.3999 152.607 56.3999ZM161.295 60.6599C162.695 59.6599 163.435 58.3399 163.435 56.9399V56.8599C163.435 55.6599 162.775 54.8999 161.855 54.8999C161.095 54.8999 160.455 55.4999 160.455 56.3199C160.455 57.1199 161.015 57.6399 161.775 57.6399C161.935 57.6399 162.115 57.5999 162.255 57.5399C162.115 58.4599 161.415 59.2599 160.515 59.9399L161.295 60.6599ZM172.395 51.4199V46.9199H170.835V57.5999H172.395V52.7999H178.535V57.5999H180.095V46.9199H178.535V51.4199H172.395ZM184.409 52.7399H193.049C193.069 52.5799 193.069 52.3999 193.069 52.2199C193.069 49.0999 191.329 46.7399 188.029 46.7399C185.029 46.7399 182.829 49.3399 182.829 52.2399C182.829 55.3199 185.149 57.7799 188.249 57.7799C190.369 57.7799 192.289 56.6199 192.929 54.5599L191.529 54.1199C191.029 55.6199 189.809 56.3999 188.229 56.3999C186.149 56.3999 184.529 54.8199 184.409 52.7399ZM191.489 51.4199H184.429C184.689 49.6399 186.169 48.0999 188.029 48.0999C190.069 48.0999 191.289 49.4799 191.489 51.4199ZM203.803 53.4399L204.383 48.2999H208.923V57.5999H210.483V46.9199H202.983L202.263 53.1799C202.123 54.3999 201.603 56.2799 200.063 56.2799V57.6399L200.123 57.6599C202.483 57.7799 203.563 55.4799 203.803 53.4399ZM218.72 57.7799C221.84 57.7799 224.26 55.3799 224.26 52.2199C224.26 49.1599 221.84 46.7399 218.76 46.7399C215.6 46.7399 213.22 49.1399 213.22 52.2999C213.22 55.3399 215.62 57.7799 218.72 57.7799ZM218.76 56.3999C216.42 56.3999 214.82 54.4599 214.82 52.2199C214.82 49.9799 216.4 48.0999 218.72 48.0999C221.04 48.0999 222.66 50.0599 222.66 52.2999C222.66 54.5199 221.04 56.3999 218.76 56.3999ZM228.687 51.6199H228.567V46.9199H227.007V57.5999H228.567V52.6199H228.687L234.127 57.5999H236.307L230.167 52.0999L236.027 46.9199H233.867L228.687 51.6199ZM244.268 51.4399H241.308C239.408 51.4399 237.088 52.1999 237.088 54.5199V54.6399C237.088 56.4399 238.508 57.7799 240.668 57.7799C242.268 57.7799 243.428 57.0399 244.268 55.7199H244.288V57.5999H245.808V50.6999C245.808 50.3599 245.728 49.5199 245.488 48.9399C244.968 47.7599 243.848 46.7399 241.588 46.7399C238.528 46.7399 237.328 49.0799 237.248 49.9799L238.748 50.2999C238.928 49.2799 239.748 48.1199 241.548 48.1199C243.328 48.1199 244.268 48.9999 244.268 50.7199V51.4399ZM244.268 52.7199V53.0999C244.268 55.0599 242.848 56.3999 240.948 56.3999C239.668 56.3999 238.648 55.7199 238.648 54.5199C238.648 53.0799 240.148 52.7199 241.288 52.7199H244.268ZM250.755 46.9199H249.195V57.5999H258.015V60.8999H259.515V56.2199H258.275V46.9199H256.715V56.2199H250.755V46.9199ZM262.281 57.5999H263.861L270.101 49.1399V57.5999H271.661V46.9199H270.101L263.841 55.4599V46.9199H262.281V57.5999ZM277.37 53.4399L274.25 57.5999H276.13L278.93 53.7199H281.85V57.5999H283.41V46.9199H278.67C275.75 46.9199 274.65 48.6599 274.65 50.2399C274.65 51.9999 275.83 53.0799 277.37 53.4399ZM278.75 48.2999H281.85V52.3999H278.79C276.97 52.3999 276.19 51.3799 276.19 50.3199C276.19 48.8199 277.51 48.2999 278.75 48.2999ZM291.375 56.2599H291.335V60.8999H292.855V57.5999H301.515V60.8999H303.015V56.2199H301.775V46.9199H294.275L293.715 51.7999C293.455 54.1399 292.895 56.2599 291.375 56.2599ZM295.255 51.9199L295.655 48.2999H300.215V56.2199H293.715C294.735 55.3999 295.095 53.2799 295.255 51.9199ZM308.237 53.4399L308.817 48.2999H313.357V57.5999H314.917V46.9199H307.417L306.697 53.1799C306.557 54.3999 306.037 56.2799 304.497 56.2799V57.6399L304.557 57.6599C306.917 57.7799 307.997 55.4799 308.237 53.4399ZM320.593 53.4399L317.473 57.5999H319.353L322.153 53.7199H325.073V57.5999H326.633V46.9199H321.893C318.973 46.9199 317.873 48.6599 317.873 50.2399C317.873 51.9999 319.053 53.0799 320.593 53.4399ZM321.973 48.2999H325.073V52.3999H322.013C320.193 52.3999 319.413 51.3799 319.413 50.3199C319.413 48.8199 320.733 48.2999 321.973 48.2999ZM340.978 46.9199H335.738V57.5999H341.178C343.058 57.5999 345.058 56.7799 345.058 54.6799C345.058 53.0999 343.898 52.3799 342.698 52.0599C343.498 51.6999 344.478 51.0599 344.478 49.5999C344.478 47.6599 342.698 46.9199 340.978 46.9199ZM340.738 51.5399H337.298V48.2799H340.778C341.618 48.2799 342.918 48.5199 342.918 49.7599C342.918 51.2599 341.538 51.5399 340.738 51.5399ZM341.018 56.2599H337.298V52.7999H340.798C342.118 52.7999 343.478 53.1199 343.478 54.4399C343.478 55.9199 342.038 56.2599 341.018 56.2599ZM348.608 52.7399H357.248C357.268 52.5799 357.268 52.3999 357.268 52.2199C357.268 49.0999 355.528 46.7399 352.228 46.7399C349.228 46.7399 347.028 49.3399 347.028 52.2399C347.028 55.3199 349.348 57.7799 352.448 57.7799C354.568 57.7799 356.488 56.6199 357.128 54.5599L355.728 54.1199C355.228 55.6199 354.008 56.3999 352.428 56.3999C350.348 56.3999 348.728 54.8199 348.608 52.7399ZM355.688 51.4199H348.628C348.888 49.6399 350.368 48.0999 352.228 48.0999C354.268 48.0999 355.488 49.4799 355.688 51.4199ZM360.737 50.7599V46.9199H359.197V50.9799C359.197 53.1599 360.737 54.1599 362.717 54.1599C363.977 54.1599 365.477 53.6399 366.237 53.1999V57.5999H367.797V46.9199H366.237V51.7799C365.397 52.3799 364.097 52.7999 362.917 52.7999C361.617 52.7999 360.737 52.1199 360.737 50.7599ZM372.124 52.7399H380.764C380.784 52.5799 380.784 52.3999 380.784 52.2199C380.784 49.0999 379.044 46.7399 375.744 46.7399C372.744 46.7399 370.544 49.3399 370.544 52.2399C370.544 55.3199 372.864 57.7799 375.964 57.7799C378.084 57.7799 380.004 56.6199 380.644 54.5599L379.244 54.1199C378.744 55.6199 377.524 56.3999 375.944 56.3999C373.864 56.3999 372.244 54.8199 372.124 52.7399ZM379.204 51.4199H372.144C372.404 49.6399 373.884 48.0999 375.744 48.0999C377.784 48.0999 379.004 49.4799 379.204 51.4199ZM394.172 52.2399C394.172 49.4599 392.192 46.7399 389.152 46.7399C387.132 46.7399 385.872 47.8999 385.012 49.2399V46.9199H383.472V62.8599H385.032V55.3999C385.892 56.7599 387.172 57.7599 389.152 57.7599C392.192 57.7599 394.172 55.1199 394.172 52.2399ZM388.832 56.3799C386.572 56.3799 385.012 54.4199 385.012 52.2199C385.012 50.0799 386.632 48.1199 388.832 48.1199C391.192 48.1199 392.572 50.0599 392.572 52.2799C392.572 54.5399 391.192 56.3799 388.832 56.3799ZM396.929 57.5999H398.509L404.749 49.1399V57.5999H406.309V46.9199H404.749L398.489 55.4599V46.9199H396.929V57.5999ZM411.419 51.4199V46.9199H409.859V57.5999H411.419V52.7999H417.559V57.5999H419.119V46.9199H417.559V51.4199H411.419ZM424.312 51.6199H424.192V46.9199H422.632V57.5999H424.192V52.6199H424.312L429.752 57.5999H431.932L425.792 52.0999L431.652 46.9199H429.492L424.312 51.6199ZM433.707 57.5999H435.287L441.527 49.1399V57.5999H443.087V46.9199H441.527L435.267 55.4599V46.9199H433.707V57.5999ZM447.076 60.6599C448.476 59.6599 449.216 58.3399 449.216 56.9399V56.8599C449.216 55.6599 448.556 54.8999 447.636 54.8999C446.876 54.8999 446.236 55.4999 446.236 56.3199C446.236 57.1199 446.796 57.6399 447.556 57.6399C447.716 57.6399 447.896 57.5999 448.036 57.5399C447.896 58.4599 447.196 59.2599 446.296 59.9399L447.076 60.6599ZM27.5908 78.4199V73.9199H26.0308V84.5999H27.5908V79.7999H33.7308V84.5999H35.2908V73.9199H33.7308V78.4199H27.5908ZM43.5242 84.7799C46.6442 84.7799 49.0642 82.3799 49.0642 79.2199C49.0642 76.1599 46.6442 73.7399 43.5642 73.7399C40.4042 73.7399 38.0242 76.1399 38.0242 79.2999C38.0242 82.3399 40.4242 84.7799 43.5242 84.7799ZM43.5642 83.3999C41.2242 83.3999 39.6242 81.4599 39.6242 79.2199C39.6242 76.9799 41.2042 75.0999 43.5242 75.0999C45.8442 75.0999 47.4642 77.0599 47.4642 79.2999C47.4642 81.5199 45.8442 83.3999 43.5642 83.3999ZM56.2579 83.2599H56.2179V87.8999H57.7379V84.5999H66.3979V87.8999H67.8979V83.2199H66.6579V73.9199H59.1579L58.5979 78.7999C58.3379 81.1399 57.7779 83.2599 56.2579 83.2599ZM60.1379 78.9199L60.5379 75.2999H65.0979V83.2199H58.5979C59.6179 82.3999 59.9779 80.2799 60.1379 78.9199ZM73.1197 80.4399L73.6997 75.2999H78.2397V84.5999H79.7997V73.9199H72.2997L71.5797 80.1799C71.4397 81.3999 70.9197 83.2799 69.3797 83.2799V84.6399L69.4397 84.6599C71.7997 84.7799 72.8797 82.4799 73.1197 80.4399ZM85.4759 80.4399L82.3559 84.5999H84.2359L87.0359 80.7199H89.9559V84.5999H91.5159V73.9199H86.7759C83.8559 73.9199 82.7559 75.6599 82.7559 77.2399C82.7559 78.9999 83.9359 80.0799 85.4759 80.4399ZM86.8559 75.2999H89.9559V79.3999H86.8959C85.0759 79.3999 84.2959 78.3799 84.2959 77.3199C84.2959 75.8199 85.6159 75.2999 86.8559 75.2999ZM102.301 78.6199H102.181V73.9199H100.621V84.5999H102.181V79.6199H102.301L107.741 84.5999H109.921L103.781 79.0999L109.641 73.9199H107.481L102.301 78.6199ZM115.653 84.7799C118.773 84.7799 121.193 82.3799 121.193 79.2199C121.193 76.1599 118.773 73.7399 115.693 73.7399C112.533 73.7399 110.153 76.1399 110.153 79.2999C110.153 82.3399 112.553 84.7799 115.653 84.7799ZM115.693 83.3999C113.353 83.3999 111.753 81.4599 111.753 79.2199C111.753 76.9799 113.333 75.0999 115.653 75.0999C117.973 75.0999 119.593 77.0599 119.593 79.2999C119.593 81.5199 117.973 83.3999 115.693 83.3999ZM125.481 84.5999V75.5799H125.521L129.721 84.5999H130.741L134.941 75.5399H134.961V84.5999H136.521V73.9199H134.241L130.241 82.5799L126.241 73.9199H123.941V84.5999H125.481ZM146.294 83.6999V89.4799H147.854V83.6999C148.534 84.2999 149.234 84.7599 150.474 84.7599C153.374 84.7599 154.814 82.2399 154.814 79.2599C154.814 76.1199 153.254 73.7399 150.474 73.7399C149.254 73.7399 148.494 74.2999 147.854 74.8799V68.9399H146.294V74.8799C145.654 74.2999 144.874 73.7399 143.654 73.7399C140.934 73.7399 139.354 76.0799 139.354 79.2199C139.354 82.2799 140.794 84.7599 143.654 84.7599C144.834 84.7599 145.634 84.2599 146.294 83.6999ZM146.294 76.1599V82.3599C145.734 82.9399 145.014 83.3999 143.994 83.3999C141.654 83.3999 140.954 81.5399 140.954 79.2999C140.954 77.0799 141.714 75.1199 143.994 75.1199C144.954 75.1199 145.714 75.5399 146.294 76.1599ZM147.854 82.3599V76.1599C148.434 75.5399 149.194 75.1199 150.174 75.1199C152.414 75.1199 153.214 77.0399 153.214 79.2599C153.214 81.4999 152.494 83.3999 150.174 83.3999C149.154 83.3999 148.414 82.9399 147.854 82.3599ZM162.352 84.7799C165.472 84.7799 167.892 82.3799 167.892 79.2199C167.892 76.1599 165.472 73.7399 162.392 73.7399C159.232 73.7399 156.852 76.1399 156.852 79.2999C156.852 82.3399 159.252 84.7799 162.352 84.7799ZM162.392 83.3999C160.052 83.3999 158.452 81.4599 158.452 79.2199C158.452 76.9799 160.032 75.0999 162.352 75.0999C164.672 75.0999 166.292 77.0599 166.292 79.2999C166.292 81.5199 164.672 83.3999 162.392 83.3999ZM181.34 79.2399C181.34 76.4599 179.36 73.7399 176.32 73.7399C174.3 73.7399 173.04 74.8999 172.18 76.2399V73.9199H170.64V89.8599H172.2V82.3999C173.06 83.7599 174.34 84.7599 176.32 84.7599C179.36 84.7599 181.34 82.1199 181.34 79.2399ZM176 83.3799C173.74 83.3799 172.18 81.4199 172.18 79.2199C172.18 77.0799 173.8 75.1199 176 75.1199C178.36 75.1199 179.74 77.0599 179.74 79.2799C179.74 81.5399 178.36 83.3799 176 83.3799ZM191.526 75.2999V73.9199H182.366V75.2999H186.146V84.5999H187.726V75.2999H191.526ZM199.893 78.4399H196.933C195.033 78.4399 192.713 79.1999 192.713 81.5199V81.6399C192.713 83.4399 194.133 84.7799 196.293 84.7799C197.893 84.7799 199.053 84.0399 199.893 82.7199H199.913V84.5999H201.433V77.6999C201.433 77.3599 201.353 76.5199 201.113 75.9399C200.593 74.7599 199.473 73.7399 197.213 73.7399C194.153 73.7399 192.953 76.0799 192.873 76.9799L194.373 77.2999C194.553 76.2799 195.373 75.1199 197.173 75.1199C198.953 75.1199 199.893 75.9999 199.893 77.7199V78.4399ZM199.893 79.7199V80.0999C199.893 82.0599 198.473 83.3999 196.573 83.3999C195.293 83.3999 194.273 82.7199 194.273 81.5199C194.273 80.0799 195.773 79.7199 196.913 79.7199H199.893ZM211.966 75.2999H217.566V73.9199H210.406V84.5999H211.966V75.2999ZM223.993 84.7799C227.113 84.7799 229.533 82.3799 229.533 79.2199C229.533 76.1599 227.113 73.7399 224.033 73.7399C220.873 73.7399 218.493 76.1399 218.493 79.2999C218.493 82.3399 220.893 84.7799 223.993 84.7799ZM224.033 83.3999C221.693 83.3999 220.093 81.4599 220.093 79.2199C220.093 76.9799 221.673 75.0999 223.993 75.0999C226.313 75.0999 227.933 77.0599 227.933 79.2999C227.933 81.5199 226.313 83.3999 224.033 83.3999ZM233.101 79.1999C233.101 76.9799 234.681 75.1199 236.961 75.1199C239.181 75.1199 240.241 76.7799 240.481 77.5999L241.921 77.1399C241.481 75.3399 239.501 73.7399 237.021 73.7399C234.001 73.7399 231.501 76.0599 231.501 79.2999C231.501 82.4999 233.861 84.7799 236.941 84.7799C239.741 84.7799 241.501 82.9199 241.981 81.3199L240.521 80.8399C240.221 81.6399 239.321 83.3999 236.961 83.3999C234.541 83.3999 233.101 81.4199 233.101 79.1999ZM252.229 75.2999V73.9199H243.069V75.2999H246.849V84.5999H248.429V75.2999H252.229ZM254.8 79.7399H263.44C263.46 79.5799 263.46 79.3999 263.46 79.2199C263.46 76.0999 261.72 73.7399 258.42 73.7399C255.42 73.7399 253.22 76.3399 253.22 79.2399C253.22 82.3199 255.54 84.7799 258.64 84.7799C260.76 84.7799 262.68 83.6199 263.32 81.5599L261.92 81.1199C261.42 82.6199 260.2 83.3999 258.62 83.3999C256.54 83.3999 254.92 81.8199 254.8 79.7399ZM261.88 78.4199H254.82C255.08 76.6399 256.56 75.0999 258.42 75.0999C260.46 75.0999 261.68 76.4799 261.88 78.4199ZM270.848 72.1399C272.508 72.1399 273.768 70.9599 274.088 69.2799L272.968 69.0799C272.668 70.1199 272.048 70.8799 270.848 70.8799C269.648 70.8799 269.008 70.1199 268.708 69.0799L267.608 69.2799C267.908 70.9599 269.168 72.1399 270.848 72.1399ZM266.148 84.5999H267.728L273.968 76.1399V84.5999H275.528V73.9199H273.948L267.708 82.4599V73.9199H266.148V84.5999ZM289.384 84.7799C292.504 84.7799 294.924 82.3799 294.924 79.2199C294.924 76.1599 292.504 73.7399 289.424 73.7399C286.264 73.7399 283.884 76.1399 283.884 79.2999C283.884 82.3399 286.284 84.7799 289.384 84.7799ZM289.424 83.3999C287.084 83.3999 285.484 81.4599 285.484 79.2199C285.484 76.9799 287.064 75.0999 289.384 75.0999C291.704 75.0999 293.324 77.0599 293.324 79.2999C293.324 81.5199 291.704 83.3999 289.424 83.3999ZM298.751 76.3399H298.731C298.931 73.9999 299.311 72.0999 303.651 70.9599L307.491 69.9599L307.071 68.6599L303.031 69.6599C297.451 71.0799 297.311 74.6799 297.311 78.3799C297.311 82.8599 299.651 84.7799 302.631 84.7799C305.751 84.7799 308.011 82.5799 308.011 79.1599C308.011 75.8199 305.631 73.7999 302.991 73.7999C301.731 73.7999 299.831 74.1799 298.751 76.3399ZM298.911 79.2399C298.911 76.6799 300.491 75.1399 302.671 75.1399C304.811 75.1399 306.451 76.6999 306.451 79.2399C306.451 81.6799 304.891 83.4199 302.651 83.4199C300.431 83.4199 298.911 81.6999 298.911 79.2399ZM320.542 73.7399C318.102 73.7399 315.942 75.3399 315.502 77.1199L316.882 77.5799C317.122 76.7399 318.222 75.0999 320.502 75.0999C322.462 75.0999 323.942 76.5199 324.262 78.3999H319.242V79.7599H324.322C324.122 81.7799 322.742 83.4199 320.502 83.4199C318.142 83.4199 317.142 81.6599 316.842 80.8599L315.442 81.3199C315.902 82.9199 317.582 84.7799 320.462 84.7799C323.602 84.7799 325.902 82.4399 325.902 79.1999C325.902 75.9799 323.502 73.7399 320.542 73.7399ZM336.096 75.2999V73.9199H326.936V75.2999H330.716V84.5999H332.296V75.2999H336.096ZM342.587 84.7799C345.707 84.7799 348.127 82.3799 348.127 79.2199C348.127 76.1599 345.707 73.7399 342.627 73.7399C339.467 73.7399 337.087 76.1399 337.087 79.2999C337.087 82.3399 339.487 84.7799 342.587 84.7799ZM342.627 83.3999C340.287 83.3999 338.687 81.4599 338.687 79.2199C338.687 76.9799 340.267 75.0999 342.587 75.0999C344.907 75.0999 346.527 77.0599 346.527 79.2999C346.527 81.5199 344.907 83.3999 342.627 83.3999ZM355.575 72.1399C357.235 72.1399 358.495 70.9599 358.815 69.2799L357.695 69.0799C357.395 70.1199 356.775 70.8799 355.575 70.8799C354.375 70.8799 353.735 70.1199 353.435 69.0799L352.335 69.2799C352.635 70.9599 353.895 72.1399 355.575 72.1399ZM350.875 84.5999H352.455L358.695 76.1399V84.5999H360.255V73.9199H358.675L352.435 82.4599V73.9199H350.875V84.5999ZM369.701 77.7599V73.9199H368.161V77.9799C368.161 80.1599 369.701 81.1599 371.681 81.1599C372.941 81.1599 374.441 80.6399 375.201 80.1999V84.5999H376.761V73.9199H375.201V78.7799C374.361 79.3799 373.061 79.7999 371.881 79.7999C370.581 79.7999 369.701 79.1199 369.701 77.7599ZM386.729 78.4399H383.769C381.869 78.4399 379.549 79.1999 379.549 81.5199V81.6399C379.549 83.4399 380.969 84.7799 383.129 84.7799C384.729 84.7799 385.889 84.0399 386.729 82.7199H386.749V84.5999H388.269V77.6999C388.269 77.3599 388.189 76.5199 387.949 75.9399C387.429 74.7599 386.309 73.7399 384.049 73.7399C380.989 73.7399 379.789 76.0799 379.709 76.9799L381.209 77.2999C381.389 76.2799 382.209 75.1199 384.009 75.1199C385.789 75.1199 386.729 75.9999 386.729 77.7199V78.4399ZM386.729 79.7199V80.0999C386.729 82.0599 385.309 83.3999 383.409 83.3999C382.129 83.3999 381.109 82.7199 381.109 81.5199C381.109 80.0799 382.609 79.7199 383.749 79.7199H386.729ZM392.476 79.1999C392.476 76.9799 394.056 75.1199 396.336 75.1199C398.556 75.1199 399.616 76.7799 399.856 77.5999L401.296 77.1399C400.856 75.3399 398.876 73.7399 396.396 73.7399C393.376 73.7399 390.876 76.0599 390.876 79.2999C390.876 82.4999 393.236 84.7799 396.316 84.7799C399.116 84.7799 400.876 82.9199 401.356 81.3199L399.896 80.8399C399.596 81.6399 398.696 83.3999 396.336 83.3999C393.916 83.3999 392.476 81.4199 392.476 79.1999ZM411.604 75.2999V73.9199H402.444V75.2999H406.224V84.5999H407.804V75.2999H411.604ZM413.746 84.5999H415.326L421.566 76.1399V84.5999H423.126V73.9199H421.566L415.306 82.4599V73.9199H413.746V84.5999ZM27.7108 105.62H27.5908V100.92H26.0308V111.6H27.5908V106.62H27.7108L33.1508 111.6H35.3308L29.1908 106.1L35.0508 100.92H32.8908L27.7108 105.62ZM42.345 100.92H37.105V111.6H42.545C44.425 111.6 46.425 110.78 46.425 108.68C46.425 107.1 45.265 106.38 44.065 106.06C44.865 105.7 45.845 105.06 45.845 103.6C45.845 101.66 44.065 100.92 42.345 100.92ZM42.105 105.54H38.665V102.28H42.145C42.985 102.28 44.285 102.52 44.285 103.76C44.285 105.26 42.905 105.54 42.105 105.54ZM42.385 110.26H38.665V106.8H42.165C43.485 106.8 44.845 107.12 44.845 108.44C44.845 109.92 43.405 110.26 42.385 110.26ZM55.6153 105.44H52.6553C50.7553 105.44 48.4353 106.2 48.4353 108.52V108.64C48.4353 110.44 49.8553 111.78 52.0153 111.78C53.6153 111.78 54.7753 111.04 55.6153 109.72H55.6353V111.6H57.1553V104.7C57.1553 104.36 57.0753 103.52 56.8353 102.94C56.3153 101.76 55.1953 100.74 52.9353 100.74C49.8753 100.74 48.6753 103.08 48.5953 103.98L50.0953 104.3C50.2753 103.28 51.0953 102.12 52.8953 102.12C54.6753 102.12 55.6153 103 55.6153 104.72V105.44ZM55.6153 106.72V107.1C55.6153 109.06 54.1953 110.4 52.2953 110.4C51.0153 110.4 49.9953 109.72 49.9953 108.52C49.9953 107.08 51.4953 106.72 52.6353 106.72H55.6153ZM71.2425 106.24C71.2425 103.46 69.2625 100.74 66.2225 100.74C64.2025 100.74 62.9425 101.9 62.0825 103.24V100.92H60.5425V116.86H62.1025V109.4C62.9625 110.76 64.2425 111.76 66.2225 111.76C69.2625 111.76 71.2425 109.12 71.2425 106.24ZM65.9025 110.38C63.6425 110.38 62.0825 108.42 62.0825 106.22C62.0825 104.08 63.7025 102.12 65.9025 102.12C68.2625 102.12 69.6425 104.06 69.6425 106.28C69.6425 108.54 68.2625 110.38 65.9025 110.38ZM81.4284 102.3V100.92H72.2684V102.3H76.0484V111.6H77.6284V102.3H81.4284ZM83.5698 111.6H85.1498L91.3898 103.14V111.6H92.9498V100.92H91.3898L85.1298 109.46V100.92H83.5698V111.6ZM107.2 106.24C107.2 103.46 105.22 100.74 102.18 100.74C100.16 100.74 98.8995 101.9 98.0395 103.24V100.92H96.4995V116.86H98.0595V109.4C98.9195 110.76 100.2 111.76 102.18 111.76C105.22 111.76 107.2 109.12 107.2 106.24ZM101.86 110.38C99.5995 110.38 98.0395 108.42 98.0395 106.22C98.0395 104.08 99.6595 102.12 101.86 102.12C104.22 102.12 105.6 104.06 105.6 106.28C105.6 108.54 104.22 110.38 101.86 110.38ZM114.897 104.82H111.517V100.92H109.957V111.6H115.097C117.257 111.6 119.197 110.48 119.197 108.06C119.197 105.64 117.077 104.82 114.897 104.82ZM121.637 111.6V100.92H123.197V111.6H121.637ZM114.957 110.22H111.517V106.16H114.877C116.217 106.16 117.617 106.6 117.617 108.1C117.617 109.74 116.237 110.22 114.957 110.22ZM139.534 102.3V100.92H130.374V102.3H134.154V111.6H135.734V102.3H139.534ZM146.024 111.78C149.144 111.78 151.564 109.38 151.564 106.22C151.564 103.16 149.144 100.74 146.064 100.74C142.904 100.74 140.524 103.14 140.524 106.3C140.524 109.34 142.924 111.78 146.024 111.78ZM146.064 110.4C143.724 110.4 142.124 108.46 142.124 106.22C142.124 103.98 143.704 102.1 146.024 102.1C148.344 102.1 149.964 104.06 149.964 106.3C149.964 108.52 148.344 110.4 146.064 110.4ZM167.929 111.6L162.709 106.1L167.809 100.92H165.809L160.949 105.84H160.789V100.92H159.249V105.84H159.089L154.229 100.92H152.229L157.329 106.1L152.109 111.6H154.229L159.089 106.42H159.249V111.6H160.789V106.42H160.949L165.809 111.6H167.929ZM170.053 106.74H178.693C178.713 106.58 178.713 106.4 178.713 106.22C178.713 103.1 176.973 100.74 173.673 100.74C170.673 100.74 168.473 103.34 168.473 106.24C168.473 109.32 170.793 111.78 173.893 111.78C176.013 111.78 177.933 110.62 178.573 108.56L177.173 108.12C176.673 109.62 175.453 110.4 173.873 110.4C171.793 110.4 170.173 108.82 170.053 106.74ZM177.133 105.42H170.073C170.333 103.64 171.813 102.1 173.673 102.1C175.713 102.1 176.933 103.48 177.133 105.42ZM188.548 105.42V100.92H186.988V111.6H188.548V106.8H194.688V111.6H196.248V100.92H194.688V105.42H188.548ZM200.561 106.74H209.201C209.221 106.58 209.221 106.4 209.221 106.22C209.221 103.1 207.481 100.74 204.181 100.74C201.181 100.74 198.981 103.34 198.981 106.24C198.981 109.32 201.301 111.78 204.401 111.78C206.521 111.78 208.441 110.62 209.081 108.56L207.681 108.12C207.181 109.62 205.961 110.4 204.381 110.4C202.301 110.4 200.681 108.82 200.561 106.74ZM207.641 105.42H200.581C200.841 103.64 202.321 102.1 204.181 102.1C206.221 102.1 207.441 103.48 207.641 105.42ZM216.63 111.78C219.75 111.78 222.17 109.38 222.17 106.22C222.17 103.16 219.75 100.74 216.67 100.74C213.51 100.74 211.13 103.14 211.13 106.3C211.13 109.34 213.53 111.78 216.63 111.78ZM216.67 110.4C214.33 110.4 212.73 108.46 212.73 106.22C212.73 103.98 214.31 102.1 216.63 102.1C218.95 102.1 220.57 104.06 220.57 106.3C220.57 108.52 218.95 110.4 216.67 110.4ZM225.997 103.34H225.977C226.177 101 226.557 99.0999 230.897 97.9599L234.737 96.9599L234.317 95.6599L230.277 96.6599C224.697 98.0799 224.557 101.68 224.557 105.38C224.557 109.86 226.897 111.78 229.877 111.78C232.997 111.78 235.257 109.58 235.257 106.16C235.257 102.82 232.877 100.8 230.237 100.8C228.977 100.8 227.077 101.18 225.997 103.34ZM226.157 106.24C226.157 103.68 227.737 102.14 229.917 102.14C232.057 102.14 233.697 103.7 233.697 106.24C233.697 108.68 232.137 110.42 229.897 110.42C227.677 110.42 226.157 108.7 226.157 106.24ZM241.256 105.06L238.096 100.92H236.256L240.316 106.18L236.116 111.6H237.916L241.236 107.26L244.536 111.6H246.396L242.176 106.16L246.216 100.92H244.416L241.256 105.06ZM252.704 111.78C255.824 111.78 258.244 109.38 258.244 106.22C258.244 103.16 255.824 100.74 252.744 100.74C249.584 100.74 247.204 103.14 247.204 106.3C247.204 109.34 249.604 111.78 252.704 111.78ZM252.744 110.4C250.404 110.4 248.804 108.46 248.804 106.22C248.804 103.98 250.384 102.1 252.704 102.1C255.024 102.1 256.644 104.06 256.644 106.3C256.644 108.52 255.024 110.4 252.744 110.4ZM259.481 110.26H259.441V114.9H260.961V111.6H269.621V114.9H271.121V110.22H269.881V100.92H262.381L261.821 105.8C261.561 108.14 261.001 110.26 259.481 110.26ZM263.361 105.92L263.761 102.3H268.321V110.22H261.821C262.841 109.4 263.201 107.28 263.361 105.92ZM273.882 111.6H275.462L281.702 103.14V111.6H283.262V100.92H281.702L275.442 109.46V100.92H273.882V111.6ZM288.352 111.6V102.58H288.392L292.592 111.6H293.612L297.812 102.54H297.832V111.6H299.392V100.92H297.112L293.112 109.58L289.112 100.92H286.812V111.6H288.352ZM307.645 111.78C310.765 111.78 313.185 109.38 313.185 106.22C313.185 103.16 310.765 100.74 307.685 100.74C304.525 100.74 302.145 103.14 302.145 106.3C302.145 109.34 304.545 111.78 307.645 111.78ZM307.685 110.4C305.345 110.4 303.745 108.46 303.745 106.22C303.745 103.98 305.325 102.1 307.645 102.1C309.965 102.1 311.585 104.06 311.585 106.3C311.585 108.52 309.965 110.4 307.685 110.4ZM323.079 102.3H329.119V111.6H330.679V100.92H321.519V111.6H323.079V102.3ZM338.915 111.78C342.035 111.78 344.455 109.38 344.455 106.22C344.455 103.16 342.035 100.74 338.955 100.74C335.795 100.74 333.415 103.14 333.415 106.3C333.415 109.34 335.815 111.78 338.915 111.78ZM338.955 110.4C336.615 110.4 335.015 108.46 335.015 106.22C335.015 103.98 336.595 102.1 338.915 102.1C341.235 102.1 342.855 104.06 342.855 106.3C342.855 108.52 341.235 110.4 338.955 110.4ZM350.225 111.78C352.565 111.78 354.165 110.42 354.165 108.66C354.165 107.4 353.505 106.54 352.285 106.12C353.485 105.56 353.965 104.68 353.965 103.68C353.965 102.04 352.345 100.72 350.145 100.72C348.065 100.72 346.585 102 346.205 103.72L347.605 104.1C348.025 102.74 348.905 102.1 350.145 102.1C351.625 102.1 352.405 102.98 352.405 103.8C352.405 104.82 351.685 105.5 350.225 105.5H348.605V106.84H350.265C351.865 106.84 352.585 107.54 352.585 108.6C352.585 109.54 351.685 110.4 350.225 110.4C348.505 110.4 347.805 109.24 347.565 108.28L346.125 108.62C346.325 109.82 347.285 111.78 350.225 111.78ZM363.408 105.44H360.448C358.548 105.44 356.228 106.2 356.228 108.52V108.64C356.228 110.44 357.648 111.78 359.808 111.78C361.408 111.78 362.568 111.04 363.408 109.72H363.428V111.6H364.948V104.7C364.948 104.36 364.868 103.52 364.628 102.94C364.108 101.76 362.988 100.74 360.728 100.74C357.668 100.74 356.468 103.08 356.388 103.98L357.888 104.3C358.068 103.28 358.888 102.12 360.688 102.12C362.468 102.12 363.408 103 363.408 104.72V105.44ZM363.408 106.72V107.1C363.408 109.06 361.988 110.4 360.088 110.4C358.808 110.4 357.788 109.72 357.788 108.52C357.788 107.08 359.288 106.72 360.428 106.72H363.408ZM369.415 103.34H369.395C369.595 101 369.975 99.0999 374.315 97.9599L378.155 96.9599L377.735 95.6599L373.695 96.6599C368.115 98.0799 367.975 101.68 367.975 105.38C367.975 109.86 370.315 111.78 373.295 111.78C376.415 111.78 378.675 109.58 378.675 106.16C378.675 102.82 376.295 100.8 373.655 100.8C372.395 100.8 370.495 101.18 369.415 103.34ZM369.575 106.24C369.575 103.68 371.155 102.14 373.335 102.14C375.475 102.14 377.115 103.7 377.115 106.24C377.115 108.68 375.555 110.42 373.315 110.42C371.095 110.42 369.575 108.7 369.575 106.24ZM386.18 111.78C389.3 111.78 391.72 109.38 391.72 106.22C391.72 103.16 389.3 100.74 386.22 100.74C383.06 100.74 380.68 103.14 380.68 106.3C380.68 109.34 383.08 111.78 386.18 111.78ZM386.22 110.4C383.88 110.4 382.28 108.46 382.28 106.22C382.28 103.98 383.86 102.1 386.18 102.1C388.5 102.1 390.12 104.06 390.12 106.3C390.12 108.52 388.5 110.4 386.22 110.4ZM401.897 102.3V100.92H392.737V102.3H396.517V111.6H398.097V102.3H401.897ZM404.039 111.6H405.619L411.859 103.14V111.6H413.419V100.92H411.859L405.599 109.46V100.92H404.039V111.6ZM424.768 102.3V100.92H415.608V102.3H419.388V111.6H420.968V102.3H424.768ZM431.85 104.82H428.47V100.92H426.91V111.6H432.05C434.21 111.6 436.15 110.48 436.15 108.06C436.15 105.64 434.03 104.82 431.85 104.82ZM431.91 110.22H428.47V106.16H431.83C433.17 106.16 434.57 106.6 434.57 108.1C434.57 109.74 433.19 110.22 431.91 110.22ZM439.39 106.2C439.39 103.98 440.97 102.12 443.25 102.12C445.47 102.12 446.53 103.78 446.77 104.6L448.21 104.14C447.77 102.34 445.79 100.74 443.31 100.74C440.29 100.74 437.79 103.06 437.79 106.3C437.79 109.5 440.15 111.78 443.23 111.78C446.03 111.78 447.79 109.92 448.27 108.32L446.81 107.84C446.51 108.64 445.61 110.4 443.25 110.4C440.83 110.4 439.39 108.42 439.39 106.2ZM453.035 107.44L449.915 111.6H451.795L454.595 107.72H457.515V111.6H459.075V100.92H454.335C451.415 100.92 450.315 102.66 450.315 104.24C450.315 106 451.495 107.08 453.035 107.44ZM454.415 102.3H457.515V106.4H454.455C452.635 106.4 451.855 105.38 451.855 104.32C451.855 102.82 453.175 102.3 454.415 102.3ZM462.193 110.34C462.193 111.14 462.833 111.78 463.633 111.78C464.413 111.78 465.053 111.14 465.053 110.34C465.053 109.54 464.413 108.9 463.633 108.9C462.833 108.9 462.193 109.54 462.193 110.34Z" fill="black"/>
</svg>
