<svg width="606" height="168" viewBox="0 0 606 168" fill="none" xmlns="http://www.w3.org/2000/svg">
<path d="M1.13208 8.80864C1.13208 7.74467 2.57312 7.41669 3.03358 8.37587L3.24721 8.82088C6.40943 15.408 13.0689 19.5982 20.3758 19.5982H601.464C603.121 19.5982 604.464 20.9413 604.464 22.5982V163.138C604.464 164.794 603.121 166.138 601.464 166.138H4.13208C2.47523 166.138 1.13208 164.794 1.13208 163.138V35.3982V8.80864Z" fill="#FFF480" stroke="black" stroke-width="2"/>
<path d="M35.4308 43.4599V41.9399H26.4508V57.5999H28.0908V43.4599H35.4308ZM39.5398 57.7799C42.6598 57.7799 45.0798 55.3799 45.0798 52.2199C45.0798 49.1599 42.6598 46.7399 39.5798 46.7399C36.4198 46.7399 34.0398 49.1399 34.0398 52.2999C34.0398 55.3399 36.4398 57.7799 39.5398 57.7799ZM39.5798 56.3999C37.2398 56.3999 35.6398 54.4599 35.6398 52.2199C35.6398 49.9799 37.2198 48.0999 39.5398 48.0999C41.8598 48.0999 43.4798 50.0599 43.4798 52.2999C43.4798 54.5199 41.8598 56.3999 39.5798 56.3999ZM53.0676 46.9199H47.8276V57.5999H53.2676C55.1476 57.5999 57.1476 56.7799 57.1476 54.6799C57.1476 53.0999 55.9876 52.3799 54.7876 52.0599C55.5876 51.6999 56.5676 51.0599 56.5676 49.5999C56.5676 47.6599 54.7876 46.9199 53.0676 46.9199ZM52.8276 51.5399H49.3876V48.2799H52.8676C53.7076 48.2799 55.0076 48.5199 55.0076 49.7599C55.0076 51.2599 53.6276 51.5399 52.8276 51.5399ZM53.1076 56.2599H49.3876V52.7999H52.8876C54.2076 52.7999 55.5676 53.1199 55.5676 54.4399C55.5676 55.9199 54.1276 56.2599 53.1076 56.2599ZM64.6179 57.7799C67.7379 57.7799 70.1579 55.3799 70.1579 52.2199C70.1579 49.1599 67.7379 46.7399 64.6579 46.7399C61.4979 46.7399 59.1179 49.1399 59.1179 52.2999C59.1179 55.3399 61.5179 57.7799 64.6179 57.7799ZM64.6579 56.3999C62.3179 56.3999 60.7179 54.4599 60.7179 52.2199C60.7179 49.9799 62.2979 48.0999 64.6179 48.0999C66.9379 48.0999 68.5579 50.0599 68.5579 52.2999C68.5579 54.5199 66.9379 56.3999 64.6579 56.3999ZM83.6058 52.2399C83.6058 49.4599 81.6258 46.7399 78.5858 46.7399C76.5658 46.7399 75.3058 47.8999 74.4458 49.2399V46.9199H72.9058V62.8599H74.4658V55.3999C75.3258 56.7599 76.6058 57.7599 78.5858 57.7599C81.6258 57.7599 83.6058 55.1199 83.6058 52.2399ZM78.2658 56.3799C76.0058 56.3799 74.4458 54.4199 74.4458 52.2199C74.4458 50.0799 76.0658 48.1199 78.2658 48.1199C80.6258 48.1199 82.0058 50.0599 82.0058 52.2799C82.0058 54.5399 80.6258 56.3799 78.2658 56.3799ZM88.5228 53.4399L85.4028 57.5999H87.2828L90.0828 53.7199H93.0028V57.5999H94.5628V46.9199H89.8228C86.9028 46.9199 85.8028 48.6599 85.8028 50.2399C85.8028 51.9999 86.9828 53.0799 88.5228 53.4399ZM89.9028 48.2999H93.0028V52.3999H89.9428C88.1228 52.3999 87.3428 51.3799 87.3428 50.3199C87.3428 48.8199 88.6628 48.2999 89.9028 48.2999ZM105.882 48.2999V46.9199H96.7215V48.2999H100.502V57.5999H102.082V48.2999H105.882ZM107.389 60.6599C108.789 59.6599 109.529 58.3399 109.529 56.9399V56.8599C109.529 55.6599 108.869 54.8999 107.949 54.8999C107.189 54.8999 106.549 55.4999 106.549 56.3199C106.549 57.1199 107.109 57.6399 107.869 57.6399C108.029 57.6399 108.209 57.5999 108.349 57.5399C108.209 58.4599 107.509 59.2599 106.609 59.9399L107.389 60.6599ZM118.489 51.4199V46.9199H116.929V57.5999H118.489V52.7999H124.629V57.5999H126.189V46.9199H124.629V51.4199H118.489ZM136.143 51.4399H133.183C131.283 51.4399 128.963 52.1999 128.963 54.5199V54.6399C128.963 56.4399 130.383 57.7799 132.543 57.7799C134.143 57.7799 135.303 57.0399 136.143 55.7199H136.163V57.5999H137.683V50.6999C137.683 50.3599 137.603 49.5199 137.363 48.9399C136.843 47.7599 135.723 46.7399 133.463 46.7399C130.403 46.7399 129.203 49.0799 129.123 49.9799L130.623 50.2999C130.803 49.2799 131.623 48.1199 133.423 48.1199C135.203 48.1199 136.143 48.9999 136.143 50.7199V51.4399ZM136.143 52.7199V53.0999C136.143 55.0599 134.723 56.3999 132.823 56.3999C131.543 56.3999 130.523 55.7199 130.523 54.5199C130.523 53.0799 132.023 52.7199 133.163 52.7199H136.143ZM148.336 51.6199H148.216V46.9199H146.656V57.5999H148.216V52.6199H148.336L153.776 57.5999H155.956L149.816 52.0999L155.676 46.9199H153.516L148.336 51.6199ZM167.49 46.9199H165.81L162.11 55.1799L158.19 46.9199H156.39L161.25 56.8799L158.49 62.8599H160.17L167.49 46.9199ZM173.365 51.0599L170.205 46.9199H168.365L172.425 52.1799L168.225 57.5999H170.025L173.345 53.2599L176.645 57.5999H178.505L174.285 52.1599L178.325 46.9199H176.525L173.365 51.0599ZM182.181 51.4199V46.9199H180.621V57.5999H182.181V52.7999H188.321V57.5999H189.881V46.9199H188.321V51.4199H182.181ZM194.194 52.7399H202.834C202.854 52.5799 202.854 52.3999 202.854 52.2199C202.854 49.0999 201.114 46.7399 197.814 46.7399C194.814 46.7399 192.614 49.3399 192.614 52.2399C192.614 55.3199 194.934 57.7799 198.034 57.7799C200.154 57.7799 202.074 56.6199 202.714 54.5599L201.314 54.1199C200.814 55.6199 199.594 56.3999 198.014 56.3999C195.934 56.3999 194.314 54.8199 194.194 52.7399ZM201.274 51.4199H194.214C194.474 49.6399 195.954 48.0999 197.814 48.0999C199.854 48.0999 201.074 49.4799 201.274 51.4199ZM215.848 57.7799C218.968 57.7799 221.388 55.3799 221.388 52.2199C221.388 49.1599 218.968 46.7399 215.888 46.7399C212.728 46.7399 210.348 49.1399 210.348 52.2999C210.348 55.3399 212.748 57.7799 215.848 57.7799ZM215.888 56.3999C213.548 56.3999 211.948 54.4599 211.948 52.2199C211.948 49.9799 213.528 48.0999 215.848 48.0999C218.168 48.0999 219.788 50.0599 219.788 52.2999C219.788 54.5199 218.168 56.3999 215.888 56.3999ZM225.216 49.3399H225.196C225.396 46.9999 225.776 45.0999 230.116 43.9599L233.956 42.9599L233.536 41.6599L229.496 42.6599C223.916 44.0799 223.776 47.6799 223.776 51.3799C223.776 55.8599 226.116 57.7799 229.096 57.7799C232.216 57.7799 234.476 55.5799 234.476 52.1599C234.476 48.8199 232.096 46.7999 229.456 46.7999C228.196 46.7999 226.296 47.1799 225.216 49.3399ZM225.376 52.2399C225.376 49.6799 226.956 48.1399 229.136 48.1399C231.276 48.1399 232.916 49.6999 232.916 52.2399C232.916 54.6799 231.356 56.4199 229.116 56.4199C226.896 56.4199 225.376 54.6999 225.376 52.2399ZM242.201 50.8199H238.821V46.9199H237.261V57.5999H242.401C244.561 57.5999 246.501 56.4799 246.501 54.0599C246.501 51.6399 244.381 50.8199 242.201 50.8199ZM248.941 57.5999V46.9199H250.501V57.5999H248.941ZM242.261 56.2199H238.821V52.1599H242.181C243.521 52.1599 244.921 52.5999 244.921 54.0999C244.921 55.7399 243.541 56.2199 242.261 56.2199ZM254.819 50.7599V46.9199H253.279V50.9799C253.279 53.1599 254.819 54.1599 256.799 54.1599C258.059 54.1599 259.559 53.6399 260.319 53.1999V57.5999H261.879V46.9199H260.319V51.7799C259.479 52.3799 258.179 52.7999 256.999 52.7999C255.699 52.7999 254.819 52.1199 254.819 50.7599ZM266.966 51.4199V46.9199H265.406V57.5999H266.966V52.7999H273.106V57.5999H274.666V46.9199H273.106V51.4199H266.966ZM282.899 57.7799C286.019 57.7799 288.439 55.3799 288.439 52.2199C288.439 49.1599 286.019 46.7399 282.939 46.7399C279.779 46.7399 277.399 49.1399 277.399 52.2999C277.399 55.3399 279.799 57.7799 282.899 57.7799ZM282.939 56.3999C280.599 56.3999 278.999 54.4599 278.999 52.2199C278.999 49.9799 280.579 48.0999 282.899 48.0999C285.219 48.0999 286.839 50.0599 286.839 52.2999C286.839 54.5199 285.219 56.3999 282.939 56.3999ZM307.473 52.2399C307.473 49.4599 305.493 46.7399 302.453 46.7399C300.433 46.7399 299.173 47.8999 298.313 49.2399V46.9199H296.773V62.8599H298.333V55.3999C299.193 56.7599 300.473 57.7599 302.453 57.7599C305.493 57.7599 307.473 55.1199 307.473 52.2399ZM302.133 56.3799C299.873 56.3799 298.313 54.4199 298.313 52.2199C298.313 50.0799 299.933 48.1199 302.133 48.1199C304.493 48.1199 305.873 50.0599 305.873 52.2799C305.873 54.5399 304.493 56.3799 302.133 56.3799ZM316.67 51.4399H313.71C311.81 51.4399 309.49 52.1999 309.49 54.5199V54.6399C309.49 56.4399 310.91 57.7799 313.07 57.7799C314.67 57.7799 315.83 57.0399 316.67 55.7199H316.69V57.5999H318.21V50.6999C318.21 50.3599 318.13 49.5199 317.89 48.9399C317.37 47.7599 316.25 46.7399 313.99 46.7399C310.93 46.7399 309.73 49.0799 309.65 49.9799L311.15 50.2999C311.33 49.2799 312.15 48.1199 313.95 48.1199C315.73 48.1199 316.67 48.9999 316.67 50.7199V51.4399ZM316.67 52.7199V53.0999C316.67 55.0599 315.25 56.3999 313.35 56.3999C312.07 56.3999 311.05 55.7199 311.05 54.5199C311.05 53.0799 312.55 52.7199 313.69 52.7199H316.67ZM324.737 57.7799C327.077 57.7799 328.677 56.4199 328.677 54.6599C328.677 53.3999 328.017 52.5399 326.797 52.1199C327.997 51.5599 328.477 50.6799 328.477 49.6799C328.477 48.0399 326.857 46.7199 324.657 46.7199C322.577 46.7199 321.097 47.9999 320.717 49.7199L322.117 50.0999C322.537 48.7399 323.417 48.0999 324.657 48.0999C326.137 48.0999 326.917 48.9799 326.917 49.7999C326.917 50.8199 326.197 51.4999 324.737 51.4999H323.117V52.8399H324.777C326.377 52.8399 327.097 53.5399 327.097 54.5999C327.097 55.5399 326.197 56.3999 324.737 56.3999C323.017 56.3999 322.317 55.2399 322.077 54.2799L320.637 54.6199C320.837 55.8199 321.797 57.7799 324.737 57.7799ZM336.72 46.9199H331.48V57.5999H336.92C338.8 57.5999 340.8 56.7799 340.8 54.6799C340.8 53.0999 339.64 52.3799 338.44 52.0599C339.24 51.6999 340.22 51.0599 340.22 49.5999C340.22 47.6599 338.44 46.9199 336.72 46.9199ZM336.48 51.5399H333.04V48.2799H336.52C337.36 48.2799 338.66 48.5199 338.66 49.7599C338.66 51.2599 337.28 51.5399 336.48 51.5399ZM336.76 56.2599H333.04V52.7999H336.54C337.86 52.7999 339.22 53.1199 339.22 54.4399C339.22 55.9199 337.78 56.2599 336.76 56.2599ZM348.27 57.7799C351.39 57.7799 353.81 55.3799 353.81 52.2199C353.81 49.1599 351.39 46.7399 348.31 46.7399C345.15 46.7399 342.77 49.1399 342.77 52.2999C342.77 55.3399 345.17 57.7799 348.27 57.7799ZM348.31 56.3999C345.97 56.3999 344.37 54.4599 344.37 52.2199C344.37 49.9799 345.95 48.0999 348.27 48.0999C350.59 48.0999 352.21 50.0599 352.21 52.2999C352.21 54.5199 350.59 56.3999 348.31 56.3999ZM367.258 52.2399C367.258 49.4599 365.278 46.7399 362.238 46.7399C360.218 46.7399 358.958 47.8999 358.098 49.2399V46.9199H356.558V62.8599H358.118V55.3999C358.978 56.7599 360.258 57.7599 362.238 57.7599C365.278 57.7599 367.258 55.1199 367.258 52.2399ZM361.918 56.3799C359.658 56.3799 358.098 54.4199 358.098 52.2199C358.098 50.0799 359.718 48.1199 361.918 48.1199C364.278 48.1199 365.658 50.0599 365.658 52.2799C365.658 54.5399 364.278 56.3799 361.918 56.3799ZM376.455 51.4399H373.495C371.595 51.4399 369.275 52.1999 369.275 54.5199V54.6399C369.275 56.4399 370.695 57.7799 372.855 57.7799C374.455 57.7799 375.615 57.0399 376.455 55.7199H376.475V57.5999H377.995V50.6999C377.995 50.3599 377.915 49.5199 377.675 48.9399C377.155 47.7599 376.035 46.7399 373.775 46.7399C370.715 46.7399 369.515 49.0799 369.435 49.9799L370.935 50.2999C371.115 49.2799 371.935 48.1199 373.735 48.1199C375.515 48.1199 376.455 48.9999 376.455 50.7199V51.4399ZM376.455 52.7199V53.0999C376.455 55.0599 375.035 56.3999 373.135 56.3999C371.855 56.3999 370.835 55.7199 370.835 54.5199C370.835 53.0799 372.335 52.7199 373.475 52.7199H376.455ZM382.162 50.7599V46.9199H380.622V50.9799C380.622 53.1599 382.162 54.1599 384.142 54.1599C385.402 54.1599 386.902 53.6399 387.662 53.1999V57.5999H389.222V46.9199H387.662V51.7799C386.822 52.3799 385.522 52.7999 384.342 52.7999C383.042 52.7999 382.162 52.1199 382.162 50.7599ZM392.75 57.5999H394.33L400.57 49.1399V57.5999H402.13V46.9199H400.57L394.31 55.4599V46.9199H392.75V57.5999ZM410.919 46.9199H405.679V57.5999H411.119C412.999 57.5999 414.999 56.7799 414.999 54.6799C414.999 53.0999 413.839 52.3799 412.639 52.0599C413.439 51.6999 414.419 51.0599 414.419 49.5999C414.419 47.6599 412.639 46.9199 410.919 46.9199ZM410.679 51.5399H407.239V48.2799H410.719C411.559 48.2799 412.859 48.5199 412.859 49.7599C412.859 51.2599 411.479 51.5399 410.679 51.5399ZM410.959 56.2599H407.239V52.7999H410.739C412.059 52.7999 413.419 53.1199 413.419 54.4399C413.419 55.9199 411.979 56.2599 410.959 56.2599ZM424.19 51.4399H421.23C419.33 51.4399 417.01 52.1999 417.01 54.5199V54.6399C417.01 56.4399 418.43 57.7799 420.59 57.7799C422.19 57.7799 423.35 57.0399 424.19 55.7199H424.21V57.5999H425.73V50.6999C425.73 50.3599 425.65 49.5199 425.41 48.9399C424.89 47.7599 423.77 46.7399 421.51 46.7399C418.45 46.7399 417.25 49.0799 417.17 49.9799L418.67 50.2999C418.85 49.2799 419.67 48.1199 421.47 48.1199C423.25 48.1199 424.19 48.9999 424.19 50.7199V51.4399ZM424.19 52.7199V53.0999C424.19 55.0599 422.77 56.3999 420.87 56.3999C419.59 56.3999 418.57 55.7199 418.57 54.5199C418.57 53.0799 420.07 52.7199 421.21 52.7199H424.19ZM429.917 52.7399H438.557C438.577 52.5799 438.577 52.3999 438.577 52.2199C438.577 49.0999 436.837 46.7399 433.537 46.7399C430.537 46.7399 428.337 49.3399 428.337 52.2399C428.337 55.3199 430.657 57.7799 433.757 57.7799C435.877 57.7799 437.797 56.6199 438.437 54.5599L437.037 54.1199C436.537 55.6199 435.317 56.3999 433.737 56.3999C431.657 56.3999 430.037 54.8199 429.917 52.7399ZM436.997 51.4199H429.937C430.197 49.6399 431.677 48.0999 433.537 48.0999C435.577 48.0999 436.797 49.4799 436.997 51.4199ZM448.85 48.2999V46.9199H439.69V48.2999H443.47V57.5999H445.05V48.2999H448.85ZM451.441 52.1999C451.441 49.9799 453.021 48.1199 455.301 48.1199C457.521 48.1199 458.581 49.7799 458.821 50.5999L460.261 50.1399C459.821 48.3399 457.841 46.7399 455.361 46.7399C452.341 46.7399 449.841 49.0599 449.841 52.2999C449.841 55.4999 452.201 57.7799 455.281 57.7799C458.081 57.7799 459.841 55.9199 460.321 54.3199L458.861 53.8399C458.561 54.6399 457.661 56.3999 455.301 56.3999C452.881 56.3999 451.441 54.4199 451.441 52.1999ZM465.085 53.4399L461.965 57.5999H463.845L466.645 53.7199H469.565V57.5999H471.125V46.9199H466.385C463.465 46.9199 462.365 48.6599 462.365 50.2399C462.365 51.9999 463.545 53.0799 465.085 53.4399ZM466.465 48.2999H469.565V52.3999H466.505C464.685 52.3999 463.905 51.3799 463.905 50.3199C463.905 48.8199 465.225 48.2999 466.465 48.2999ZM482.69 53.4399L483.27 48.2999H487.81V57.5999H489.37V46.9199H481.87L481.15 53.1799C481.01 54.3999 480.49 56.2799 478.95 56.2799V57.6399L479.01 57.6599C481.37 57.7799 482.45 55.4799 482.69 53.4399ZM502.646 46.9199H500.966L497.266 55.1799L493.346 46.9199H491.546L496.406 56.8799L493.646 62.8599H495.326L502.646 46.9199ZM505.541 50.7599V46.9199H504.001V50.9799C504.001 53.1599 505.541 54.1599 507.521 54.1599C508.781 54.1599 510.281 53.6399 511.041 53.1999V57.5999H512.601V46.9199H511.041V51.7799C510.201 52.3799 508.901 52.7999 507.721 52.7999C506.421 52.7999 505.541 52.1199 505.541 50.7599ZM517.688 46.9199H516.128V57.5999H530.988V46.9199H529.408V56.2199H524.328V46.9199H522.768V56.2199H517.688V46.9199ZM540.947 51.4399H537.987C536.087 51.4399 533.767 52.1999 533.767 54.5199V54.6399C533.767 56.4399 535.187 57.7799 537.347 57.7799C538.947 57.7799 540.107 57.0399 540.947 55.7199H540.967V57.5999H542.487V50.6999C542.487 50.3599 542.407 49.5199 542.167 48.9399C541.647 47.7599 540.527 46.7399 538.267 46.7399C535.207 46.7399 534.007 49.0799 533.927 49.9799L535.427 50.2999C535.607 49.2799 536.427 48.1199 538.227 48.1199C540.007 48.1199 540.947 48.9999 540.947 50.7199V51.4399ZM540.947 52.7199V53.0999C540.947 55.0599 539.527 56.3999 537.627 56.3999C536.347 56.3999 535.327 55.7199 535.327 54.5199C535.327 53.0799 536.827 52.7199 537.967 52.7199H540.947ZM548.035 53.4399L544.915 57.5999H546.795L549.595 53.7199H552.515V57.5999H554.075V46.9199H549.335C546.415 46.9199 545.315 48.6599 545.315 50.2399C545.315 51.9999 546.495 53.0799 548.035 53.4399ZM549.415 48.2999H552.515V52.3999H549.455C547.635 52.3999 546.855 51.3799 546.855 50.3199C546.855 48.8199 548.175 48.2999 549.415 48.2999ZM26.8108 77.7599V73.9199H25.2708V77.9799C25.2708 80.1599 26.8108 81.1599 28.7908 81.1599C30.0508 81.1599 31.5508 80.6399 32.3108 80.1999V84.5999H33.8708V73.9199H32.3108V78.7799C31.4708 79.3799 30.1708 79.7999 28.9908 79.7999C27.6908 79.7999 26.8108 79.1199 26.8108 77.7599ZM43.8379 78.4399H40.8779C38.9779 78.4399 36.6579 79.1999 36.6579 81.5199V81.6399C36.6579 83.4399 38.0779 84.7799 40.2379 84.7799C41.8379 84.7799 42.9979 84.0399 43.8379 82.7199H43.8579V84.5999H45.3779V77.6999C45.3779 77.3599 45.2979 76.5199 45.0579 75.9399C44.5379 74.7599 43.4179 73.7399 41.1579 73.7399C38.0979 73.7399 36.8979 76.0799 36.8179 76.9799L38.3179 77.2999C38.4979 76.2799 39.3179 75.1199 41.1179 75.1199C42.8979 75.1199 43.8379 75.9999 43.8379 77.7199V78.4399ZM43.8379 79.7199V80.0999C43.8379 82.0599 42.4179 83.3999 40.5179 83.3999C39.2379 83.3999 38.2179 82.7199 38.2179 81.5199C38.2179 80.0799 39.7179 79.7199 40.8579 79.7199H43.8379ZM49.5851 79.1999C49.5851 76.9799 51.1651 75.1199 53.4451 75.1199C55.6651 75.1199 56.7251 76.7799 56.9651 77.5999L58.4051 77.1399C57.9651 75.3399 55.9851 73.7399 53.5051 73.7399C50.4851 73.7399 47.9851 76.0599 47.9851 79.2999C47.9851 82.4999 50.3451 84.7799 53.4251 84.7799C56.2251 84.7799 57.9851 82.9199 58.4651 81.3199L57.0051 80.8399C56.7051 81.6399 55.8051 83.3999 53.4451 83.3999C51.0251 83.3999 49.5851 81.4199 49.5851 79.1999ZM68.7136 75.2999V73.9199H59.5536V75.2999H63.3336V84.5999H64.9136V75.2999H68.7136ZM75.795 77.8199H72.415V73.9199H70.855V84.5999H75.995C78.155 84.5999 80.095 83.4799 80.095 81.0599C80.095 78.6399 77.975 77.8199 75.795 77.8199ZM75.855 83.2199H72.415V79.1599H75.775C77.115 79.1599 78.515 79.5999 78.515 81.0999C78.515 82.7399 77.135 83.2199 75.855 83.2199ZM92.8137 73.9199H87.5737V84.5999H93.0137C94.8937 84.5999 96.8937 83.7799 96.8937 81.6799C96.8937 80.0999 95.7337 79.3799 94.5337 79.0599C95.3337 78.6999 96.3137 78.0599 96.3137 76.5999C96.3137 74.6599 94.5337 73.9199 92.8137 73.9199ZM92.5737 78.5399H89.1337V75.2799H92.6137C93.4537 75.2799 94.7537 75.5199 94.7537 76.7599C94.7537 78.2599 93.3737 78.5399 92.5737 78.5399ZM92.8537 83.2599H89.1337V79.7999H92.6337C93.9537 79.7999 95.3137 80.1199 95.3137 81.4399C95.3137 82.9199 93.8737 83.2599 92.8537 83.2599ZM100.444 79.7399H109.084C109.104 79.5799 109.104 79.3999 109.104 79.2199C109.104 76.0999 107.364 73.7399 104.064 73.7399C101.064 73.7399 98.864 76.3399 98.864 79.2399C98.864 82.3199 101.184 84.7799 104.284 84.7799C106.404 84.7799 108.324 83.6199 108.964 81.5599L107.564 81.1199C107.064 82.6199 105.844 83.3999 104.264 83.3999C102.184 83.3999 100.564 81.8199 100.444 79.7399ZM107.524 78.4199H100.464C100.724 76.6399 102.204 75.0999 104.064 75.0999C106.104 75.0999 107.324 76.4799 107.524 78.4199ZM112.572 77.7599V73.9199H111.032V77.9799C111.032 80.1599 112.572 81.1599 114.552 81.1599C115.812 81.1599 117.312 80.6399 118.072 80.1999V84.5999H119.632V73.9199H118.072V78.7799C117.232 79.3799 115.932 79.7999 114.752 79.7999C113.452 79.7999 112.572 79.1199 112.572 77.7599ZM123.96 79.7399H132.6C132.62 79.5799 132.62 79.3999 132.62 79.2199C132.62 76.0999 130.88 73.7399 127.58 73.7399C124.58 73.7399 122.38 76.3399 122.38 79.2399C122.38 82.3199 124.7 84.7799 127.8 84.7799C129.92 84.7799 131.84 83.6199 132.48 81.5599L131.08 81.1199C130.58 82.6199 129.36 83.3999 127.78 83.3999C125.7 83.3999 124.08 81.8199 123.96 79.7399ZM131.04 78.4199H123.98C124.24 76.6399 125.72 75.0999 127.58 75.0999C129.62 75.0999 130.84 76.4799 131.04 78.4199ZM146.008 79.2399C146.008 76.4599 144.028 73.7399 140.988 73.7399C138.968 73.7399 137.708 74.8999 136.848 76.2399V73.9199H135.308V89.8599H136.868V82.3999C137.728 83.7599 139.008 84.7599 140.988 84.7599C144.028 84.7599 146.008 82.1199 146.008 79.2399ZM140.668 83.3799C138.408 83.3799 136.848 81.4199 136.848 79.2199C136.848 77.0799 138.468 75.1199 140.668 75.1199C143.028 75.1199 144.408 77.0599 144.408 79.2799C144.408 81.5399 143.028 83.3799 140.668 83.3799ZM148.765 84.5999H150.345L156.585 76.1399V84.5999H158.145V73.9199H156.585L150.325 82.4599V73.9199H148.765V84.5999ZM163.255 78.4199V73.9199H161.695V84.5999H163.255V79.7999H169.395V84.5999H170.955V73.9199H169.395V78.4199H163.255ZM176.148 78.6199H176.028V73.9199H174.468V84.5999H176.028V79.6199H176.148L181.588 84.5999H183.768L177.628 79.0999L183.488 73.9199H181.328L176.148 78.6199ZM185.542 84.5999H187.122L193.362 76.1399V84.5999H194.922V73.9199H193.362L187.102 82.4599V73.9199H185.542V84.5999ZM198.212 75.1999C198.212 75.9799 198.852 76.6399 199.652 76.6399C200.452 76.6399 201.092 75.9799 201.092 75.1999C201.092 74.3999 200.452 73.7599 199.652 73.7599C198.852 73.7599 198.212 74.3999 198.212 75.1999ZM198.212 83.3399C198.212 84.1399 198.852 84.7799 199.652 84.7799C200.452 84.7799 201.092 84.1399 201.092 83.3399C201.092 82.5399 200.452 81.8999 199.652 81.8999C198.852 81.8999 198.212 82.5399 198.212 83.3399ZM217.151 75.2999V73.9199H207.991V75.2999H211.771V84.5999H213.351V75.2999H217.151ZM225.518 78.4399H222.558C220.658 78.4399 218.338 79.1999 218.338 81.5199V81.6399C218.338 83.4399 219.758 84.7799 221.918 84.7799C223.518 84.7799 224.678 84.0399 225.518 82.7199H225.538V84.5999H227.058V77.6999C227.058 77.3599 226.978 76.5199 226.738 75.9399C226.218 74.7599 225.098 73.7399 222.838 73.7399C219.778 73.7399 218.578 76.0799 218.498 76.9799L219.998 77.2999C220.178 76.2799 220.998 75.1199 222.798 75.1199C224.578 75.1199 225.518 75.9999 225.518 77.7199V78.4399ZM225.518 79.7199V80.0999C225.518 82.0599 224.098 83.3999 222.198 83.3999C220.918 83.3999 219.898 82.7199 219.898 81.5199C219.898 80.0799 221.398 79.7199 222.538 79.7199H225.518ZM231.985 84.5999V75.5799H232.025L236.225 84.5999H237.245L241.445 75.5399H241.465V84.5999H243.025V73.9199H240.745L236.745 82.5799L232.745 73.9199H230.445V84.5999H231.985ZM253.684 84.5999V75.5799H253.724L257.924 84.5999H258.944L263.144 75.5399H263.164V84.5999H264.724V73.9199H262.444L258.444 82.5799L254.444 73.9199H252.144V84.5999H253.684ZM272.977 84.7799C276.097 84.7799 278.517 82.3799 278.517 79.2199C278.517 76.1599 276.097 73.7399 273.017 73.7399C269.857 73.7399 267.477 76.1399 267.477 79.2999C267.477 82.3399 269.877 84.7799 272.977 84.7799ZM273.017 83.3999C270.677 83.3999 269.077 81.4599 269.077 79.2199C269.077 76.9799 270.657 75.0999 272.977 75.0999C275.297 75.0999 276.917 77.0599 276.917 79.2999C276.917 81.5199 275.297 83.3999 273.017 83.3999ZM294.882 84.5999L289.662 79.0999L294.762 73.9199H292.762L287.902 78.8399H287.742V73.9199H286.202V78.8399H286.042L281.182 73.9199H279.182L284.282 79.0999L279.062 84.5999H281.182L286.042 79.4199H286.202V84.5999H287.742V79.4199H287.902L292.762 84.5999H294.882ZM298.47 78.4199V73.9199H296.91V84.5999H298.47V79.7999H304.61V84.5999H306.17V73.9199H304.61V78.4199H298.47ZM314.403 84.7799C317.523 84.7799 319.943 82.3799 319.943 79.2199C319.943 76.1599 317.523 73.7399 314.443 73.7399C311.283 73.7399 308.903 76.1399 308.903 79.2999C308.903 82.3399 311.303 84.7799 314.403 84.7799ZM314.443 83.3999C312.103 83.3999 310.503 81.4599 310.503 79.2199C310.503 76.9799 312.083 75.0999 314.403 75.0999C316.723 75.0999 318.343 77.0599 318.343 79.2999C318.343 81.5199 316.723 83.3999 314.443 83.3999ZM329.837 75.2999H335.877V84.5999H337.437V73.9199H328.277V84.5999H329.837V75.2999ZM345.673 84.7799C348.793 84.7799 351.213 82.3799 351.213 79.2199C351.213 76.1599 348.793 73.7399 345.713 73.7399C342.553 73.7399 340.173 76.1399 340.173 79.2999C340.173 82.3399 342.573 84.7799 345.673 84.7799ZM345.713 83.3999C343.373 83.3999 341.773 81.4599 341.773 79.2199C341.773 76.9799 343.353 75.0999 345.673 75.0999C347.993 75.0999 349.613 77.0599 349.613 79.2999C349.613 81.5199 347.993 83.3999 345.713 83.3999ZM355.52 75.2999H361.12V73.9199H353.96V84.5999H355.52V75.2999ZM367.548 84.7799C370.668 84.7799 373.088 82.3799 373.088 79.2199C373.088 76.1599 370.668 73.7399 367.588 73.7399C364.428 73.7399 362.048 76.1399 362.048 79.2999C362.048 82.3399 364.448 84.7799 367.548 84.7799ZM367.588 83.3999C365.248 83.3999 363.648 81.4599 363.648 79.2199C363.648 76.9799 365.228 75.0999 367.548 75.0999C369.868 75.0999 371.488 77.0599 371.488 79.2999C371.488 81.5199 369.868 83.3999 367.588 83.3999ZM381.075 73.9199H375.835V84.5999H381.275C383.155 84.5999 385.155 83.7799 385.155 81.6799C385.155 80.0999 383.995 79.3799 382.795 79.0599C383.595 78.6999 384.575 78.0599 384.575 76.5999C384.575 74.6599 382.795 73.9199 381.075 73.9199ZM380.835 78.5399H377.395V75.2799H380.875C381.715 75.2799 383.015 75.5199 383.015 76.7599C383.015 78.2599 381.635 78.5399 380.835 78.5399ZM381.115 83.2599H377.395V79.7999H380.895C382.215 79.7999 383.575 80.1199 383.575 81.4399C383.575 82.9199 382.135 83.2599 381.115 83.2599ZM392.626 84.7799C395.746 84.7799 398.166 82.3799 398.166 79.2199C398.166 76.1599 395.746 73.7399 392.666 73.7399C389.506 73.7399 387.126 76.1399 387.126 79.2999C387.126 82.3399 389.526 84.7799 392.626 84.7799ZM392.666 83.3999C390.326 83.3999 388.726 81.4599 388.726 79.2199C388.726 76.9799 390.306 75.0999 392.626 75.0999C394.946 75.0999 396.566 77.0599 396.566 79.2999C396.566 81.5199 394.946 83.3999 392.666 83.3999ZM411.614 79.2399C411.614 76.4599 409.634 73.7399 406.594 73.7399C404.574 73.7399 403.314 74.8999 402.454 76.2399V73.9199H400.914V89.8599H402.474V82.3999C403.334 83.7599 404.614 84.7599 406.594 84.7599C409.634 84.7599 411.614 82.1199 411.614 79.2399ZM406.274 83.3799C404.014 83.3799 402.454 81.4199 402.454 79.2199C402.454 77.0799 404.074 75.1199 406.274 75.1199C408.634 75.1199 410.014 77.0599 410.014 79.2799C410.014 81.5399 408.634 83.3799 406.274 83.3799ZM414.371 84.5999H415.951L422.191 76.1399V84.5999H423.751V73.9199H422.191L415.931 82.4599V73.9199H414.371V84.5999ZM435.1 75.2999V73.9199H425.94V75.2999H429.72V84.5999H431.3V75.2999H435.1ZM442.182 77.8199H438.802V73.9199H437.242V84.5999H442.382C444.542 84.5999 446.482 83.4799 446.482 81.0599C446.482 78.6399 444.362 77.8199 442.182 77.8199ZM442.242 83.2199H438.802V79.1599H442.162C443.502 79.1599 444.902 79.5999 444.902 81.0999C444.902 82.7399 443.522 83.2199 442.242 83.2199ZM455.52 75.2999H461.56V84.5999H463.12V73.9199H453.96V84.5999H455.52V75.2999ZM471.356 84.7799C474.476 84.7799 476.896 82.3799 476.896 79.2199C476.896 76.1599 474.476 73.7399 471.396 73.7399C468.236 73.7399 465.856 76.1399 465.856 79.2999C465.856 82.3399 468.256 84.7799 471.356 84.7799ZM471.396 83.3999C469.056 83.3999 467.456 81.4599 467.456 79.2199C467.456 76.9799 469.036 75.0999 471.356 75.0999C473.676 75.0999 475.296 77.0599 475.296 79.2999C475.296 81.5199 473.676 83.3999 471.396 83.3999ZM484.09 83.2599H484.05V87.8999H485.57V84.5999H494.23V87.8999H495.73V83.2199H494.49V73.9199H486.99L486.43 78.7999C486.17 81.1399 485.61 83.2599 484.09 83.2599ZM487.97 78.9199L488.37 75.2999H492.93V83.2199H486.43C487.45 82.3999 487.81 80.2799 487.97 78.9199ZM507.822 73.9199H506.142L502.442 82.1799L498.522 73.9199H496.722L501.582 83.8799L498.822 89.8599H500.502L507.822 73.9199ZM511.497 73.9199H509.937V84.5999H524.797V73.9199H523.217V83.2199H518.137V73.9199H516.577V83.2199H511.497V73.9199ZM534.756 78.4399H531.796C529.896 78.4399 527.576 79.1999 527.576 81.5199V81.6399C527.576 83.4399 528.996 84.7799 531.156 84.7799C532.756 84.7799 533.916 84.0399 534.756 82.7199H534.776V84.5999H536.296V77.6999C536.296 77.3599 536.216 76.5199 535.976 75.9399C535.456 74.7599 534.336 73.7399 532.076 73.7399C529.016 73.7399 527.816 76.0799 527.736 76.9799L529.236 77.2999C529.416 76.2799 530.236 75.1199 532.036 75.1199C533.816 75.1199 534.756 75.9999 534.756 77.7199V78.4399ZM534.756 79.7199V80.0999C534.756 82.0599 533.336 83.3999 531.436 83.3999C530.156 83.3999 529.136 82.7199 529.136 81.5199C529.136 80.0799 530.636 79.7199 531.776 79.7199H534.756ZM541.223 84.5999V75.5799H541.263L545.463 84.5999H546.483L550.683 75.5399H550.703V84.5999H552.263V73.9199H549.983L545.983 82.5799L541.983 73.9199H539.683V84.5999H541.223ZM556.236 87.6599C557.636 86.6599 558.376 85.3399 558.376 83.9399V83.8599C558.376 82.6599 557.716 81.8999 556.796 81.8999C556.036 81.8999 555.396 82.4999 555.396 83.3199C555.396 84.1199 555.956 84.6399 556.716 84.6399C556.876 84.6399 557.056 84.5999 557.196 84.5399C557.056 85.4599 556.356 86.2599 555.456 86.9399L556.236 87.6599ZM32.4708 105.44H29.5108C27.6108 105.44 25.2908 106.2 25.2908 108.52V108.64C25.2908 110.44 26.7108 111.78 28.8708 111.78C30.4708 111.78 31.6308 111.04 32.4708 109.72H32.4908V111.6H34.0108V104.7C34.0108 104.36 33.9308 103.52 33.6908 102.94C33.1708 101.76 32.0508 100.74 29.7908 100.74C26.7308 100.74 25.5308 103.08 25.4508 103.98L26.9508 104.3C27.1308 103.28 27.9508 102.12 29.7508 102.12C31.5308 102.12 32.4708 103 32.4708 104.72V105.44ZM32.4708 106.72V107.1C32.4708 109.06 31.0508 110.4 29.1508 110.4C27.8708 110.4 26.8508 109.72 26.8508 108.52C26.8508 107.08 28.3508 106.72 29.4908 106.72H32.4708ZM44.0639 103.34H44.0439C44.2439 101 44.6239 99.0999 48.9639 97.9599L52.8039 96.9599L52.3839 95.6599L48.3439 96.6599C42.7639 98.0799 42.6239 101.68 42.6239 105.38C42.6239 109.86 44.9639 111.78 47.9439 111.78C51.0639 111.78 53.3239 109.58 53.3239 106.16C53.3239 102.82 50.9439 100.8 48.3039 100.8C47.0439 100.8 45.1439 101.18 44.0639 103.34ZM44.2239 106.24C44.2239 103.68 45.8039 102.14 47.9839 102.14C50.1239 102.14 51.7639 103.7 51.7639 106.24C51.7639 108.68 50.2039 110.42 47.9639 110.42C45.7439 110.42 44.2239 108.7 44.2239 106.24ZM58.3345 107.44L58.9145 102.3H63.4545V111.6H65.0145V100.92H57.5145L56.7945 107.18C56.6545 108.4 56.1345 110.28 54.5945 110.28V111.64L54.6545 111.66C57.0145 111.78 58.0945 109.48 58.3345 107.44ZM68.5308 111.6H70.1108L76.3508 103.14V111.6H77.9108V100.92H76.3508L70.0908 109.46V100.92H68.5308V111.6ZM84.6004 111.78C86.9404 111.78 88.5404 110.42 88.5404 108.66C88.5404 107.4 87.8804 106.54 86.6604 106.12C87.8604 105.56 88.3404 104.68 88.3404 103.68C88.3404 102.04 86.7204 100.72 84.5204 100.72C82.4404 100.72 80.9604 102 80.5804 103.72L81.9804 104.1C82.4004 102.74 83.2804 102.1 84.5204 102.1C86.0004 102.1 86.7804 102.98 86.7804 103.8C86.7804 104.82 86.0604 105.5 84.6004 105.5H82.9804V106.84H84.6404C86.2404 106.84 86.9604 107.54 86.9604 108.6C86.9604 109.54 86.0604 110.4 84.6004 110.4C82.8804 110.4 82.1804 109.24 81.9404 108.28L80.5004 108.62C80.7004 109.82 81.6604 111.78 84.6004 111.78ZM96.0633 111.78C99.1833 111.78 101.603 109.38 101.603 106.22C101.603 103.16 99.1833 100.74 96.1033 100.74C92.9433 100.74 90.5633 103.14 90.5633 106.3C90.5633 109.34 92.9633 111.78 96.0633 111.78ZM96.1033 110.4C93.7633 110.4 92.1633 108.46 92.1633 106.22C92.1633 103.98 93.7433 102.1 96.0633 102.1C98.3833 102.1 100.003 104.06 100.003 106.3C100.003 108.52 98.3833 110.4 96.1033 110.4ZM105.171 106.2C105.171 103.98 106.751 102.12 109.031 102.12C111.251 102.12 112.311 103.78 112.551 104.6L113.991 104.14C113.551 102.34 111.571 100.74 109.091 100.74C106.071 100.74 103.571 103.06 103.571 106.3C103.571 109.5 105.931 111.78 109.011 111.78C111.811 111.78 113.571 109.92 114.051 108.32L112.591 107.84C112.291 108.64 111.391 110.4 109.031 110.4C106.611 110.4 105.171 108.42 105.171 106.2ZM124.3 102.3V100.92H115.14V102.3H118.92V111.6H120.5V102.3H124.3ZM131.381 104.82H128.001V100.92H126.441V111.6H131.581C133.741 111.6 135.681 110.48 135.681 108.06C135.681 105.64 133.561 104.82 131.381 104.82ZM131.441 110.22H128.001V106.16H131.361C132.701 106.16 134.101 106.6 134.101 108.1C134.101 109.74 132.721 110.22 131.441 110.22ZM146.92 105.06L143.76 100.92H141.92L145.98 106.18L141.78 111.6H143.58L146.9 107.26L150.2 111.6H152.06L147.84 106.16L151.88 100.92H150.08L146.92 105.06ZM158.368 111.78C161.488 111.78 163.908 109.38 163.908 106.22C163.908 103.16 161.488 100.74 158.408 100.74C155.248 100.74 152.868 103.14 152.868 106.3C152.868 109.34 155.268 111.78 158.368 111.78ZM158.408 110.4C156.068 110.4 154.468 108.46 154.468 106.22C154.468 103.98 156.048 102.1 158.368 102.1C160.688 102.1 162.308 104.06 162.308 106.3C162.308 108.52 160.688 110.4 158.408 110.4ZM168.881 107.44L169.461 102.3H174.001V111.6H175.561V100.92H168.061L167.341 107.18C167.201 108.4 166.681 110.28 165.141 110.28V111.64L165.201 111.66C167.561 111.78 168.641 109.48 168.881 107.44ZM183.798 111.78C186.918 111.78 189.338 109.38 189.338 106.22C189.338 103.16 186.918 100.74 183.838 100.74C180.678 100.74 178.298 103.14 178.298 106.3C178.298 109.34 180.698 111.78 183.798 111.78ZM183.838 110.4C181.498 110.4 179.898 108.46 179.898 106.22C179.898 103.98 181.478 102.1 183.798 102.1C186.118 102.1 187.738 104.06 187.738 106.3C187.738 108.52 186.118 110.4 183.838 110.4ZM190.574 110.26H190.534V114.9H192.054V111.6H200.714V114.9H202.214V110.22H200.974V100.92H193.474L192.914 105.8C192.654 108.14 192.094 110.26 190.574 110.26ZM194.454 105.92L194.854 102.3H199.414V110.22H192.914C193.934 109.4 194.294 107.28 194.454 105.92ZM204.976 111.6H206.556L212.796 103.14V111.6H214.356V100.92H212.796L206.536 109.46V100.92H204.976V111.6ZM220.366 107.44L220.946 102.3H225.486V111.6H227.046V100.92H219.546L218.826 107.18C218.686 108.4 218.166 110.28 216.626 110.28V111.64L216.686 111.66C219.046 111.78 220.126 109.48 220.366 107.44ZM235.502 104.82H232.122V100.92H230.562V111.6H235.702C237.862 111.6 239.802 110.48 239.802 108.06C239.802 105.64 237.682 104.82 235.502 104.82ZM235.562 110.22H232.122V106.16H235.482C236.822 106.16 238.222 106.6 238.222 108.1C238.222 109.74 236.842 110.22 235.562 110.22ZM243.782 105.42V100.92H242.222V111.6H243.782V106.8H249.922V111.6H251.482V100.92H249.922V105.42H243.782ZM254.996 111.6H256.576L262.816 103.14V111.6H264.376V100.92H262.816L256.556 109.46V100.92H254.996V111.6ZM269.605 105.62H269.485V100.92H267.925V111.6H269.485V106.62H269.605L275.045 111.6H277.225L271.085 106.1L276.945 100.92H274.785L269.605 105.62ZM285.186 105.44H282.226C280.326 105.44 278.006 106.2 278.006 108.52V108.64C278.006 110.44 279.426 111.78 281.586 111.78C283.186 111.78 284.346 111.04 285.186 109.72H285.206V111.6H286.726V104.7C286.726 104.36 286.646 103.52 286.406 102.94C285.886 101.76 284.766 100.74 282.506 100.74C279.446 100.74 278.246 103.08 278.166 103.98L279.666 104.3C279.846 103.28 280.666 102.12 282.466 102.12C284.246 102.12 285.186 103 285.186 104.72V105.44ZM285.186 106.72V107.1C285.186 109.06 283.766 110.4 281.866 110.4C280.586 110.4 279.566 109.72 279.566 108.52C279.566 107.08 281.066 106.72 282.206 106.72H285.186ZM294.559 110.26H294.519V114.9H296.039V111.6H304.699V114.9H306.199V110.22H304.959V100.92H297.459L296.899 105.8C296.639 108.14 296.079 110.26 294.559 110.26ZM298.439 105.92L298.839 102.3H303.399V110.22H296.899C297.919 109.4 298.279 107.28 298.439 105.92ZM309.546 106.74H318.186C318.206 106.58 318.206 106.4 318.206 106.22C318.206 103.1 316.466 100.74 313.166 100.74C310.166 100.74 307.966 103.34 307.966 106.24C307.966 109.32 310.286 111.78 313.386 111.78C315.506 111.78 317.426 110.62 318.066 108.56L316.666 108.12C316.166 109.62 314.946 110.4 313.366 110.4C311.286 110.4 309.666 108.82 309.546 106.74ZM316.626 105.42H309.566C309.826 103.64 311.306 102.1 313.166 102.1C315.206 102.1 316.426 103.48 316.626 105.42ZM323.217 107.44L323.797 102.3H328.337V111.6H329.897V100.92H322.397L321.677 107.18C321.537 108.4 321.017 110.28 319.477 110.28V111.64L319.537 111.66C321.897 111.78 322.977 109.48 323.217 107.44ZM339.854 105.44H336.894C334.994 105.44 332.674 106.2 332.674 108.52V108.64C332.674 110.44 334.094 111.78 336.254 111.78C337.854 111.78 339.014 111.04 339.854 109.72H339.874V111.6H341.394V104.7C341.394 104.36 341.314 103.52 341.074 102.94C340.554 101.76 339.434 100.74 337.174 100.74C334.114 100.74 332.914 103.08 332.834 103.98L334.334 104.3C334.514 103.28 335.334 102.12 337.134 102.12C338.914 102.12 339.854 103 339.854 104.72V105.44ZM339.854 106.72V107.1C339.854 109.06 338.434 110.4 336.534 110.4C335.254 110.4 334.234 109.72 334.234 108.52C334.234 107.08 335.734 106.72 336.874 106.72H339.854ZM345.581 106.74H354.221C354.241 106.58 354.241 106.4 354.241 106.22C354.241 103.1 352.501 100.74 349.201 100.74C346.201 100.74 344.001 103.34 344.001 106.24C344.001 109.32 346.321 111.78 349.421 111.78C351.541 111.78 353.461 110.62 354.101 108.56L352.701 108.12C352.201 109.62 350.981 110.4 349.401 110.4C347.321 110.4 345.701 108.82 345.581 106.74ZM352.661 105.42H345.601C345.861 103.64 347.341 102.1 349.201 102.1C351.241 102.1 352.461 103.48 352.661 105.42ZM364.514 102.3V100.92H355.354V102.3H359.134V111.6H360.714V102.3H364.514ZM375.816 100.74C373.376 100.74 371.216 102.34 370.776 104.12L372.156 104.58C372.396 103.74 373.496 102.1 375.776 102.1C377.736 102.1 379.216 103.52 379.536 105.4H374.516V106.76H379.596C379.396 108.78 378.016 110.42 375.776 110.42C373.416 110.42 372.416 108.66 372.116 107.86L370.716 108.32C371.176 109.92 372.856 111.78 375.736 111.78C378.876 111.78 381.176 109.44 381.176 106.2C381.176 102.98 378.776 100.74 375.816 100.74ZM391.37 102.3V100.92H382.21V102.3H385.99V111.6H387.57V102.3H391.37ZM403.271 100.92H401.591L397.891 109.18L393.971 100.92H392.171L397.031 110.88L394.271 116.86H395.951L403.271 100.92ZM413.042 107.44L413.622 102.3H418.162V111.6H419.722V100.92H412.222L411.502 107.18C411.362 108.4 410.842 110.28 409.302 110.28V111.64L409.362 111.66C411.722 111.78 412.802 109.48 413.042 107.44ZM427.958 111.78C431.078 111.78 433.498 109.38 433.498 106.22C433.498 103.16 431.078 100.74 427.998 100.74C424.838 100.74 422.458 103.14 422.458 106.3C422.458 109.34 424.858 111.78 427.958 111.78ZM427.998 110.4C425.658 110.4 424.058 108.46 424.058 106.22C424.058 103.98 425.638 102.1 427.958 102.1C430.278 102.1 431.898 104.06 431.898 106.3C431.898 108.52 430.278 110.4 427.998 110.4ZM437.926 105.62H437.806V100.92H436.246V111.6H437.806V106.62H437.926L443.366 111.6H445.546L439.406 106.1L445.266 100.92H443.106L437.926 105.62ZM453.506 105.44H450.546C448.646 105.44 446.326 106.2 446.326 108.52V108.64C446.326 110.44 447.746 111.78 449.906 111.78C451.506 111.78 452.666 111.04 453.506 109.72H453.526V111.6H455.046V104.7C455.046 104.36 454.966 103.52 454.726 102.94C454.206 101.76 453.086 100.74 450.826 100.74C447.766 100.74 446.566 103.08 446.486 103.98L447.986 104.3C448.166 103.28 448.986 102.12 450.786 102.12C452.566 102.12 453.506 103 453.506 104.72V105.44ZM453.506 106.72V107.1C453.506 109.06 452.086 110.4 450.186 110.4C448.906 110.4 447.886 109.72 447.886 108.52C447.886 107.08 449.386 106.72 450.526 106.72H453.506ZM459.993 100.92H458.433V111.6H467.253V114.9H468.753V110.22H467.513V100.92H465.953V110.22H459.993V100.92ZM471.519 111.6H473.099L479.339 103.14V111.6H480.899V100.92H479.339L473.079 109.46V100.92H471.519V111.6ZM493.629 100.74C490.789 100.74 488.649 102.82 488.349 105.58H486.009V100.92H484.449V111.6H486.009V106.9H488.329C488.609 109.7 490.769 111.78 493.609 111.78C496.689 111.78 498.969 109.36 498.969 106.28C498.969 103.1 496.709 100.74 493.629 100.74ZM493.629 110.4C491.429 110.4 489.889 108.5 489.889 106.28C489.889 104.08 491.309 102.08 493.609 102.08C495.869 102.08 497.349 104.02 497.349 106.3C497.349 108.52 495.889 110.4 493.629 110.4ZM26.8508 133.2C26.8508 130.98 28.4308 129.12 30.7108 129.12C32.9308 129.12 33.9908 130.78 34.2308 131.6L35.6708 131.14C35.2308 129.34 33.2508 127.74 30.7708 127.74C27.7508 127.74 25.2508 130.06 25.2508 133.3C25.2508 136.5 27.6108 138.78 30.6908 138.78C33.4908 138.78 35.2508 136.92 35.7308 135.32L34.2708 134.84C33.9708 135.64 33.0708 137.4 30.7108 137.4C28.2908 137.4 26.8508 135.42 26.8508 133.2ZM43.0554 138.78C46.1754 138.78 48.5954 136.38 48.5954 133.22C48.5954 130.16 46.1754 127.74 43.0954 127.74C39.9354 127.74 37.5554 130.14 37.5554 133.3C37.5554 136.34 39.9554 138.78 43.0554 138.78ZM43.0954 137.4C40.7554 137.4 39.1554 135.46 39.1554 133.22C39.1554 130.98 40.7354 129.1 43.0554 129.1C45.3754 129.1 46.9954 131.06 46.9954 133.3C46.9954 135.52 45.3754 137.4 43.0954 137.4ZM56.5833 127.92H51.3433V138.6H56.7833C58.6633 138.6 60.6633 137.78 60.6633 135.68C60.6633 134.1 59.5033 133.38 58.3033 133.06C59.1033 132.7 60.0833 132.06 60.0833 130.6C60.0833 128.66 58.3033 127.92 56.5833 127.92ZM56.3433 132.54H52.9033V129.28H56.3833C57.2233 129.28 58.5233 129.52 58.5233 130.76C58.5233 132.26 57.1433 132.54 56.3433 132.54ZM56.6233 137.26H52.9033V133.8H56.4033C57.7233 133.8 59.0833 134.12 59.0833 135.44C59.0833 136.92 57.6433 137.26 56.6233 137.26ZM64.2136 133.74H72.8536C72.8736 133.58 72.8736 133.4 72.8736 133.22C72.8736 130.1 71.1336 127.74 67.8336 127.74C64.8336 127.74 62.6336 130.34 62.6336 133.24C62.6336 136.32 64.9536 138.78 68.0536 138.78C70.1736 138.78 72.0936 137.62 72.7336 135.56L71.3336 135.12C70.8336 136.62 69.6136 137.4 68.0336 137.4C65.9536 137.4 64.3336 135.82 64.2136 133.74ZM71.2936 132.42H64.2336C64.4936 130.64 65.9736 129.1 67.8336 129.1C69.8736 129.1 71.0936 130.48 71.2936 132.42ZM86.262 133.24C86.262 130.46 84.282 127.74 81.242 127.74C79.222 127.74 77.962 128.9 77.102 130.24V127.92H75.562V143.86H77.122V136.4C77.982 137.76 79.262 138.76 81.242 138.76C84.282 138.76 86.262 136.12 86.262 133.24ZM80.922 137.38C78.662 137.38 77.102 135.42 77.102 133.22C77.102 131.08 78.722 129.12 80.922 129.12C83.282 129.12 84.662 131.06 84.662 133.28C84.662 135.54 83.282 137.38 80.922 137.38ZM90.579 127.92H89.019V138.6H103.879V127.92H102.299V137.22H97.219V127.92H95.659V137.22H90.579V127.92ZM108.198 133.74H116.838C116.858 133.58 116.858 133.4 116.858 133.22C116.858 130.1 115.118 127.74 111.818 127.74C108.818 127.74 106.618 130.34 106.618 133.24C106.618 136.32 108.938 138.78 112.038 138.78C114.158 138.78 116.078 137.62 116.718 135.56L115.318 135.12C114.818 136.62 113.598 137.4 112.018 137.4C109.938 137.4 108.318 135.82 108.198 133.74ZM115.278 132.42H108.218C108.478 130.64 109.958 129.1 111.818 129.1C113.858 129.1 115.078 130.48 115.278 132.42ZM121.106 132.42V127.92H119.546V138.6H121.106V133.8H127.246V138.6H128.806V127.92H127.246V132.42H121.106ZM133.88 132.42V127.92H132.32V138.6H133.88V133.8H140.02V138.6H141.58V127.92H140.02V132.42H133.88ZM149.813 138.78C152.933 138.78 155.353 136.38 155.353 133.22C155.353 130.16 152.933 127.74 149.853 127.74C146.693 127.74 144.313 130.14 144.313 133.3C144.313 136.34 146.713 138.78 149.813 138.78ZM149.853 137.4C147.513 137.4 145.913 135.46 145.913 133.22C145.913 130.98 147.493 129.1 149.813 129.1C152.133 129.1 153.753 131.06 153.753 133.3C153.753 135.52 152.133 137.4 149.853 137.4ZM162.801 126.14C164.461 126.14 165.721 124.96 166.041 123.28L164.921 123.08C164.621 124.12 164.001 124.88 162.801 124.88C161.601 124.88 160.961 124.12 160.661 123.08L159.561 123.28C159.861 124.96 161.121 126.14 162.801 126.14ZM158.101 138.6H159.681L165.921 130.14V138.6H167.481V127.92H165.901L159.661 136.46V127.92H158.101V138.6ZM170.631 137.34C170.631 138.14 171.271 138.78 172.071 138.78C172.851 138.78 173.491 138.14 173.491 137.34C173.491 136.54 172.851 135.9 172.071 135.9C171.271 135.9 170.631 136.54 170.631 137.34ZM195.915 130.72C195.915 126.26 192.555 122.78 188.075 122.78C183.535 122.78 180.175 126.32 180.175 130.82C180.175 135.28 183.535 138.76 188.015 138.76C192.555 138.76 195.915 135.22 195.915 130.72ZM194.215 130.82C194.215 134.32 191.675 137.22 188.075 137.22C184.435 137.22 181.875 134.26 181.875 130.72C181.875 127.22 184.415 124.32 188.015 124.32C191.655 124.32 194.215 127.3 194.215 130.82ZM197.176 137.26H197.136V141.9H198.656V138.6H207.316V141.9H208.816V137.22H207.576V127.92H200.076L199.516 132.8C199.256 135.14 198.696 137.26 197.176 137.26ZM201.056 132.92L201.456 129.3H206.016V137.22H199.516C200.536 136.4 200.896 134.28 201.056 132.92ZM213.138 132.42V127.92H211.578V138.6H213.138V133.8H219.278V138.6H220.838V127.92H219.278V132.42H213.138ZM230.791 132.44H227.831C225.931 132.44 223.611 133.2 223.611 135.52V135.64C223.611 137.44 225.031 138.78 227.191 138.78C228.791 138.78 229.951 138.04 230.791 136.72H230.811V138.6H232.331V131.7C232.331 131.36 232.251 130.52 232.011 129.94C231.491 128.76 230.371 127.74 228.111 127.74C225.051 127.74 223.851 130.08 223.771 130.98L225.271 131.3C225.451 130.28 226.271 129.12 228.071 129.12C229.851 129.12 230.791 130 230.791 131.72V132.44ZM230.791 133.72V134.1C230.791 136.06 229.371 137.4 227.471 137.4C226.191 137.4 225.171 136.72 225.171 135.52C225.171 134.08 226.671 133.72 227.811 133.72H230.791ZM237.398 132.62H237.278V127.92H235.718V138.6H237.278V133.62H237.398L242.838 138.6H245.018L238.878 133.1L244.738 127.92H242.578L237.398 132.62ZM250.751 138.78C253.871 138.78 256.291 136.38 256.291 133.22C256.291 130.16 253.871 127.74 250.791 127.74C247.631 127.74 245.251 130.14 245.251 133.3C245.251 136.34 247.651 138.78 250.751 138.78ZM250.791 137.4C248.451 137.4 246.851 135.46 246.851 133.22C246.851 130.98 248.431 129.1 250.751 129.1C253.071 129.1 254.691 131.06 254.691 133.3C254.691 135.52 253.071 137.4 250.791 137.4ZM264.625 138.6H266.205L272.445 130.14V138.6H274.005V127.92H272.445L266.185 136.46V127.92H264.625V138.6ZM290.354 129.3V127.92H281.194V129.3H284.974V138.6H286.554V129.3H290.354ZM302.256 127.92H300.576L296.876 136.18L292.956 127.92H291.156L296.016 137.88L293.256 143.86H294.936L302.256 127.92ZM312.171 129.3V127.92H303.011V129.3H306.791V138.6H308.371V129.3H312.171ZM320.112 133.74H328.752C328.772 133.58 328.772 133.4 328.772 133.22C328.772 130.1 327.032 127.74 323.732 127.74C320.732 127.74 318.532 130.34 318.532 133.24C318.532 136.32 320.852 138.78 323.952 138.78C326.072 138.78 327.992 137.62 328.632 135.56L327.232 135.12C326.732 136.62 325.512 137.4 323.932 137.4C321.852 137.4 320.232 135.82 320.112 133.74ZM327.192 132.42H320.132C320.392 130.64 321.872 129.1 323.732 129.1C325.772 129.1 326.992 130.48 327.192 132.42ZM332.28 133.2C332.28 130.98 333.86 129.12 336.14 129.12C338.36 129.12 339.42 130.78 339.66 131.6L341.1 131.14C340.66 129.34 338.68 127.74 336.2 127.74C333.18 127.74 330.68 130.06 330.68 133.3C330.68 136.5 333.04 138.78 336.12 138.78C338.92 138.78 340.68 136.92 341.16 135.32L339.7 134.84C339.4 135.64 338.5 137.4 336.14 137.4C333.72 137.4 332.28 135.42 332.28 133.2ZM351.409 129.3V127.92H342.249V129.3H346.029V138.6H347.609V129.3H351.409ZM358.49 131.82H355.11V127.92H353.55V138.6H358.69C360.85 138.6 362.79 137.48 362.79 135.06C362.79 132.64 360.67 131.82 358.49 131.82ZM358.55 137.22H355.11V133.16H358.47C359.81 133.16 361.21 133.6 361.21 135.1C361.21 136.74 359.83 137.22 358.55 137.22ZM371.829 132.42V127.92H370.269V138.6H371.829V133.8H377.969V138.6H379.529V127.92H377.969V132.42H371.829ZM389.482 132.44H386.522C384.622 132.44 382.302 133.2 382.302 135.52V135.64C382.302 137.44 383.722 138.78 385.882 138.78C387.482 138.78 388.642 138.04 389.482 136.72H389.502V138.6H391.022V131.7C391.022 131.36 390.942 130.52 390.702 129.94C390.182 128.76 389.062 127.74 386.802 127.74C383.742 127.74 382.542 130.08 382.462 130.98L383.962 131.3C384.142 130.28 384.962 129.12 386.762 129.12C388.542 129.12 389.482 130 389.482 131.72V132.44ZM389.482 133.72V134.1C389.482 136.06 388.062 137.4 386.162 137.4C384.882 137.4 383.862 136.72 383.862 135.52C383.862 134.08 385.362 133.72 386.502 133.72H389.482ZM393.27 137.26H393.23V141.9H394.75V138.6H403.41V141.9H404.91V137.22H403.67V127.92H396.17L395.61 132.8C395.35 135.14 394.79 137.26 393.27 137.26ZM397.15 132.92L397.55 129.3H402.11V137.22H395.61C396.63 136.4 396.99 134.28 397.15 132.92ZM413.569 131.76V127.92H412.029V131.98C412.029 134.16 413.569 135.16 415.549 135.16C416.809 135.16 418.309 134.64 419.069 134.2V138.6H420.629V127.92H419.069V132.78C418.229 133.38 416.929 133.8 415.749 133.8C414.449 133.8 413.569 133.12 413.569 131.76ZM424.956 133.74H433.596C433.616 133.58 433.616 133.4 433.616 133.22C433.616 130.1 431.876 127.74 428.576 127.74C425.576 127.74 423.376 130.34 423.376 133.24C423.376 136.32 425.696 138.78 428.796 138.78C430.916 138.78 432.836 137.62 433.476 135.56L432.076 135.12C431.576 136.62 430.356 137.4 428.776 137.4C426.696 137.4 425.076 135.82 424.956 133.74ZM432.036 132.42H424.976C425.236 130.64 426.716 129.1 428.576 129.1C430.616 129.1 431.836 130.48 432.036 132.42ZM437.844 138.6V129.58H437.884L442.084 138.6H443.104L447.304 129.54H447.324V138.6H448.884V127.92H446.604L442.604 136.58L438.604 127.92H436.304V138.6H437.844ZM459.563 129.3H465.603V138.6H467.163V127.92H458.003V138.6H459.563V129.3ZM475.399 138.78C478.519 138.78 480.939 136.38 480.939 133.22C480.939 130.16 478.519 127.74 475.439 127.74C472.279 127.74 469.899 130.14 469.899 133.3C469.899 136.34 472.299 138.78 475.399 138.78ZM475.439 137.4C473.099 137.4 471.499 135.46 471.499 133.22C471.499 130.98 473.079 129.1 475.399 129.1C477.719 129.1 479.339 131.06 479.339 133.3C479.339 135.52 477.719 137.4 475.439 137.4ZM494.387 133.24C494.387 130.46 492.407 127.74 489.367 127.74C487.347 127.74 486.087 128.9 485.227 130.24V127.92H483.687V143.86H485.247V136.4C486.107 137.76 487.387 138.76 489.367 138.76C492.407 138.76 494.387 136.12 494.387 133.24ZM489.047 137.38C486.787 137.38 485.227 135.42 485.227 133.22C485.227 131.08 486.847 129.12 489.047 129.12C491.407 129.12 492.787 131.06 492.787 133.28C492.787 135.54 491.407 137.38 489.047 137.38ZM503.584 132.44H500.624C498.724 132.44 496.404 133.2 496.404 135.52V135.64C496.404 137.44 497.824 138.78 499.984 138.78C501.584 138.78 502.744 138.04 503.584 136.72H503.604V138.6H505.124V131.7C505.124 131.36 505.044 130.52 504.804 129.94C504.284 128.76 503.164 127.74 500.904 127.74C497.844 127.74 496.644 130.08 496.564 130.98L498.064 131.3C498.244 130.28 499.064 129.12 500.864 129.12C502.644 129.12 503.584 130 503.584 131.72V132.44ZM503.584 133.72V134.1C503.584 136.06 502.164 137.4 500.264 137.4C498.984 137.4 497.964 136.72 497.964 135.52C497.964 134.08 499.464 133.72 500.604 133.72H503.584ZM509.591 130.34H509.571C509.771 128 510.151 126.1 514.491 124.96L518.331 123.96L517.911 122.66L513.871 123.66C508.291 125.08 508.151 128.68 508.151 132.38C508.151 136.86 510.491 138.78 513.471 138.78C516.591 138.78 518.851 136.58 518.851 133.16C518.851 129.82 516.471 127.8 513.831 127.8C512.571 127.8 510.671 128.18 509.591 130.34ZM509.751 133.24C509.751 130.68 511.331 129.14 513.511 129.14C515.651 129.14 517.291 130.7 517.291 133.24C517.291 135.68 515.731 137.42 513.491 137.42C511.271 137.42 509.751 135.7 509.751 133.24ZM526.356 138.78C529.476 138.78 531.896 136.38 531.896 133.22C531.896 130.16 529.476 127.74 526.396 127.74C523.236 127.74 520.856 130.14 520.856 133.3C520.856 136.34 523.256 138.78 526.356 138.78ZM526.396 137.4C524.056 137.4 522.456 135.46 522.456 133.22C522.456 130.98 524.036 129.1 526.356 129.1C528.676 129.1 530.296 131.06 530.296 133.3C530.296 135.52 528.676 137.4 526.396 137.4ZM542.073 129.3V127.92H532.913V129.3H536.693V138.6H538.273V129.3H542.073ZM550.44 132.44H547.48C545.58 132.44 543.26 133.2 543.26 135.52V135.64C543.26 137.44 544.68 138.78 546.84 138.78C548.44 138.78 549.6 138.04 550.44 136.72H550.46V138.6H551.98V131.7C551.98 131.36 551.9 130.52 551.66 129.94C551.14 128.76 550.02 127.74 547.76 127.74C544.7 127.74 543.5 130.08 543.42 130.98L544.92 131.3C545.1 130.28 545.92 129.12 547.72 129.12C549.5 129.12 550.44 130 550.44 131.72V132.44ZM550.44 133.72V134.1C550.44 136.06 549.02 137.4 547.12 137.4C545.84 137.4 544.82 136.72 544.82 135.52C544.82 134.08 546.32 133.72 547.46 133.72H550.44ZM562.971 129.3V127.92H553.811V129.3H557.591V138.6H559.171V129.3H562.971ZM570.053 131.82H566.673V127.92H565.113V138.6H570.253C572.413 138.6 574.353 137.48 574.353 135.06C574.353 132.64 572.233 131.82 570.053 131.82ZM570.113 137.22H566.673V133.16H570.033C571.373 133.16 572.773 133.6 572.773 135.1C572.773 136.74 571.393 137.22 570.113 137.22ZM577.053 125.68L577.133 134.06H578.593L578.693 125.68V122.94H577.053V125.68ZM576.693 137.6C576.693 138.26 577.213 138.78 577.873 138.78C578.513 138.78 579.053 138.26 579.053 137.6C579.053 136.96 578.513 136.44 577.873 136.44C577.213 136.44 576.693 136.96 576.693 137.6Z" fill="black"/>
</svg>
