<svg width="441" height="142" viewBox="0 0 441 142" fill="none" xmlns="http://www.w3.org/2000/svg">
<path d="M1.13208 9.18779C1.13208 8.12382 2.57312 7.79584 3.03358 8.75502L3.24721 9.20003C6.40943 15.7872 13.0689 19.9773 20.3758 19.9773H436.746C438.402 19.9773 439.746 21.3205 439.746 22.9773V137.081C439.746 138.738 438.402 140.081 436.746 140.081H4.13209C2.47523 140.081 1.13208 138.738 1.13208 137.081V35.7773V9.18779Z" fill="#6AD1CB" stroke="black" stroke-width="2"/>
<path d="M35.4308 43.839V42.319H26.4508V57.979H28.0908V43.839H35.4308ZM37.1626 53.819L37.7426 48.679H42.2826V57.979H43.8426V47.299H36.3426L35.6226 53.559C35.4826 54.779 34.9626 56.659 33.4226 56.659V58.019L33.4826 58.039C35.8426 58.159 36.9226 55.859 37.1626 53.819ZM53.7989 51.819H50.8389C48.9389 51.819 46.6189 52.579 46.6189 54.899V55.019C46.6189 56.819 48.0389 58.159 50.1989 58.159C51.7989 58.159 52.9589 57.419 53.7989 56.099H53.8189V57.979H55.3389V51.079C55.3389 50.739 55.2589 49.899 55.0189 49.319C54.4989 48.139 53.3789 47.119 51.1189 47.119C48.0589 47.119 46.8589 49.459 46.7789 50.359L48.2789 50.679C48.4589 49.659 49.2789 48.499 51.0789 48.499C52.8589 48.499 53.7989 49.379 53.7989 51.099V51.819ZM53.7989 53.099V53.479C53.7989 55.439 52.3789 56.779 50.4789 56.779C49.1989 56.779 48.1789 56.099 48.1789 54.899C48.1789 53.459 49.6789 53.099 50.8189 53.099H53.7989ZM63.9661 47.299H58.7261V57.979H64.1661C66.0461 57.979 68.0461 57.159 68.0461 55.059C68.0461 53.479 66.8861 52.759 65.6861 52.439C66.4861 52.079 67.4661 51.439 67.4661 49.979C67.4661 48.039 65.6861 47.299 63.9661 47.299ZM63.7261 51.919H60.2861V48.659H63.7661C64.6061 48.659 65.9061 48.899 65.9061 50.139C65.9061 51.639 64.5261 51.919 63.7261 51.919ZM64.0061 56.639H60.2861V53.179H63.7861C65.1061 53.179 66.4661 53.499 66.4661 54.819C66.4661 56.299 65.0261 56.639 64.0061 56.639ZM72.3564 51.799V47.299H70.7964V57.979H72.3564V53.179H78.4964V57.979H80.0564V47.299H78.4964V51.799H72.3564ZM88.2898 58.159C91.4098 58.159 93.8298 55.759 93.8298 52.599C93.8298 49.539 91.4098 47.119 88.3298 47.119C85.1698 47.119 82.7898 49.519 82.7898 52.679C82.7898 55.719 85.1898 58.159 88.2898 58.159ZM88.3298 56.779C85.9898 56.779 84.3898 54.839 84.3898 52.599C84.3898 50.359 85.9698 48.479 88.2898 48.479C90.6098 48.479 92.2298 50.439 92.2298 52.679C92.2298 54.899 90.6098 56.779 88.3298 56.779ZM97.3776 53.119H106.018C106.038 52.959 106.038 52.779 106.038 52.599C106.038 49.479 104.298 47.119 100.998 47.119C97.9976 47.119 95.7976 49.719 95.7976 52.619C95.7976 55.699 98.1176 58.159 101.218 58.159C103.338 58.159 105.258 56.999 105.898 54.939L104.498 54.499C103.998 55.999 102.778 56.779 101.198 56.779C99.1176 56.779 97.4976 55.199 97.3776 53.119ZM104.458 51.799H97.3976C97.6576 50.019 99.1376 48.479 100.998 48.479C103.038 48.479 104.258 49.859 104.458 51.799ZM119.552 47.299H114.312V57.979H119.752C121.632 57.979 123.632 57.159 123.632 55.059C123.632 53.479 122.472 52.759 121.272 52.439C122.072 52.079 123.052 51.439 123.052 49.979C123.052 48.039 121.272 47.299 119.552 47.299ZM119.312 51.919H115.872V48.659H119.352C120.192 48.659 121.492 48.899 121.492 50.139C121.492 51.639 120.112 51.919 119.312 51.919ZM119.592 56.639H115.872V53.179H119.372C120.692 53.179 122.052 53.499 122.052 54.819C122.052 56.299 120.612 56.639 119.592 56.639ZM127.182 53.119H135.822C135.842 52.959 135.842 52.779 135.842 52.599C135.842 49.479 134.102 47.119 130.802 47.119C127.802 47.119 125.602 49.719 125.602 52.619C125.602 55.699 127.922 58.159 131.022 58.159C133.142 58.159 135.062 56.999 135.702 54.939L134.302 54.499C133.802 55.999 132.582 56.779 131.002 56.779C128.922 56.779 127.302 55.199 127.182 53.119ZM134.262 51.799H127.202C127.462 50.019 128.942 48.479 130.802 48.479C132.842 48.479 134.062 49.859 134.262 51.799ZM139.351 52.579C139.351 50.359 140.931 48.499 143.211 48.499C145.431 48.499 146.491 50.159 146.731 50.979L148.171 50.519C147.731 48.719 145.751 47.119 143.271 47.119C140.251 47.119 137.751 49.439 137.751 52.679C137.751 55.879 140.111 58.159 143.191 58.159C145.991 58.159 147.751 56.299 148.231 54.699L146.771 54.219C146.471 55.019 145.571 56.779 143.211 56.779C140.791 56.779 139.351 54.799 139.351 52.579ZM151.635 53.119H160.275C160.295 52.959 160.295 52.779 160.295 52.599C160.295 49.479 158.555 47.119 155.255 47.119C152.255 47.119 150.055 49.719 150.055 52.619C150.055 55.699 152.375 58.159 155.475 58.159C157.595 58.159 159.515 56.999 160.155 54.939L158.755 54.499C158.255 55.999 157.035 56.779 155.455 56.779C153.375 56.779 151.755 55.199 151.635 53.119ZM158.715 51.799H151.655C151.915 50.019 153.395 48.479 155.255 48.479C157.295 48.479 158.515 49.859 158.715 51.799ZM165.307 53.819L165.887 48.679H170.427V57.979H171.987V47.299H164.487L163.767 53.559C163.627 54.779 163.107 56.659 161.567 56.659V58.019L161.627 58.039C163.987 58.159 165.067 55.859 165.307 53.819ZM180.443 51.199H177.063V47.299H175.503V57.979H180.643C182.803 57.979 184.743 56.859 184.743 54.439C184.743 52.019 182.623 51.199 180.443 51.199ZM180.503 56.599H177.063V52.539H180.423C181.763 52.539 183.163 52.979 183.163 54.479C183.163 56.119 181.783 56.599 180.503 56.599ZM187.964 53.119H196.604C196.624 52.959 196.624 52.779 196.624 52.599C196.624 49.479 194.884 47.119 191.584 47.119C188.584 47.119 186.384 49.719 186.384 52.619C186.384 55.699 188.704 58.159 191.804 58.159C193.924 58.159 195.844 56.999 196.484 54.939L195.084 54.499C194.584 55.999 193.364 56.779 191.784 56.779C189.704 56.779 188.084 55.199 187.964 53.119ZM195.044 51.799H187.984C188.244 50.019 189.724 48.479 191.584 48.479C193.624 48.479 194.844 49.859 195.044 51.799ZM206.458 48.679H212.498V57.979H214.058V47.299H204.898V57.979H206.458V48.679ZM228.274 52.619C228.274 49.839 226.294 47.119 223.254 47.119C221.234 47.119 219.974 48.279 219.114 49.619V47.299H217.574V63.239H219.134V55.779C219.994 57.139 221.274 58.139 223.254 58.139C226.294 58.139 228.274 55.499 228.274 52.619ZM222.934 56.759C220.674 56.759 219.114 54.799 219.114 52.599C219.114 50.459 220.734 48.499 222.934 48.499C225.294 48.499 226.674 50.439 226.674 52.659C226.674 54.919 225.294 56.759 222.934 56.759ZM235.751 58.159C238.871 58.159 241.291 55.759 241.291 52.599C241.291 49.539 238.871 47.119 235.791 47.119C232.631 47.119 230.251 49.519 230.251 52.679C230.251 55.719 232.651 58.159 235.751 58.159ZM235.791 56.779C233.451 56.779 231.851 54.839 231.851 52.599C231.851 50.359 233.431 48.479 235.751 48.479C238.071 48.479 239.691 50.439 239.691 52.679C239.691 54.899 238.071 56.779 235.791 56.779ZM244.039 57.979H245.619L251.859 49.519V57.979H253.419V47.299H251.859L245.599 55.839V47.299H244.039V57.979ZM257.788 52.579C257.788 50.359 259.368 48.499 261.648 48.499C263.868 48.499 264.928 50.159 265.168 50.979L266.608 50.519C266.168 48.719 264.188 47.119 261.708 47.119C258.688 47.119 256.188 49.439 256.188 52.679C256.188 55.879 258.548 58.159 261.628 58.159C264.428 58.159 266.188 56.299 266.668 54.699L265.208 54.219C264.908 55.019 264.008 56.779 261.648 56.779C259.228 56.779 257.788 54.799 257.788 52.579ZM272.818 51.439L269.658 47.299H267.818L271.878 52.559L267.678 57.979H269.478L272.798 53.639L276.098 57.979H277.958L273.738 52.539L277.778 47.299H275.978L272.818 51.439ZM284.266 58.159C287.386 58.159 289.806 55.759 289.806 52.599C289.806 49.539 287.386 47.119 284.306 47.119C281.146 47.119 278.766 49.519 278.766 52.679C278.766 55.719 281.166 58.159 284.266 58.159ZM284.306 56.779C281.966 56.779 280.366 54.839 280.366 52.599C280.366 50.359 281.946 48.479 284.266 48.479C286.586 48.479 288.206 50.439 288.206 52.679C288.206 54.899 286.586 56.779 284.306 56.779ZM291.043 56.639H291.003V61.279H292.523V57.979H301.183V61.279H302.683V56.599H301.443V47.299H293.943L293.383 52.179C293.123 54.519 292.563 56.639 291.043 56.639ZM294.923 52.299L295.323 48.679H299.883V56.599H293.383C294.403 55.779 294.763 53.659 294.923 52.299ZM305.445 57.979H307.025L313.265 49.519V57.979H314.825V47.299H313.265L307.005 55.839V47.299H305.445V57.979ZM326.175 48.679V47.299H317.015V48.679H320.795V57.979H322.375V48.679H326.175ZM336.456 58.159C338.796 58.159 340.396 56.799 340.396 55.039C340.396 53.779 339.736 52.919 338.516 52.499C339.716 51.939 340.196 51.059 340.196 50.059C340.196 48.419 338.576 47.099 336.376 47.099C334.296 47.099 332.816 48.379 332.436 50.099L333.836 50.479C334.256 49.119 335.136 48.479 336.376 48.479C337.856 48.479 338.636 49.359 338.636 50.179C338.636 51.199 337.916 51.879 336.456 51.879H334.836V53.219H336.496C338.096 53.219 338.816 53.919 338.816 54.979C338.816 55.919 337.916 56.779 336.456 56.779C334.736 56.779 334.036 55.619 333.796 54.659L332.356 54.999C332.556 56.199 333.516 58.159 336.456 58.159ZM341.942 56.639H341.902V61.279H343.422V57.979H352.082V61.279H353.582V56.599H352.342V47.299H344.842L344.282 52.179C344.022 54.519 343.462 56.639 341.942 56.639ZM345.822 52.299L346.222 48.679H350.782V56.599H344.282C345.302 55.779 345.662 53.659 345.822 52.299ZM356.928 53.119H365.568C365.588 52.959 365.588 52.779 365.588 52.599C365.588 49.479 363.848 47.119 360.548 47.119C357.548 47.119 355.348 49.719 355.348 52.619C355.348 55.699 357.668 58.159 360.768 58.159C362.888 58.159 364.808 56.999 365.448 54.939L364.048 54.499C363.548 55.999 362.328 56.779 360.748 56.779C358.668 56.779 357.048 55.199 356.928 53.119ZM364.008 51.799H356.948C357.208 50.019 358.688 48.479 360.548 48.479C362.588 48.479 363.808 49.859 364.008 51.799ZM369.097 52.579C369.097 50.359 370.677 48.499 372.957 48.499C375.177 48.499 376.237 50.159 376.477 50.979L377.917 50.519C377.477 48.719 375.497 47.119 373.017 47.119C369.997 47.119 367.497 49.439 367.497 52.679C367.497 55.879 369.857 58.159 372.937 58.159C375.737 58.159 377.497 56.299 377.977 54.699L376.517 54.219C376.217 55.019 375.317 56.779 372.957 56.779C370.537 56.779 369.097 54.799 369.097 52.579ZM385.522 51.199H382.142V47.299H380.582V57.979H385.722C387.882 57.979 389.822 56.859 389.822 54.439C389.822 52.019 387.702 51.199 385.522 51.199ZM385.582 56.599H382.142V52.539H385.502C386.842 52.539 388.242 52.979 388.242 54.479C388.242 56.119 386.862 56.599 385.582 56.599ZM392.522 45.059L392.602 53.439H394.062L394.162 45.059V42.319H392.522V45.059ZM392.162 56.979C392.162 57.639 392.682 58.159 393.342 58.159C393.982 58.159 394.522 57.639 394.522 56.979C394.522 56.339 393.982 55.819 393.342 55.819C392.682 55.819 392.162 56.339 392.162 56.979ZM38.4708 69.319H26.4508V84.979H28.0908V70.839H36.8308V84.979H38.4708V69.319ZM47.1375 85.159C50.2575 85.159 52.6775 82.759 52.6775 79.599C52.6775 76.539 50.2575 74.119 47.1775 74.119C44.0175 74.119 41.6375 76.519 41.6375 79.679C41.6375 82.719 44.0375 85.159 47.1375 85.159ZM47.1775 83.779C44.8375 83.779 43.2375 81.839 43.2375 79.599C43.2375 77.359 44.8175 75.479 47.1375 75.479C49.4575 75.479 51.0775 77.439 51.0775 79.679C51.0775 81.899 49.4575 83.779 47.1775 83.779ZM59.5853 74.119C57.1453 74.119 54.9853 75.719 54.5453 77.499L55.9253 77.959C56.1653 77.119 57.2653 75.479 59.5453 75.479C61.5053 75.479 62.9853 76.899 63.3053 78.779H58.2853V80.139H63.3653C63.1653 82.159 61.7853 83.799 59.5453 83.799C57.1853 83.799 56.1853 82.039 55.8853 81.239L54.4853 81.699C54.9453 83.299 56.6253 85.159 59.5053 85.159C62.6453 85.159 64.9453 82.819 64.9453 79.579C64.9453 76.359 62.5453 74.119 59.5853 74.119ZM75.1393 75.679V74.299H65.9793V75.679H69.7593V84.979H71.3393V75.679H75.1393ZM81.6297 85.159C84.7497 85.159 87.1697 82.759 87.1697 79.599C87.1697 76.539 84.7497 74.119 81.6697 74.119C78.5097 74.119 76.1297 76.519 76.1297 79.679C76.1297 82.719 78.5297 85.159 81.6297 85.159ZM81.6697 83.779C79.3297 83.779 77.7297 81.839 77.7297 79.599C77.7297 77.359 79.3097 75.479 81.6297 75.479C83.9497 75.479 85.5697 77.439 85.5697 79.679C85.5697 81.899 83.9497 83.779 81.6697 83.779ZM91.4575 84.979V75.959H91.4975L95.6975 84.979H96.7175L100.917 75.919H100.937V84.979H102.497V74.299H100.217L96.2175 82.959L92.2175 74.299H89.9175V84.979H91.4575ZM115.791 74.299H114.111L110.411 82.559L106.491 74.299H104.691L109.551 84.259L106.791 90.239H108.471L115.791 74.299ZM124.661 75.679H130.701V84.979H132.261V74.299H123.101V84.979H124.661V75.679ZM146.477 79.619C146.477 76.839 144.497 74.119 141.457 74.119C139.437 74.119 138.177 75.279 137.317 76.619V74.299H135.777V90.239H137.337V82.779C138.197 84.139 139.477 85.139 141.457 85.139C144.497 85.139 146.477 82.499 146.477 79.619ZM141.137 83.759C138.877 83.759 137.317 81.799 137.317 79.599C137.317 77.459 138.937 75.499 141.137 75.499C143.497 75.499 144.877 77.439 144.877 79.659C144.877 81.919 143.497 83.759 141.137 83.759ZM149.234 84.979H150.814L157.054 76.519V84.979H158.614V74.299H157.054L150.794 82.839V74.299H149.234V84.979ZM164.624 80.819L165.204 75.679H169.744V84.979H171.304V74.299H163.804L163.084 80.559C162.944 81.779 162.424 83.659 160.884 83.659V85.019L160.944 85.039C163.304 85.159 164.384 82.859 164.624 80.819ZM179.54 85.159C182.66 85.159 185.08 82.759 185.08 79.599C185.08 76.539 182.66 74.119 179.58 74.119C176.42 74.119 174.04 76.519 174.04 79.679C174.04 82.719 176.44 85.159 179.54 85.159ZM179.58 83.779C177.24 83.779 175.64 81.839 175.64 79.599C175.64 77.359 177.22 75.479 179.54 75.479C181.86 75.479 183.48 77.439 183.48 79.679C183.48 81.899 181.86 83.779 179.58 83.779ZM201.445 84.979L196.225 79.479L201.325 74.299H199.325L194.465 79.219H194.305V74.299H192.765V79.219H192.605L187.745 74.299H185.745L190.845 79.479L185.625 84.979H187.745L192.605 79.799H192.765V84.979H194.305V79.799H194.465L199.325 84.979H201.445ZM203.472 84.979H205.052L211.292 76.519V84.979H212.852V74.299H211.292L205.032 82.839V74.299H203.472V84.979ZM223.528 84.979V75.959H223.568L227.768 84.979H228.788L232.988 75.919H233.008V84.979H234.568V74.299H232.288L228.288 82.959L224.288 74.299H221.988V84.979H223.528ZM244.541 78.819H241.581C239.681 78.819 237.361 79.579 237.361 81.899V82.019C237.361 83.819 238.781 85.159 240.941 85.159C242.541 85.159 243.701 84.419 244.541 83.099H244.561V84.979H246.081V78.079C246.081 77.739 246.001 76.899 245.761 76.319C245.241 75.139 244.121 74.119 241.861 74.119C238.801 74.119 237.601 76.459 237.521 77.359L239.021 77.679C239.201 76.659 240.021 75.499 241.821 75.499C243.601 75.499 244.541 76.379 244.541 78.099V78.819ZM244.541 80.099V80.479C244.541 82.439 243.121 83.779 241.221 83.779C239.941 83.779 238.921 83.099 238.921 81.899C238.921 80.459 240.421 80.099 241.561 80.099H244.541ZM251.148 78.999H251.028V74.299H249.468V84.979H251.028V79.999H251.148L256.588 84.979H258.768L252.628 79.479L258.488 74.299H256.328L251.148 78.999ZM260.601 79.579C260.601 77.359 262.181 75.499 264.461 75.499C266.681 75.499 267.741 77.159 267.981 77.979L269.421 77.519C268.981 75.719 267.001 74.119 264.521 74.119C261.501 74.119 259.001 76.439 259.001 79.679C259.001 82.879 261.361 85.159 264.441 85.159C267.241 85.159 269.001 83.299 269.481 81.699L268.021 81.219C267.721 82.019 266.821 83.779 264.461 83.779C262.041 83.779 260.601 81.799 260.601 79.579ZM272.085 84.979H273.665L279.905 76.519V84.979H281.465V74.299H279.905L273.645 82.839V74.299H272.085V84.979ZM286.555 84.979V75.959H286.595L290.795 84.979H291.815L296.015 75.919H296.035V84.979H297.595V74.299H295.315L291.315 82.959L287.315 74.299H285.015V84.979H286.555ZM310.888 74.299H309.208L305.508 82.559L301.588 74.299H299.788L304.648 84.259L301.888 90.239H303.568L310.888 74.299ZM314.543 84.979V75.959H314.583L318.783 84.979H319.803L324.003 75.919H324.023V84.979H325.583V74.299H323.303L319.303 82.959L315.303 74.299H313.003V84.979H314.543ZM343.994 74.299H342.314L338.614 82.559L334.694 74.299H332.894L337.754 84.259L334.994 90.239H336.674L343.994 74.299ZM346.538 79.579C346.538 77.359 348.118 75.499 350.398 75.499C352.618 75.499 353.678 77.159 353.918 77.979L355.358 77.519C354.918 75.719 352.938 74.119 350.458 74.119C347.438 74.119 344.938 76.439 344.938 79.679C344.938 82.879 347.298 85.159 350.378 85.159C353.178 85.159 354.938 83.299 355.418 81.699L353.958 81.219C353.658 82.019 352.758 83.779 350.398 83.779C347.978 83.779 346.538 81.799 346.538 79.579ZM358.023 84.979H359.603L365.843 76.519V84.979H367.403V74.299H365.843L359.583 82.839V74.299H358.023V84.979ZM373.413 80.819L373.993 75.679H378.533V84.979H380.093V74.299H372.593L371.873 80.559C371.733 81.779 371.213 83.659 369.673 83.659V85.019L369.733 85.039C372.093 85.159 373.173 82.859 373.413 80.819ZM383.609 84.979H385.189L391.429 76.519V84.979H392.989V74.299H391.429L385.169 82.839V74.299H383.609V84.979ZM401.239 72.519C402.899 72.519 404.159 71.339 404.479 69.659L403.359 69.459C403.059 70.499 402.439 71.259 401.239 71.259C400.039 71.259 399.399 70.499 399.099 69.459L397.999 69.659C398.299 71.339 399.559 72.519 401.239 72.519ZM396.539 84.979H398.119L404.359 76.519V84.979H405.919V74.299H404.339L398.099 82.839V74.299H396.539V84.979ZM409.208 75.579C409.208 76.359 409.848 77.019 410.648 77.019C411.448 77.019 412.088 76.359 412.088 75.579C412.088 74.779 411.448 74.139 410.648 74.139C409.848 74.139 409.208 74.779 409.208 75.579ZM409.208 83.719C409.208 84.519 409.848 85.159 410.648 85.159C411.448 85.159 412.088 84.519 412.088 83.719C412.088 82.919 411.448 82.279 410.648 82.279C409.848 82.279 409.208 82.919 409.208 83.719ZM31.2708 101.299H26.0308V111.979H31.4708C33.3508 111.979 35.3508 111.159 35.3508 109.059C35.3508 107.479 34.1908 106.759 32.9908 106.439C33.7908 106.079 34.7708 105.439 34.7708 103.979C34.7708 102.039 32.9908 101.299 31.2708 101.299ZM31.0308 105.919H27.5908V102.659H31.0708C31.9108 102.659 33.2108 102.899 33.2108 104.139C33.2108 105.639 31.8308 105.919 31.0308 105.919ZM31.3108 110.639H27.5908V107.179H31.0908C32.4108 107.179 33.7708 107.499 33.7708 108.819C33.7708 110.299 32.3308 110.639 31.3108 110.639ZM38.9211 106.579C38.9211 104.359 40.5011 102.499 42.7811 102.499C45.0011 102.499 46.0611 104.159 46.3011 104.979L47.7411 104.519C47.3011 102.719 45.3211 101.119 42.8411 101.119C39.8211 101.119 37.3211 103.439 37.3211 106.679C37.3211 109.879 39.6811 112.159 42.7611 112.159C45.5611 112.159 47.3211 110.299 47.8011 108.699L46.3411 108.219C46.0411 109.019 45.1411 110.779 42.7811 110.779C40.3611 110.779 38.9211 108.799 38.9211 106.579ZM51.2058 107.119H59.8458C59.8658 106.959 59.8658 106.779 59.8658 106.599C59.8658 103.479 58.1258 101.119 54.8258 101.119C51.8258 101.119 49.6258 103.719 49.6258 106.619C49.6258 109.699 51.9458 112.159 55.0458 112.159C57.1658 112.159 59.0858 110.999 59.7258 108.939L58.3258 108.499C57.8258 109.999 56.6058 110.779 55.0258 110.779C52.9458 110.779 51.3258 109.199 51.2058 107.119ZM58.2858 105.799H51.2258C51.4858 104.019 52.9658 102.479 54.8258 102.479C56.8658 102.479 58.0858 103.859 58.2858 105.799ZM69.7001 102.679H75.3001V101.299H68.1401V111.979H69.7001V102.679ZM81.7273 112.159C84.8473 112.159 87.2673 109.759 87.2673 106.599C87.2673 103.539 84.8473 101.119 81.7673 101.119C78.6073 101.119 76.2273 103.519 76.2273 106.679C76.2273 109.719 78.6273 112.159 81.7273 112.159ZM81.7673 110.779C79.4273 110.779 77.8273 108.839 77.8273 106.599C77.8273 104.359 79.4073 102.479 81.7273 102.479C84.0473 102.479 85.6673 104.439 85.6673 106.679C85.6673 108.899 84.0473 110.779 81.7673 110.779ZM90.8351 106.579C90.8351 104.359 92.4151 102.499 94.6951 102.499C96.9151 102.499 97.9751 104.159 98.2151 104.979L99.6551 104.519C99.2151 102.719 97.2351 101.119 94.7551 101.119C91.7351 101.119 89.2351 103.439 89.2351 106.679C89.2351 109.879 91.5951 112.159 94.6751 112.159C97.4751 112.159 99.2351 110.299 99.7151 108.699L98.2551 108.219C97.9551 109.019 97.0551 110.779 94.6951 110.779C92.2751 110.779 90.8351 108.799 90.8351 106.579ZM109.964 102.679V101.299H100.804V102.679H104.584V111.979H106.164V102.679H109.964ZM112.105 111.979H113.685L119.925 103.519V111.979H121.485V101.299H119.925L113.665 109.839V101.299H112.105V111.979ZM129.481 110.639H129.441V115.279H130.961V111.979H139.621V115.279H141.121V110.599H139.881V101.299H132.381L131.821 106.179C131.561 108.519 131.001 110.639 129.481 110.639ZM133.361 106.299L133.761 102.679H138.321V110.599H131.821C132.841 109.779 133.201 107.659 133.361 106.299ZM148.387 112.159C151.507 112.159 153.927 109.759 153.927 106.599C153.927 103.539 151.507 101.119 148.427 101.119C145.267 101.119 142.887 103.519 142.887 106.679C142.887 109.719 145.287 112.159 148.387 112.159ZM148.427 110.779C146.087 110.779 144.487 108.839 144.487 106.599C144.487 104.359 146.067 102.479 148.387 102.479C150.707 102.479 152.327 104.439 152.327 106.679C152.327 108.899 150.707 110.779 148.427 110.779ZM158.901 107.819L159.481 102.679H164.021V111.979H165.581V101.299H158.081L157.361 107.559C157.221 108.779 156.701 110.659 155.161 110.659V112.019L155.221 112.039C157.581 112.159 158.661 109.859 158.901 107.819ZM183.417 111.979L178.197 106.479L183.297 101.299H181.297L176.437 106.219H176.277V101.299H174.737V106.219H174.577L169.717 101.299H167.717L172.817 106.479L167.597 111.979H169.717L174.577 106.799H174.737V111.979H176.277V106.799H176.437L181.297 111.979H183.417ZM187.005 105.799V101.299H185.445V111.979H187.005V107.179H193.145V111.979H194.705V101.299H193.145V105.799H187.005ZM203.158 105.199H199.778V101.299H198.218V111.979H203.358C205.518 111.979 207.458 110.859 207.458 108.439C207.458 106.019 205.338 105.199 203.158 105.199ZM209.898 111.979V101.299H211.458V111.979H209.898ZM203.218 110.599H199.778V106.539H203.138C204.478 106.539 205.878 106.979 205.878 108.479C205.878 110.119 204.498 110.599 203.218 110.599ZM225.302 112.159C228.422 112.159 230.842 109.759 230.842 106.599C230.842 103.539 228.422 101.119 225.342 101.119C222.182 101.119 219.802 103.519 219.802 106.679C219.802 109.719 222.202 112.159 225.302 112.159ZM225.342 110.779C223.002 110.779 221.402 108.839 221.402 106.599C221.402 104.359 222.982 102.479 225.302 102.479C227.622 102.479 229.242 104.439 229.242 106.679C229.242 108.899 227.622 110.779 225.342 110.779ZM241.018 102.679V101.299H231.858V102.679H235.638V111.979H237.218V102.679H241.018ZM253.86 106.619C253.86 103.839 251.88 101.119 248.84 101.119C246.82 101.119 245.56 102.279 244.7 103.619V101.299H243.16V117.239H244.72V109.779C245.58 111.139 246.86 112.139 248.84 112.139C251.88 112.139 253.86 109.499 253.86 106.619ZM248.52 110.759C246.26 110.759 244.7 108.799 244.7 106.599C244.7 104.459 246.32 102.499 248.52 102.499C250.88 102.499 252.26 104.439 252.26 106.659C252.26 108.919 250.88 110.759 248.52 110.759ZM261.557 105.199H258.177V101.299H256.617V111.979H261.757C263.917 111.979 265.857 110.859 265.857 108.439C265.857 106.019 263.737 105.199 261.557 105.199ZM268.297 111.979V101.299H269.857V111.979H268.297ZM261.617 110.599H258.177V106.539H261.537C262.877 106.539 264.277 106.979 264.277 108.479C264.277 110.119 262.897 110.599 261.617 110.599ZM278.634 101.299H273.394V111.979H278.834C280.714 111.979 282.714 111.159 282.714 109.059C282.714 107.479 281.554 106.759 280.354 106.439C281.154 106.079 282.134 105.439 282.134 103.979C282.134 102.039 280.354 101.299 278.634 101.299ZM278.394 105.919H274.954V102.659H278.434C279.274 102.659 280.574 102.899 280.574 104.139C280.574 105.639 279.194 105.919 278.394 105.919ZM278.674 110.639H274.954V107.179H278.454C279.774 107.179 281.134 107.499 281.134 108.819C281.134 110.299 279.694 110.639 278.674 110.639ZM291.904 105.819H288.944C287.044 105.819 284.724 106.579 284.724 108.899V109.019C284.724 110.819 286.144 112.159 288.304 112.159C289.904 112.159 291.064 111.419 291.904 110.099H291.924V111.979H293.444V105.079C293.444 104.739 293.364 103.899 293.124 103.319C292.604 102.139 291.484 101.119 289.224 101.119C286.164 101.119 284.964 103.459 284.884 104.359L286.384 104.679C286.564 103.659 287.384 102.499 289.184 102.499C290.964 102.499 291.904 103.379 291.904 105.099V105.819ZM291.904 107.099V107.479C291.904 109.439 290.484 110.779 288.584 110.779C287.304 110.779 286.284 110.099 286.284 108.899C286.284 107.459 287.784 107.099 288.924 107.099H291.904ZM304.436 102.679V101.299H295.276V102.679H299.056V111.979H300.636V102.679H304.436ZM311.518 105.199H308.138V101.299H306.578V111.979H311.718C313.878 111.979 315.818 110.859 315.818 108.439C315.818 106.019 313.698 105.199 311.518 105.199ZM311.578 110.599H308.138V106.539H311.498C312.838 106.539 314.238 106.979 314.238 108.479C314.238 110.119 312.858 110.599 311.578 110.599ZM319.058 106.579C319.058 104.359 320.638 102.499 322.918 102.499C325.138 102.499 326.198 104.159 326.438 104.979L327.878 104.519C327.438 102.719 325.458 101.119 322.978 101.119C319.958 101.119 317.458 103.439 317.458 106.679C317.458 109.879 319.818 112.159 322.898 112.159C325.698 112.159 327.458 110.299 327.938 108.699L326.478 108.219C326.178 109.019 325.278 110.779 322.918 110.779C320.498 110.779 319.058 108.799 319.058 106.579ZM332.702 107.819L329.582 111.979H331.462L334.262 108.099H337.182V111.979H338.742V101.299H334.002C331.082 101.299 329.982 103.039 329.982 104.619C329.982 106.379 331.162 107.459 332.702 107.819ZM334.082 102.679H337.182V106.779H334.122C332.302 106.779 331.522 105.759 331.522 104.699C331.522 103.199 332.842 102.679 334.082 102.679ZM342.541 99.059L342.621 107.439H344.081L344.181 99.059V96.319H342.541V99.059ZM342.181 110.979C342.181 111.639 342.701 112.159 343.361 112.159C344.001 112.159 344.541 111.639 344.541 110.979C344.541 110.339 344.001 109.819 343.361 109.819C342.701 109.819 342.181 110.339 342.181 110.979Z" fill="black"/>
</svg>
