<svg width="31" height="67" viewBox="0 0 31 67" fill="none" xmlns="http://www.w3.org/2000/svg">
<path d="M29.8595 28.799C29.0955 10.4152 28.618 9.6989 28.2837 7.78889C28.1405 6.83389 27.281 4.49412 26.9945 3.87337C26.6602 3.06161 25.9917 2.87061 25.18 2.63186C24.416 2.39311 22.8402 1.96336 21.3122 1.29486C19.7365 0.674106 19.1635 0.674097 19.1635 0.674097L18.5427 0.626359C16.5849 0.483108 14.6749 0.483108 12.7172 0.626359L12.0964 0.674097C12.0964 0.674097 11.5234 0.674106 9.94767 1.29486C8.37191 1.91561 6.84388 2.39311 6.07988 2.63186C5.31588 2.87061 4.64738 3.10936 4.26538 3.87337C3.93113 4.68512 3.26262 6.16538 2.97612 7.78889C2.64187 9.65115 2.16437 10.4152 1.40037 28.799C1.40037 28.799 1.16163 43.2195 1.35263 47.3261C1.54363 51.4326 1.78236 55.7301 2.02111 57.2104C2.25986 58.7384 2.78513 61.5079 2.78513 61.5079L3.97889 65.1369C4.07439 65.4711 4.40863 65.7099 4.74288 65.7099H7.84665C8.4674 65.7099 9.08816 65.5667 9.61341 65.3279L10.1864 65.0892C10.3774 64.9937 10.5684 64.9937 10.7594 65.0892L11.3324 65.4234C11.5712 65.5667 11.8099 65.6144 12.0964 65.6144H19.0202C19.259 65.6144 19.5454 65.5667 19.7842 65.4234L20.3572 65.0892C20.5482 64.9937 20.787 64.9937 20.9302 65.0892L21.5032 65.3279C22.0762 65.5667 22.6492 65.7099 23.27 65.7099H26.3737C26.7557 65.7099 27.0422 65.4711 27.1377 65.1369L28.3315 61.5079C28.3315 61.5079 28.8567 58.6906 29.0955 57.2104C29.3342 55.6824 29.573 51.4326 29.764 47.3261C30.0983 43.2195 29.8595 28.799 29.8595 28.799Z" fill="#404041" stroke="#231F20" stroke-miterlimit="10"/>
<path d="M26.326 5.83113C26.2782 5.68788 26.1827 5.54462 25.9917 5.49687C25.5142 5.35362 24.5115 5.01936 23.8907 4.97161C23.7475 4.97161 23.2222 4.82837 22.1717 5.54462C21.0257 6.35638 19.1634 6.30862 17.8742 6.21312C16.3462 6.06987 15.1047 6.06987 13.5767 6.21312C12.2874 6.30862 10.4252 6.35638 9.27915 5.54462C9.2314 5.54462 9.2314 5.49687 9.18365 5.49687C8.18089 4.82837 7.60789 4.92386 7.51239 4.97161C6.98714 5.01936 6.12764 5.25813 5.69789 5.40138C5.55464 5.44913 5.41138 5.59237 5.36363 5.73562C4.50413 9.12589 4.26538 17.9597 4.26538 17.9597L4.40863 28.6557L4.50413 42.36C4.50413 42.36 4.69514 51.0028 5.31589 55.2526C5.55464 56.9716 6.12765 58.0699 6.7484 58.7861C7.4169 59.5979 8.46742 60.0754 9.56567 60.0754H22.1717C23.3177 60.0754 24.3682 59.5501 25.0845 58.6906C25.6575 57.9744 26.1827 56.8761 26.4215 55.2526C27.0422 51.0028 27.2333 42.36 27.2333 42.36L27.3287 28.6557L27.472 17.9597C27.4243 18.0074 27.1855 9.22139 26.326 5.83113Z" stroke="#231F20" stroke-miterlimit="10"/>
<path d="M19.641 51.194H12.9082V56.7808H19.641V51.194Z" fill="white" stroke="black" stroke-miterlimit="10"/>
<path d="M18.3037 55.0617H17.2532V52.9129H17.5875V54.7274C17.5875 54.8229 17.683 54.9184 17.7785 54.9184C17.874 54.9184 17.9695 54.8229 17.9695 54.7274V54.3454H18.3037V55.0617ZM16.9667 53.6291C16.9667 53.7246 16.8712 53.9156 16.728 53.9156C16.8712 53.9156 16.9667 54.0589 16.9667 54.1066V54.7274C16.9667 54.8229 16.8712 55.0139 16.6325 55.0139H15.9162V52.8651H16.6325C16.7757 52.8651 16.9667 52.9606 16.9667 53.1994V53.6291ZM15.6297 54.6797C15.6297 54.8707 15.4865 55.1094 15.1045 55.1094C14.7225 55.1094 14.5792 54.8707 14.5792 54.6797V54.3931H14.9135V54.7751C14.9135 54.8706 15.009 54.9661 15.1045 54.9661C15.2 54.9661 15.2955 54.8706 15.2955 54.7751V52.9606H15.6297V54.6797ZM14.7702 53.7247C14.8657 53.7247 14.9612 53.8201 14.9612 53.9156C14.9612 54.0111 14.8657 54.1066 14.7702 54.1066C14.6747 54.1066 14.5792 54.0111 14.5792 53.9156C14.5315 53.8201 14.627 53.7247 14.7702 53.7247ZM15.0567 52.9129L14.7225 53.6769L14.3882 52.9129H15.0567ZM13.1467 56.5419H19.402V51.4326H13.1467V56.5419ZM16.4892 54.0111H16.2982V54.8706H16.4892C16.6325 54.8706 16.6325 54.7752 16.6325 54.4409C16.6325 54.1067 16.6325 54.0111 16.4892 54.0111ZM16.4415 53.1039H16.2505V53.8201H16.4415C16.5847 53.8201 16.5847 53.8201 16.5847 53.4381C16.6325 53.1516 16.5847 53.1039 16.4415 53.1039Z" fill="#FF4713"/>
</svg>
