<svg width="66" height="66" viewBox="0 0 66 66" fill="none" xmlns="http://www.w3.org/2000/svg">
<rect x="1.81592" y="1.77625" width="62.6767" height="62.6767" rx="3" fill="#FFA6D7" stroke="black" stroke-width="2"/>
<mask id="path-2-inside-1" fill="white">
<path fill-rule="evenodd" clip-rule="evenodd" d="M11.8884 26.0832C10.7839 26.0832 9.88843 26.9787 9.88843 28.0832L9.88843 39.9242C9.88843 41.0288 10.7839 41.9242 11.8884 41.9242L36.2347 41.9242L36.2347 47.7209C36.2347 48.5405 37.1666 49.0121 37.827 48.5266L57.0018 34.4303C57.5454 34.0307 57.5454 33.2185 57.0018 32.8189L37.827 18.7226C37.1666 18.2371 36.2347 18.7086 36.2347 19.5283L36.2347 26.0832L11.8884 26.0832Z"/>
</mask>
<path fill-rule="evenodd" clip-rule="evenodd" d="M11.8884 26.0832C10.7839 26.0832 9.88843 26.9787 9.88843 28.0832L9.88843 39.9242C9.88843 41.0288 10.7839 41.9242 11.8884 41.9242L36.2347 41.9242L36.2347 47.7209C36.2347 48.5405 37.1666 49.0121 37.827 48.5266L57.0018 34.4303C57.5454 34.0307 57.5454 33.2185 57.0018 32.8189L37.827 18.7226C37.1666 18.2371 36.2347 18.7086 36.2347 19.5283L36.2347 26.0832L11.8884 26.0832Z" fill="#FA8CC9"/>
<path d="M11.8884 26.0832L11.8884 24.0832L11.8884 24.0832L11.8884 26.0832ZM11.8884 41.9242L11.8884 39.9242L11.8884 39.9242L11.8884 41.9242ZM36.2347 41.9242L38.2347 41.9242L38.2347 39.9242L36.2347 39.9242L36.2347 41.9242ZM36.2347 47.7209L34.2347 47.7209L36.2347 47.7209ZM37.827 48.5266L36.6424 46.9152L36.6424 46.9152L37.827 48.5266ZM57.0018 34.4303L55.8172 32.8189L55.8172 32.8189L57.0018 34.4303ZM57.0018 32.8189L55.8172 34.4303L55.8172 34.4303L57.0018 32.8189ZM37.827 18.7226L39.0116 17.1111L39.0116 17.1111L37.827 18.7226ZM36.2347 26.0832L36.2347 28.0832L38.2347 28.0832L38.2347 26.0832L36.2347 26.0832ZM11.8884 28.0832L11.8884 28.0832L11.8884 24.0832C9.67929 24.0832 7.88843 25.8741 7.88843 28.0832L11.8884 28.0832ZM11.8884 39.9242L11.8884 28.0832L7.88843 28.0832L7.88843 39.9242L11.8884 39.9242ZM11.8884 39.9242L11.8884 39.9242L7.88843 39.9242C7.88843 42.1334 9.67928 43.9242 11.8884 43.9242L11.8884 39.9242ZM36.2347 39.9242L11.8884 39.9242L11.8884 43.9242L36.2347 43.9242L36.2347 39.9242ZM38.2347 47.7209L38.2347 41.9242L34.2347 41.9242L34.2347 47.7209L38.2347 47.7209ZM36.6424 46.9152C37.3028 46.4297 38.2347 46.9012 38.2347 47.7209L34.2347 47.7209C34.2347 50.1798 37.0305 51.5944 39.0116 50.138L36.6424 46.9152ZM55.8172 32.8189L36.6424 46.9152L39.0116 50.138L58.1864 36.0417L55.8172 32.8189ZM55.8172 34.4303C55.2736 34.0307 55.2736 33.2185 55.8172 32.8189L58.1864 36.0417C59.8172 34.8429 59.8172 32.4063 58.1864 31.2074L55.8172 34.4303ZM36.6424 20.334L55.8172 34.4303L58.1864 31.2074L39.0116 17.1111L36.6424 20.334ZM38.2347 19.5283C38.2347 20.3479 37.3028 20.8195 36.6424 20.334L39.0116 17.1111C37.0305 15.6547 34.2347 17.0693 34.2347 19.5283L38.2347 19.5283ZM38.2347 26.0832L38.2347 19.5283L34.2347 19.5283L34.2347 26.0832L38.2347 26.0832ZM11.8884 28.0832L36.2347 28.0832L36.2347 24.0832L11.8884 24.0832L11.8884 28.0832Z" fill="black" mask="url(#path-2-inside-1)"/>
</svg>
