<svg width="66" height="66" viewBox="0 0 66 66" fill="none" xmlns="http://www.w3.org/2000/svg">
<rect x="1.49268" y="1.00671" width="63" height="63" rx="3" fill="#C4C4C4" stroke="black" stroke-width="2"/>
<mask id="path-2-inside-1" fill="white">
<path fill-rule="evenodd" clip-rule="evenodd" d="M23.6678 41.6477C23.3854 41.4023 22.995 41.3423 22.6209 41.3423H13.3174C12.2128 41.3423 11.3174 40.4469 11.3174 39.3423V25.6712C11.3174 24.5666 12.2128 23.6712 13.3174 23.6712H22.6209C22.995 23.6712 23.3855 23.6112 23.6678 23.3658L31.9088 16.2048C33.2034 15.0798 35.2206 15.9994 35.2206 17.7145L35.2206 47.2992C35.2206 49.0143 33.2033 49.9338 31.9087 48.8088L23.6678 41.6477Z"/>
</mask>
<path fill-rule="evenodd" clip-rule="evenodd" d="M23.6678 41.6477C23.3854 41.4023 22.995 41.3423 22.6209 41.3423H13.3174C12.2128 41.3423 11.3174 40.4469 11.3174 39.3423V25.6712C11.3174 24.5666 12.2128 23.6712 13.3174 23.6712H22.6209C22.995 23.6712 23.3855 23.6112 23.6678 23.3658L31.9088 16.2048C33.2034 15.0798 35.2206 15.9994 35.2206 17.7145L35.2206 47.2992C35.2206 49.0143 33.2033 49.9338 31.9087 48.8088L23.6678 41.6477Z" fill="#C4C4C4"/>
<path d="M31.9087 48.8088L30.5969 50.3185L31.9087 48.8088ZM35.2206 17.7145H33.2206H35.2206ZM23.6678 23.3658L24.9797 24.8755L23.6678 23.3658ZM23.6678 41.6477L24.9796 40.138L23.6678 41.6477ZM22.6209 39.3423H13.3174V43.3423H22.6209V39.3423ZM13.3174 39.3423L13.3174 39.3423H9.31738C9.31738 41.5515 11.1082 43.3423 13.3174 43.3423V39.3423ZM13.3174 39.3423V25.6712H9.31738V39.3423H13.3174ZM13.3174 25.6712L13.3174 25.6712V21.6712C11.1082 21.6712 9.31738 23.462 9.31738 25.6712H13.3174ZM13.3174 25.6712H22.6209V21.6712H13.3174V25.6712ZM24.9797 24.8755L33.2206 17.7145L30.5969 14.6951L22.356 21.8562L24.9797 24.8755ZM33.2206 17.7145L33.2206 47.2992H37.2206L37.2206 17.7145H33.2206ZM33.2206 47.2992L24.9796 40.138L22.3559 43.1573L30.5969 50.3185L33.2206 47.2992ZM33.2206 47.2992V47.2992L30.5969 50.3185C33.1861 52.5684 37.2206 50.7294 37.2206 47.2992H33.2206ZM33.2206 17.7145L33.2206 17.7145H37.2206C37.2206 14.2843 33.1861 12.4452 30.5969 14.6951L33.2206 17.7145ZM22.6209 25.6712C23.123 25.6712 24.1341 25.6103 24.9797 24.8755L22.356 21.8562C22.5047 21.7269 22.6411 21.6836 22.6861 21.6722C22.7235 21.6627 22.7118 21.6712 22.6209 21.6712V25.6712ZM22.6209 43.3423C22.7118 43.3423 22.7235 43.3509 22.686 43.3413C22.6411 43.3299 22.5047 43.2866 22.3559 43.1573L24.9796 40.138C24.1341 39.4032 23.123 39.3423 22.6209 39.3423V43.3423Z" fill="black" mask="url(#path-2-inside-1)"/>
<path d="M42.4737 26.4291C42.0832 26.0386 41.45 26.0386 41.0595 26.4291C40.669 26.8197 40.669 27.4528 41.0595 27.8433L42.4737 26.4291ZM51.2658 38.0496C51.6563 38.4401 52.2895 38.4401 52.68 38.0495C53.0706 37.659 53.0706 37.0259 52.68 36.6353L51.2658 38.0496ZM41.0595 27.8433L51.2658 38.0496L52.68 36.6353L42.4737 26.4291L41.0595 27.8433Z" fill="black"/>
<path d="M52.6798 27.8433C53.0703 27.4528 53.0703 26.8196 52.6798 26.4291C52.2892 26.0386 51.6561 26.0386 51.2655 26.4291L52.6798 27.8433ZM41.0593 36.6354C40.6688 37.026 40.6688 37.6591 41.0593 38.0497C41.4499 38.4402 42.083 38.4402 42.4736 38.0497L41.0593 36.6354ZM51.2655 26.4291L41.0593 36.6354L42.4736 38.0497L52.6798 27.8433L51.2655 26.4291Z" fill="black"/>
</svg>
