<svg width="66" height="66" viewBox="0 0 66 66" fill="none" xmlns="http://www.w3.org/2000/svg">
<rect x="1.49268" y="1.61462" width="63" height="63" rx="3" fill="#6F6FF1" stroke="black" stroke-width="2"/>
<mask id="path-2-inside-1" fill="white">
<path fill-rule="evenodd" clip-rule="evenodd" d="M23.6676 42.2555C23.3853 42.0102 22.995 41.9502 22.6209 41.9502H13.3174C12.2128 41.9502 11.3174 41.0547 11.3174 39.9502V26.279C11.3174 25.1745 12.2128 24.279 13.3174 24.279H22.6209C22.995 24.279 23.3854 24.2191 23.6678 23.9737L31.9087 16.8127C33.2033 15.6877 35.2205 16.6073 35.2205 18.3224L35.2205 47.9071C35.2205 49.6222 33.2032 50.5417 31.9087 49.4168L23.6676 42.2555Z"/>
</mask>
<path fill-rule="evenodd" clip-rule="evenodd" d="M23.6676 42.2555C23.3853 42.0102 22.995 41.9502 22.6209 41.9502H13.3174C12.2128 41.9502 11.3174 41.0547 11.3174 39.9502V26.279C11.3174 25.1745 12.2128 24.279 13.3174 24.279H22.6209C22.995 24.279 23.3854 24.2191 23.6678 23.9737L31.9087 16.8127C33.2033 15.6877 35.2205 16.6073 35.2205 18.3224L35.2205 47.9071C35.2205 49.6222 33.2032 50.5417 31.9087 49.4168L23.6676 42.2555Z" fill="#6F6FF1"/>
<path d="M31.9087 49.4168L33.2205 47.9071L31.9087 49.4168ZM31.9087 16.8127L30.5968 15.303L31.9087 16.8127ZM35.2205 18.3224H33.2205H35.2205ZM23.6676 42.2555L24.9794 40.7458L23.6676 42.2555ZM22.6209 39.9502H13.3174V43.9502H22.6209V39.9502ZM13.3174 39.9502H13.3174H9.31738C9.31738 42.1593 11.1082 43.9502 13.3174 43.9502V39.9502ZM13.3174 39.9502V26.279H9.31738V39.9502H13.3174ZM13.3174 26.279L13.3174 26.279V22.279C11.1082 22.279 9.31738 24.0699 9.31738 26.279H13.3174ZM13.3174 26.279H22.6209V22.279H13.3174V26.279ZM24.9796 25.4834L33.2205 18.3224L30.5968 15.303L22.356 22.464L24.9796 25.4834ZM33.2205 18.3224L33.2205 47.9071H37.2205L37.2205 18.3224H33.2205ZM33.2205 47.9071L24.9794 40.7458L22.3557 43.7651L30.5968 50.9264L33.2205 47.9071ZM33.2205 47.9071V47.9071L30.5968 50.9264C33.186 53.1763 37.2205 51.3373 37.2205 47.9071H33.2205ZM33.2205 18.3224L33.2205 18.3224H37.2205C37.2205 14.8922 33.186 13.0531 30.5968 15.303L33.2205 18.3224ZM22.6209 26.279C23.123 26.279 24.1341 26.2181 24.9796 25.4834L22.356 22.464C22.5047 22.3348 22.6411 22.2915 22.686 22.28C22.7235 22.2705 22.7118 22.279 22.6209 22.279V26.279ZM22.6209 43.9502C22.7117 43.9502 22.7234 43.9587 22.6859 43.9492C22.6409 43.9377 22.5045 43.8944 22.3557 43.7651L24.9794 40.7458C24.134 40.0111 23.123 39.9502 22.6209 39.9502V43.9502Z" fill="black" mask="url(#path-2-inside-1)"/>
<path d="M38.502 27.6737C40.5408 28.5549 41.9676 30.5841 41.9676 32.9465C41.9676 35.3089 40.5408 37.3381 38.502 38.2192" stroke="black" stroke-width="2" stroke-linecap="round"/>
<path d="M42.665 24.1276C46.0751 25.6014 48.4615 28.9952 48.4615 32.9464C48.4615 36.8976 46.0751 40.2915 42.665 41.7653" stroke="black" stroke-width="2" stroke-linecap="round"/>
<path d="M47.3037 20.5289C52.1054 22.6042 55.4656 27.383 55.4656 32.9466C55.4656 38.5102 52.1054 43.2889 47.3037 45.3642" stroke="black" stroke-width="2" stroke-linecap="round"/>
</svg>
