<svg width="272" height="56" viewBox="0 0 272 56" fill="none" xmlns="http://www.w3.org/2000/svg">
<rect x="1.3291" y="1" width="269" height="54" rx="3" fill="#FF4713" stroke="black" stroke-width="2"/>
<path d="M31.3501 37V27.874H41.7991V37H45.1201V15.859H41.7991V24.715H31.3501V15.859H28.0291V37H31.3501ZM61.3473 37V27.82C61.3473 26.848 61.2123 26.011 60.8613 25.228C59.9163 23.149 57.8913 22.285 55.4613 22.285C54.4083 22.285 53.3823 22.474 52.5453 22.852C50.5473 23.716 49.4403 25.552 49.3053 26.767L52.2213 27.415C52.4643 26.038 53.6253 25.039 55.3803 25.039C57.2703 25.039 58.2153 26.092 58.2153 27.226C58.2153 27.928 57.8373 28.441 56.8653 28.441H55.0833C52.5723 28.441 49.0893 29.494 49.0893 32.842V33.004C49.0893 35.488 51.1413 37.243 53.9493 37.243C55.2993 37.243 57.1353 36.784 58.1883 35.029V37H61.3473ZM58.1883 31.168C58.1883 33.328 56.7843 34.678 54.5973 34.678C53.2473 34.678 52.3023 33.895 52.3023 32.707C52.3023 31.357 53.8683 30.709 55.0833 30.709H58.1883V31.168ZM73.9076 31.789V37H77.1476V22.582H73.9076V28.981C72.6116 29.737 71.5046 30.007 70.2896 30.007C68.8046 30.007 67.8326 29.116 67.8326 27.631V22.582H64.5926V28.144C64.5926 31.438 66.8606 32.896 69.7496 32.896C71.2616 32.896 72.8816 32.275 73.9076 31.789ZM92.8034 37V27.82C92.8034 26.848 92.6684 26.011 92.3174 25.228C91.3724 23.149 89.3474 22.285 86.9174 22.285C85.8644 22.285 84.8384 22.474 84.0014 22.852C82.0034 23.716 80.8964 25.552 80.7614 26.767L83.6774 27.415C83.9204 26.038 85.0814 25.039 86.8364 25.039C88.7264 25.039 89.6714 26.092 89.6714 27.226C89.6714 27.928 89.2934 28.441 88.3214 28.441H86.5394C84.0284 28.441 80.5454 29.494 80.5454 32.842V33.004C80.5454 35.488 82.5974 37.243 85.4054 37.243C86.7554 37.243 88.5914 36.784 89.6444 35.029V37H92.8034ZM89.6444 31.168C89.6444 33.328 88.2404 34.678 86.0534 34.678C84.7034 34.678 83.7584 33.895 83.7584 32.707C83.7584 31.357 85.3244 30.709 86.5394 30.709H89.6444V31.168ZM99.8337 25.471V37H103.074V25.471H107.772V22.582H95.1627V25.471H99.8337ZM123.372 32.032C123.372 28.765 120.807 27.334 117.486 27.334H113.706V22.582H110.493V37H117.729C121.482 37 123.372 34.921 123.372 32.032ZM120.132 32.005C120.132 33.625 118.971 34.3 117.297 34.3H113.706V29.845H117.243C118.89 29.845 120.132 30.52 120.132 32.005ZM140.414 22.582H132.773V37H140.549C143.141 37 145.814 35.947 145.814 33.085C145.814 31.168 144.437 29.737 142.898 29.467C144.113 28.927 145.22 27.982 145.22 26.2C145.22 23.824 143.087 22.582 140.414 22.582ZM139.712 28.495H135.932V25.174H139.793C141.17 25.174 141.899 25.849 141.899 26.767C141.899 27.577 141.305 28.495 139.712 28.495ZM140.09 34.354H135.932V30.817H139.955C141.332 30.817 142.52 31.357 142.52 32.518C142.52 33.76 141.521 34.354 140.09 34.354ZM155.517 25.039C157.515 25.039 159.162 26.254 159.27 28.306H151.71C152.007 26.335 153.546 25.039 155.517 25.039ZM162.483 30.736C162.537 30.385 162.537 30.061 162.537 29.737C162.537 25.39 159.999 22.285 155.517 22.285C151.332 22.285 148.254 25.687 148.254 29.764C148.254 34.057 151.548 37.27 155.814 37.27C158.676 37.27 161.457 35.677 162.267 32.977L159.594 32.059C159 33.814 157.515 34.489 155.76 34.489C153.654 34.489 151.602 32.95 151.548 30.736H162.483ZM172.372 37.243C176.287 37.243 178.528 34.732 179.176 32.518L176.233 31.573C175.801 32.68 174.91 34.327 172.426 34.327C169.969 34.327 168.16 32.41 168.16 29.71C168.16 26.983 170.05 25.201 172.399 25.201C174.802 25.201 175.855 26.767 176.179 27.901L179.095 26.929C178.474 24.499 175.99 22.285 172.426 22.285C168.133 22.285 164.866 25.66 164.866 29.764C164.866 34.003 168.133 37.243 172.372 37.243ZM188.582 25.039C190.58 25.039 192.227 26.254 192.335 28.306H184.775C185.072 26.335 186.611 25.039 188.582 25.039ZM195.548 30.736C195.602 30.385 195.602 30.061 195.602 29.737C195.602 25.39 193.064 22.285 188.582 22.285C184.397 22.285 181.319 25.687 181.319 29.764C181.319 34.057 184.613 37.27 188.879 37.27C191.741 37.27 194.522 35.677 195.332 32.977L192.659 32.059C192.065 33.814 190.58 34.489 188.825 34.489C186.719 34.489 184.667 32.95 184.613 30.736H195.548ZM203.254 31.33L203.956 25.471H208.843V37H212.083V22.582H201.094L200.095 30.898C199.906 32.491 199.366 34.246 197.314 34.246V37.135H197.395C201.85 37.135 202.903 34.138 203.254 31.33ZM229.263 32.032C229.263 28.765 226.698 27.334 223.377 27.334H219.597V22.582H216.384V37H223.62C227.373 37 229.263 34.921 229.263 32.032ZM226.023 32.005C226.023 33.625 224.862 34.3 223.188 34.3H219.597V29.845H223.134C224.781 29.845 226.023 30.52 226.023 32.005ZM238.521 25.039C240.519 25.039 242.166 26.254 242.274 28.306H234.714C235.011 26.335 236.55 25.039 238.521 25.039ZM245.487 30.736C245.541 30.385 245.541 30.061 245.541 29.737C245.541 25.39 243.003 22.285 238.521 22.285C234.336 22.285 231.258 25.687 231.258 29.764C231.258 34.057 234.552 37.27 238.818 37.27C241.68 37.27 244.461 35.677 245.271 32.977L242.598 32.059C242.004 33.814 240.519 34.489 238.764 34.489C236.658 34.489 234.606 32.95 234.552 30.736H245.487Z" fill="white"/>
</svg>
