<svg width="66" height="66" viewBox="0 0 66 66" fill="none" xmlns="http://www.w3.org/2000/svg">
<circle cx="33.3159" cy="33.1146" r="31.5" fill="#6AD1CB" stroke="black" stroke-width="2"/>
<path d="M19.7031 24.3575C19.7031 18.6012 24.3695 13.9348 30.1259 13.9348C35.8822 13.9348 40.5486 18.6012 40.5486 24.3575V24.3575C40.5486 31.3973 30.1259 31.9622 30.1259 39.002V44.7752" stroke="black" stroke-width="2" stroke-linecap="round"/>
<path d="M19.9673 24.3575H23.8012C24.3535 24.3575 24.7962 23.9084 24.8485 23.3586C25.3512 18.0709 29.8046 13.9348 35.2239 13.9348C40.9803 13.9348 45.6467 18.6012 45.6467 24.3575V24.3575C45.6467 31.3973 35.2239 31.9622 35.2239 39.002V44.4191C35.2239 44.6158 35.0645 44.7752 34.8678 44.7752H30.1649" stroke="black" stroke-width="2" stroke-linecap="round"/>
<path d="M33.9565 49.7094H31.2261C30.6738 49.7094 30.2261 50.1571 30.2261 50.7094V53.0274C30.2261 53.5797 30.6738 54.0274 31.2261 54.0274H33.9565C34.5088 54.0274 34.9565 53.5797 34.9565 53.0274V50.7094C34.9565 50.1571 34.5088 49.7094 33.9565 49.7094Z" stroke="black" stroke-width="2"/>
</svg>
