<svg width="282" height="166" viewBox="0 0 282 166" fill="none" xmlns="http://www.w3.org/2000/svg">
<mask id="path-1-inside-1" fill="white">
<path fill-rule="evenodd" clip-rule="evenodd" d="M264.299 71.5794C264.095 71.3155 263.859 71.0782 263.596 70.873L174.674 1.48813C172.047 -0.561314 168.213 1.31021 168.213 4.64169V35.8088H4.32764C2.1185 35.8088 0.327637 37.5996 0.327637 39.8087V104.49C0.327637 105.402 0.639517 106.287 1.21155 106.998L18.4839 128.458C19.3443 129.527 20.6925 130.08 22.0558 129.924L168.213 113.163V140.385C168.213 141.293 168.522 142.174 169.089 142.883L185.781 163.757C187.156 165.476 189.661 165.761 191.387 164.395L278.039 95.8102C279.757 94.45 280.061 91.9603 278.721 90.2266L264.299 71.5794Z"/>
</mask>
<path fill-rule="evenodd" clip-rule="evenodd" d="M264.299 71.5794C264.095 71.3155 263.859 71.0782 263.596 70.873L174.674 1.48813C172.047 -0.561314 168.213 1.31021 168.213 4.64169V35.8088H4.32764C2.1185 35.8088 0.327637 37.5996 0.327637 39.8087V104.49C0.327637 105.402 0.639517 106.287 1.21155 106.998L18.4839 128.458C19.3443 129.527 20.6925 130.08 22.0558 129.924L168.213 113.163V140.385C168.213 141.293 168.522 142.174 169.089 142.883L185.781 163.757C187.156 165.476 189.661 165.761 191.387 164.395L278.039 95.8102C279.757 94.45 280.061 91.9603 278.721 90.2266L264.299 71.5794Z" fill="#FF9476"/>
<path d="M263.596 70.873L262.365 72.4498L263.596 70.873ZM264.299 71.5794L265.881 70.3559V70.3559L264.299 71.5794ZM174.674 1.48813L175.904 -0.0886571V-0.0886588L174.674 1.48813ZM168.213 35.8088V37.8088H170.213V35.8088H168.213ZM1.21155 106.998L2.76959 105.744L2.76959 105.744L1.21155 106.998ZM18.4839 128.458L20.042 127.204L20.042 127.204L18.4839 128.458ZM22.0558 129.924L21.8279 127.937H21.8279L22.0558 129.924ZM168.213 113.163H170.213V110.92L167.985 111.176L168.213 113.163ZM169.089 142.883L167.527 144.132L169.089 142.883ZM185.781 163.757L187.343 162.508L185.781 163.757ZM191.387 164.395L190.146 162.827L190.146 162.827L191.387 164.395ZM278.039 95.8102L276.798 94.2419V94.242L278.039 95.8102ZM278.721 90.2266L280.303 89.0031V89.0031L278.721 90.2266ZM262.365 72.4498C262.497 72.5524 262.615 72.6711 262.717 72.803L265.881 70.3559C265.575 69.96 265.22 69.604 264.826 69.2962L262.365 72.4498ZM173.443 3.06491L262.365 72.4498L264.826 69.2962L175.904 -0.0886571L173.443 3.06491ZM170.213 4.64169C170.213 2.97595 172.13 2.04019 173.443 3.06491L175.904 -0.0886588C171.964 -3.16281 166.213 -0.355541 166.213 4.64169H170.213ZM170.213 35.8088V4.64169H166.213V35.8088H170.213ZM4.32764 37.8088H168.213V33.8088H4.32764V37.8088ZM2.32764 39.8087C2.32764 38.7042 3.22307 37.8088 4.32764 37.8088V33.8088C1.01393 33.8088 -1.67236 36.495 -1.67236 39.8087H2.32764ZM2.32764 104.49V39.8087H-1.67236V104.49H2.32764ZM2.76959 105.744C2.48358 105.388 2.32764 104.946 2.32764 104.49H-1.67236C-1.67236 105.858 -1.20454 107.185 -0.346495 108.252L2.76959 105.744ZM20.042 127.204L2.76959 105.744L-0.346499 108.252L16.9259 129.712L20.042 127.204ZM21.8279 127.937C21.1463 128.015 20.4722 127.738 20.042 127.204L16.9259 129.712C18.2164 131.315 20.2388 132.145 22.2836 131.911L21.8279 127.937ZM167.985 111.176L21.8279 127.937L22.2836 131.911L168.441 115.15L167.985 111.176ZM170.213 140.385V113.163H166.213V140.385H170.213ZM170.651 141.634C170.367 141.28 170.213 140.839 170.213 140.385H166.213C166.213 141.747 166.676 143.069 167.527 144.132L170.651 141.634ZM187.343 162.508L170.651 141.634L167.527 144.132L184.219 165.006L187.343 162.508ZM190.146 162.827C189.283 163.51 188.03 163.368 187.343 162.508L184.219 165.006C186.281 167.585 190.039 168.013 192.629 165.963L190.146 162.827ZM276.798 94.242L190.146 162.827L192.629 165.963L279.28 97.3784L276.798 94.242ZM277.139 91.4502C277.809 92.317 277.657 93.5619 276.798 94.2419L279.28 97.3784C281.858 95.3381 282.314 91.6035 280.303 89.0031L277.139 91.4502ZM262.717 72.803L277.139 91.4502L280.303 89.0031L265.881 70.3559L262.717 72.803Z" fill="black" mask="url(#path-1-inside-1)"/>
<path d="M19.866 58.4026L3.55298 37.7969" stroke="black" stroke-width="2"/>
<path d="M19.8661 81.9871L1.37939 58.6357" stroke="black" stroke-width="2"/>
<path d="M48.2928 59.7757L29.8062 36.4243" stroke="black" stroke-width="2"/>
<path d="M76.7201 59.7757L58.2334 36.4243" stroke="black" stroke-width="2"/>
<path d="M105.147 59.7757L86.6606 36.4243" stroke="black" stroke-width="2"/>
<path d="M19.8661 104.46L1.37939 81.1089" stroke="black" stroke-width="2"/>
<path d="M186.347 59.382L167.823 35.9839" stroke="black" stroke-width="2"/>
<path d="M186.635 24.8944L169.247 2.93066" stroke="black" stroke-width="2"/>
<path d="M129.052 58.4026L112.739 37.7969" stroke="black" stroke-width="2"/>
<path d="M157.479 59.7757L138.993 36.4243" stroke="black" stroke-width="2"/>
<mask id="path-13-inside-2" fill="white">
<path fill-rule="evenodd" clip-rule="evenodd" d="M279.428 97.3079C281.545 95.7075 281.545 92.5271 279.428 90.9266L190.544 23.7234C187.909 21.7311 184.131 23.6107 184.131 26.914V56.2366H22.3794C20.1703 56.2366 18.3794 58.0275 18.3794 60.2366V127.997C18.3794 130.206 20.1703 131.997 22.3794 131.997H184.131V161.32C184.131 164.624 187.909 166.503 190.544 164.511L279.428 97.3079Z"/>
</mask>
<path fill-rule="evenodd" clip-rule="evenodd" d="M279.428 97.3079C281.545 95.7075 281.545 92.5271 279.428 90.9266L190.544 23.7234C187.909 21.7311 184.131 23.6107 184.131 26.914V56.2366H22.3794C20.1703 56.2366 18.3794 58.0275 18.3794 60.2366V127.997C18.3794 130.206 20.1703 131.997 22.3794 131.997H184.131V161.32C184.131 164.624 187.909 166.503 190.544 164.511L279.428 97.3079Z" fill="#FBFF3F"/>
<path d="M279.428 90.9266L280.635 89.3313L279.428 90.9266ZM279.428 97.3079L280.635 98.9033L279.428 97.3079ZM190.544 23.7234L191.75 22.128V22.128L190.544 23.7234ZM184.131 56.2366V58.2366H186.131V56.2366H184.131ZM184.131 131.997H186.131V129.997H184.131V131.997ZM190.544 164.511L191.75 166.107L190.544 164.511ZM278.222 92.5219C279.281 93.3222 279.281 94.9124 278.222 95.7126L280.635 98.9033C283.81 96.5026 283.81 91.732 280.635 89.3313L278.222 92.5219ZM189.337 25.3187L278.222 92.5219L280.635 89.3313L191.75 22.128L189.337 25.3187ZM186.131 26.914C186.131 25.2624 188.02 24.3226 189.337 25.3187L191.75 22.128C187.797 19.1397 182.131 21.959 182.131 26.914H186.131ZM186.131 56.2366V26.914H182.131V56.2366H186.131ZM22.3794 58.2366H184.131V54.2366H22.3794V58.2366ZM20.3794 60.2366C20.3794 59.132 21.2748 58.2366 22.3794 58.2366V54.2366C19.0657 54.2366 16.3794 56.9229 16.3794 60.2366H20.3794ZM20.3794 127.997V60.2366H16.3794V127.997H20.3794ZM22.3794 129.997C21.2748 129.997 20.3794 129.102 20.3794 127.997H16.3794C16.3794 131.311 19.0657 133.997 22.3794 133.997V129.997ZM184.131 129.997H22.3794V133.997H184.131V129.997ZM186.131 161.32V131.997H182.131V161.32H186.131ZM189.337 162.916C188.02 163.912 186.131 162.972 186.131 161.32H182.131C182.131 166.275 187.797 169.095 191.75 166.107L189.337 162.916ZM278.222 95.7126L189.337 162.916L191.75 166.107L280.635 98.9033L278.222 95.7126Z" fill="black" mask="url(#path-13-inside-2)"/>
<path d="M49.4047 99.9467C53.5447 99.9467 55.5967 97.0127 56.0467 95.2847L53.8687 94.5287C53.5627 95.5727 52.3747 97.8767 49.4587 97.8767C46.9567 97.8767 44.6527 95.8427 44.6527 92.7107C44.6527 89.5607 46.9927 87.5627 49.4587 87.5627C52.6447 87.5627 53.6347 89.9747 53.8327 90.8387L56.0107 90.1007C55.5247 88.1747 53.4547 85.4927 49.4947 85.4927C45.6607 85.4927 42.3127 88.5347 42.3127 92.7827C42.3127 97.3367 45.8587 99.9467 49.4047 99.9467ZM61.1002 96.0047L61.5682 92.0987H64.8262V99.7847H66.9862V90.1727H59.6602L58.9942 95.7167C58.8682 96.7787 58.5082 97.9487 57.1402 97.9487V99.8747H57.1942C60.1642 99.8747 60.8662 97.8767 61.1002 96.0047ZM74.0476 91.8107C75.3796 91.8107 76.4776 92.6207 76.5496 93.9887H71.5096C71.7076 92.6747 72.7336 91.8107 74.0476 91.8107ZM78.6916 95.6087C78.7276 95.3747 78.7276 95.1587 78.7276 94.9427C78.7276 92.0447 77.0356 89.9747 74.0476 89.9747C71.2576 89.9747 69.2056 92.2427 69.2056 94.9607C69.2056 97.8227 71.4016 99.9647 74.2456 99.9647C76.1536 99.9647 78.0076 98.9027 78.5476 97.1027L76.7656 96.4907C76.3696 97.6607 75.3796 98.1107 74.2096 98.1107C72.8056 98.1107 71.4376 97.0847 71.4016 95.6087H78.6916ZM81.9392 99.7847H89.1392V102.755H91.2452V97.8587H90.0212V90.1727H82.6412L82.0832 94.6907C81.9572 95.8967 81.3632 97.8947 79.8692 97.8947H79.8332V102.755H81.9392V99.7847ZM84.1892 94.8887L84.5492 92.0987H87.8612V97.8587H82.7672C83.6132 97.1747 84.0632 95.9507 84.1892 94.8887ZM91.852 90.1727L96.136 98.7047L93.49 104.519H95.776L102.382 90.1727H100.06L97.288 96.4727L94.3 90.1727H91.852ZM107.787 94.0607H106.149V90.1727H104.025V99.7847H106.149V95.8607H107.805C108.201 98.2547 110.091 99.9467 112.557 99.9467C115.383 99.9467 117.471 97.8047 117.471 94.9607C117.471 92.1167 115.419 89.9747 112.611 89.9747C110.109 89.9747 108.183 91.7027 107.787 94.0607ZM109.893 94.9607C109.893 93.2687 110.829 91.9187 112.575 91.9187C114.267 91.9187 115.293 93.3047 115.293 94.9607C115.293 96.6167 114.339 98.0027 112.611 98.0027C110.937 98.0027 109.893 96.6527 109.893 94.9607ZM121.865 97.8587V90.1727H119.723V99.7847H132.737V102.755H134.771V97.8587H133.529V90.1727H131.387V97.8587H127.679V90.1727H125.555V97.8587H121.865ZM144.598 99.7847V93.6647C144.598 93.0167 144.508 92.4587 144.274 91.9367C143.644 90.5507 142.294 89.9747 140.674 89.9747C139.972 89.9747 139.288 90.1007 138.73 90.3527C137.398 90.9287 136.66 92.1527 136.57 92.9627L138.514 93.3947C138.676 92.4767 139.45 91.8107 140.62 91.8107C141.88 91.8107 142.51 92.5127 142.51 93.2687C142.51 93.7367 142.258 94.0787 141.61 94.0787H140.422C138.748 94.0787 136.426 94.7807 136.426 97.0127V97.1207C136.426 98.7767 137.794 99.9467 139.666 99.9467C140.566 99.9467 141.79 99.6407 142.492 98.4707V99.7847H144.598ZM142.492 95.8967C142.492 97.3367 141.556 98.2367 140.098 98.2367C139.198 98.2367 138.568 97.7147 138.568 96.9227C138.568 96.0227 139.612 95.5907 140.422 95.5907H142.492V95.8967ZM149.083 99.7847L151.423 96.6167H153.403V99.7847H155.545V90.1727H150.721C148.093 90.1727 146.923 91.6307 146.923 93.3047C146.923 94.5827 147.553 95.6987 149.227 96.2387L146.527 99.7847H149.083ZM150.955 91.9727H153.403V94.9067H150.991C149.587 94.9067 149.083 94.1507 149.083 93.4127C149.083 92.2247 150.235 91.9727 150.955 91.9727ZM163.176 99.7847H165.318V95.3387H165.408L169.476 99.7847H172.374L167.676 94.7807L172.068 90.1727H169.224L165.408 94.2227H165.318V90.1727H163.176V99.7847ZM172.494 94.9607C172.494 97.8047 174.798 99.9467 177.57 99.9467C180.396 99.9467 182.628 97.7687 182.628 94.9247C182.628 92.0987 180.342 89.9747 177.588 89.9747C174.798 89.9747 172.494 92.1167 172.494 94.9607ZM174.69 94.9247C174.69 93.2687 175.842 91.9187 177.57 91.9187C179.316 91.9187 180.45 93.3047 180.45 94.9607C180.45 96.6167 179.334 98.0027 177.588 98.0027C175.842 98.0027 174.69 96.5627 174.69 94.9247ZM184.867 99.7847H186.955V92.6027L189.943 99.7847H191.527L194.461 92.5667V99.7847H196.567V90.1727H193.525L190.735 97.0667L187.891 90.1727H184.867V99.7847ZM201.582 99.7847V95.8607H205.938V99.7847H208.08V90.1727H205.938V93.9887H201.582V90.1727H199.44V99.7847H201.582ZM218.531 99.7847V93.6647C218.531 93.0167 218.441 92.4587 218.207 91.9367C217.577 90.5507 216.227 89.9747 214.607 89.9747C213.905 89.9747 213.221 90.1007 212.663 90.3527C211.331 90.9287 210.593 92.1527 210.503 92.9627L212.447 93.3947C212.609 92.4767 213.383 91.8107 214.553 91.8107C215.813 91.8107 216.443 92.5127 216.443 93.2687C216.443 93.7367 216.191 94.0787 215.543 94.0787H214.355C212.681 94.0787 210.359 94.7807 210.359 97.0127V97.1207C210.359 98.7767 211.727 99.9467 213.599 99.9467C214.499 99.9467 215.723 99.6407 216.425 98.4707V99.7847H218.531ZM216.425 95.8967C216.425 97.3367 215.489 98.2367 214.031 98.2367C213.131 98.2367 212.501 97.7147 212.501 96.9227C212.501 96.0227 213.545 95.5907 214.355 95.5907H216.425V95.8967ZM223.218 92.0987V99.7847H225.378V92.0987H228.51V90.1727H220.104V92.0987H223.218ZM237.691 99.7847V93.6647C237.691 93.0167 237.601 92.4587 237.367 91.9367C236.737 90.5507 235.387 89.9747 233.767 89.9747C233.065 89.9747 232.381 90.1007 231.823 90.3527C230.491 90.9287 229.753 92.1527 229.663 92.9627L231.607 93.3947C231.769 92.4767 232.543 91.8107 233.713 91.8107C234.973 91.8107 235.603 92.5127 235.603 93.2687C235.603 93.7367 235.351 94.0787 234.703 94.0787H233.515C231.841 94.0787 229.519 94.7807 229.519 97.0127V97.1207C229.519 98.7767 230.887 99.9467 232.759 99.9467C233.659 99.9467 234.883 99.6407 235.585 98.4707V99.7847H237.691ZM235.585 95.8967C235.585 97.3367 234.649 98.2367 233.191 98.2367C232.291 98.2367 231.661 97.7147 231.661 96.9227C231.661 96.0227 232.705 95.5907 233.515 95.5907H235.585V95.8967Z" fill="black"/>
</svg>
