<svg width="282" height="166" viewBox="0 0 282 166" fill="none" xmlns="http://www.w3.org/2000/svg">
<mask id="path-1-inside-1" fill="white">
<path fill-rule="evenodd" clip-rule="evenodd" d="M264.299 71.39C264.095 71.1261 263.859 70.8888 263.596 70.6835L174.674 1.29867C172.047 -0.750767 168.213 1.12075 168.213 4.45224V35.6193H4.32764C2.1185 35.6193 0.327637 37.4102 0.327637 39.6193V104.3C0.327637 105.212 0.639517 106.097 1.21155 106.808L18.4839 128.269C19.3443 129.337 20.6925 129.891 22.0558 129.734L168.213 112.973V140.196C168.213 141.104 168.522 141.985 169.089 142.694L185.781 163.568C187.156 165.287 189.661 165.572 191.387 164.206L278.039 95.6207C279.757 94.2606 280.061 91.7708 278.721 90.0372L264.299 71.39Z"/>
</mask>
<path fill-rule="evenodd" clip-rule="evenodd" d="M264.299 71.39C264.095 71.1261 263.859 70.8888 263.596 70.6835L174.674 1.29867C172.047 -0.750767 168.213 1.12075 168.213 4.45224V35.6193H4.32764C2.1185 35.6193 0.327637 37.4102 0.327637 39.6193V104.3C0.327637 105.212 0.639517 106.097 1.21155 106.808L18.4839 128.269C19.3443 129.337 20.6925 129.891 22.0558 129.734L168.213 112.973V140.196C168.213 141.104 168.522 141.985 169.089 142.694L185.781 163.568C187.156 165.287 189.661 165.572 191.387 164.206L278.039 95.6207C279.757 94.2606 280.061 91.7708 278.721 90.0372L264.299 71.39Z" fill="#2BB673"/>
<path d="M263.596 70.6835L262.365 72.2603L262.365 72.2603L263.596 70.6835ZM264.299 71.39L265.881 70.1664V70.1664L264.299 71.39ZM174.674 1.29867L175.904 -0.27811V-0.278112L174.674 1.29867ZM168.213 35.6193V37.6193H170.213V35.6193H168.213ZM1.21155 106.808L-0.346502 108.062H-0.346499L1.21155 106.808ZM18.4839 128.269L16.9259 129.523H16.9259L18.4839 128.269ZM22.0558 129.734L22.2836 131.721H22.2836L22.0558 129.734ZM168.213 112.973H170.213V110.731L167.985 110.986L168.213 112.973ZM169.089 142.694L167.527 143.943L169.089 142.694ZM185.781 163.568L187.343 162.318L185.781 163.568ZM191.387 164.206L190.146 162.638L190.146 162.638L191.387 164.206ZM278.039 95.6207L276.798 94.0525V94.0525L278.039 95.6207ZM278.721 90.0372L280.303 88.8136V88.8136L278.721 90.0372ZM262.365 72.2603C262.497 72.363 262.615 72.4816 262.717 72.6136L265.881 70.1664C265.575 69.7706 265.22 69.4146 264.826 69.1067L262.365 72.2603ZM173.443 2.87546L262.365 72.2603L264.826 69.1067L175.904 -0.27811L173.443 2.87546ZM170.213 4.45224C170.213 2.7865 172.13 1.85073 173.443 2.87546L175.904 -0.278112C171.964 -3.35227 166.213 -0.544994 166.213 4.45224H170.213ZM170.213 35.6193V4.45224H166.213V35.6193H170.213ZM4.32764 37.6193H168.213V33.6193H4.32764V37.6193ZM2.32764 39.6193C2.32764 38.5147 3.22307 37.6193 4.32764 37.6193V33.6193C1.01393 33.6193 -1.67236 36.3056 -1.67236 39.6193H2.32764ZM2.32764 104.3V39.6193H-1.67236V104.3H2.32764ZM2.76959 105.554C2.48358 105.199 2.32764 104.756 2.32764 104.3H-1.67236C-1.67236 105.669 -1.20454 106.996 -0.346502 108.062L2.76959 105.554ZM20.042 127.015L2.76959 105.554L-0.346499 108.062L16.9259 129.523L20.042 127.015ZM21.8279 127.748C21.1463 127.826 20.4722 127.549 20.042 127.015L16.9259 129.523C18.2164 131.126 20.2388 131.956 22.2836 131.721L21.8279 127.748ZM167.985 110.986L21.8279 127.748L22.2836 131.721L168.441 114.96L167.985 110.986ZM170.213 140.196V112.973H166.213V140.196H170.213ZM170.651 141.445C170.367 141.09 170.213 140.65 170.213 140.196H166.213C166.213 141.558 166.676 142.879 167.527 143.943L170.651 141.445ZM187.343 162.318L170.651 141.445L167.527 143.943L184.219 164.817L187.343 162.318ZM190.146 162.638C189.283 163.321 188.03 163.178 187.343 162.318L184.219 164.817C186.281 167.395 190.039 167.823 192.629 165.774L190.146 162.638ZM276.798 94.0525L190.146 162.638L192.629 165.774L279.28 97.1889L276.798 94.0525ZM277.139 91.2607C277.809 92.1275 277.657 93.3724 276.798 94.0525L279.28 97.1889C281.858 95.1487 282.314 91.4141 280.303 88.8136L277.139 91.2607ZM262.717 72.6135L277.139 91.2607L280.303 88.8136L265.881 70.1664L262.717 72.6135Z" fill="black" mask="url(#path-1-inside-1)"/>
<path d="M19.866 58.2132L3.55292 37.6074" stroke="black" stroke-width="2"/>
<path d="M19.8661 81.7977L1.37939 58.4463" stroke="black" stroke-width="2"/>
<path d="M48.2929 59.5862L29.8062 36.2349" stroke="black" stroke-width="2"/>
<path d="M76.7201 59.5862L58.2334 36.2349" stroke="black" stroke-width="2"/>
<path d="M105.147 59.5862L86.6605 36.2349" stroke="black" stroke-width="2"/>
<path d="M19.8661 104.271L1.37939 80.9194" stroke="black" stroke-width="2"/>
<path d="M186.347 59.1925L167.823 35.7944" stroke="black" stroke-width="2"/>
<path d="M186.635 24.705L169.247 2.74121" stroke="black" stroke-width="2"/>
<path d="M129.052 58.2132L112.739 37.6074" stroke="black" stroke-width="2"/>
<path d="M157.479 59.5862L138.993 36.2349" stroke="black" stroke-width="2"/>
<mask id="path-13-inside-2" fill="white">
<path fill-rule="evenodd" clip-rule="evenodd" d="M279.428 97.1185C281.545 95.518 281.545 92.3376 279.428 90.7371L190.544 23.5339C187.909 21.5417 184.131 23.4213 184.131 26.7246V56.0472H22.3794C20.1703 56.0472 18.3794 57.838 18.3794 60.0472V127.808C18.3794 130.017 20.1703 131.808 22.3794 131.808H184.131V161.131C184.131 164.434 187.909 166.314 190.544 164.322L279.428 97.1185Z"/>
</mask>
<path fill-rule="evenodd" clip-rule="evenodd" d="M279.428 97.1185C281.545 95.518 281.545 92.3376 279.428 90.7371L190.544 23.5339C187.909 21.5417 184.131 23.4213 184.131 26.7246V56.0472H22.3794C20.1703 56.0472 18.3794 57.838 18.3794 60.0472V127.808C18.3794 130.017 20.1703 131.808 22.3794 131.808H184.131V161.131C184.131 164.434 187.909 166.314 190.544 164.322L279.428 97.1185Z" fill="#4AE6D1"/>
<path d="M279.428 90.7371L280.635 89.1418L279.428 90.7371ZM279.428 97.1185L280.635 98.7138L279.428 97.1185ZM190.544 23.5339L191.75 21.9386V21.9386L190.544 23.5339ZM184.131 56.0472V58.0472H186.131V56.0472H184.131ZM184.131 131.808H186.131V129.808H184.131V131.808ZM190.544 164.322L191.75 165.917L190.544 164.322ZM278.222 92.3325C279.281 93.1327 279.281 94.7229 278.222 95.5232L280.635 98.7138C283.81 96.3131 283.81 91.5425 280.635 89.1418L278.222 92.3325ZM189.337 25.1292L278.222 92.3325L280.635 89.1418L191.75 21.9386L189.337 25.1292ZM186.131 26.7246C186.131 25.0729 188.02 24.1331 189.337 25.1292L191.75 21.9386C187.797 18.9502 182.131 21.7696 182.131 26.7246H186.131ZM186.131 56.0472V26.7246H182.131V56.0472H186.131ZM22.3794 58.0472H184.131V54.0472H22.3794V58.0472ZM20.3794 60.0472C20.3794 58.9426 21.2748 58.0472 22.3794 58.0472V54.0472C19.0657 54.0472 16.3794 56.7335 16.3794 60.0472H20.3794ZM20.3794 127.808V60.0472H16.3794V127.808H20.3794ZM22.3794 129.808C21.2748 129.808 20.3794 128.912 20.3794 127.808H16.3794C16.3794 131.121 19.0657 133.808 22.3794 133.808V129.808ZM184.131 129.808H22.3794V133.808H184.131V129.808ZM186.131 161.131V131.808H182.131V161.131H186.131ZM189.337 162.726C188.02 163.722 186.131 162.783 186.131 161.131H182.131C182.131 166.086 187.797 168.905 191.75 165.917L189.337 162.726ZM278.222 95.5232L189.337 162.726L191.75 165.917L280.635 98.7138L278.222 95.5232Z" fill="black" mask="url(#path-13-inside-2)"/>
<path d="M49.4047 99.7572C53.5447 99.7572 55.5967 96.8232 56.0467 95.0952L53.8687 94.3392C53.5627 95.3832 52.3747 97.6872 49.4587 97.6872C46.9567 97.6872 44.6527 95.6532 44.6527 92.5212C44.6527 89.3712 46.9927 87.3732 49.4587 87.3732C52.6447 87.3732 53.6347 89.7852 53.8327 90.6492L56.0107 89.9112C55.5247 87.9852 53.4547 85.3032 49.4947 85.3032C45.6607 85.3032 42.3127 88.3452 42.3127 92.5932C42.3127 97.1472 45.8587 99.7572 49.4047 99.7572ZM61.1002 95.8152L61.5682 91.9092H64.8262V99.5952H66.9862V89.9832H59.6602L58.9942 95.5272C58.8682 96.5892 58.5082 97.7592 57.1402 97.7592V99.6852H57.1942C60.1642 99.6852 60.8662 97.6872 61.1002 95.8152ZM74.0476 91.6212C75.3796 91.6212 76.4776 92.4312 76.5496 93.7992H71.5096C71.7076 92.4852 72.7336 91.6212 74.0476 91.6212ZM78.6916 95.4192C78.7276 95.1852 78.7276 94.9692 78.7276 94.7532C78.7276 91.8552 77.0356 89.7852 74.0476 89.7852C71.2576 89.7852 69.2056 92.0532 69.2056 94.7712C69.2056 97.6332 71.4016 99.7752 74.2456 99.7752C76.1536 99.7752 78.0076 98.7132 78.5476 96.9132L76.7656 96.3012C76.3696 97.4712 75.3796 97.9212 74.2096 97.9212C72.8056 97.9212 71.4376 96.8952 71.4016 95.4192H78.6916ZM81.9392 99.5952H89.1392V102.565H91.2452V97.6692H90.0212V89.9832H82.6412L82.0832 94.5012C81.9572 95.7072 81.3632 97.7052 79.8692 97.7052H79.8332V102.565H81.9392V99.5952ZM84.1892 94.6992L84.5492 91.9092H87.8612V97.6692H82.7672C83.6132 96.9852 84.0632 95.7612 84.1892 94.6992ZM91.852 89.9832L96.136 98.5152L93.49 104.329H95.776L102.382 89.9832H100.06L97.288 96.2832L94.3 89.9832H91.852ZM107.787 93.8712H106.149V89.9832H104.025V99.5952H106.149V95.6712H107.805C108.201 98.0652 110.091 99.7572 112.557 99.7572C115.383 99.7572 117.471 97.6152 117.471 94.7712C117.471 91.9272 115.419 89.7852 112.611 89.7852C110.109 89.7852 108.183 91.5132 107.787 93.8712ZM109.893 94.7712C109.893 93.0792 110.829 91.7292 112.575 91.7292C114.267 91.7292 115.293 93.1152 115.293 94.7712C115.293 96.4272 114.339 97.8132 112.611 97.8132C110.937 97.8132 109.893 96.4632 109.893 94.7712ZM121.865 97.6692V89.9832H119.723V99.5952H132.737V102.565H134.771V97.6692H133.529V89.9832H131.387V97.6692H127.679V89.9832H125.555V97.6692H121.865ZM144.598 99.5952V93.4752C144.598 92.8272 144.508 92.2692 144.274 91.7472C143.644 90.3612 142.294 89.7852 140.674 89.7852C139.972 89.7852 139.288 89.9112 138.73 90.1632C137.398 90.7392 136.66 91.9632 136.57 92.7732L138.514 93.2052C138.676 92.2872 139.45 91.6212 140.62 91.6212C141.88 91.6212 142.51 92.3232 142.51 93.0792C142.51 93.5472 142.258 93.8892 141.61 93.8892H140.422C138.748 93.8892 136.426 94.5912 136.426 96.8232V96.9312C136.426 98.5872 137.794 99.7572 139.666 99.7572C140.566 99.7572 141.79 99.4512 142.492 98.2812V99.5952H144.598ZM142.492 95.7072C142.492 97.1472 141.556 98.0472 140.098 98.0472C139.198 98.0472 138.568 97.5252 138.568 96.7332C138.568 95.8332 139.612 95.4012 140.422 95.4012H142.492V95.7072ZM149.083 99.5952L151.423 96.4272H153.403V99.5952H155.545V89.9832H150.721C148.093 89.9832 146.923 91.4412 146.923 93.1152C146.923 94.3932 147.553 95.5092 149.227 96.0492L146.527 99.5952H149.083ZM150.955 91.7832H153.403V94.7172H150.991C149.587 94.7172 149.083 93.9612 149.083 93.2232C149.083 92.0352 150.235 91.7832 150.955 91.7832ZM163.176 99.5952H165.318V95.1492H165.408L169.476 99.5952H172.374L167.676 94.5912L172.068 89.9832H169.224L165.408 94.0332H165.318V89.9832H163.176V99.5952ZM172.494 94.7712C172.494 97.6152 174.798 99.7572 177.57 99.7572C180.396 99.7572 182.628 97.5792 182.628 94.7352C182.628 91.9092 180.342 89.7852 177.588 89.7852C174.798 89.7852 172.494 91.9272 172.494 94.7712ZM174.69 94.7352C174.69 93.0792 175.842 91.7292 177.57 91.7292C179.316 91.7292 180.45 93.1152 180.45 94.7712C180.45 96.4272 179.334 97.8132 177.588 97.8132C175.842 97.8132 174.69 96.3732 174.69 94.7352ZM184.867 99.5952H186.955V92.4132L189.943 99.5952H191.527L194.461 92.3772V99.5952H196.567V89.9832H193.525L190.735 96.8772L187.891 89.9832H184.867V99.5952ZM201.582 99.5952V95.6712H205.938V99.5952H208.08V89.9832H205.938V93.7992H201.582V89.9832H199.44V99.5952H201.582ZM218.531 99.5952V93.4752C218.531 92.8272 218.441 92.2692 218.207 91.7472C217.577 90.3612 216.227 89.7852 214.607 89.7852C213.905 89.7852 213.221 89.9112 212.663 90.1632C211.331 90.7392 210.593 91.9632 210.503 92.7732L212.447 93.2052C212.609 92.2872 213.383 91.6212 214.553 91.6212C215.813 91.6212 216.443 92.3232 216.443 93.0792C216.443 93.5472 216.191 93.8892 215.543 93.8892H214.355C212.681 93.8892 210.359 94.5912 210.359 96.8232V96.9312C210.359 98.5872 211.727 99.7572 213.599 99.7572C214.499 99.7572 215.723 99.4512 216.425 98.2812V99.5952H218.531ZM216.425 95.7072C216.425 97.1472 215.489 98.0472 214.031 98.0472C213.131 98.0472 212.501 97.5252 212.501 96.7332C212.501 95.8332 213.545 95.4012 214.355 95.4012H216.425V95.7072ZM223.218 91.9092V99.5952H225.378V91.9092H228.51V89.9832H220.104V91.9092H223.218ZM237.691 99.5952V93.4752C237.691 92.8272 237.601 92.2692 237.367 91.7472C236.737 90.3612 235.387 89.7852 233.767 89.7852C233.065 89.7852 232.381 89.9112 231.823 90.1632C230.491 90.7392 229.753 91.9632 229.663 92.7732L231.607 93.2052C231.769 92.2872 232.543 91.6212 233.713 91.6212C234.973 91.6212 235.603 92.3232 235.603 93.0792C235.603 93.5472 235.351 93.8892 234.703 93.8892H233.515C231.841 93.8892 229.519 94.5912 229.519 96.8232V96.9312C229.519 98.5872 230.887 99.7572 232.759 99.7572C233.659 99.7572 234.883 99.4512 235.585 98.2812V99.5952H237.691ZM235.585 95.7072C235.585 97.1472 234.649 98.0472 233.191 98.0472C232.291 98.0472 231.661 97.5252 231.661 96.7332C231.661 95.8332 232.705 95.4012 233.515 95.4012H235.585V95.7072Z" fill="black"/>
</svg>
