<svg width="282" height="166" viewBox="0 0 282 166" fill="none" xmlns="http://www.w3.org/2000/svg">
<mask id="path-1-inside-1" fill="white">
<path fill-rule="evenodd" clip-rule="evenodd" d="M264.299 71.3895C264.095 71.1256 263.859 70.8883 263.596 70.683L174.674 1.29819C172.047 -0.751255 168.213 1.12027 168.213 4.45175V35.6188H4.32764C2.1185 35.6188 0.327637 37.4097 0.327637 39.6188V104.3C0.327637 105.212 0.639517 106.097 1.21155 106.808L18.4839 128.268C19.3443 129.337 20.6925 129.89 22.0558 129.734L168.213 112.973V140.195C168.213 141.103 168.522 141.984 169.089 142.693L185.781 163.567C187.156 165.286 189.661 165.572 191.387 164.205L278.039 95.6202C279.757 94.2601 280.061 91.7703 278.721 90.0367L264.299 71.3895Z"/>
</mask>
<path fill-rule="evenodd" clip-rule="evenodd" d="M264.299 71.3895C264.095 71.1256 263.859 70.8883 263.596 70.683L174.674 1.29819C172.047 -0.751255 168.213 1.12027 168.213 4.45175V35.6188H4.32764C2.1185 35.6188 0.327637 37.4097 0.327637 39.6188V104.3C0.327637 105.212 0.639517 106.097 1.21155 106.808L18.4839 128.268C19.3443 129.337 20.6925 129.89 22.0558 129.734L168.213 112.973V140.195C168.213 141.103 168.522 141.984 169.089 142.693L185.781 163.567C187.156 165.286 189.661 165.572 191.387 164.205L278.039 95.6202C279.757 94.2601 280.061 91.7703 278.721 90.0367L264.299 71.3895Z" fill="#FFF480"/>
<path d="M263.596 70.683L262.365 72.2598L262.365 72.2598L263.596 70.683ZM264.299 71.3895L265.881 70.166V70.1659L264.299 71.3895ZM174.674 1.29819L175.904 -0.278598V-0.2786L174.674 1.29819ZM168.213 35.6188V37.6188H170.213V35.6188H168.213ZM1.21155 106.808L-0.346502 108.062H-0.346499L1.21155 106.808ZM18.4839 128.268L16.9259 129.522H16.9259L18.4839 128.268ZM22.0558 129.734L22.2836 131.721H22.2836L22.0558 129.734ZM168.213 112.973H170.213V110.73L167.985 110.986L168.213 112.973ZM169.089 142.693L167.527 143.942L169.089 142.693ZM185.781 163.567L187.343 162.318L185.781 163.567ZM191.387 164.205L190.146 162.637L190.146 162.637L191.387 164.205ZM278.039 95.6202L276.798 94.052V94.052L278.039 95.6202ZM278.721 90.0367L280.303 88.8131V88.8131L278.721 90.0367ZM262.365 72.2598C262.497 72.3625 262.615 72.4811 262.717 72.6131L265.881 70.1659C265.575 69.7701 265.22 69.4141 264.826 69.1062L262.365 72.2598ZM173.443 2.87497L262.365 72.2598L264.826 69.1063L175.904 -0.278598L173.443 2.87497ZM170.213 4.45175C170.213 2.78601 172.13 1.85025 173.443 2.87497L175.904 -0.2786C171.964 -3.35276 166.213 -0.545482 166.213 4.45175H170.213ZM170.213 35.6188V4.45175H166.213V35.6188H170.213ZM4.32764 37.6188H168.213V33.6188H4.32764V37.6188ZM2.32764 39.6188C2.32764 38.5142 3.22307 37.6188 4.32764 37.6188V33.6188C1.01393 33.6188 -1.67236 36.3051 -1.67236 39.6188H2.32764ZM2.32764 104.3V39.6188H-1.67236V104.3H2.32764ZM2.76959 105.554C2.48358 105.198 2.32764 104.756 2.32764 104.3H-1.67236C-1.67236 105.668 -1.20454 106.995 -0.346502 108.062L2.76959 105.554ZM20.042 127.014L2.76959 105.554L-0.346499 108.062L16.9259 129.522L20.042 127.014ZM21.8279 127.747C21.1463 127.825 20.4722 127.549 20.042 127.014L16.9259 129.522C18.2164 131.125 20.2388 131.955 22.2836 131.721L21.8279 127.747ZM167.985 110.986L21.8279 127.747L22.2836 131.721L168.441 114.96L167.985 110.986ZM170.213 140.195V112.973H166.213V140.195H170.213ZM170.651 141.444C170.367 141.09 170.213 140.649 170.213 140.195H166.213C166.213 141.557 166.676 142.879 167.527 143.942L170.651 141.444ZM187.343 162.318L170.651 141.444L167.527 143.942L184.219 164.816L187.343 162.318ZM190.146 162.637C189.283 163.32 188.03 163.178 187.343 162.318L184.219 164.816C186.281 167.395 190.039 167.823 192.629 165.774L190.146 162.637ZM276.798 94.052L190.146 162.637L192.629 165.774L279.28 97.1884L276.798 94.052ZM277.139 91.2602C277.809 92.1271 277.657 93.3719 276.798 94.052L279.28 97.1885C281.858 95.1482 282.314 91.4136 280.303 88.8131L277.139 91.2602ZM262.717 72.6131L277.139 91.2602L280.303 88.8131L265.881 70.166L262.717 72.6131Z" fill="black" mask="url(#path-1-inside-1)"/>
<path d="M19.866 58.2127L3.55292 37.6069" stroke="black" stroke-width="2"/>
<path d="M19.8661 81.7972L1.37939 58.4458" stroke="black" stroke-width="2"/>
<path d="M48.2929 59.5857L29.8062 36.2344" stroke="black" stroke-width="2"/>
<path d="M76.7201 59.5857L58.2334 36.2344" stroke="black" stroke-width="2"/>
<path d="M105.147 59.5857L86.6605 36.2344" stroke="black" stroke-width="2"/>
<path d="M19.8661 104.27L1.37939 80.9189" stroke="black" stroke-width="2"/>
<path d="M186.347 59.192L167.823 35.7939" stroke="black" stroke-width="2"/>
<path d="M186.635 24.7045L169.247 2.74072" stroke="black" stroke-width="2"/>
<path d="M129.052 58.2127L112.739 37.6069" stroke="black" stroke-width="2"/>
<path d="M157.479 59.5857L138.993 36.2344" stroke="black" stroke-width="2"/>
<mask id="path-13-inside-2" fill="white">
<path fill-rule="evenodd" clip-rule="evenodd" d="M279.428 97.118C281.545 95.5175 281.545 92.3371 279.428 90.7366L190.544 23.5334C187.909 21.5412 184.131 23.4208 184.131 26.7241V56.0467H22.3794C20.1703 56.0467 18.3794 57.8375 18.3794 60.0467V127.807C18.3794 130.016 20.1703 131.807 22.3794 131.807H184.131V161.131C184.131 164.434 187.909 166.313 190.544 164.321L279.428 97.118Z"/>
</mask>
<path fill-rule="evenodd" clip-rule="evenodd" d="M279.428 97.118C281.545 95.5175 281.545 92.3371 279.428 90.7366L190.544 23.5334C187.909 21.5412 184.131 23.4208 184.131 26.7241V56.0467H22.3794C20.1703 56.0467 18.3794 57.8375 18.3794 60.0467V127.807C18.3794 130.016 20.1703 131.807 22.3794 131.807H184.131V161.131C184.131 164.434 187.909 166.313 190.544 164.321L279.428 97.118Z" fill="#4AE6D1"/>
<path d="M279.428 90.7366L280.635 89.1413L279.428 90.7366ZM279.428 97.118L280.635 98.7133L279.428 97.118ZM190.544 23.5334L191.75 21.9381V21.9381L190.544 23.5334ZM184.131 56.0467V58.0467H186.131V56.0467H184.131ZM184.131 131.807H186.131V129.807H184.131V131.807ZM190.544 164.321L191.75 165.917L190.544 164.321ZM278.222 92.332C279.281 93.1322 279.281 94.7224 278.222 95.5227L280.635 98.7133C283.81 96.3126 283.81 91.542 280.635 89.1413L278.222 92.332ZM189.337 25.1288L278.222 92.332L280.635 89.1413L191.75 21.9381L189.337 25.1288ZM186.131 26.7241C186.131 25.0724 188.02 24.1326 189.337 25.1288L191.75 21.9381C187.797 18.9498 182.131 21.7691 182.131 26.7241H186.131ZM186.131 56.0467V26.7241H182.131V56.0467H186.131ZM22.3794 58.0467H184.131V54.0467H22.3794V58.0467ZM20.3794 60.0467C20.3794 58.9421 21.2748 58.0467 22.3794 58.0467V54.0467C19.0657 54.0467 16.3794 56.733 16.3794 60.0467H20.3794ZM20.3794 127.807V60.0467H16.3794V127.807H20.3794ZM22.3794 129.807C21.2748 129.807 20.3794 128.912 20.3794 127.807H16.3794C16.3794 131.121 19.0657 133.807 22.3794 133.807V129.807ZM184.131 129.807H22.3794V133.807H184.131V129.807ZM186.131 161.131V131.807H182.131V161.131H186.131ZM189.337 162.726C188.02 163.722 186.131 162.782 186.131 161.131H182.131C182.131 166.086 187.797 168.905 191.75 165.917L189.337 162.726ZM278.222 95.5227L189.337 162.726L191.75 165.917L280.635 98.7133L278.222 95.5227Z" fill="black" mask="url(#path-13-inside-2)"/>
<path d="M49.3147 95.6887L54.3367 85.5007H51.9427L48.1987 93.3487L43.9867 85.5007H41.5207L47.0107 95.5087C46.4347 96.6967 45.4627 97.4347 44.1487 97.4347H42.7087V99.5947H44.3647C47.4607 99.5947 48.3787 97.5607 49.3147 95.6887ZM57.7072 99.7567C59.9212 99.7567 61.4872 98.6947 61.4872 96.8587C61.4872 95.7427 60.9832 95.0407 59.8492 94.5907V94.5727C60.7852 94.1767 61.3072 93.4207 61.3072 92.5387C61.3072 90.9187 59.9392 89.7847 57.6532 89.7847C56.0152 89.7847 54.3052 90.6307 53.9092 92.4487L55.7452 92.9347C56.0152 91.9807 56.7712 91.5127 57.6172 91.5127C58.6972 91.5127 59.1292 92.1067 59.1292 92.6827C59.1292 93.4027 58.6072 93.9247 57.6172 93.9247H56.3212V95.5447H57.6712C58.9132 95.5447 59.2912 96.0307 59.2912 96.7687C59.2912 97.4167 58.6792 98.0107 57.6712 98.0107C56.6452 98.0107 55.8892 97.3267 55.7092 96.4987L53.8732 96.9667C53.9992 98.0467 55.0792 99.7567 57.7072 99.7567ZM65.9311 99.5947V95.6707H70.2871V99.5947H72.4291V89.9827H70.2871V93.7987H65.9311V89.9827H63.7891V99.5947H65.9311ZM82.8808 99.5947V93.4747C82.8808 92.8267 82.7908 92.2687 82.5568 91.7467C81.9268 90.3607 80.5768 89.7847 78.9568 89.7847C78.2548 89.7847 77.5708 89.9107 77.0128 90.1627C75.6808 90.7387 74.9428 91.9627 74.8528 92.7727L76.7968 93.2047C76.9588 92.2867 77.7328 91.6207 78.9028 91.6207C80.1628 91.6207 80.7928 92.3227 80.7928 93.0787C80.7928 93.5467 80.5408 93.8887 79.8928 93.8887H78.7048C77.0308 93.8887 74.7088 94.5907 74.7088 96.8227V96.9307C74.7088 98.5867 76.0768 99.7567 77.9488 99.7567C78.8488 99.7567 80.0728 99.4507 80.7748 98.2807V99.5947H82.8808ZM80.7748 95.7067C80.7748 97.1467 79.8388 98.0467 78.3808 98.0467C77.4808 98.0467 76.8508 97.5247 76.8508 96.7327C76.8508 95.8327 77.8948 95.4007 78.7048 95.4007H80.7748V95.7067ZM87.5677 91.9087V99.5947H89.7277V91.9087H92.8597V89.9827H84.4537V91.9087H87.5677ZM103.26 96.2827C103.26 94.1047 101.55 93.1507 99.3359 93.1507H96.8159V89.9827H94.6739V99.5947H99.4979C102 99.5947 103.26 98.2087 103.26 96.2827ZM101.1 96.2647C101.1 97.3447 100.326 97.7947 99.2099 97.7947H96.8159V94.8247H99.1739C100.272 94.8247 101.1 95.2747 101.1 96.2647ZM119.553 94.7527C119.553 92.3407 117.789 89.8027 114.837 89.8027C113.991 89.8027 112.425 90.1627 111.615 91.4767V89.9827H109.527V104.329H111.669V98.1907C112.425 99.3607 114.045 99.7387 114.783 99.7387C117.627 99.7387 119.553 97.3627 119.553 94.7527ZM111.633 94.7707C111.633 93.1147 112.767 91.7287 114.513 91.7287C116.259 91.7287 117.393 93.1147 117.393 94.7707C117.393 96.4267 116.241 97.7947 114.513 97.7947C112.767 97.7947 111.633 96.4267 111.633 94.7707ZM125.973 91.6207C127.305 91.6207 128.403 92.4307 128.475 93.7987H123.435C123.633 92.4847 124.659 91.6207 125.973 91.6207ZM130.617 95.4187C130.653 95.1847 130.653 94.9687 130.653 94.7527C130.653 91.8547 128.961 89.7847 125.973 89.7847C123.183 89.7847 121.131 92.0527 121.131 94.7707C121.131 97.6327 123.327 99.7747 126.171 99.7747C128.079 99.7747 129.933 98.7127 130.473 96.9127L128.691 96.3007C128.295 97.4707 127.305 97.9207 126.135 97.9207C124.731 97.9207 123.363 96.8947 123.327 95.4187H130.617ZM135.86 99.7567C138.074 99.7567 139.64 98.6947 139.64 96.8587C139.64 95.7427 139.136 95.0407 138.002 94.5907V94.5727C138.938 94.1767 139.46 93.4207 139.46 92.5387C139.46 90.9187 138.092 89.7847 135.806 89.7847C134.168 89.7847 132.458 90.6307 132.062 92.4487L133.898 92.9347C134.168 91.9807 134.924 91.5127 135.77 91.5127C136.85 91.5127 137.282 92.1067 137.282 92.6827C137.282 93.4027 136.76 93.9247 135.77 93.9247H134.474V95.5447H135.824C137.066 95.5447 137.444 96.0307 137.444 96.7687C137.444 97.4167 136.832 98.0107 135.824 98.0107C134.798 98.0107 134.042 97.3267 133.862 96.4987L132.026 96.9667C132.152 98.0467 133.232 99.7567 135.86 99.7567ZM140.543 89.9827L144.827 98.5147L142.181 104.329H144.467L151.073 89.9827H148.751L145.979 96.2827L142.991 89.9827H140.543ZM155.003 95.8147L155.471 91.9087H158.729V99.5947H160.889V89.9827H153.563L152.897 95.5267C152.771 96.5887 152.411 97.7587 151.043 97.7587V99.6847H151.097C154.067 99.6847 154.769 97.6867 155.003 95.8147ZM172.342 96.2827C172.342 94.1047 170.632 93.1507 168.418 93.1507H165.898V89.9827H163.756V99.5947H168.58C171.082 99.5947 172.342 98.2087 172.342 96.2827ZM170.182 96.2647C170.182 97.3447 169.408 97.7947 168.292 97.7947H165.898V94.8247H168.256C169.354 94.8247 170.182 95.2747 170.182 96.2647ZM175.283 91.9087V99.5947H177.443V91.9087H180.575V89.9827H172.169V91.9087H175.283ZM189.756 99.5947V93.4747C189.756 92.8267 189.666 92.2687 189.432 91.7467C188.802 90.3607 187.452 89.7847 185.832 89.7847C185.13 89.7847 184.446 89.9107 183.888 90.1627C182.556 90.7387 181.818 91.9627 181.728 92.7727L183.672 93.2047C183.834 92.2867 184.608 91.6207 185.778 91.6207C187.038 91.6207 187.668 92.3227 187.668 93.0787C187.668 93.5467 187.416 93.8887 186.768 93.8887H185.58C183.906 93.8887 181.584 94.5907 181.584 96.8227V96.9307C181.584 98.5867 182.952 99.7567 184.824 99.7567C185.724 99.7567 186.948 99.4507 187.65 98.2807V99.5947H189.756ZM187.65 95.7067C187.65 97.1467 186.714 98.0467 185.256 98.0467C184.356 98.0467 183.726 97.5247 183.726 96.7327C183.726 95.8327 184.77 95.4007 185.58 95.4007H187.65V95.7067ZM194.443 91.9087V99.5947H196.603V91.9087H199.735V89.9827H191.329V91.9087H194.443Z" fill="black"/>
</svg>
